<svg
    width="21"
    height="24"
    viewBox="0 0 21 24"
    fill="none"
    xmlns="http://www.w3.org/2000/svg"
  >
    <path
      d="M6.20059 4.7C6.8081 4.7 7.30059 4.20751 7.30059 3.6C7.30059 2.99249 6.8081 2.5 6.20059 2.5C5.59307 2.5 5.10059 2.99249 5.10059 3.6C5.10059 4.20751 5.59307 4.7 6.20059 4.7Z"
      fill="white"
    ></path>
    <path
      d="M6.00039 6.7C6.6079 6.7 7.10039 6.20751 7.10039 5.6C7.10039 4.99249 6.6079 4.5 6.00039 4.5C5.39288 4.5 4.90039 4.99249 4.90039 5.6C4.90039 6.20751 5.39288 6.7 6.00039 6.7Z"
      fill="white"
    ></path>
    <path
      d="M14.1 6.60039C14.7075 6.60039 15.2 6.1079 15.2 5.50039C15.2 4.89288 14.7075 4.40039 14.1 4.40039C13.4925 4.40039 13 4.89288 13 5.50039C13 6.1079 13.4925 6.60039 14.1 6.60039Z"
      fill="white"
    ></path>
    <path
      d="M13.9008 4.7C14.5083 4.7 15.0008 4.20751 15.0008 3.6C15.0008 2.99249 14.5083 2.5 13.9008 2.5C13.2933 2.5 12.8008 2.99249 12.8008 3.6C12.8008 4.20751 13.2933 4.7 13.9008 4.7Z"
      fill="white"
    ></path>
    <path
      d="M12.8002 3.10039C13.4077 3.10039 13.9002 2.6079 13.9002 2.00039C13.9002 1.39288 13.4077 0.900391 12.8002 0.900391C12.1927 0.900391 11.7002 1.39288 11.7002 2.00039C11.7002 2.6079 12.1927 3.10039 12.8002 3.10039Z"
      fill="white"
    ></path>
    <path
      d="M11.0004 2.2C11.6079 2.2 12.1004 1.70751 12.1004 1.1C12.1004 0.492487 11.6079 0 11.0004 0C10.3929 0 9.90039 0.492487 9.90039 1.1C9.90039 1.70751 10.3929 2.2 11.0004 2.2Z"
      fill="white"
    ></path>
    <path
      d="M9.1 2.2C9.70751 2.2 10.2 1.70751 10.2 1.1C10.2 0.492487 9.70751 0 9.1 0C8.49249 0 8 0.492487 8 1.1C8 1.70751 8.49249 2.2 9.1 2.2Z"
      fill="white"
    ></path>
    <path
      d="M7.3002 3.10039C7.90771 3.10039 8.4002 2.6079 8.4002 2.00039C8.4002 1.39288 7.90771 0.900391 7.3002 0.900391C6.69268 0.900391 6.2002 1.39288 6.2002 2.00039C6.2002 2.6079 6.69268 3.10039 7.3002 3.10039Z"
      fill="white"
    ></path>
    <path
      d="M1.1 7.9998C1.70751 7.9998 2.2 7.50732 2.2 6.8998C2.2 6.29229 1.70751 5.7998 1.1 5.7998C0.492487 5.7998 0 6.29229 0 6.8998C0 7.50732 0.492487 7.9998 1.1 7.9998Z"
      fill="white"
    ></path>
    <path
      d="M3.1 7.9998C3.70751 7.9998 4.2 7.50732 4.2 6.8998C4.2 6.29229 3.70751 5.7998 3.1 5.7998C2.49249 5.7998 2 6.29229 2 6.8998C2 7.50732 2.49249 7.9998 3.1 7.9998Z"
      fill="white"
    ></path>
    <path
      d="M5.1 7.9998C5.70751 7.9998 6.2 7.50732 6.2 6.8998C6.2 6.29229 5.70751 5.7998 5.1 5.7998C4.49249 5.7998 4 6.29229 4 6.8998C4 7.50732 4.49249 7.9998 5.1 7.9998Z"
      fill="white"
    ></path>
    <path
      d="M7.1 7.9998C7.70751 7.9998 8.2 7.50732 8.2 6.8998C8.2 6.29229 7.70751 5.7998 7.1 5.7998C6.49249 5.7998 6 6.29229 6 6.8998C6 7.50732 6.49249 7.9998 7.1 7.9998Z"
      fill="white"
    ></path>
    <path
      d="M9.1 7.9998C9.70751 7.9998 10.2 7.50732 10.2 6.8998C10.2 6.29229 9.70751 5.7998 9.1 5.7998C8.49249 5.7998 8 6.29229 8 6.8998C8 7.50732 8.49249 7.9998 9.1 7.9998Z"
      fill="white"
    ></path>
    <path
      d="M11.1 7.9998C11.7075 7.9998 12.2 7.50732 12.2 6.8998C12.2 6.29229 11.7075 5.7998 11.1 5.7998C10.4925 5.7998 10 6.29229 10 6.8998C10 7.50732 10.4925 7.9998 11.1 7.9998Z"
      fill="white"
    ></path>
    <path
      d="M13.1 7.9998C13.7075 7.9998 14.2 7.50732 14.2 6.8998C14.2 6.29229 13.7075 5.7998 13.1 5.7998C12.4925 5.7998 12 6.29229 12 6.8998C12 7.50732 12.4925 7.9998 13.1 7.9998Z"
      fill="white"
    ></path>
    <path
      d="M15.1 7.9998C15.7075 7.9998 16.2 7.50732 16.2 6.8998C16.2 6.29229 15.7075 5.7998 15.1 5.7998C14.4925 5.7998 14 6.29229 14 6.8998C14 7.50732 14.4925 7.9998 15.1 7.9998Z"
      fill="white"
    ></path>
    <path
      d="M17.1 7.9998C17.7075 7.9998 18.2 7.50732 18.2 6.8998C18.2 6.29229 17.7075 5.7998 17.1 5.7998C16.4925 5.7998 16 6.29229 16 6.8998C16 7.50732 16.4925 7.9998 17.1 7.9998Z"
      fill="white"
    ></path>
    <path
      d="M19.1 7.9998C19.7075 7.9998 20.2 7.50732 20.2 6.8998C20.2 6.29229 19.7075 5.7998 19.1 5.7998C18.4925 5.7998 18 6.29229 18 6.8998C18 7.50732 18.4925 7.9998 19.1 7.9998Z"
      fill="white"
    ></path>
    <path
      d="M1.1 9.9998C1.70751 9.9998 2.2 9.50732 2.2 8.8998C2.2 8.29229 1.70751 7.7998 1.1 7.7998C0.492487 7.7998 0 8.29229 0 8.8998C0 9.50732 0.492487 9.9998 1.1 9.9998Z"
      fill="white"
    ></path>
    <path
      d="M1.1 11.9998C1.70751 11.9998 2.2 11.5073 2.2 10.8998C2.2 10.2923 1.70751 9.7998 1.1 9.7998C0.492487 9.7998 0 10.2923 0 10.8998C0 11.5073 0.492487 11.9998 1.1 11.9998Z"
      fill="white"
    ></path>
    <path
      d="M1.1 13.9998C1.70751 13.9998 2.2 13.5073 2.2 12.8998C2.2 12.2923 1.70751 11.7998 1.1 11.7998C0.492487 11.7998 0 12.2923 0 12.8998C0 13.5073 0.492487 13.9998 1.1 13.9998Z"
      fill="white"
    ></path>
    <path
      d="M1.1 15.9998C1.70751 15.9998 2.2 15.5073 2.2 14.8998C2.2 14.2923 1.70751 13.7998 1.1 13.7998C0.492487 13.7998 0 14.2923 0 14.8998C0 15.5073 0.492487 15.9998 1.1 15.9998Z"
      fill="white"
    ></path>
    <path
      d="M1.1 17.9998C1.70751 17.9998 2.2 17.5073 2.2 16.8998C2.2 16.2923 1.70751 15.7998 1.1 15.7998C0.492487 15.7998 0 16.2923 0 16.8998C0 17.5073 0.492487 17.9998 1.1 17.9998Z"
      fill="white"
    ></path>
    <path
      d="M1.1 19.9998C1.70751 19.9998 2.2 19.5073 2.2 18.8998C2.2 18.2923 1.70751 17.7998 1.1 17.7998C0.492487 17.7998 0 18.2923 0 18.8998C0 19.5073 0.492487 19.9998 1.1 19.9998Z"
      fill="white"
    ></path>
    <path
      d="M1.1 21.9998C1.70751 21.9998 2.2 21.5073 2.2 20.8998C2.2 20.2923 1.70751 19.7998 1.1 19.7998C0.492487 19.7998 0 20.2923 0 20.8998C0 21.5073 0.492487 21.9998 1.1 21.9998Z"
      fill="white"
    ></path>
    <path
      d="M1.1 23.9998C1.70751 23.9998 2.2 23.5073 2.2 22.8998C2.2 22.2923 1.70751 21.7998 1.1 21.7998C0.492487 21.7998 0 22.2923 0 22.8998C0 23.5073 0.492487 23.9998 1.1 23.9998Z"
      fill="white"
    ></path>
    <path
      d="M19.1 7.9998C19.7075 7.9998 20.2 7.50732 20.2 6.8998C20.2 6.29229 19.7075 5.7998 19.1 5.7998C18.4925 5.7998 18 6.29229 18 6.8998C18 7.50732 18.4925 7.9998 19.1 7.9998Z"
      fill="white"
    ></path>
    <path
      d="M19.1 7.9998C19.7075 7.9998 20.2 7.50732 20.2 6.8998C20.2 6.29229 19.7075 5.7998 19.1 5.7998C18.4925 5.7998 18 6.29229 18 6.8998C18 7.50732 18.4925 7.9998 19.1 7.9998Z"
      fill="white"
    ></path>
    <path
      d="M19.1 9.9998C19.7075 9.9998 20.2 9.50732 20.2 8.8998C20.2 8.29229 19.7075 7.7998 19.1 7.7998C18.4925 7.7998 18 8.29229 18 8.8998C18 9.50732 18.4925 9.9998 19.1 9.9998Z"
      fill="white"
    ></path>
    <path
      d="M19.1 11.9998C19.7075 11.9998 20.2 11.5073 20.2 10.8998C20.2 10.2923 19.7075 9.7998 19.1 9.7998C18.4925 9.7998 18 10.2923 18 10.8998C18 11.5073 18.4925 11.9998 19.1 11.9998Z"
      fill="white"
    ></path>
    <path
      d="M19.1 13.9998C19.7075 13.9998 20.2 13.5073 20.2 12.8998C20.2 12.2923 19.7075 11.7998 19.1 11.7998C18.4925 11.7998 18 12.2923 18 12.8998C18 13.5073 18.4925 13.9998 19.1 13.9998Z"
      fill="white"
    ></path>
    <path
      d="M19.1 15.9998C19.7075 15.9998 20.2 15.5073 20.2 14.8998C20.2 14.2923 19.7075 13.7998 19.1 13.7998C18.4925 13.7998 18 14.2923 18 14.8998C18 15.5073 18.4925 15.9998 19.1 15.9998Z"
      fill="white"
    ></path>
    <path
      d="M19.1 17.9998C19.7075 17.9998 20.2 17.5073 20.2 16.8998C20.2 16.2923 19.7075 15.7998 19.1 15.7998C18.4925 15.7998 18 16.2923 18 16.8998C18 17.5073 18.4925 17.9998 19.1 17.9998Z"
      fill="white"
    ></path>
    <path
      d="M19.1 19.9998C19.7075 19.9998 20.2 19.5073 20.2 18.8998C20.2 18.2923 19.7075 17.7998 19.1 17.7998C18.4925 17.7998 18 18.2923 18 18.8998C18 19.5073 18.4925 19.9998 19.1 19.9998Z"
      fill="white"
    ></path>
    <path
      d="M19.1 21.9998C19.7075 21.9998 20.2 21.5073 20.2 20.8998C20.2 20.2923 19.7075 19.7998 19.1 19.7998C18.4925 19.7998 18 20.2923 18 20.8998C18 21.5073 18.4925 21.9998 19.1 21.9998Z"
      fill="white"
    ></path>
    <path
      d="M19.1 23.9998C19.7075 23.9998 20.2 23.5073 20.2 22.8998C20.2 22.2923 19.7075 21.7998 19.1 21.7998C18.4925 21.7998 18 22.2923 18 22.8998C18 23.5073 18.4925 23.9998 19.1 23.9998Z"
      fill="white"
    ></path>
    <path
      d="M19.1 23.9998C19.7075 23.9998 20.2 23.5073 20.2 22.8998C20.2 22.2923 19.7075 21.7998 19.1 21.7998C18.4925 21.7998 18 22.2923 18 22.8998C18 23.5073 18.4925 23.9998 19.1 23.9998Z"
      fill="white"
    ></path>
    <path
      d="M3.1 23.9998C3.70751 23.9998 4.2 23.5073 4.2 22.8998C4.2 22.2923 3.70751 21.7998 3.1 21.7998C2.49249 21.7998 2 22.2923 2 22.8998C2 23.5073 2.49249 23.9998 3.1 23.9998Z"
      fill="white"
    ></path>
    <path
      d="M5.1 23.9998C5.70751 23.9998 6.2 23.5073 6.2 22.8998C6.2 22.2923 5.70751 21.7998 5.1 21.7998C4.49249 21.7998 4 22.2923 4 22.8998C4 23.5073 4.49249 23.9998 5.1 23.9998Z"
      fill="white"
    ></path>
    <path
      d="M7.1 23.9998C7.70751 23.9998 8.2 23.5073 8.2 22.8998C8.2 22.2923 7.70751 21.7998 7.1 21.7998C6.49249 21.7998 6 22.2923 6 22.8998C6 23.5073 6.49249 23.9998 7.1 23.9998Z"
      fill="white"
    ></path>
    <path
      d="M9.1 23.9998C9.70751 23.9998 10.2 23.5073 10.2 22.8998C10.2 22.2923 9.70751 21.7998 9.1 21.7998C8.49249 21.7998 8 22.2923 8 22.8998C8 23.5073 8.49249 23.9998 9.1 23.9998Z"
      fill="white"
    ></path>
    <path
      d="M11.1 23.9998C11.7075 23.9998 12.2 23.5073 12.2 22.8998C12.2 22.2923 11.7075 21.7998 11.1 21.7998C10.4925 21.7998 10 22.2923 10 22.8998C10 23.5073 10.4925 23.9998 11.1 23.9998Z"
      fill="white"
    ></path>
    <path
      d="M13.1 23.9998C13.7075 23.9998 14.2 23.5073 14.2 22.8998C14.2 22.2923 13.7075 21.7998 13.1 21.7998C12.4925 21.7998 12 22.2923 12 22.8998C12 23.5073 12.4925 23.9998 13.1 23.9998Z"
      fill="white"
    ></path>
    <path
      d="M15.1 23.9998C15.7075 23.9998 16.2 23.5073 16.2 22.8998C16.2 22.2923 15.7075 21.7998 15.1 21.7998C14.4925 21.7998 14 22.2923 14 22.8998C14 23.5073 14.4925 23.9998 15.1 23.9998Z"
      fill="white"
    ></path>
    <path
      d="M17.1 23.9998C17.7075 23.9998 18.2 23.5073 18.2 22.8998C18.2 22.2923 17.7075 21.7998 17.1 21.7998C16.4925 21.7998 16 22.2923 16 22.8998C16 23.5073 16.4925 23.9998 17.1 23.9998Z"
      fill="white"
    ></path>
    <path
      d="M19.1 23.9998C19.7075 23.9998 20.2 23.5073 20.2 22.8998C20.2 22.2923 19.7075 21.7998 19.1 21.7998C18.4925 21.7998 18 22.2923 18 22.8998C18 23.5073 18.4925 23.9998 19.1 23.9998Z"
      fill="white"
    ></path>
  </svg>