<svg
  width="27"
  height="32"
  viewBox="0 0 27 32"
  fill="none"
  xmlns="http://www.w3.org/2000/svg"
  class="mx-auto"
  >
  <g clip-path="url(#clip0_264_250)">
    <path
      d="M13.4682 31.9997C20.9012 31.9997 26.9365 25.8953 26.9365 18.3772C26.9365 10.8591 20.9012 4.69043 13.4682 4.69043C11.0541 4.69043 8.70353 5.333 6.67059 6.55388C6.03529 6.93943 5.84471 7.71051 6.22588 8.35308C6.60706 8.99565 7.36941 9.18842 8.00471 8.80288C9.65647 7.83902 11.5624 7.32497 13.4682 7.32497C19.44 7.32497 24.3318 12.2728 24.3318 18.3129C24.3318 24.3531 19.44 29.3009 13.4682 29.3009C7.49647 29.3009 2.60471 24.3531 2.60471 18.3129C2.60471 16.9635 2.85882 15.6784 3.30353 14.3932C3.55765 13.6864 3.24 12.9153 2.54118 12.6583C1.90588 12.4655 1.14353 12.8511 0.889412 13.4936C0.317647 15.0358 0 16.7065 0 18.3772C0 25.8953 6.0353 31.9997 13.4682 31.9997Z"
      fill="white"
    />
    <path
      d="M13.0235 10.2168C12.6423 10.4095 12.5153 10.8593 12.7059 11.2449C12.8964 11.6304 13.3412 11.7589 13.7223 11.5662C14.1035 11.3734 14.2306 10.8593 14.04 10.538C13.9129 10.0882 13.4047 9.95973 13.0235 10.2168ZM11.4988 9.70271C11.1176 9.89548 10.9906 10.3453 11.1812 10.7308C11.3717 11.1164 11.8164 11.2449 12.1976 11.0521C12.5788 10.8593 12.7059 10.4095 12.5153 10.024C12.3247 9.63845 11.88 9.50994 11.4988 9.70271ZM5.39997 7.77499C5.08233 8.03202 4.89174 8.48182 5.08233 8.86736C5.27292 9.25291 5.71762 9.38142 6.0988 9.18865L6.5435 8.99588C6.5435 9.12439 6.5435 9.25291 6.60703 9.38142C6.79762 9.76696 7.24233 9.89548 7.6235 9.70271L8.06821 9.50993C8.06821 9.63845 8.06821 9.76696 8.13174 9.89548C8.32233 10.281 8.76703 10.4095 9.14821 10.2168L9.59292 10.024C9.59292 10.1525 9.65645 10.281 9.71997 10.4095C9.91056 10.7951 10.3553 10.9236 10.7364 10.7308C11.1176 10.538 11.2447 10.0882 11.0541 9.70271C10.927 9.50994 10.8 9.38142 10.5459 9.31716C10.6094 9.12439 10.6094 8.86736 10.4823 8.67459C10.2917 8.28905 9.84703 8.16054 9.46586 8.35331L9.02115 8.54608C9.02115 8.41757 8.95762 8.28905 8.89409 8.16054C8.7035 7.77499 8.2588 7.64648 7.87762 7.83925L7.43292 8.09628C7.43292 7.96777 7.43292 7.83925 7.36939 7.71074C7.30586 7.58222 7.24233 7.45371 7.11527 7.38945L7.55997 7.13242C7.94115 6.93965 8.06821 6.48985 7.87762 6.10431C7.81409 5.91154 7.75056 5.84728 7.6235 5.78303L8.06821 5.59026C8.44939 5.39748 8.57644 4.94769 8.38586 4.56214C8.2588 4.36937 8.13174 4.24086 7.87762 4.1766C7.94115 3.98383 7.94115 3.79106 7.81409 3.59829C7.6235 3.21275 7.1788 3.08423 6.79762 3.277C6.41644 3.46977 6.28939 3.91957 6.47997 4.30512C6.5435 4.43363 6.60703 4.49789 6.73409 4.56214L6.35292 4.69066C5.97174 4.94769 5.84468 5.39748 6.03527 5.78303C6.0988 5.91154 6.22586 5.9758 6.28939 6.04005L5.90821 6.23283C5.52703 6.4256 5.39997 6.93965 5.59056 7.26094C5.65409 7.38945 5.78115 7.45371 5.84468 7.51797L5.39997 7.77499ZM8.2588 1.9276C8.06821 1.54206 7.6235 1.41355 7.24233 1.60632C6.86115 1.79909 6.73409 2.24889 6.92468 2.63443C7.11527 3.01997 7.55997 3.14849 7.94115 2.95572C8.38586 2.76295 8.51292 2.31315 8.2588 1.9276ZM8.44939 1.41355C8.83056 1.22078 8.95762 0.770978 8.76703 0.385436C8.57644 -0.000106052 8.13174 -0.12862 7.75056 0.064151C7.36939 0.256922 7.24233 0.706721 7.43292 1.09226C7.6235 1.47781 8.06821 1.67058 8.44939 1.41355Z"
      fill="white"
    />
  </g>
  <defs>
    <clipPath id="clip0_264_250">
      <rect width="27" height="32" fill="white" />
    </clipPath>
  </defs>
  </svg>