<svg
            width="25"
            height="24"
            viewBox="0 0 25 24"
            fill="none"
            xmlns="http://www.w3.org/2000/svg"
            class="mx-auto"
          >
            <g clip-path="url(#clip0_264_256)">
              <path
                d="M19.0583 22.6051H24.7758C24.8879 22.3818 24.9439 22.1586 24.9439 21.8795C24.9439 21.1539 24.1592 20.54 23.2063 20.54H22.0291C22.1973 20.3167 22.3094 20.0935 22.3094 19.8144C22.3094 19.0888 21.5247 18.4749 20.5717 18.4749H19.3946C19.5628 18.2516 19.6749 18.0284 19.6749 17.7493C19.6749 17.3586 19.3946 17.0237 19.1143 16.7446C19.4507 16.5214 19.6749 16.0749 19.6749 15.6842C19.6749 14.9586 18.8901 14.3446 17.9372 14.3446H16.7601C16.9283 14.1214 17.0404 13.8981 17.0404 13.6191C17.0404 12.8935 16.2556 12.2795 15.3027 12.2795H14.1256C14.2937 12.0563 14.4058 11.833 14.4058 11.5539C14.4058 10.8284 13.6211 10.1586 12.6121 10.1586H11.491C11.6031 9.93533 11.7713 9.76789 11.7713 9.48882C11.7713 9.09812 11.491 8.70743 11.2108 8.42836C11.5471 8.2051 11.7713 7.8144 11.7713 7.42371C11.7713 6.69812 10.9865 6.02836 9.97758 6.02836H8.8565C8.96861 5.8051 9.13677 5.63766 9.13677 5.35859C9.13677 4.57719 8.29596 3.96324 7.34305 3.96324H6.22197C6.33408 3.73998 6.50224 3.51673 6.50224 3.23766C6.50224 3.0144 6.39013 2.79115 6.22197 2.56789H5.54933C6.5583 2.56789 7.34305 1.95394 7.34305 1.17254C7.34305 0.446961 6.5583 -0.166992 5.54933 -0.166992H1.79372C0.840807 0.000449687 0 0.614403 0 1.33998C0 2.12138 0.840807 2.73533 1.79372 2.73533H0.504484C0.392377 2.95859 0.280269 3.18185 0.280269 3.4051C0.280269 4.1865 1.06502 4.80045 2.01794 4.80045H3.13901C3.02691 5.02371 2.9148 5.24696 2.9148 5.52603C2.9148 6.25161 3.69955 6.86557 4.65247 6.86557H5.8296C5.66143 7.08882 5.54933 7.31208 5.54933 7.59115C5.54933 7.98185 5.71749 8.31673 6.10987 8.5958C5.71749 8.81905 5.54933 9.26557 5.54933 9.65626C5.54933 10.3818 6.33408 10.9958 7.287 10.9958H8.46413C8.29596 11.2191 8.18386 11.4423 8.18386 11.7214C8.18386 12.447 8.96861 13.0609 9.92153 13.0609H11.0987C10.9305 13.2842 10.8184 13.5074 10.8184 13.7865C10.8184 14.5121 11.6031 15.126 12.5561 15.126H13.7332C13.6211 15.3493 13.4529 15.5725 13.4529 15.8516C13.4529 16.2423 13.7332 16.633 14.0135 16.9121C13.6771 17.1353 13.4529 17.526 13.4529 17.9167C13.4529 18.6423 14.2377 19.3121 15.2466 19.3121H16.3677C16.2556 19.5353 16.0874 19.7028 16.0874 19.9818C16.0874 20.7074 16.9283 21.3772 17.8812 21.3772H19.0022C18.8901 21.6005 18.722 21.7679 18.722 22.047"
                fill="white"
              />
              <path
                d="M22.926 20.54C22.926 20.7633 23.0381 21.0424 23.2063 21.2656H19.4507C18.4417 21.2656 17.657 21.8796 17.657 22.6052C17.657 23.3866 18.4417 24.0005 19.4507 24.0005H23.2063C24.1592 24.0005 25 23.3866 25 22.6052C25 21.8796 24.1592 21.2656 23.2063 21.2656"
                fill="white"
              />
              <path
                d="M5.9417 22.6047H0.224215C0.0560538 22.4372 0 22.1581 0 21.9349C0 21.2093 0.784753 20.5953 1.73767 20.5953H2.9148C2.74664 20.3721 2.63453 20.1488 2.63453 19.8698C2.63453 19.1442 3.41928 18.5302 4.3722 18.5302H5.54933C5.38117 18.307 5.26906 18.0837 5.26906 17.8046C5.26906 17.414 5.54933 17.0791 5.8296 16.8C5.49327 16.5767 5.26906 16.1302 5.26906 15.7395C5.26906 15.014 6.05381 14.4 7.00673 14.4H8.18386C8.0157 14.1767 7.90359 13.9535 7.90359 13.6744C7.90359 12.9488 8.68834 12.3349 9.64126 12.3349H10.8184C10.6502 12.1116 10.5381 11.8884 10.5381 11.6093C10.5381 10.8837 11.3229 10.214 12.3318 10.214H13.4529C13.3408 9.9907 13.1726 9.82326 13.1726 9.54419C13.1726 9.15349 13.4529 8.76279 13.7332 8.48372C13.3969 8.26046 13.1726 7.86977 13.1726 7.47907C13.1726 6.75349 13.9574 6.08372 14.9664 6.08372H16.0874C15.9753 5.86046 15.8072 5.69302 15.8072 5.41395C15.8072 4.63256 16.648 4.0186 17.6009 4.0186H18.722C18.6099 3.90698 18.4978 3.62791 18.4978 3.40465C18.4978 3.1814 18.6099 2.95814 18.778 2.73488H19.4507C18.4417 2.73488 17.6569 2.12093 17.6569 1.33953C17.6569 0.613954 18.4417 0 19.4507 0H23.2063C24.1592 0 25 0.613954 25 1.33953C25 2.12093 24.1592 2.73488 23.2063 2.73488H24.4955C24.6076 2.95814 24.6637 3.1814 24.6637 3.40465C24.6637 4.18605 23.8789 4.8 22.926 4.8H21.8049C21.917 5.02326 21.9731 5.24651 21.9731 5.52558C21.9731 6.25116 21.1883 6.86512 20.2354 6.86512H19.0583C19.2265 7.08837 19.3386 7.31163 19.3386 7.5907C19.3386 7.9814 19.1704 8.31628 18.778 8.59535C19.1704 8.8186 19.3386 9.26512 19.3386 9.65581C19.3386 10.3814 18.5538 10.9953 17.6009 10.9953H16.4238C16.5919 11.2186 16.704 11.4419 16.704 11.7209C16.704 12.4465 15.9193 13.0605 14.9664 13.0605H13.7892C13.9574 13.2837 14.0695 13.507 14.0695 13.786C14.0695 14.5116 13.2848 15.1256 12.3318 15.1256H11.2108C11.3229 15.3488 11.491 15.5721 11.491 15.8512C11.491 16.2419 11.2108 16.6326 10.9305 16.9116C11.2668 17.1349 11.491 17.5256 11.491 17.9163C11.491 18.6419 10.7063 19.3116 9.69731 19.3116H8.57623C8.68834 19.5349 8.8565 19.7023 8.8565 19.9814C8.8565 20.707 8.0157 21.3767 7.06278 21.3767H5.9417C6.05381 21.6 6.22197 21.7674 6.22197 22.0465"
                fill="white"
              />
              <path
                d="M2.07399 20.54C2.07399 20.7633 1.96188 21.0424 1.79372 21.2656H5.54933C6.5583 21.2656 7.34305 21.8796 7.34305 22.6052C7.34305 23.3866 6.5583 24.0005 5.54933 24.0005H1.79372C0.840807 24.0005 0 23.3866 0 22.5493C0 21.8238 0.840807 21.2098 1.79372 21.2098"
                fill="white"
              />
            </g>
            <defs>
              <clipPath id="clip0_264_256">
                <rect width="25" height="24" fill="white" />
              </clipPath>
            </defs>
          </svg>