<svg width="37" height="30" viewBox="0 0 37 30" fill="none" xmlns="http://www.w3.org/2000/svg">
<path d="M36.5281 12.3273C36.4219 12.3273 36.3157 12.3273 36.2095 12.4364V12.3273C36.2095 12.2182 36.3157 12.1091 36.3157 12.1091V11.1273C36.3157 10.8 36.1033 10.4727 35.6786 10.4727C35.5724 10.4727 35.4662 10.4727 35.36 10.5818V10.1455C35.36 9.81818 35.1476 9.49091 34.7229 9.49091C34.5105 9.49091 34.4043 9.6 34.2981 9.70909C34.192 9.6 34.0858 9.49091 33.8734 9.49091C33.661 9.49091 33.5548 9.6 33.4487 9.70909C33.3425 9.6 33.1301 9.49091 33.0239 9.49091C32.8115 9.49091 32.7054 9.6 32.5992 9.70909C32.5992 9.70909 32.5992 9.70909 32.493 9.70909V7.41818C32.493 7.09091 32.2806 6.76364 31.8559 6.76364C31.7497 6.76364 31.6435 6.76364 31.5373 6.87273L31.4311 6.76364C31.4311 6.65455 31.5373 6.54545 31.5373 6.54545V5.56364C31.5373 5.23636 31.3249 4.90909 30.9002 4.90909C30.794 4.90909 30.6878 4.90909 30.5816 5.01818V4.69091C30.5816 4.36364 30.3693 4.03636 29.9445 4.03636C29.7321 4.03636 29.626 4.14545 29.5198 4.25455C29.4136 4.14545 29.3074 4.03636 29.095 4.03636C28.8827 4.03636 28.7765 4.14545 28.6703 4.25455C28.5641 4.14545 28.3517 4.03636 28.2455 4.03636C28.0332 4.03636 27.927 4.14545 27.8208 4.25455C27.7146 4.14545 27.5022 4.03636 27.396 4.03636C27.1837 4.03636 27.0775 4.14545 26.9713 4.25455C26.8651 4.14545 26.6527 4.03636 26.5466 4.03636C26.4404 4.03636 26.228 4.14545 26.1218 4.25455C26.0156 4.14545 25.9094 4.03636 25.6971 4.03636C25.4847 4.03636 25.3785 4.14545 25.2723 4.25455C25.1661 4.14545 25.0599 4.03636 24.8476 4.03636C24.6352 4.03636 24.529 4.14545 24.4228 4.25455C24.3166 4.14545 24.2105 4.14545 24.1043 4.03636V3.49091C24.1043 3.16364 23.8919 2.83636 23.4672 2.83636C23.361 2.83636 23.2548 2.83636 23.1486 2.94545L23.0424 2.83636C23.0424 2.72727 23.1486 2.61818 23.1486 2.61818V1.63636C23.1486 1.30909 22.9362 0.981818 22.5115 0.981818C22.4053 0.981818 22.2991 0.981818 22.1929 1.09091V0.654545C22.1929 0.327273 21.9805 0 21.5558 0C21.3434 0 21.2372 0.109091 21.1311 0.218182C21.0249 0.109091 20.9187 0 20.7063 0C20.4939 0 20.3878 0.109091 20.2816 0.218182C20.1754 0.109091 19.963 0 19.8568 0C19.6445 0 19.5383 0.109091 19.4321 0.218182C19.3259 0.109091 19.1135 0 19.0073 0C18.795 0 18.6888 0.109091 18.5826 0.218182C18.4764 0.109091 18.264 0 18.1578 0C17.9455 0 17.8393 0.109091 17.7331 0.218182C17.6269 0.109091 17.5207 0 17.3084 0C17.096 0 16.9898 0.109091 16.8836 0.218182C16.7774 0.109091 16.6712 0 16.4589 0C16.2465 0 16.1403 0.109091 16.0341 0.218182C15.9279 0.109091 15.8217 0 15.6094 0C15.1846 0 14.9723 0.218182 14.9723 0.654545V1.09091C14.8661 1.09091 14.7599 0.981818 14.6537 0.981818C14.3351 0.981818 14.0166 1.2 14.0166 1.63636V2.50909C14.0166 2.72727 14.1228 2.94545 14.3351 3.05455V3.16364C14.229 2.94545 14.0166 2.83636 13.8042 2.83636C13.4857 2.83636 13.1671 3.05455 13.1671 3.49091V4.14545C13.0609 4.14545 12.9547 4.25455 12.8485 4.36364C12.7423 4.25455 12.6362 4.14545 12.4238 4.14545C12.2114 4.14545 12.1052 4.25455 11.999 4.36364C11.8929 4.25455 11.6805 4.14545 11.5743 4.14545C11.3619 4.14545 11.2557 4.25455 11.1496 4.36364C11.0434 4.25455 10.831 4.14545 10.7248 4.14545C10.5124 4.14545 10.4063 4.25455 10.3001 4.36364C10.0877 4.14545 9.98151 4.03636 9.76913 4.03636C9.55676 4.03636 9.45057 4.14545 9.34439 4.25455C9.2382 4.14545 9.02583 4.03636 8.91964 4.03636C8.70727 4.03636 8.60108 4.14545 8.38871 4.25455C8.28253 4.14545 8.17634 4.03636 7.96397 4.03636C7.85778 4.03636 7.64541 4.14545 7.53922 4.25455C7.43304 4.14545 7.32685 4.03636 7.11448 4.03636C6.79592 4.03636 6.47736 4.36364 6.47736 4.69091V5.12727C6.37117 5.12727 6.26499 5.01818 6.1588 5.01818C5.84024 5.01818 5.52168 5.23636 5.52168 5.67273V6.54545C5.52168 6.76364 5.62787 6.98182 5.84024 7.09091V7.2C5.73406 6.98182 5.52168 6.87273 5.30931 6.87273C4.99075 6.87273 4.67219 7.09091 4.67219 7.52727V9.81818C4.67219 9.81818 4.67219 9.81818 4.56601 9.81818C4.45982 9.70909 4.35363 9.6 4.14126 9.6C3.92889 9.6 3.8227 9.70909 3.71652 9.81818C3.61033 9.70909 3.50415 9.6 3.29177 9.6C3.0794 9.6 2.97321 9.70909 2.86703 9.81818C2.76084 9.70909 2.65466 9.6 2.44228 9.6C2.01754 9.6 1.80517 9.81818 1.80517 10.2545V10.6909C1.69898 10.6909 1.59279 10.5818 1.48661 10.5818C1.16805 10.5818 0.84949 10.8 0.84949 11.2364V12.1091C0.84949 12.3273 0.955676 12.5455 1.16805 12.6545V12.7636C1.06186 12.5455 0.84949 12.4364 0.637117 12.4364C0.318559 12.4364 0 12.6545 0 13.0909V15.8182C0 16.1455 0.212372 16.4727 0.637117 16.4727C0.84949 16.4727 1.06186 16.3636 1.16805 16.1455V16.2545C0.955676 16.3636 0.955676 16.5818 0.955676 16.8V17.4545C0.955676 17.7818 1.27423 18.1091 1.59279 18.1091C1.69898 18.1091 1.80517 18.1091 1.91135 18V18.4364C1.91135 18.7636 2.22991 19.0909 2.54847 19.0909C2.76084 19.0909 2.86703 18.9818 2.97321 18.8727C3.0794 18.9818 3.29177 19.0909 3.39796 19.0909C3.61033 19.0909 3.71652 18.9818 3.8227 18.8727C3.92889 18.9818 4.14126 19.0909 4.24745 19.0909C4.35364 19.0909 4.56601 18.9818 4.67219 18.8727C4.77838 18.9818 4.99075 19.0909 5.09694 19.0909C5.30931 19.0909 5.4155 18.9818 5.52168 18.8727C5.52168 19.0909 5.62787 19.3091 5.84024 19.4182V19.5273C5.73406 19.3091 5.52168 19.2 5.30931 19.2C4.99075 19.2 4.67219 19.4182 4.67219 19.8545V22.5818C4.67219 22.9091 4.88457 23.2364 5.30931 23.2364C5.52168 23.2364 5.73406 23.1273 5.84024 22.9091V23.0182C5.62787 23.1273 5.62787 23.3455 5.62787 23.5636V24.4364C5.62787 24.7636 5.94643 25.0909 6.26499 25.0909C6.37117 25.0909 6.47736 25.0909 6.58355 24.9818V25.4182C6.58355 25.7455 6.9021 26.0727 7.22066 26.0727C7.43304 26.0727 7.53922 25.9636 7.64541 25.8545C7.75159 25.9636 7.96397 26.0727 8.07015 26.0727C8.28253 26.0727 8.38871 25.9636 8.4949 25.8545C8.60108 25.9636 8.81346 26.0727 8.91964 26.0727C9.13202 26.0727 9.2382 25.9636 9.34439 25.8545C9.45057 25.9636 9.66295 26.0727 9.76913 26.0727C9.87532 26.0727 10.0877 25.9636 10.1939 25.8545C10.3001 25.9636 10.4062 26.0727 10.6186 26.0727C10.831 26.0727 10.9372 25.9636 11.0434 25.8545C11.1496 25.9636 11.2557 26.0727 11.4681 26.0727C11.6805 26.0727 11.7867 25.9636 11.8929 25.8545C11.999 25.9636 12.1052 26.0727 12.3176 26.0727C12.4238 26.0727 12.53 26.0727 12.6362 25.9636V26.5091C12.6362 26.8364 12.8485 27.1636 13.2733 27.1636C13.4857 27.1636 13.698 27.0545 13.8042 26.8364V26.9455C13.5918 27.0545 13.5918 27.2727 13.5918 27.4909V28.3636C13.5918 28.6909 13.9104 29.0182 14.229 29.0182C14.3351 29.0182 14.4413 29.0182 14.5475 28.9091V29.3455C14.5475 29.6727 14.8661 30 15.1846 30C15.397 30 15.5032 29.8909 15.6094 29.7818C15.7156 29.8909 15.9279 30 16.0341 30C16.2465 30 16.3527 29.8909 16.4589 29.7818C16.5651 29.8909 16.7774 30 16.8836 30C17.096 30 17.2022 29.8909 17.3084 29.7818C17.4145 29.8909 17.6269 30 17.7331 30C17.9455 30 18.0517 29.8909 18.1578 29.7818C18.264 29.8909 18.3702 30 18.5826 30C18.795 30 18.9011 29.8909 19.0073 29.7818C19.1135 29.8909 19.2197 30 19.4321 30C19.6445 30 19.7506 29.8909 19.8568 29.7818C19.963 29.8909 20.0692 30 20.2816 30C20.4939 30 20.6001 29.8909 20.7063 29.7818C20.8125 29.8909 20.9187 30 21.1311 30C21.4496 30 21.7682 29.7818 21.7682 29.3455V28.9091C21.8744 29.0182 21.9805 29.0182 22.0867 29.0182C22.4053 29.0182 22.7239 28.8 22.7239 28.3636V27.4909C22.7239 27.2727 22.5115 26.9455 22.2991 26.8364L22.4053 26.6182C22.5115 26.8364 22.7239 27.0545 23.0424 27.0545C23.361 27.0545 23.5733 26.8364 23.5733 26.5091V25.9636C23.6795 25.9636 23.7857 26.0727 23.8919 26.0727C24.1043 26.0727 24.2105 25.9636 24.3166 25.8545C24.4228 25.9636 24.6352 26.0727 24.7414 26.0727C24.9538 26.0727 25.0599 25.9636 25.1661 25.8545C25.2723 25.9636 25.4847 26.0727 25.5909 26.0727C25.8033 26.0727 25.9094 25.9636 26.0156 25.8545C26.1218 25.9636 26.3342 26.0727 26.4404 26.0727C26.6527 26.0727 26.7589 25.9636 26.8651 25.8545C26.9713 25.9636 27.0775 26.0727 27.2899 26.0727C27.5022 26.0727 27.6084 25.9636 27.7146 25.8545C27.8208 25.9636 27.927 26.0727 28.1393 26.0727C28.3517 26.0727 28.4579 25.9636 28.5641 25.8545C28.6703 25.9636 28.7765 26.0727 28.9888 26.0727C29.2012 26.0727 29.3074 25.9636 29.4136 25.8545C29.5198 25.9636 29.626 26.0727 29.8383 26.0727C30.1569 26.0727 30.4754 25.8545 30.4754 25.4182V24.9818C30.5816 25.0909 30.6878 25.0909 30.794 25.0909C31.1126 25.0909 31.4311 24.8727 31.4311 24.4364V23.5636C31.4311 23.3455 31.2188 23.0182 31.0064 22.9091L31.1126 22.6909C31.2188 22.9091 31.4311 23.1273 31.7497 23.1273C32.0682 23.1273 32.2806 22.9091 32.2806 22.5818V19.8545C32.2806 19.5273 32.0682 19.2 31.6435 19.2C31.5373 19.2 31.4311 19.2 31.3249 19.3091L31.2188 19.2C31.2188 19.0909 31.3249 18.9818 31.3249 18.9818C31.3249 18.9818 31.3249 18.9818 31.4311 18.9818C31.5373 19.0909 31.6435 19.2 31.8559 19.2C32.0682 19.2 32.1744 19.0909 32.2806 18.9818C32.3868 19.0909 32.493 19.2 32.7054 19.2C32.9177 19.2 33.0239 19.0909 33.1301 18.9818C33.2363 19.0909 33.3425 19.2 33.5548 19.2C33.7672 19.2 33.8734 19.0909 33.9796 18.9818C34.0858 19.0909 34.192 19.2 34.4043 19.2C34.7229 19.2 35.0415 18.9818 35.0415 18.5455V18.1091C35.1476 18.2182 35.2538 18.2182 35.36 18.2182C35.6786 18.2182 35.9971 18 35.9971 17.5636V16.6909C35.9971 16.4727 35.7848 16.1455 35.5724 16.0364L35.6786 15.8182C35.7848 16.0364 35.9971 16.2545 36.3157 16.2545C36.6342 16.2545 36.8466 16.0364 36.8466 15.7091V12.9818C37.1652 12.5455 36.9528 12.3273 36.5281 12.3273Z" fill="white"/>
</svg>
