<svg
            width="31"
            height="27"
            viewBox="0 0 31 27"
            fill="none"
            xmlns="http://www.w3.org/2000/svg"
            class="mx-auto"
          >
            <g clip-path="url(#clip0_264_507)">
              <path
                d="M26.2039 15.8363V10.2979C26.2039 9.60554 25.6798 9.08631 24.981 9.08631C24.719 9.08631 24.5443 9.17285 24.3696 9.25939L24.1949 9.08631C24.2823 8.91324 24.3696 8.74016 24.3696 8.56708V6.5767C24.3696 5.88439 23.8455 5.36516 23.1468 5.36516C22.8847 5.36516 22.71 5.4517 22.5353 5.53824V4.75939C22.5353 4.06708 22.0113 3.54785 21.2251 3.54785C20.8758 3.54785 20.5264 3.72093 20.3517 3.98054C20.0896 3.72093 19.8276 3.54785 19.3909 3.54785C19.0415 3.54785 18.6921 3.72093 18.5174 3.98054C18.2554 3.72093 17.906 3.54785 17.5566 3.54785C17.2072 3.54785 16.8578 3.72093 16.6831 3.98054C16.4211 3.72093 16.0717 3.54785 15.7223 3.54785C15.3729 3.54785 15.0236 3.72093 14.8489 3.98054C14.5868 3.72093 14.2374 3.54785 13.8881 3.54785C13.5387 3.54785 13.1893 3.72093 12.9272 3.98054C12.6652 3.72093 12.4032 3.54785 12.0538 3.54785C11.7044 3.54785 11.355 3.72093 11.093 3.98054C10.8309 3.72093 10.5689 3.54785 10.2195 3.54785C9.87012 3.54785 9.52074 3.72093 9.2587 3.98054C8.99666 3.72093 8.73462 3.54785 8.38524 3.54785C7.59912 3.54785 6.98769 4.06708 6.98769 4.75939V5.53824C6.813 5.4517 6.63831 5.36516 6.37627 5.36516C5.6775 5.36516 5.15342 5.88439 5.15342 6.5767V8.39401C5.15342 8.8267 5.41546 9.17285 5.76484 9.43247L5.6775 9.69208C5.50281 9.34593 5.06607 9.08631 4.62934 9.08631C3.93057 9.08631 3.40649 9.60554 3.40649 10.2979V15.8363C3.40649 16.5286 3.93057 17.0479 4.62934 17.0479C5.06607 17.0479 5.41546 16.7882 5.6775 16.4421L5.76484 16.6152C5.41546 16.8748 5.24077 17.2209 5.24077 17.6536V19.4709C5.24077 20.1632 5.85219 20.6825 6.46362 20.6825C6.72565 20.6825 6.90035 20.5959 7.07504 20.5094V21.2882C7.07504 21.9805 7.68646 22.4998 8.38524 22.4998C8.73462 22.4998 9.08401 22.3267 9.2587 22.0671C9.52074 22.3267 9.87012 22.4998 10.2195 22.4998C10.5689 22.4998 10.9183 22.3267 11.093 22.0671C11.355 22.3267 11.7044 22.4998 12.0538 22.4998C12.4032 22.4998 12.7526 22.3267 12.9272 22.0671C13.1893 22.3267 13.5387 22.4998 13.8881 22.4998C14.2374 22.4998 14.5868 22.3267 14.8489 22.0671C15.1109 22.3267 15.3729 22.4998 15.7223 22.4998C16.0717 22.4998 16.4211 22.3267 16.6831 22.0671C16.9452 22.3267 17.2072 22.4998 17.5566 22.4998C17.906 22.4998 18.2554 22.3267 18.5174 22.0671C18.7794 22.3267 19.0415 22.4998 19.3909 22.4998C19.8276 22.4998 20.0896 22.3267 20.3517 22.0671C20.6137 22.3267 20.8758 22.4998 21.2251 22.4998C21.9239 22.4998 22.5353 21.9805 22.5353 21.2882V20.5094C22.71 20.6825 22.9721 20.6825 23.1468 20.6825C23.8455 20.6825 24.3696 20.1632 24.3696 19.4709V17.6536C24.3696 17.1344 24.0202 16.6152 23.5835 16.4421L23.8455 16.0959C24.0202 16.6152 24.457 16.9613 25.0684 16.9613C25.6798 17.0479 26.2039 16.5286 26.2039 15.8363Z"
                fill="white"
              />
              <path
                d="M23.5835 9.08631C23.5835 8.99977 23.5835 8.99977 23.5835 9.08631V9.08631ZM30.4839 8.04785V6.05747C30.4839 5.79785 30.3092 5.62477 30.0472 5.62477C29.9598 5.62477 29.8725 5.62477 29.7851 5.71131L29.6978 5.53824C29.6978 5.4517 29.7851 5.36516 29.7851 5.36516V4.67285C29.7851 4.41324 29.6104 4.24016 29.3484 4.24016C29.261 4.24016 29.1737 4.24016 29.0863 4.3267V3.98054C29.0863 3.72093 28.9116 3.54785 28.6496 3.54785C28.4749 3.54785 28.3876 3.63439 28.3002 3.72093C28.2129 3.63439 28.1255 3.54785 27.9508 3.54785C27.7761 3.54785 27.6888 3.63439 27.6015 3.72093C27.5141 3.63439 27.4268 3.54785 27.2521 3.54785C27.0774 3.54785 26.99 3.63439 26.9027 3.72093C26.8153 3.63439 26.728 3.54785 26.5533 3.54785C26.3786 3.54785 26.2913 3.63439 26.2039 3.72093C26.1166 3.63439 26.0292 3.54785 25.8545 3.54785C25.6798 3.54785 25.5925 3.63439 25.5051 3.72093C25.4178 3.63439 25.3304 3.54785 25.1558 3.54785C24.9811 3.54785 24.8937 3.63439 24.8064 3.72093C24.719 3.63439 24.6317 3.54785 24.457 3.54785C24.2823 3.54785 24.1949 3.63439 24.1076 3.72093C24.0203 3.63439 23.9329 3.54785 23.7582 3.54785C23.4962 3.54785 23.3215 3.72093 23.3215 3.98054V4.24016C23.2341 4.24016 23.1468 4.15362 23.1468 4.15362C22.8848 4.15362 22.7101 4.3267 22.7101 4.58631V5.27862C22.7101 5.4517 22.7974 5.53824 22.8848 5.62477V5.71131C22.7974 5.53824 22.6227 5.4517 22.5354 5.4517C22.2733 5.4517 22.0986 5.62477 22.0986 5.88439V7.96131C22.0986 8.22093 22.2733 8.39401 22.5354 8.39401C22.7101 8.39401 22.7974 8.30747 22.8848 8.22093V8.30747C22.7974 8.39401 22.7101 8.56708 22.7101 8.65362V9.34593C22.7101 9.60554 22.8848 9.77862 23.1468 9.77862C23.2341 9.77862 23.3215 9.77862 23.3215 9.69208V9.9517C23.3215 10.2113 23.4962 10.3844 23.7582 10.3844C23.9329 10.3844 24.0203 10.2979 24.1076 10.2113C24.1949 10.2979 24.2823 10.3844 24.457 10.3844C24.6317 10.3844 24.719 10.2979 24.8064 10.2113C24.8937 10.2979 24.9811 10.3844 25.1558 10.3844C25.3304 10.3844 25.4178 10.2979 25.5051 10.2113C25.5925 10.2979 25.6798 10.3844 25.8545 10.3844C26.0292 10.3844 26.1166 10.2979 26.2039 10.2113C26.2913 10.2979 26.3786 10.3844 26.5533 10.3844C26.728 10.3844 26.8153 10.2979 26.9027 10.2113C26.99 10.2979 27.0774 10.3844 27.2521 10.3844C27.4268 10.3844 27.5141 10.2979 27.6015 10.2113C27.6888 10.2979 27.7761 10.3844 27.9508 10.3844C28.1255 10.3844 28.2129 10.2979 28.3002 10.2113C28.3876 10.2979 28.4749 10.3844 28.6496 10.3844C28.9116 10.3844 29.0863 10.2113 29.0863 9.9517V9.69208C29.1737 9.77862 29.261 9.77862 29.3484 9.77862C29.6104 9.77862 29.7851 9.60554 29.7851 9.34593V8.65362C29.7851 8.48054 29.6978 8.30747 29.5231 8.22093L29.6104 8.13439C29.6978 8.30747 29.8725 8.48054 30.0472 8.48054C30.2218 8.56708 30.4839 8.30747 30.4839 8.04785Z"
                fill="white"
              />
              <path
                d="M18.9542 4.5V2.50962C18.9542 2.25 18.7795 2.07692 18.5174 2.07692C18.4301 2.07692 18.3427 2.07692 18.2554 2.16346L18.168 2.07692C18.168 1.99038 18.2554 1.90385 18.2554 1.90385V1.125C18.2554 0.865385 18.0807 0.692308 17.8186 0.692308C17.7313 0.692308 17.644 0.692308 17.5566 0.778846V0.432692C17.5566 0.173077 17.3819 0 17.1199 0C16.9452 0 16.8578 0.0865385 16.7705 0.173077C16.7705 0.0865385 16.5958 0 16.5085 0C16.3338 0 16.2464 0.0865385 16.1591 0.173077C16.0717 0.0865385 15.897 0 15.8097 0C15.635 0 15.5476 0.0865385 15.4603 0.173077C15.373 0.0865385 15.1983 0 15.1109 0C14.9362 0 14.8489 0.0865385 14.7615 0.173077C14.6742 0.0865385 14.5868 0 14.4121 0C14.2374 0 14.1501 0.0865385 14.0628 0.173077C13.9754 0.0865385 13.8881 0 13.7134 0C13.5387 0 13.4513 0.0865385 13.364 0.173077C13.2766 0.0865385 13.1893 0 13.0146 0C12.8399 0 12.7526 0.0865385 12.6652 0.173077C12.5779 0.0865385 12.4905 0 12.3158 0C12.0538 0 11.8791 0.173077 11.8791 0.432692V0.692308C11.7918 0.692308 11.7044 0.605769 11.7044 0.605769C11.4424 0.605769 11.2677 0.778846 11.2677 1.03846V1.73077C11.2677 1.90385 11.355 1.99038 11.4424 2.07692V2.16346C11.355 1.99038 11.1803 1.90385 11.093 1.90385C10.8309 1.90385 10.6562 2.07692 10.6562 2.33654V4.41346C10.6562 4.67308 10.8309 4.84615 11.093 4.84615C11.2677 4.84615 11.355 4.75962 11.4424 4.67308V4.75962C11.355 4.84615 11.2677 5.01923 11.2677 5.10577V5.79808C11.2677 6.05769 11.4424 6.23077 11.7044 6.23077C11.7918 6.23077 11.8791 6.23077 11.8791 6.14423V6.40385C11.8791 6.66346 12.0538 6.83654 12.3158 6.83654C12.4905 6.83654 12.5779 6.75 12.6652 6.66346C12.7526 6.75 12.8399 6.83654 13.0146 6.83654C13.1893 6.83654 13.2766 6.75 13.364 6.66346C13.4513 6.75 13.5387 6.83654 13.7134 6.83654C13.8881 6.83654 13.9754 6.75 14.0628 6.66346C14.1501 6.75 14.2374 6.83654 14.4121 6.83654C14.5868 6.83654 14.6742 6.75 14.7615 6.66346C14.8489 6.75 14.9362 6.83654 15.1109 6.83654C15.2856 6.83654 15.373 6.75 15.4603 6.66346C15.5476 6.75 15.635 6.83654 15.8097 6.83654C15.9844 6.83654 16.0717 6.75 16.1591 6.66346C16.2464 6.75 16.3338 6.83654 16.5085 6.83654C16.6831 6.83654 16.7705 6.75 16.8578 6.66346C16.9452 6.75 17.0325 6.83654 17.2072 6.83654C17.4693 6.83654 17.644 6.66346 17.644 6.40385V6.31731C17.7313 6.40385 17.8186 6.40385 17.906 6.40385C18.168 6.40385 18.3427 6.23077 18.3427 5.97115V5.27885C18.3427 5.10577 18.2554 4.93269 18.0807 4.84615L18.168 4.75962C18.2554 4.93269 18.4301 5.10577 18.6048 5.10577C18.7795 5.01923 18.9542 4.84615 18.9542 4.5Z"
                fill="white"
              />
              <path
                d="M1.57223 9.08631C1.57223 8.99977 1.57223 8.99977 1.57223 9.08631V9.08631ZM8.47259 8.04785V6.05747C8.47259 5.79785 8.2979 5.62477 8.03586 5.62477C7.94852 5.62477 7.86117 5.62477 7.77382 5.71131V5.53824C7.77382 5.4517 7.86117 5.36516 7.86117 5.36516V4.67285C7.86117 4.41324 7.68648 4.24016 7.42444 4.24016C7.33709 4.24016 7.24975 4.24016 7.1624 4.3267V3.98054C7.1624 3.72093 6.98771 3.54785 6.72567 3.54785C6.55097 3.54785 6.46363 3.63439 6.37628 3.72093C6.20159 3.54785 6.11424 3.54785 5.93955 3.54785C5.76486 3.54785 5.67751 3.63439 5.59017 3.72093C5.50282 3.54785 5.41547 3.54785 5.24078 3.54785C5.06609 3.54785 4.97874 3.63439 4.89139 3.72093C4.89139 3.54785 4.7167 3.54785 4.54201 3.54785C4.36732 3.54785 4.36732 3.54785 4.27997 3.72093C4.19262 3.54785 4.01793 3.54785 3.93058 3.54785C3.75589 3.54785 3.66855 3.63439 3.5812 3.72093C3.49385 3.54785 3.31916 3.54785 3.23181 3.54785C3.05712 3.54785 2.96978 3.63439 2.88243 3.72093C2.79508 3.54785 2.62039 3.54785 2.53304 3.54785C2.35835 3.54785 2.271 3.63439 2.18366 3.72093C2.09631 3.54785 2.00897 3.54785 1.83427 3.54785C1.57223 3.54785 1.39754 3.72093 1.39754 3.98054V4.24016C1.31019 4.24016 1.22285 4.15362 1.22285 4.15362C0.873463 4.24016 0.698771 4.41324 0.698771 4.67285V5.36516C0.698771 5.53824 0.786117 5.62477 0.873463 5.71131V5.79785C0.786117 5.71131 0.611424 5.53824 0.436732 5.53824C0.174693 5.53824 0 5.79785 0 6.05747V8.13439C0 8.394 0.174693 8.56708 0.436732 8.56708C0.611424 8.56708 0.698771 8.48054 0.786117 8.39401V8.48054C0.698771 8.56708 0.611424 8.74016 0.611424 8.8267V9.51901C0.611424 9.77862 0.786117 9.9517 1.04816 9.9517C1.1355 9.9517 1.22285 9.9517 1.22285 9.86516V10.1248C1.22285 10.3844 1.39754 10.5575 1.65958 10.5575C1.83427 10.5575 1.92162 10.4709 2.00897 10.3844C2.09631 10.4709 2.18366 10.5575 2.35835 10.5575C2.53304 10.5575 2.62039 10.4709 2.70774 10.3844C2.79508 10.4709 2.88243 10.5575 3.05712 10.5575C3.23181 10.5575 3.31916 10.4709 3.40651 10.3844C3.49385 10.4709 3.5812 10.5575 3.75589 10.5575C3.93059 10.5575 4.01793 10.4709 4.10528 10.3844C4.19262 10.4709 4.27997 10.5575 4.45466 10.5575C4.62936 10.5575 4.7167 10.4709 4.80405 10.3844C4.89139 10.4709 4.97874 10.5575 5.15343 10.5575C5.32813 10.5575 5.41547 10.4709 5.50282 10.3844C5.59017 10.4709 5.67751 10.5575 5.8522 10.5575C6.0269 10.5575 6.11424 10.4709 6.20159 10.3844C6.28894 10.4709 6.37628 10.5575 6.55097 10.5575C6.81301 10.5575 6.98771 10.3844 6.98771 10.1248V9.86516C7.07505 9.9517 7.1624 9.9517 7.24975 9.9517C7.51179 9.9517 7.68648 9.77862 7.68648 9.51901V8.8267C7.68648 8.65362 7.59913 8.48054 7.42444 8.39401L7.51179 8.30747C7.68648 8.39401 7.86117 8.56708 8.03586 8.56708C8.2979 8.56708 8.47259 8.30747 8.47259 8.04785Z"
                fill="white"
              />
              <path
                d="M8.47258 20.0768V17.9998C8.47258 17.7402 8.29789 17.5672 8.03585 17.5672C7.94851 17.5672 7.86116 17.5672 7.77381 17.6537L7.68647 17.5672C7.68647 17.4806 7.77381 17.3941 7.77381 17.3941V16.7018C7.77381 16.4422 7.59912 16.2691 7.33708 16.2691C7.24973 16.2691 7.16239 16.2691 7.07504 16.3556V16.096C7.07504 15.8364 6.90035 15.6633 6.63831 15.6633C6.46362 15.6633 6.37627 15.7498 6.28893 15.8364C6.20158 15.5768 6.11423 15.4902 5.93954 15.4902C5.76485 15.4902 5.6775 15.5768 5.59016 15.6633C5.50281 15.5768 5.41546 15.4902 5.24077 15.4902C5.06608 15.4902 4.97873 15.5768 4.89138 15.6633C4.80404 15.5768 4.71669 15.4902 4.542 15.4902C4.36731 15.4902 4.36731 15.5768 4.27996 15.6633C4.19261 15.5768 4.10527 15.4902 3.93057 15.4902C3.75588 15.4902 3.66854 15.5768 3.58119 15.6633C3.49384 15.5768 3.31915 15.4902 3.2318 15.4902C3.05711 15.4902 2.96976 15.5768 2.88242 15.6633C2.79507 15.5768 2.62038 15.4902 2.53303 15.4902C2.35834 15.4902 2.27099 15.5768 2.18365 15.6633C2.0963 15.5768 2.00896 15.4902 1.83426 15.4902C1.57222 15.4902 1.39753 15.6633 1.39753 15.9229V16.1825C1.31018 16.1825 1.22284 16.096 1.22284 16.096C0.9608 16.096 0.786107 16.2691 0.786107 16.5287V17.3075C0.786107 17.4806 0.873453 17.5672 0.9608 17.6537V17.7402C0.873453 17.5672 0.698761 17.4806 0.611414 17.4806C0.349375 17.4806 0.174683 17.6537 0.174683 17.9133V19.9902C0.174683 20.2499 0.349375 20.4229 0.611414 20.4229C0.786107 20.4229 0.873453 20.3364 0.9608 20.2498V20.3364C0.873453 20.4229 0.786107 20.596 0.786107 20.6825V21.3749C0.786107 21.6345 0.9608 21.8075 1.22284 21.8075C1.31018 21.8075 1.39753 21.8075 1.39753 21.721V21.9806C1.39753 22.2402 1.57222 22.4133 1.83426 22.4133C2.00896 22.4133 2.0963 22.3268 2.18365 22.2402C2.27099 22.3268 2.35834 22.4133 2.53303 22.4133C2.70773 22.4133 2.79507 22.3268 2.88242 22.2402C2.96976 22.3268 3.05711 22.4133 3.2318 22.4133C3.4065 22.4133 3.49384 22.3268 3.58119 22.2402C3.66854 22.3268 3.75588 22.4133 3.93057 22.4133C4.10527 22.4133 4.19261 22.3268 4.27996 22.2402C4.36731 22.4999 4.45465 22.5864 4.542 22.5864C4.62935 22.5864 4.80404 22.4998 4.89138 22.4133C4.97873 22.4998 5.15342 22.5864 5.24077 22.5864C5.41546 22.5864 5.50281 22.4998 5.59016 22.4133C5.6775 22.4998 5.76485 22.5864 5.93954 22.5864C6.11423 22.5864 6.20158 22.4998 6.28893 22.4133C6.37627 22.4998 6.46362 22.5864 6.63831 22.5864C6.90035 22.5864 7.07504 22.4133 7.07504 22.1537V21.8941C7.16239 21.9806 7.24973 21.9806 7.33708 21.9806C7.59912 21.9806 7.77381 21.8075 7.77381 21.5479V20.7691C7.77381 20.596 7.68647 20.4229 7.51177 20.3364L7.59912 20.2498C7.68647 20.4229 7.86116 20.596 8.03585 20.596C8.29789 20.5095 8.47258 20.3364 8.47258 20.0768Z"
                fill="white"
              />
              <path
                d="M30.4839 20.0765V17.9996C30.4839 17.74 30.3092 17.5669 30.0472 17.5669C29.9598 17.5669 29.8725 17.5669 29.7851 17.6535L29.6978 17.5669C29.6978 17.4804 29.7851 17.3939 29.7851 17.3939V16.7015C29.7851 16.4419 29.6104 16.2689 29.3484 16.2689C29.261 16.2689 29.1737 16.2689 29.0863 16.3554V16.0958C29.0863 15.8362 28.9116 15.6631 28.6496 15.6631C28.4749 15.6631 28.3876 15.7496 28.3002 15.8362C28.2129 15.7496 28.1255 15.6631 27.9508 15.6631C27.7761 15.6631 27.6888 15.7496 27.6015 15.8362C27.5141 15.7496 27.4268 15.6631 27.2521 15.6631C27.0774 15.6631 26.99 15.7496 26.9027 15.8362C26.8153 15.7496 26.728 15.6631 26.5533 15.6631C26.3786 15.6631 26.2913 15.7496 26.2039 15.8362C26.1166 15.7496 26.0292 15.6631 25.8545 15.6631C25.6798 15.6631 25.5925 15.7496 25.5051 15.8362C25.4178 15.7496 25.3304 15.6631 25.1558 15.6631C24.9811 15.6631 24.8937 15.7496 24.8064 15.8362C24.719 15.7496 24.6317 15.6631 24.457 15.6631C24.2823 15.6631 24.1949 15.7496 24.1076 15.8362C24.0203 15.7496 23.9329 15.6631 23.7582 15.6631C23.4962 15.6631 23.3215 15.8362 23.3215 16.0958V16.3554C23.2341 16.3554 23.1468 16.2689 23.1468 16.2689C22.8848 16.2689 22.7101 16.4419 22.7101 16.7015V17.3073C22.7101 17.4804 22.7974 17.5669 22.8848 17.6535V17.74C22.7974 17.5669 22.6227 17.4804 22.5354 17.4804C22.2733 17.4804 22.0986 17.6535 22.0986 17.9131V19.99C22.0986 20.2496 22.2733 20.4227 22.5354 20.4227C22.7101 20.4227 22.7974 20.3362 22.8848 20.2496V20.3362C22.7974 20.4227 22.7101 20.5958 22.7101 20.6823V21.3746C22.7101 21.6342 22.8848 21.8073 23.1468 21.8073C23.2341 21.8073 23.3215 21.8073 23.3215 21.7208V21.9804C23.3215 22.24 23.4962 22.4131 23.7582 22.4131C23.9329 22.4131 24.0203 22.3265 24.1076 22.24C24.1949 22.3265 24.2823 22.4131 24.457 22.4131C24.6317 22.4131 24.719 22.3265 24.8064 22.24C24.8937 22.3265 24.9811 22.4131 25.1558 22.4131C25.3304 22.4131 25.4178 22.3265 25.5051 22.24C25.5925 22.3265 25.6798 22.4131 25.8545 22.4131C26.0292 22.4131 26.1166 22.3265 26.2039 22.24C26.2913 22.3265 26.3786 22.4131 26.5533 22.4131C26.728 22.4131 26.8153 22.3265 26.9027 22.24C26.99 22.3265 27.0774 22.4131 27.2521 22.4131C27.4268 22.4131 27.5141 22.3265 27.6015 22.24C27.6888 22.3265 27.7761 22.4131 27.9508 22.4131C28.1255 22.4131 28.2129 22.3265 28.3002 22.24C28.3876 22.3265 28.4749 22.4131 28.6496 22.4131C28.9116 22.4131 29.0863 22.24 29.0863 21.9804V21.7208C29.1737 21.8073 29.261 21.8073 29.3484 21.8073C29.6104 21.8073 29.7851 21.6342 29.7851 21.3746V20.7689C29.7851 20.5958 29.6978 20.4227 29.5231 20.3362L29.6104 20.2496C29.6978 20.4227 29.8725 20.5958 30.0472 20.5958C30.2218 20.5092 30.4839 20.3362 30.4839 20.0765Z"
                fill="white"
              />
              <path
                d="M25.0684 23.6246V21.5477C25.0684 21.2881 24.8937 21.115 24.6317 21.115C24.5443 21.115 24.457 21.115 24.3696 21.2015L24.2823 21.115C24.2823 21.0285 24.3696 20.9419 24.3696 20.9419V20.2496C24.3696 19.99 24.1949 19.8169 23.9329 19.8169C23.8456 19.8169 23.7582 19.8169 23.6709 19.9035V19.6439C23.6709 19.3842 23.4962 19.2112 23.2341 19.2112C23.0594 19.2112 22.9721 19.2977 22.8848 19.3842C22.7974 19.1246 22.7101 19.0381 22.5354 19.0381C22.3607 19.0381 22.2733 19.1246 22.186 19.2112C22.186 19.1246 22.0113 19.0381 21.8366 19.0381C21.6619 19.0381 21.5746 19.1246 21.4872 19.2112C21.3999 19.1246 21.3125 19.0381 21.1378 19.0381C20.9631 19.0381 20.8758 19.1246 20.7884 19.2112C20.7011 19.1246 20.6137 19.0381 20.4391 19.0381C20.2644 19.0381 20.177 19.1246 20.0897 19.2112C20.0897 19.1246 19.915 19.0381 19.8276 19.0381C19.6529 19.0381 19.5656 19.1246 19.4782 19.2112C19.3909 19.1246 19.3036 19.0381 19.1289 19.0381C18.9542 19.0381 18.8668 19.1246 18.7795 19.2112C18.6921 19.1246 18.6048 19.0381 18.4301 19.0381C18.168 19.0381 17.9934 19.2112 17.9934 19.4708V19.7304C17.906 19.7304 17.8187 19.6439 17.8187 19.6439C17.5566 19.6439 17.3819 19.8169 17.3819 20.0765V20.7689C17.3819 20.9419 17.4693 21.0285 17.5566 21.115V21.2015C17.4693 21.0285 17.2946 20.9419 17.2072 20.9419C16.9452 20.9419 16.7705 21.115 16.7705 21.3746V23.4515C16.7705 23.7112 16.9452 23.8842 17.2072 23.8842C17.3819 23.8842 17.4693 23.7977 17.5566 23.7112V23.7977C17.4693 23.8842 17.3819 24.0573 17.3819 24.1439V24.8362C17.3819 25.0958 17.5566 25.2689 17.8187 25.2689C17.906 25.2689 17.9934 25.2689 17.9934 25.1823V25.4419C17.9934 25.7015 18.168 25.8746 18.4301 25.8746C18.6048 25.8746 18.6921 25.7881 18.7795 25.7015C18.8668 25.7881 18.9542 25.8746 19.1289 25.8746C19.3036 25.8746 19.3909 25.7881 19.4782 25.7015C19.5656 25.7881 19.6529 25.8746 19.8276 25.8746C20.0023 25.8746 20.0897 25.7881 20.177 25.7015C20.2644 25.7881 20.3517 25.8746 20.5264 25.8746C20.7011 25.8746 20.7884 25.7881 20.8758 25.7015C20.9631 25.7881 21.0505 25.8746 21.2252 25.8746C21.3999 25.8746 21.4872 25.7881 21.5746 25.7015C21.6619 25.7881 21.7492 25.8746 21.9239 25.8746C22.0986 25.8746 22.186 25.7881 22.2733 25.7015C22.3607 25.7881 22.448 25.8746 22.6227 25.8746C22.7974 25.8746 22.8847 25.7881 22.9721 25.7015C23.0594 25.7881 23.1468 25.8746 23.3215 25.8746C23.5835 25.8746 23.7582 25.7015 23.7582 25.4419V25.1823C23.8456 25.2689 23.9329 25.2689 24.0203 25.2689C24.2823 25.2689 24.457 25.0958 24.457 24.8362V24.1439C24.457 23.9708 24.3696 23.7977 24.1949 23.7112L24.2823 23.6246C24.3696 23.7977 24.5443 23.9708 24.719 23.9708C24.8937 24.0573 25.0684 23.8842 25.0684 23.6246Z"
                fill="white"
              />
              <path
                d="M14.3248 24.49V22.4996C14.3248 22.24 14.1501 22.0669 13.8881 22.0669C13.8007 22.0669 13.7134 22.0669 13.6261 22.1535L13.5387 22.0669C13.5387 21.9804 13.6261 21.8939 13.6261 21.8939V21.2015C13.6261 20.9419 13.4514 20.7689 13.1893 20.7689C13.102 20.7689 13.0146 20.7689 12.9273 20.8554V20.5958C12.9273 20.3362 12.7526 20.1631 12.4906 20.1631C12.3159 20.1631 12.2285 20.2496 12.1412 20.3362C12.0538 20.2496 11.9665 20.1631 11.7918 20.1631C11.6171 20.1631 11.5297 20.2496 11.4424 20.3362C11.355 20.2496 11.2677 20.1631 11.093 20.1631C10.9183 20.1631 10.831 20.2496 10.7436 20.3362C10.6563 20.2496 10.5689 20.1631 10.3942 20.1631C10.2195 20.1631 10.1322 20.2496 10.0449 20.3362C9.95751 20.2496 9.87016 20.1631 9.69547 20.1631C9.52078 20.1631 9.43343 20.2496 9.34608 20.3362C9.25874 20.2496 9.17139 20.1631 8.9967 20.1631C8.822 20.1631 8.73466 20.2496 8.64731 20.3362C8.55996 20.2496 8.47262 20.1631 8.29793 20.1631C8.12323 20.1631 8.03589 20.2496 7.94854 20.3362C7.86119 20.2496 7.77385 20.1631 7.59916 20.1631C7.33712 20.1631 7.16242 20.3362 7.16242 20.5958V20.8554C7.07508 20.8554 6.98773 20.7689 6.98773 20.7689C6.72569 20.7689 6.551 20.9419 6.551 21.2015V21.8939C6.551 22.0669 6.63835 22.1535 6.72569 22.24V22.3265C6.63835 22.1535 6.46365 22.0669 6.37631 22.0669C6.11427 22.0669 5.93958 22.24 5.93958 22.4996V24.5765C5.93958 24.8362 6.11427 25.0092 6.37631 25.0092C6.551 25.0092 6.63835 24.9227 6.72569 24.8362V24.9227C6.63835 25.0092 6.551 25.1823 6.551 25.2689V25.9612C6.551 26.2208 6.72569 26.3939 6.98773 26.3939C7.07508 26.3939 7.16242 26.3939 7.16242 26.3073V26.5669C7.16242 26.8265 7.33712 26.9996 7.59916 26.9996C7.77385 26.9996 7.86119 26.9131 7.94854 26.8265C8.03589 26.9131 8.12323 26.9996 8.29793 26.9996C8.47262 26.9996 8.55996 26.9131 8.64731 26.8265C8.73466 26.9131 8.822 26.9996 8.9967 26.9996C9.17139 26.9996 9.25874 26.9131 9.34608 26.8265C9.43343 26.9131 9.52078 26.9996 9.69547 26.9996C9.87016 26.9996 9.95751 26.9131 10.0449 26.8265C10.1322 26.9131 10.2195 26.9996 10.3942 26.9996C10.5689 26.9996 10.6563 26.9131 10.7436 26.8265C10.831 26.9131 10.9183 26.9996 11.093 26.9996C11.2677 26.9996 11.355 26.9131 11.4424 26.8265C11.5297 26.9131 11.6171 26.9996 11.7918 26.9996C11.9665 26.9996 12.0538 26.9131 12.1412 26.8265C12.2285 26.9131 12.3159 26.9996 12.4906 26.9996C12.7526 26.9996 12.9273 26.8265 12.9273 26.5669V26.3073C13.0146 26.3939 13.102 26.3939 13.1893 26.3939C13.4514 26.3939 13.6261 26.2208 13.6261 25.9612V25.2689C13.6261 25.0958 13.5387 24.9227 13.364 24.8362L13.4514 24.7496C13.5387 24.9227 13.7134 25.0958 13.8881 25.0958C14.0628 25.0092 14.3248 24.7496 14.3248 24.49Z"
                fill="white"
              />
            </g>
            <defs>
              <clipPath id="clip0_264_507">
                <rect width="30.4839" height="27" fill="white" />
              </clipPath>
            </defs>
          </svg>