<svg width="30" height="16" viewBox="0 0 30 16" fill="none" xmlns="http://www.w3.org/2000/svg">
<path d="M2.08549 9.59383C2.72274 9.59383 3.23933 9.07723 3.23933 8.43998C3.23933 7.80273 2.72274 7.28613 2.08549 7.28613C1.44824 7.28613 0.931641 7.80273 0.931641 8.43998C0.931641 9.07723 1.44824 9.59383 2.08549 9.59383Z" fill="#9BC5EF"/>
<path d="M3.81596 7.86351C4.45057 7.86351 4.9698 7.34428 4.9698 6.70966C5.60442 6.70966 6.12365 6.19043 6.12365 5.55581C6.12365 5.32505 6.06596 5.15197 5.95057 4.97889C6.06596 4.97889 6.06596 4.97889 6.12365 4.97889C6.4698 4.97889 6.75826 4.80581 6.98903 4.57505C7.2198 4.86351 7.50826 4.97889 7.85442 4.97889C8.20057 4.97889 8.48903 4.80581 8.7198 4.57505C8.95057 4.86351 9.23903 4.97889 9.58519 4.97889C10.2198 4.97889 10.739 4.45966 10.739 3.82505C10.739 3.59428 10.6813 3.4212 10.566 3.24812C10.6236 3.24812 10.6813 3.24812 10.739 3.24812C11.0852 3.24812 11.3736 3.07505 11.6044 2.84428C11.8352 3.13274 12.1236 3.24812 12.4698 3.24812C12.816 3.24812 13.1044 3.07505 13.3352 2.84428C13.566 3.13274 13.8544 3.24812 14.2006 3.24812C14.5467 3.24812 14.8352 3.07505 15.066 2.84428C15.2967 3.13274 15.5852 3.24812 15.9313 3.24812C16.2775 3.24812 16.566 3.07505 16.7967 2.84428C17.0275 3.13274 17.316 3.24812 17.6621 3.24812C18.0083 3.24812 18.2967 3.07505 18.5275 2.84428C18.7583 3.13274 19.0467 3.24812 19.3929 3.24812C19.4506 3.24812 19.5083 3.24812 19.566 3.24812C19.4506 3.4212 19.3929 3.65197 19.3929 3.82505C19.3929 4.45966 19.9121 4.97889 20.5467 4.97889C20.8929 4.97889 21.1813 4.80581 21.4121 4.57505C21.6429 4.86351 21.9313 4.97889 22.2775 4.97889C22.6236 4.97889 22.9121 4.80581 23.1429 4.57505C23.3736 4.86351 23.6621 4.97889 24.0083 4.97889C24.066 4.97889 24.1236 4.97889 24.1813 4.97889C24.066 5.15197 24.0083 5.38274 24.0083 5.55581C24.0083 6.19043 24.5275 6.70966 25.1621 6.70966C25.2775 6.70966 25.3929 6.70966 25.5083 6.65197C25.4506 6.76735 25.4506 6.88274 25.4506 6.99812C25.4506 7.63274 25.9698 8.15197 26.6044 8.15197C27.239 8.15197 27.7583 7.63274 27.7583 6.99812C27.7583 6.36351 27.239 5.84428 26.6044 5.84428C26.489 5.84428 26.3736 5.84428 26.2583 5.90197C26.316 5.78658 26.316 5.6712 26.316 5.55581C26.316 4.9212 25.7967 4.40197 25.1621 4.40197C25.1044 4.40197 25.0467 4.40197 24.989 4.40197C25.1044 4.22889 25.1621 4.05581 25.1621 3.82505C25.1621 3.19043 24.6429 2.6712 24.0083 2.6712C23.6621 2.6712 23.3736 2.84428 23.1429 3.07505C22.9698 2.84428 22.6236 2.6712 22.2775 2.6712C21.9313 2.6712 21.6429 2.84428 21.4121 3.07505C21.239 2.84428 20.8929 2.6712 20.5467 2.6712C20.489 2.6712 20.4313 2.6712 20.3736 2.6712C20.489 2.49812 20.5467 2.32505 20.5467 2.09428C20.5467 1.45966 20.0275 0.94043 19.3929 0.94043C19.0467 0.94043 18.7583 1.11351 18.5275 1.34428C18.3544 1.11351 18.0083 0.94043 17.6621 0.94043C17.316 0.94043 17.0275 1.11351 16.7967 1.34428C16.6236 1.11351 16.2775 0.94043 15.9313 0.94043C15.5852 0.94043 15.2967 1.11351 15.066 1.34428C14.8929 1.11351 14.5467 0.94043 14.2006 0.94043C13.8544 0.94043 13.566 1.11351 13.3352 1.34428C13.1621 1.11351 12.816 0.94043 12.4698 0.94043C12.1236 0.94043 11.8352 1.11351 11.6044 1.34428C11.4313 1.11351 11.0852 0.94043 10.739 0.94043C10.1044 0.94043 9.58519 1.45966 9.58519 2.09428C9.58519 2.32505 9.64288 2.49812 9.75826 2.6712C9.70057 2.6712 9.64288 2.6712 9.58519 2.6712C9.23903 2.6712 8.95057 2.84428 8.7198 3.07505C8.54672 2.84428 8.20057 2.6712 7.85442 2.6712C7.50826 2.6712 7.2198 2.84428 6.98903 3.07505C6.81596 2.84428 6.4698 2.6712 6.12365 2.6712C5.48903 2.6712 4.9698 3.19043 4.9698 3.82505C4.9698 4.05581 5.02749 4.22889 5.14288 4.40197C5.08519 4.40197 5.02749 4.40197 4.9698 4.40197C4.33519 4.40197 3.81596 4.9212 3.81596 5.55581C3.18134 5.55581 2.66211 6.07505 2.66211 6.70966C2.66211 7.34428 3.18134 7.86351 3.81596 7.86351Z" fill="#9BC5EF"/>
<path d="M28.3355 9.88289C28.9727 9.88289 29.4893 9.36629 29.4893 8.72904C29.4893 8.09179 28.9727 7.5752 28.3355 7.5752C27.6982 7.5752 27.1816 8.09179 27.1816 8.72904C27.1816 9.36629 27.6982 9.88289 28.3355 9.88289Z" fill="#9BC5EF"/>
<path d="M26.6044 9.30604C25.9698 9.30604 25.4506 9.82527 25.4506 10.4599C24.816 10.4599 24.2967 10.9791 24.2967 11.6137C24.2967 11.7291 24.2967 11.8445 24.3544 11.9599C24.239 11.9022 24.1236 11.9022 24.0083 11.9022C23.6621 11.9022 23.3736 12.0753 23.1429 12.306C22.9698 12.0753 22.6236 11.9022 22.2775 11.9022C21.9313 11.9022 21.6429 12.0753 21.4121 12.306C21.239 12.0753 20.8929 11.9022 20.5467 11.9022C19.9121 11.9022 19.3929 12.4214 19.3929 13.056C19.3929 13.2868 19.4506 13.4599 19.566 13.633C19.5083 13.633 19.4506 13.633 19.3929 13.633C19.0467 13.633 18.7583 13.806 18.5275 14.0368C18.3544 13.806 18.0083 13.633 17.6621 13.633C17.316 13.633 17.0275 13.806 16.7967 14.0368C16.6236 13.806 16.2775 13.633 15.9313 13.633C15.5852 13.633 15.2967 13.806 15.066 14.0368C14.8929 13.806 14.5467 13.633 14.2006 13.633C13.8544 13.633 13.566 13.806 13.3352 14.0368C13.1621 13.806 12.816 13.633 12.4698 13.633C12.1236 13.633 11.8352 13.806 11.6044 14.0368C11.4313 13.806 11.0852 13.633 10.739 13.633C10.6813 13.633 10.6236 13.633 10.566 13.633C10.6813 13.4599 10.739 13.2868 10.739 13.056C10.739 12.4214 10.2198 11.9022 9.58519 11.9022C9.23903 11.9022 8.95057 12.0753 8.7198 12.306C8.54672 12.0753 8.20057 11.9022 7.85442 11.9022C7.50826 11.9022 7.2198 12.0753 6.98903 12.306C6.81596 12.133 6.64288 12.0176 6.35442 11.9599C6.35442 11.8445 6.41211 11.7868 6.41211 11.6714C6.41211 11.0368 5.89288 10.5176 5.25826 10.5176C5.14288 10.5176 5.02749 10.5176 4.91211 10.5753C4.9698 10.4022 4.9698 10.2868 4.9698 10.1714C4.9698 9.53681 4.45057 9.01758 3.81596 9.01758C3.18134 9.01758 2.66211 9.53681 2.66211 10.1714C2.66211 10.806 3.18134 11.3253 3.81596 11.3253C3.93134 11.3253 4.04672 11.3253 4.16211 11.2676C4.10442 11.383 4.10442 11.4983 4.10442 11.6137C4.10442 12.1907 4.50826 12.6522 5.02749 12.7676C4.9698 12.883 4.9698 12.9407 4.9698 13.056C4.9698 13.6907 5.48903 14.2099 6.12365 14.2099C6.4698 14.2099 6.75826 14.0368 6.98903 13.806C7.2198 14.0368 7.50826 14.2099 7.85442 14.2099C8.20057 14.2099 8.48903 14.0368 8.7198 13.806C8.95057 14.0368 9.23903 14.2099 9.58519 14.2099C9.64288 14.2099 9.70057 14.2099 9.75826 14.2099C9.64288 14.383 9.58519 14.556 9.58519 14.7868C9.58519 15.4214 10.1044 15.9407 10.739 15.9407C11.0852 15.9407 11.3736 15.7676 11.6044 15.5368C11.8352 15.7676 12.1236 15.9407 12.4698 15.9407C12.816 15.9407 13.1044 15.7676 13.3352 15.5368C13.566 15.7676 13.8544 15.9407 14.2006 15.9407C14.5467 15.9407 14.8352 15.7676 15.066 15.5368C15.2967 15.7676 15.5852 15.9407 15.9313 15.9407C16.2775 15.9407 16.566 15.7676 16.7967 15.5368C17.0275 15.7676 17.316 15.9407 17.6621 15.9407C18.0083 15.9407 18.2967 15.7676 18.5275 15.5368C18.7583 15.7676 19.0467 15.9407 19.3929 15.9407C20.0275 15.9407 20.5467 15.4214 20.5467 14.7868C20.5467 14.556 20.489 14.383 20.3736 14.2099C20.4313 14.2099 20.489 14.2099 20.5467 14.2099C20.8929 14.2099 21.1813 14.0368 21.4121 13.806C21.6429 14.0368 21.9313 14.2099 22.2775 14.2099C22.6236 14.2099 22.9121 14.0368 23.1429 13.806C23.3736 14.0368 23.6621 14.2099 24.0083 14.2099C24.6429 14.2099 25.1621 13.6907 25.1621 13.056C25.1621 12.9407 25.1621 12.8253 25.1044 12.7099C25.2198 12.7676 25.3352 12.7676 25.4506 12.7676C26.0852 12.7676 26.6044 12.2483 26.6044 11.6137C27.239 11.6137 27.7583 11.0945 27.7583 10.4599C27.7583 9.82527 27.239 9.30604 26.6044 9.30604Z" fill="#9BC5EF"/>
</svg>
