<svg width="23" height="23" viewBox="0 0 23 23" fill="none" xmlns="http://www.w3.org/2000/svg">
<path d="M9.51632 5.27677C10.145 5.27677 10.6547 4.7671 10.6547 4.13839C10.6547 3.50967 10.145 3 9.51632 3C8.8876 3 8.37793 3.50967 8.37793 4.13839C8.37793 4.7671 8.8876 5.27677 9.51632 5.27677Z" fill="#9BC5EF"/>
<path d="M7.98604 6.94181C8.61476 6.94181 9.12443 6.43214 9.12443 5.80343C9.12443 5.17471 8.61476 4.66504 7.98604 4.66504C7.35733 4.66504 6.84766 5.17471 6.84766 5.80343C6.84766 6.43214 7.35733 6.94181 7.98604 6.94181Z" fill="#9BC5EF"/>
<path d="M5.80343 6.94181C6.43214 6.94181 6.94181 6.43214 6.94181 5.80343C6.94181 5.17471 6.43214 4.66504 5.80343 4.66504C5.17471 4.66504 4.66504 5.17471 4.66504 5.80343C4.66504 6.43214 5.17471 6.94181 5.80343 6.94181Z" fill="#9BC5EF"/>
<path d="M5.80343 9.12443C6.43214 9.12443 6.94181 8.61476 6.94181 7.98604C6.94181 7.35733 6.43214 6.84766 5.80343 6.84766C5.17471 6.84766 4.66504 7.35733 4.66504 7.98604C4.66504 8.61476 5.17471 9.12443 5.80343 9.12443Z" fill="#9BC5EF"/>
<path d="M17.3474 9.12443C17.9761 9.12443 18.4858 8.61476 18.4858 7.98604C18.4858 7.35733 17.9761 6.84766 17.3474 6.84766C16.7187 6.84766 16.209 7.35733 16.209 7.98604C16.209 8.61476 16.7187 9.12443 17.3474 9.12443Z" fill="#9BC5EF"/>
<path d="M17.3474 6.94181C17.9761 6.94181 18.4858 6.43214 18.4858 5.80343C18.4858 5.17471 17.9761 4.66504 17.3474 4.66504C16.7187 4.66504 16.209 5.17471 16.209 5.80343C16.209 6.43214 16.7187 6.94181 17.3474 6.94181Z" fill="#9BC5EF"/>
<path d="M15.1648 6.94181C15.7935 6.94181 16.3031 6.43214 16.3031 5.80343C16.3031 5.17471 15.7935 4.66504 15.1648 4.66504C14.536 4.66504 14.0264 5.17471 14.0264 5.80343C14.0264 6.43214 14.536 6.94181 15.1648 6.94181Z" fill="#9BC5EF"/>
<path d="M5.80343 16.3022C6.43214 16.3022 6.94181 15.7925 6.94181 15.1638C6.94181 14.5351 6.43214 14.0254 5.80343 14.0254C5.17471 14.0254 4.66504 14.5351 4.66504 15.1638C4.66504 15.7925 5.17471 16.3022 5.80343 16.3022Z" fill="#9BC5EF"/>
<path d="M5.80343 18.4848C6.43214 18.4848 6.94181 17.9751 6.94181 17.3464C6.94181 16.7177 6.43214 16.208 5.80343 16.208C5.17471 16.208 4.66504 16.7177 4.66504 17.3464C4.66504 17.9751 5.17471 18.4848 5.80343 18.4848Z" fill="#9BC5EF"/>
<path d="M7.98604 18.4848C8.61476 18.4848 9.12443 17.9751 9.12443 17.3464C9.12443 16.7177 8.61476 16.208 7.98604 16.208C7.35733 16.208 6.84766 16.7177 6.84766 17.3464C6.84766 17.9751 7.35733 18.4848 7.98604 18.4848Z" fill="#9BC5EF"/>
<path d="M15.1648 18.4848C15.7935 18.4848 16.3031 17.9751 16.3031 17.3464C16.3031 16.7177 15.7935 16.208 15.1648 16.208C14.536 16.208 14.0264 16.7177 14.0264 17.3464C14.0264 17.9751 14.536 18.4848 15.1648 18.4848Z" fill="#9BC5EF"/>
<path d="M17.3474 18.4848C17.9761 18.4848 18.4858 17.9751 18.4858 17.3464C18.4858 16.7177 17.9761 16.208 17.3474 16.208C16.7187 16.208 16.209 16.7177 16.209 17.3464C16.209 17.9751 16.7187 18.4848 17.3474 18.4848Z" fill="#9BC5EF"/>
<path d="M17.3474 16.3022C17.9761 16.3022 18.4858 15.7925 18.4858 15.1638C18.4858 14.5351 17.9761 14.0254 17.3474 14.0254C16.7187 14.0254 16.209 14.5351 16.209 15.1638C16.209 15.7925 16.7187 16.3022 17.3474 16.3022Z" fill="#9BC5EF"/>
<path d="M11.5495 5.27677C12.1782 5.27677 12.6879 4.7671 12.6879 4.13839C12.6879 3.50967 12.1782 3 11.5495 3C10.9208 3 10.4111 3.50967 10.4111 4.13839C10.4111 4.7671 10.9208 5.27677 11.5495 5.27677Z" fill="#9BC5EF"/>
<path d="M13.5935 5.27677C14.2222 5.27677 14.7319 4.7671 14.7319 4.13839C14.7319 3.50967 14.2222 3 13.5935 3C12.9648 3 12.4551 3.50967 12.4551 4.13839C12.4551 4.7671 12.9648 5.27677 13.5935 5.27677Z" fill="#9BC5EF"/>
<path d="M9.51632 20.1928C10.145 20.1928 10.6547 19.6831 10.6547 19.0544C10.6547 18.4257 10.145 17.916 9.51632 17.916C8.8876 17.916 8.37793 18.4257 8.37793 19.0544C8.37793 19.6831 8.8876 20.1928 9.51632 20.1928Z" fill="#9BC5EF"/>
<path d="M11.5495 20.1928C12.1782 20.1928 12.6879 19.6831 12.6879 19.0544C12.6879 18.4257 12.1782 17.916 11.5495 17.916C10.9208 17.916 10.4111 18.4257 10.4111 19.0544C10.4111 19.6831 10.9208 20.1928 11.5495 20.1928Z" fill="#9BC5EF"/>
<path d="M13.5935 20.1928C14.2222 20.1928 14.7319 19.6831 14.7319 19.0544C14.7319 18.4257 14.2222 17.916 13.5935 17.916C12.9648 17.916 12.4551 18.4257 12.4551 19.0544C12.4551 19.6831 12.9648 20.1928 13.5935 20.1928Z" fill="#9BC5EF"/>
<path d="M4.13839 10.6742C4.7671 10.6742 5.27677 10.1646 5.27677 9.53585C5.27677 8.90713 4.7671 8.39746 4.13839 8.39746C3.50967 8.39746 3 8.90713 3 9.53585C3 10.1646 3.50967 10.6742 4.13839 10.6742Z" fill="#9BC5EF"/>
<path d="M4.13839 12.7074C4.7671 12.7074 5.27677 12.1978 5.27677 11.5691C5.27677 10.9403 4.7671 10.4307 4.13839 10.4307C3.50967 10.4307 3 10.9403 3 11.5691C3 12.1978 3.50967 12.7074 4.13839 12.7074Z" fill="#9BC5EF"/>
<path d="M4.13839 14.7524C4.7671 14.7524 5.27677 14.2427 5.27677 13.614C5.27677 12.9853 4.7671 12.4756 4.13839 12.4756C3.50967 12.4756 3 12.9853 3 13.614C3 14.2427 3.50967 14.7524 4.13839 14.7524Z" fill="#9BC5EF"/>
<path d="M19.0544 10.6742C19.6831 10.6742 20.1928 10.1646 20.1928 9.53585C20.1928 8.90713 19.6831 8.39746 19.0544 8.39746C18.4257 8.39746 17.916 8.90713 17.916 9.53585C17.916 10.1646 18.4257 10.6742 19.0544 10.6742Z" fill="#9BC5EF"/>
<path d="M19.0544 12.7074C19.6831 12.7074 20.1928 12.1978 20.1928 11.5691C20.1928 10.9403 19.6831 10.4307 19.0544 10.4307C18.4257 10.4307 17.916 10.9403 17.916 11.5691C17.916 12.1978 18.4257 12.7074 19.0544 12.7074Z" fill="#9BC5EF"/>
<path d="M19.0544 14.7524C19.6831 14.7524 20.1928 14.2427 20.1928 13.614C20.1928 12.9853 19.6831 12.4756 19.0544 12.4756C18.4257 12.4756 17.916 12.9853 17.916 13.614C17.916 14.2427 18.4257 14.7524 19.0544 14.7524Z" fill="#9BC5EF"/>
<path d="M11.5487 4.13867V19.0536H9.51439L7.986 17.3461H5.80409V15.1642L4.13867 13.6147V11.5698V9.53547L5.80409 7.986V5.80409H7.986L9.51439 4.13867H11.5487Z" fill="#9BC5EF"/>
</svg>
