<svg width="28" height="28" viewBox="0 0 28 28" fill="none" xmlns="http://www.w3.org/2000/svg">
<path d="M11.8539 8.17754C12.4614 8.17754 12.9539 7.68505 12.9539 7.07754C12.9539 6.47003 12.4614 5.97754 11.8539 5.97754C11.2464 5.97754 10.7539 6.47003 10.7539 7.07754C10.7539 7.68505 11.2464 8.17754 11.8539 8.17754Z" fill="#9BC5EF"/>
<path d="M10.4555 9.77715C11.063 9.77715 11.5555 9.28466 11.5555 8.67715C11.5555 8.06964 11.063 7.57715 10.4555 7.57715C9.84795 7.57715 9.35547 8.06964 9.35547 8.67715C9.35547 9.28466 9.84795 9.77715 10.4555 9.77715Z" fill="#9BC5EF"/>
<path d="M8.35391 9.77715C8.96142 9.77715 9.45391 9.28466 9.45391 8.67715C9.45391 8.06964 8.96142 7.57715 8.35391 7.57715C7.74639 7.57715 7.25391 8.06964 7.25391 8.67715C7.25391 9.28466 7.74639 9.77715 8.35391 9.77715Z" fill="#9BC5EF"/>
<path d="M8.35391 11.7771C8.96142 11.7771 9.45391 11.2847 9.45391 10.6771C9.45391 10.0696 8.96142 9.57715 8.35391 9.57715C7.74639 9.57715 7.25391 10.0696 7.25391 10.6771C7.25391 11.2847 7.74639 11.7771 8.35391 11.7771Z" fill="#9BC5EF"/>
<path d="M19.2543 11.7771C19.8618 11.7771 20.3543 11.2847 20.3543 10.6771C20.3543 10.0696 19.8618 9.57715 19.2543 9.57715C18.6468 9.57715 18.1543 10.0696 18.1543 10.6771C18.1543 11.2847 18.6468 11.7771 19.2543 11.7771Z" fill="#9BC5EF"/>
<path d="M19.2543 9.77715C19.8618 9.77715 20.3543 9.28466 20.3543 8.67715C20.3543 8.06964 19.8618 7.57715 19.2543 7.57715C18.6468 7.57715 18.1543 8.06964 18.1543 8.67715C18.1543 9.28466 18.6468 9.77715 19.2543 9.77715Z" fill="#9BC5EF"/>
<path d="M17.2543 9.77715C17.8618 9.77715 18.3543 9.28466 18.3543 8.67715C18.3543 8.06964 17.8618 7.57715 17.2543 7.57715C16.6468 7.57715 16.1543 8.06964 16.1543 8.67715C16.1543 9.28466 16.6468 9.77715 17.2543 9.77715Z" fill="#9BC5EF"/>
<path d="M8.35391 18.6775C8.96142 18.6775 9.45391 18.1851 9.45391 17.5775C9.45391 16.97 8.96142 16.4775 8.35391 16.4775C7.74639 16.4775 7.25391 16.97 7.25391 17.5775C7.25391 18.1851 7.74639 18.6775 8.35391 18.6775Z" fill="#9BC5EF"/>
<path d="M8.35391 20.6775C8.96142 20.6775 9.45391 20.1851 9.45391 19.5775C9.45391 18.97 8.96142 18.4775 8.35391 18.4775C7.74639 18.4775 7.25391 18.97 7.25391 19.5775C7.25391 20.1851 7.74639 20.6775 8.35391 20.6775Z" fill="#9BC5EF"/>
<path d="M10.4555 20.6775C11.063 20.6775 11.5555 20.1851 11.5555 19.5775C11.5555 18.97 11.063 18.4775 10.4555 18.4775C9.84795 18.4775 9.35547 18.97 9.35547 19.5775C9.35547 20.1851 9.84795 20.6775 10.4555 20.6775Z" fill="#9BC5EF"/>
<path d="M17.2543 20.6775C17.8618 20.6775 18.3543 20.1851 18.3543 19.5775C18.3543 18.97 17.8618 18.4775 17.2543 18.4775C16.6468 18.4775 16.1543 18.97 16.1543 19.5775C16.1543 20.1851 16.6468 20.6775 17.2543 20.6775Z" fill="#9BC5EF"/>
<path d="M19.2543 20.6775C19.8618 20.6775 20.3543 20.1851 20.3543 19.5775C20.3543 18.97 19.8618 18.4775 19.2543 18.4775C18.6468 18.4775 18.1543 18.97 18.1543 19.5775C18.1543 20.1851 18.6468 20.6775 19.2543 20.6775Z" fill="#9BC5EF"/>
<path d="M19.2543 18.6775C19.8618 18.6775 20.3543 18.1851 20.3543 17.5775C20.3543 16.97 19.8618 16.4775 19.2543 16.4775C18.6468 16.4775 18.1543 16.97 18.1543 17.5775C18.1543 18.1851 18.6468 18.6775 19.2543 18.6775Z" fill="#9BC5EF"/>
<path d="M13.7543 8.17754C14.3618 8.17754 14.8543 7.68505 14.8543 7.07754C14.8543 6.47003 14.3618 5.97754 13.7543 5.97754C13.1468 5.97754 12.6543 6.47003 12.6543 7.07754C12.6543 7.68505 13.1468 8.17754 13.7543 8.17754Z" fill="#9BC5EF"/>
<path d="M15.7543 8.17754C16.3618 8.17754 16.8543 7.68505 16.8543 7.07754C16.8543 6.47003 16.3618 5.97754 15.7543 5.97754C15.1468 5.97754 14.6543 6.47003 14.6543 7.07754C14.6543 7.68505 15.1468 8.17754 15.7543 8.17754Z" fill="#9BC5EF"/>
<path d="M11.8539 22.2771C12.4614 22.2771 12.9539 21.7847 12.9539 21.1771C12.9539 20.5696 12.4614 20.0771 11.8539 20.0771C11.2464 20.0771 10.7539 20.5696 10.7539 21.1771C10.7539 21.7847 11.2464 22.2771 11.8539 22.2771Z" fill="#9BC5EF"/>
<path d="M13.7543 22.2771C14.3618 22.2771 14.8543 21.7847 14.8543 21.1771C14.8543 20.5696 14.3618 20.0771 13.7543 20.0771C13.1468 20.0771 12.6543 20.5696 12.6543 21.1771C12.6543 21.7847 13.1468 22.2771 13.7543 22.2771Z" fill="#9BC5EF"/>
<path d="M15.7543 22.2771C16.3618 22.2771 16.8543 21.7847 16.8543 21.1771C16.8543 20.5696 16.3618 20.0771 15.7543 20.0771C15.1468 20.0771 14.6543 20.5696 14.6543 21.1771C14.6543 21.7847 15.1468 22.2771 15.7543 22.2771Z" fill="#9BC5EF"/>
<path d="M6.7543 13.2771C7.36181 13.2771 7.8543 12.7847 7.8543 12.1771C7.8543 11.5696 7.36181 11.0771 6.7543 11.0771C6.14678 11.0771 5.6543 11.5696 5.6543 12.1771C5.6543 12.7847 6.14678 13.2771 6.7543 13.2771Z" fill="#9BC5EF"/>
<path d="M6.7543 15.2771C7.36181 15.2771 7.8543 14.7847 7.8543 14.1771C7.8543 13.5696 7.36181 13.0771 6.7543 13.0771C6.14678 13.0771 5.6543 13.5696 5.6543 14.1771C5.6543 14.7847 6.14678 15.2771 6.7543 15.2771Z" fill="#9BC5EF"/>
<path d="M6.7543 17.1775C7.36181 17.1775 7.8543 16.6851 7.8543 16.0775C7.8543 15.47 7.36181 14.9775 6.7543 14.9775C6.14678 14.9775 5.6543 15.47 5.6543 16.0775C5.6543 16.6851 6.14678 17.1775 6.7543 17.1775Z" fill="#9BC5EF"/>
<path d="M20.9555 13.2771C21.563 13.2771 22.0555 12.7847 22.0555 12.1771C22.0555 11.5696 21.563 11.0771 20.9555 11.0771C20.348 11.0771 19.8555 11.5696 19.8555 12.1771C19.8555 12.7847 20.348 13.2771 20.9555 13.2771Z" fill="#9BC5EF"/>
<path d="M20.9555 15.2771C21.563 15.2771 22.0555 14.7847 22.0555 14.1771C22.0555 13.5696 21.563 13.0771 20.9555 13.0771C20.348 13.0771 19.8555 13.5696 19.8555 14.1771C19.8555 14.7847 20.348 15.2771 20.9555 15.2771Z" fill="#9BC5EF"/>
<path d="M20.9555 17.1775C21.563 17.1775 22.0555 16.6851 22.0555 16.0775C22.0555 15.47 21.563 14.9775 20.9555 14.9775C20.348 14.9775 19.8555 15.47 19.8555 16.0775C19.8555 16.6851 20.348 17.1775 20.9555 17.1775Z" fill="#9BC5EF"/>
<path d="M14.4535 8.97754H13.8535V9.87754C13.9535 10.3775 14.1535 10.8775 14.4535 11.5775L15.3535 13.8775H13.8535V14.7775H15.6535L16.6535 17.3775H17.9535L14.4535 8.97754Z" fill="#9BC5EF"/>
<path d="M13.3531 11.477L12.4531 13.977H13.8531V9.87695C13.6531 10.377 13.5531 10.977 13.3531 11.477Z" fill="#9BC5EF"/>
<path d="M11.1539 17.3771H9.95391L13.2539 8.97715H13.7539V7.07715H11.8539L10.4539 8.67715H8.35391V10.6771L6.75391 12.1771V14.1771V16.0771L8.35391 17.5771V19.5771H10.4539L11.8539 21.1771H13.7539V14.8771H12.0539L11.1539 17.3771Z" fill="#9BC5EF"/>
</svg>
