<svg width="19" height="9" viewBox="0 0 19 9" fill="none" xmlns="http://www.w3.org/2000/svg">
<path d="M2.22 0.924589C2.22 0.396304 1.7443 9.03173e-05 1.11003 9.02711e-05C0.475762 9.02249e-05 6.19085e-05 0.396304 6.1853e-05 0.924589C6.17976e-05 1.45287 0.475762 1.84909 1.11003 1.84909C1.7443 1.84909 2.22 1.3208 2.22 0.924589ZM3.80567 2.2453C3.80567 1.71702 3.32996 1.3208 2.6957 1.3208C2.06143 1.3208 1.58573 1.71702 1.58573 2.2453C1.58573 2.77359 2.06143 3.1698 2.6957 3.1698C3.32996 3.1698 3.80567 2.77359 3.80567 2.2453ZM10.4655 7.7923L10.4655 7.26401C10.624 7.26401 10.7826 7.39608 11.0997 7.39608C11.5754 7.39608 12.2097 6.8678 12.2097 6.33951L12.2097 5.81123C12.3683 5.9433 12.5268 5.9433 12.6854 5.9433C13.3197 5.9433 13.7954 5.54709 13.7954 5.0188L13.7954 4.49051C13.9539 4.49051 14.1125 4.49051 14.2711 4.49051C14.9053 4.49051 15.381 4.0943 15.381 3.56602C15.381 3.03773 14.9053 2.64152 14.2711 2.64152C13.9539 2.64152 13.6368 2.77359 13.4782 2.90566C13.3197 2.64152 13.0025 2.64152 12.6854 2.64152C12.0511 2.64152 11.5754 3.03773 11.5754 3.56602L11.5754 4.22637C11.4169 4.0943 11.2583 4.0943 10.9412 4.0943C10.3069 4.0943 9.8312 4.49052 9.8312 5.0188L9.8312 5.67916C9.67263 5.54709 9.51407 5.54709 9.19693 5.54709C9.03837 5.54709 8.72123 5.54709 8.56267 5.67916L8.56267 5.0188C8.56267 4.49051 8.08697 4.0943 7.4527 4.0943C7.29413 4.0943 6.977 4.0943 6.81843 4.22637L6.81843 3.69809C6.81843 3.1698 6.34273 2.77359 5.70846 2.77359C5.39133 2.77359 5.0742 2.90566 4.91563 3.03773C4.75706 2.77359 4.43993 2.77359 4.1228 2.77359C3.48853 2.77359 3.01283 3.1698 3.01283 3.69809C3.01283 4.22637 3.48853 4.62259 4.1228 4.62259C4.28136 4.62259 4.5985 4.62259 4.75707 4.49051L4.75707 5.0188C4.75707 5.54708 5.23276 5.9433 5.86703 5.9433C6.0256 5.9433 6.34273 5.81123 6.5013 5.81123L6.5013 6.33951C6.5013 6.8678 6.977 7.26401 7.61127 7.26401C7.76983 7.26401 8.08697 7.13194 8.24553 7.13194L8.24553 7.7923C8.24553 8.32058 8.72123 8.7168 9.3555 8.7168C9.98977 8.7168 10.4655 8.32058 10.4655 7.7923ZM16.0153 1.3208C15.381 1.3208 14.9053 1.71702 14.9053 2.2453C14.9053 2.77359 15.381 3.1698 16.0153 3.1698C16.6496 3.1698 17.1253 2.77359 17.1253 2.2453C17.1253 1.71702 16.6496 1.3208 16.0153 1.3208ZM16.491 0.92459C16.491 1.45288 16.9667 1.84909 17.601 1.84909C18.2352 1.84909 18.7109 1.45288 18.7109 0.924591C18.7109 0.396305 18.2352 9.15181e-05 17.601 9.14719e-05C16.9667 9.14257e-05 16.491 0.396305 16.491 0.92459Z" fill="#589FE5"/>
</svg>
