<svg width="20" height="11" viewBox="0 0 20 11" fill="none" xmlns="http://www.w3.org/2000/svg">
<path d="M2.29155 1.14551C2.29155 0.490779 1.8005 -0.000265699 1.14577 -0.000265756C0.491048 -0.000265813 9.015e-07 0.490779 8.44261e-07 1.14551C7.87023e-07 1.80023 0.491048 2.29128 1.14577 2.29128C1.8005 2.29128 2.29155 1.63655 2.29155 1.14551ZM3.92837 2.78233C3.92837 2.1276 3.43732 1.63655 2.78259 1.63655C2.12787 1.63655 1.63682 2.1276 1.63682 2.78233C1.63682 3.43705 2.12787 3.9281 2.78259 3.9281C3.43732 3.9281 3.92837 3.43705 3.92837 2.78233ZM10.803 9.65696L10.803 9.00223C10.9667 9.00223 11.1304 9.16592 11.4577 9.16592C11.9488 9.16592 12.6035 8.51119 12.6035 7.85646L12.6035 7.20173C12.7672 7.36542 12.9309 7.36542 13.0945 7.36542C13.7493 7.36542 14.2403 6.87437 14.2403 6.21964L14.2403 5.56492C14.404 5.56492 14.5677 5.56492 14.7314 5.56492C15.3861 5.56492 15.8771 5.07387 15.8771 4.41914C15.8771 3.76442 15.3861 3.27337 14.7314 3.27337C14.404 3.27337 14.0766 3.43705 13.913 3.60073C13.7493 3.27337 13.4219 3.27337 13.0945 3.27337C12.4398 3.27337 11.9488 3.76442 11.9488 4.41914L11.9488 5.23755C11.7851 5.07387 11.6214 5.07387 11.294 5.07387C10.6393 5.07387 10.1483 5.56492 10.1483 6.21964L10.1483 7.03805C9.98459 6.87437 9.82091 6.87437 9.49355 6.87437C9.32986 6.87437 9.0025 6.87437 8.83882 7.03805L8.83882 6.21964C8.83882 5.56492 8.34777 5.07387 7.69305 5.07387C7.52937 5.07387 7.202 5.07387 7.03832 5.23755L7.03832 4.58283C7.03832 3.9281 6.54727 3.43705 5.89255 3.43705C5.56518 3.43705 5.23782 3.60073 5.07414 3.76442C4.91045 3.43705 4.58309 3.43705 4.25573 3.43705C3.601 3.43705 3.10996 3.9281 3.10996 4.58282C3.10996 5.23755 3.601 5.7286 4.25573 5.7286C4.41941 5.7286 4.74678 5.7286 4.91046 5.56492L4.91046 6.21964C4.91046 6.87437 5.4015 7.36542 6.05623 7.36542C6.21991 7.36542 6.54727 7.20173 6.71095 7.20173L6.71095 7.85646C6.71095 8.51119 7.202 9.00223 7.85673 9.00223C8.02041 9.00223 8.34777 8.83855 8.51145 8.83855L8.51145 9.65696C8.51145 10.3117 9.0025 10.8027 9.65723 10.8027C10.312 10.8027 10.803 10.3117 10.803 9.65696ZM16.5319 1.63655C15.8771 1.63655 15.3861 2.1276 15.3861 2.78233C15.3861 3.43705 15.8771 3.9281 16.5319 3.9281C17.1866 3.9281 17.6776 3.43705 17.6776 2.78233C17.6776 2.1276 17.1866 1.63655 16.5319 1.63655ZM17.0229 1.14551C17.0229 1.80024 17.514 2.29128 18.1687 2.29128C18.8234 2.29128 19.3145 1.80024 19.3145 1.14551C19.3145 0.490781 18.8234 -0.000264211 18.1687 -0.000264268C17.514 -0.000264325 17.0229 0.490781 17.0229 1.14551Z" fill="white"/>
</svg>
