<svg width="29" height="15" viewBox="0 0 29 15" fill="none" xmlns="http://www.w3.org/2000/svg">
<path d="M14.1348 11.25C16.2058 11.25 17.8848 9.57107 17.8848 7.5C17.8848 5.42893 16.2058 3.75 14.1348 3.75C12.0637 3.75 10.3848 5.42893 10.3848 7.5C10.3848 9.57107 12.0637 11.25 14.1348 11.25Z" fill="#9BC5EF"/>
<path d="M1.15385 8.6534C1.7911 8.6534 2.30769 8.1368 2.30769 7.49955C2.30769 6.8623 1.7911 6.3457 1.15385 6.3457C0.516594 6.3457 0 6.8623 0 7.49955C0 8.1368 0.516594 8.6534 1.15385 8.6534Z" fill="#9BC5EF"/>
<path d="M2.88431 6.92308C3.51893 6.92308 4.03816 6.40385 4.03816 5.76923C4.67278 5.76923 5.19201 5.25 5.19201 4.61538C5.19201 4.38462 5.13431 4.21154 5.01893 4.03846C5.13431 4.03846 5.13431 4.03846 5.19201 4.03846C5.53816 4.03846 5.82662 3.86538 6.05739 3.63462C6.28816 3.92308 6.57662 4.03846 6.92278 4.03846C7.26893 4.03846 7.55739 3.86538 7.78816 3.63462C8.01893 3.92308 8.30739 4.03846 8.65355 4.03846C9.28816 4.03846 9.80739 3.51923 9.80739 2.88462C9.80739 2.65385 9.7497 2.48077 9.63432 2.30769C9.69201 2.30769 9.7497 2.30769 9.80739 2.30769C10.1535 2.30769 10.442 2.13462 10.6728 1.90385C10.9035 2.19231 11.192 2.30769 11.5382 2.30769C11.8843 2.30769 12.1728 2.13462 12.4035 1.90385C12.6343 2.19231 12.9228 2.30769 13.2689 2.30769C13.6151 2.30769 13.9035 2.13462 14.1343 1.90385C14.3651 2.19231 14.6535 2.30769 14.9997 2.30769C15.3459 2.30769 15.6343 2.13462 15.8651 1.90385C16.0959 2.19231 16.3843 2.30769 16.7305 2.30769C17.0766 2.30769 17.3651 2.13462 17.5959 1.90385C17.8266 2.19231 18.1151 2.30769 18.4612 2.30769C18.5189 2.30769 18.5766 2.30769 18.6343 2.30769C18.5189 2.48077 18.4612 2.71154 18.4612 2.88462C18.4612 3.51923 18.9805 4.03846 19.6151 4.03846C19.9612 4.03846 20.2497 3.86538 20.4805 3.63462C20.7112 3.92308 20.9997 4.03846 21.3459 4.03846C21.692 4.03846 21.9805 3.86538 22.2112 3.63462C22.442 3.92308 22.7305 4.03846 23.0766 4.03846C23.1343 4.03846 23.192 4.03846 23.2497 4.03846C23.1343 4.21154 23.0766 4.44231 23.0766 4.61538C23.0766 5.25 23.5959 5.76923 24.2305 5.76923C24.3459 5.76923 24.4612 5.76923 24.5766 5.71154C24.5189 5.82692 24.5189 5.94231 24.5189 6.05769C24.5189 6.69231 25.0382 7.21154 25.6728 7.21154C26.3074 7.21154 26.8266 6.69231 26.8266 6.05769C26.8266 5.42308 26.3074 4.90385 25.6728 4.90385C25.5574 4.90385 25.442 4.90385 25.3266 4.96154C25.3843 4.84615 25.3843 4.73077 25.3843 4.61538C25.3843 3.98077 24.8651 3.46154 24.2305 3.46154C24.1728 3.46154 24.1151 3.46154 24.0574 3.46154C24.1728 3.28846 24.2305 3.11538 24.2305 2.88462C24.2305 2.25 23.7112 1.73077 23.0766 1.73077C22.7305 1.73077 22.442 1.90385 22.2112 2.13462C22.0382 1.90385 21.692 1.73077 21.3459 1.73077C20.9997 1.73077 20.7112 1.90385 20.4805 2.13462C20.3074 1.90385 19.9612 1.73077 19.6151 1.73077C19.5574 1.73077 19.4997 1.73077 19.442 1.73077C19.5574 1.55769 19.6151 1.38462 19.6151 1.15385C19.6151 0.519231 19.0959 0 18.4612 0C18.1151 0 17.8266 0.173077 17.5959 0.403846C17.4228 0.173077 17.0766 0 16.7305 0C16.3843 0 16.0959 0.173077 15.8651 0.403846C15.692 0.173077 15.3459 0 14.9997 0C14.6535 0 14.3651 0.173077 14.1343 0.403846C13.9612 0.173077 13.6151 0 13.2689 0C12.9228 0 12.6343 0.173077 12.4035 0.403846C12.2305 0.173077 11.8843 0 11.5382 0C11.192 0 10.9035 0.173077 10.6728 0.403846C10.4997 0.173077 10.1535 0 9.80739 0C9.17278 0 8.65355 0.519231 8.65355 1.15385C8.65355 1.38462 8.71124 1.55769 8.82662 1.73077C8.76893 1.73077 8.71124 1.73077 8.65355 1.73077C8.30739 1.73077 8.01893 1.90385 7.78816 2.13462C7.61508 1.90385 7.26893 1.73077 6.92278 1.73077C6.57662 1.73077 6.28816 1.90385 6.05739 2.13462C5.88432 1.90385 5.53816 1.73077 5.19201 1.73077C4.55739 1.73077 4.03816 2.25 4.03816 2.88462C4.03816 3.11538 4.09585 3.28846 4.21124 3.46154C4.15355 3.46154 4.09585 3.46154 4.03816 3.46154C3.40355 3.46154 2.88431 3.98077 2.88431 4.61538C2.2497 4.61538 1.73047 5.13462 1.73047 5.76923C1.73047 6.40385 2.2497 6.92308 2.88431 6.92308Z" fill="#9BC5EF"/>
<path d="M27.4038 8.94246C28.0411 8.94246 28.5577 8.42586 28.5577 7.78861C28.5577 7.15136 28.0411 6.63477 27.4038 6.63477C26.7666 6.63477 26.25 7.15136 26.25 7.78861C26.25 8.42586 26.7666 8.94246 27.4038 8.94246Z" fill="#9BC5EF"/>
<path d="M25.6728 8.36561C25.0382 8.36561 24.5189 8.88484 24.5189 9.51946C23.8843 9.51946 23.3651 10.0387 23.3651 10.6733C23.3651 10.7887 23.3651 10.9041 23.4228 11.0195C23.3074 10.9618 23.192 10.9618 23.0766 10.9618C22.7305 10.9618 22.442 11.1348 22.2112 11.3656C22.0382 11.1348 21.692 10.9618 21.3459 10.9618C20.9997 10.9618 20.7112 11.1348 20.4805 11.3656C20.3074 11.1348 19.9612 10.9618 19.6151 10.9618C18.9805 10.9618 18.4612 11.481 18.4612 12.1156C18.4612 12.3464 18.5189 12.5195 18.6343 12.6925C18.5766 12.6925 18.5189 12.6925 18.4612 12.6925C18.1151 12.6925 17.8266 12.8656 17.5959 13.0964C17.4228 12.8656 17.0766 12.6925 16.7305 12.6925C16.3843 12.6925 16.0959 12.8656 15.8651 13.0964C15.692 12.8656 15.3459 12.6925 14.9997 12.6925C14.6535 12.6925 14.3651 12.8656 14.1343 13.0964C13.9612 12.8656 13.6151 12.6925 13.2689 12.6925C12.9228 12.6925 12.6343 12.8656 12.4035 13.0964C12.2305 12.8656 11.8843 12.6925 11.5382 12.6925C11.192 12.6925 10.9035 12.8656 10.6728 13.0964C10.4997 12.8656 10.1535 12.6925 9.80739 12.6925C9.7497 12.6925 9.69201 12.6925 9.63432 12.6925C9.7497 12.5195 9.80739 12.3464 9.80739 12.1156C9.80739 11.481 9.28816 10.9618 8.65355 10.9618C8.30739 10.9618 8.01893 11.1348 7.78816 11.3656C7.61508 11.1348 7.26893 10.9618 6.92278 10.9618C6.57662 10.9618 6.28816 11.1348 6.05739 11.3656C5.88432 11.1925 5.71124 11.0771 5.42278 11.0195C5.42278 10.9041 5.48047 10.8464 5.48047 10.731C5.48047 10.0964 4.96124 9.57715 4.32662 9.57715C4.21124 9.57715 4.09585 9.57715 3.98047 9.63484C4.03816 9.46176 4.03816 9.34638 4.03816 9.23099C4.03816 8.59638 3.51893 8.07715 2.88431 8.07715C2.2497 8.07715 1.73047 8.59638 1.73047 9.23099C1.73047 9.86561 2.2497 10.3848 2.88431 10.3848C2.9997 10.3848 3.11508 10.3848 3.23047 10.3271C3.17278 10.4425 3.17278 10.5579 3.17278 10.6733C3.17278 11.2502 3.57662 11.7118 4.09585 11.8271C4.03816 11.9425 4.03816 12.0002 4.03816 12.1156C4.03816 12.7502 4.55739 13.2695 5.19201 13.2695C5.53816 13.2695 5.82662 13.0964 6.05739 12.8656C6.28816 13.0964 6.57662 13.2695 6.92278 13.2695C7.26893 13.2695 7.55739 13.0964 7.78816 12.8656C8.01893 13.0964 8.30739 13.2695 8.65355 13.2695C8.71124 13.2695 8.76893 13.2695 8.82662 13.2695C8.71124 13.4425 8.65355 13.6156 8.65355 13.8464C8.65355 14.481 9.17278 15.0002 9.80739 15.0002C10.1535 15.0002 10.442 14.8271 10.6728 14.5964C10.9035 14.8271 11.192 15.0002 11.5382 15.0002C11.8843 15.0002 12.1728 14.8271 12.4035 14.5964C12.6343 14.8271 12.9228 15.0002 13.2689 15.0002C13.6151 15.0002 13.9035 14.8271 14.1343 14.5964C14.3651 14.8271 14.6535 15.0002 14.9997 15.0002C15.3459 15.0002 15.6343 14.8271 15.8651 14.5964C16.0959 14.8271 16.3843 15.0002 16.7305 15.0002C17.0766 15.0002 17.3651 14.8271 17.5959 14.5964C17.8266 14.8271 18.1151 15.0002 18.4612 15.0002C19.0959 15.0002 19.6151 14.481 19.6151 13.8464C19.6151 13.6156 19.5574 13.4425 19.442 13.2695C19.4997 13.2695 19.5574 13.2695 19.6151 13.2695C19.9612 13.2695 20.2497 13.0964 20.4805 12.8656C20.7112 13.0964 20.9997 13.2695 21.3459 13.2695C21.692 13.2695 21.9805 13.0964 22.2112 12.8656C22.442 13.0964 22.7305 13.2695 23.0766 13.2695C23.7112 13.2695 24.2305 12.7502 24.2305 12.1156C24.2305 12.0002 24.2305 11.8848 24.1728 11.7695C24.2882 11.8271 24.4035 11.8271 24.5189 11.8271C25.1535 11.8271 25.6728 11.3079 25.6728 10.6733C26.3074 10.6733 26.8266 10.1541 26.8266 9.51946C26.8266 8.88484 26.3074 8.36561 25.6728 8.36561Z" fill="#9BC5EF"/>
</svg>
