			<svg
				width="33"
				height="19"
				viewBox="0 0 33 19"
				fill="none"
				xmlns="http://www.w3.org/2000/svg"
			>
				<path
					d="M14.0974 3.63006C14.0974 2.83443 13.451 2.18798 12.6554 2.18798C12.2327 2.18798 11.81 2.33716 11.5365 2.66038C11.4868 2.56093 11.4868 2.56093 11.437 2.5112C11.7603 2.23771 11.9094 1.86475 11.9094 1.44208C11.9094 0.646448 11.263 0 10.4674 0H8.27939C7.48376 0 6.78759 0.646448 6.78759 1.44208C6.78759 1.86475 7.01136 2.23771 7.30972 2.5112C7.25999 2.56093 7.21027 2.61066 7.16054 2.66038C6.88704 2.33716 6.51409 2.18798 6.09141 2.18798C5.29578 2.18798 4.59961 2.83443 4.59961 3.63006C4.59961 4.42569 5.29578 5.07213 6.09141 5.07213C6.51409 5.07213 6.88704 4.92295 7.16054 4.59973C7.21027 4.64946 7.25999 4.69918 7.30972 4.74891C6.9865 5.02241 6.78759 5.39536 6.78759 5.81804C6.78759 6.61366 7.48376 7.30984 8.27939 7.30984H10.4674C11.263 7.30984 11.9094 6.61366 11.9094 5.81804C11.9094 5.39536 11.7603 5.02241 11.437 4.74891C11.4868 4.69918 11.4868 4.69918 11.5365 4.59973C11.81 4.92295 12.2327 5.07213 12.6554 5.07213C13.451 5.07213 14.0974 4.42569 14.0974 3.63006Z"
					fill="white"></path>
				<path
					d="M18.8965 14.5704C18.8965 15.366 19.5429 16.0125 20.3386 16.0125C20.7612 16.0125 21.1839 15.8633 21.4574 15.5401C21.5071 15.6395 21.5071 15.6395 21.5569 15.6893C21.2336 15.9628 21.0845 16.3357 21.0845 16.7584C21.0845 17.554 21.7309 18.2005 22.5265 18.2005H24.7145C25.5101 18.2005 26.2063 17.554 26.2063 16.7584C26.2063 16.3357 25.9826 15.9628 25.6842 15.6893C25.7339 15.6395 25.7836 15.5898 25.8334 15.5401C26.1069 15.8633 26.4798 16.0125 26.9025 16.0125C27.6981 16.0125 28.3943 15.366 28.3943 14.5704C28.3943 13.7748 27.6981 13.1283 26.9025 13.1283C26.4798 13.1283 26.1069 13.2775 25.8334 13.6007C25.7836 13.551 25.7339 13.5013 25.6842 13.4516C26.0074 13.1781 26.2063 12.8051 26.2063 12.3824C26.2063 11.5868 25.5101 10.8906 24.7145 10.8906H22.5265C21.7309 10.8906 21.0845 11.5868 21.0845 12.3824C21.0845 12.8051 21.2336 13.1781 21.5569 13.4516C21.5071 13.5013 21.5071 13.5013 21.4574 13.6007C21.1839 13.2775 20.7612 13.1283 20.3386 13.1283C19.5181 13.1283 18.8965 13.7748 18.8965 14.5704Z"
					fill="white"></path>
				<path
					d="M32.1235 4.50028H0.845356C0.372951 4.50028 0 4.12733 0 3.65493C0 3.18252 0.372951 2.80957 0.845356 2.80957H32.1235C32.5959 2.80957 32.9689 3.18252 32.9689 3.65493C32.9689 4.12733 32.5959 4.50028 32.1235 4.50028Z"
					fill="white"></path>
				<path
					d="M32.1235 15.3899H0.845356C0.372951 15.3899 0 15.017 0 14.5446C0 14.0722 0.372951 13.6992 0.845356 13.6992H32.1235C32.5959 13.6992 32.9689 14.0722 32.9689 14.5446C32.9689 15.017 32.5959 15.3899 32.1235 15.3899Z"
					fill="white"></path>
			</svg>