<svg width="23" height="19" viewBox="0 0 23 19" fill="none" xmlns="http://www.w3.org/2000/svg">
<path d="M21.7321 7.98545C21.6719 7.98545 21.6116 7.98545 21.5513 8.04727V7.98545C21.5513 7.92364 21.6116 7.86182 21.6116 7.86182V7.30545C21.6116 7.12 21.4911 6.93455 21.25 6.93455C21.1897 6.93455 21.1295 6.93455 21.0692 6.99636V6.74909C21.0692 6.56364 20.9487 6.37818 20.7076 6.37818C20.5871 6.37818 20.5268 6.44 20.4665 6.50182C20.4063 6.44 20.346 6.37818 20.2254 6.37818C20.1049 6.37818 20.0446 6.44 19.9844 6.50182C19.9241 6.44 19.8036 6.37818 19.7433 6.37818C19.6228 6.37818 19.5625 6.44 19.5022 6.50182C19.5022 6.50182 19.5022 6.50182 19.442 6.50182V5.20364C19.442 5.01818 19.3214 4.83273 19.0804 4.83273C19.0201 4.83273 18.9598 4.83273 18.8996 4.89455L18.8393 4.83273C18.8393 4.77091 18.8996 4.70909 18.8996 4.70909V4.15273C18.8996 3.96727 18.779 3.78182 18.5379 3.78182C18.4777 3.78182 18.4174 3.78182 18.3571 3.84364V3.65818C18.3571 3.47273 18.2366 3.28727 17.9955 3.28727C17.875 3.28727 17.8147 3.34909 17.7545 3.41091C17.6942 3.34909 17.6339 3.28727 17.5134 3.28727C17.3929 3.28727 17.3326 3.34909 17.2723 3.41091C17.2121 3.34909 17.0915 3.28727 17.0312 3.28727C16.9107 3.28727 16.8504 3.34909 16.7902 3.41091C16.7299 3.34909 16.6094 3.28727 16.5491 3.28727C16.4286 3.28727 16.3683 3.34909 16.308 3.41091C16.2478 3.34909 16.1272 3.28727 16.067 3.28727C16.0067 3.28727 15.8862 3.34909 15.8259 3.41091C15.7656 3.34909 15.7054 3.28727 15.5848 3.28727C15.4643 3.28727 15.404 3.34909 15.3438 3.41091C15.2835 3.34909 15.2232 3.28727 15.1027 3.28727C14.9821 3.28727 14.9219 3.34909 14.8616 3.41091C14.8013 3.34909 14.7411 3.34909 14.6808 3.28727V2.97818C14.6808 2.79273 14.5603 2.60727 14.3192 2.60727C14.2589 2.60727 14.1987 2.60727 14.1384 2.66909L14.0781 2.60727C14.0781 2.54545 14.1384 2.48364 14.1384 2.48364V1.92727C14.1384 1.74182 14.0179 1.55636 13.7768 1.55636C13.7165 1.55636 13.6563 1.55636 13.596 1.61818V1.37091C13.596 1.18545 13.4754 1 13.2344 1C13.1138 1 13.0536 1.06182 12.9933 1.12364C12.933 1.06182 12.8728 1 12.7522 1C12.6317 1 12.5714 1.06182 12.5112 1.12364C12.4509 1.06182 12.3304 1 12.2701 1C12.1496 1 12.0893 1.06182 12.029 1.12364C11.9688 1.06182 11.8482 1 11.7879 1C11.6674 1 11.6071 1.06182 11.5469 1.12364C11.4866 1.06182 11.3661 1 11.3058 1C11.1853 1 11.125 1.06182 11.0647 1.12364C11.0045 1.06182 10.9442 1 10.8237 1C10.7031 1 10.6429 1.06182 10.5826 1.12364C10.5223 1.06182 10.4621 1 10.3415 1C10.221 1 10.1607 1.06182 10.1004 1.12364C10.0402 1.06182 9.97991 1 9.85938 1C9.6183 1 9.49777 1.12364 9.49777 1.37091V1.61818C9.4375 1.61818 9.37723 1.55636 9.31697 1.55636C9.13616 1.55636 8.95536 1.68 8.95536 1.92727V2.42182C8.95536 2.54545 9.01563 2.66909 9.13616 2.73091V2.79273C9.07589 2.66909 8.95536 2.60727 8.83482 2.60727C8.65402 2.60727 8.47322 2.73091 8.47322 2.97818V3.34909C8.41295 3.34909 8.35268 3.41091 8.29241 3.47273C8.23214 3.41091 8.17188 3.34909 8.05134 3.34909C7.9308 3.34909 7.87054 3.41091 7.81027 3.47273C7.75 3.41091 7.62947 3.34909 7.5692 3.34909C7.44866 3.34909 7.38839 3.41091 7.32813 3.47273C7.26786 3.41091 7.14732 3.34909 7.08705 3.34909C6.96652 3.34909 6.90625 3.41091 6.84598 3.47273C6.72545 3.34909 6.66518 3.28727 6.54464 3.28727C6.42411 3.28727 6.36384 3.34909 6.30357 3.41091C6.2433 3.34909 6.12277 3.28727 6.0625 3.28727C5.94196 3.28727 5.8817 3.34909 5.76116 3.41091C5.70089 3.34909 5.64063 3.28727 5.52009 3.28727C5.45982 3.28727 5.33929 3.34909 5.27902 3.41091C5.21875 3.34909 5.15848 3.28727 5.03795 3.28727C4.85714 3.28727 4.67634 3.47273 4.67634 3.65818V3.90545C4.61607 3.90545 4.5558 3.84364 4.49554 3.84364C4.31473 3.84364 4.13393 3.96727 4.13393 4.21455V4.70909C4.13393 4.83273 4.1942 4.95636 4.31473 5.01818V5.08C4.25446 4.95636 4.13393 4.89455 4.01339 4.89455C3.83259 4.89455 3.65179 5.01818 3.65179 5.26545V6.56364C3.65179 6.56364 3.65179 6.56364 3.59152 6.56364C3.53125 6.50182 3.47098 6.44 3.35045 6.44C3.22991 6.44 3.16964 6.50182 3.10938 6.56364C3.04911 6.50182 2.98884 6.44 2.8683 6.44C2.74777 6.44 2.6875 6.50182 2.62723 6.56364C2.56696 6.50182 2.5067 6.44 2.38616 6.44C2.14509 6.44 2.02455 6.56364 2.02455 6.81091V7.05818C1.96429 7.05818 1.90402 6.99636 1.84375 6.99636C1.66295 6.99636 1.48214 7.12 1.48214 7.36727V7.86182C1.48214 7.98545 1.54241 8.10909 1.66295 8.17091V8.23273C1.60268 8.10909 1.48214 8.04727 1.36161 8.04727C1.1808 8.04727 1 8.17091 1 8.41818V9.96364C1 10.1491 1.12054 10.3345 1.36161 10.3345C1.48214 10.3345 1.60268 10.2727 1.66295 10.1491V10.2109C1.54241 10.2727 1.54241 10.3964 1.54241 10.52V10.8909C1.54241 11.0764 1.72321 11.2618 1.90402 11.2618C1.96429 11.2618 2.02455 11.2618 2.08482 11.2V11.4473C2.08482 11.6327 2.26562 11.8182 2.44643 11.8182C2.56696 11.8182 2.62723 11.7564 2.6875 11.6945C2.74777 11.7564 2.8683 11.8182 2.92857 11.8182C3.04911 11.8182 3.10938 11.7564 3.16964 11.6945C3.22991 11.7564 3.35045 11.8182 3.41071 11.8182C3.47098 11.8182 3.59152 11.7564 3.65179 11.6945C3.71205 11.7564 3.83259 11.8182 3.89286 11.8182C4.01339 11.8182 4.07366 11.7564 4.13393 11.6945C4.13393 11.8182 4.1942 11.9418 4.31473 12.0036V12.0655C4.25446 11.9418 4.13393 11.88 4.01339 11.88C3.83259 11.88 3.65179 12.0036 3.65179 12.2509V13.7964C3.65179 13.9818 3.77232 14.1673 4.01339 14.1673C4.13393 14.1673 4.25446 14.1055 4.31473 13.9818V14.0436C4.1942 14.1055 4.1942 14.2291 4.1942 14.3527V14.8473C4.1942 15.0327 4.375 15.2182 4.5558 15.2182C4.61607 15.2182 4.67634 15.2182 4.73661 15.1564V15.4036C4.73661 15.5891 4.91741 15.7745 5.09821 15.7745C5.21875 15.7745 5.27902 15.7127 5.33929 15.6509C5.39955 15.7127 5.52009 15.7745 5.58036 15.7745C5.70089 15.7745 5.76116 15.7127 5.82143 15.6509C5.8817 15.7127 6.00223 15.7745 6.0625 15.7745C6.18304 15.7745 6.2433 15.7127 6.30357 15.6509C6.36384 15.7127 6.48438 15.7745 6.54464 15.7745C6.60491 15.7745 6.72545 15.7127 6.78571 15.6509C6.84598 15.7127 6.90625 15.7745 7.02679 15.7745C7.14732 15.7745 7.20759 15.7127 7.26786 15.6509C7.32813 15.7127 7.38839 15.7745 7.50893 15.7745C7.62946 15.7745 7.68973 15.7127 7.75 15.6509C7.81027 15.7127 7.87054 15.7745 7.99107 15.7745C8.05134 15.7745 8.11161 15.7745 8.17188 15.7127V16.0218C8.17188 16.2073 8.29241 16.3927 8.53348 16.3927C8.65402 16.3927 8.77455 16.3309 8.83482 16.2073V16.2691C8.71429 16.3309 8.71429 16.4545 8.71429 16.5782V17.0727C8.71429 17.2582 8.89509 17.4436 9.07589 17.4436C9.13616 17.4436 9.19643 17.4436 9.2567 17.3818V17.6291C9.2567 17.8145 9.4375 18 9.6183 18C9.73884 18 9.79911 17.9382 9.85938 17.8764C9.91964 17.9382 10.0402 18 10.1004 18C10.221 18 10.2813 17.9382 10.3415 17.8764C10.4018 17.9382 10.5223 18 10.5826 18C10.7031 18 10.7634 17.9382 10.8237 17.8764C10.8839 17.9382 11.0045 18 11.0647 18C11.1853 18 11.2455 17.9382 11.3058 17.8764C11.3661 17.9382 11.4263 18 11.5469 18C11.6674 18 11.7277 17.9382 11.7879 17.8764C11.8482 17.9382 11.9085 18 12.029 18C12.1496 18 12.2098 17.9382 12.2701 17.8764C12.3304 17.9382 12.3906 18 12.5112 18C12.6317 18 12.692 17.9382 12.7522 17.8764C12.8125 17.9382 12.8728 18 12.9933 18C13.1741 18 13.3549 17.8764 13.3549 17.6291V17.3818C13.4152 17.4436 13.4754 17.4436 13.5357 17.4436C13.7165 17.4436 13.8973 17.32 13.8973 17.0727V16.5782C13.8973 16.4545 13.7768 16.2691 13.6563 16.2073L13.7165 16.0836C13.7768 16.2073 13.8973 16.3309 14.0781 16.3309C14.2589 16.3309 14.3795 16.2073 14.3795 16.0218V15.7127C14.4397 15.7127 14.5 15.7745 14.5603 15.7745C14.6808 15.7745 14.7411 15.7127 14.8013 15.6509C14.8616 15.7127 14.9821 15.7745 15.0424 15.7745C15.1629 15.7745 15.2232 15.7127 15.2835 15.6509C15.3438 15.7127 15.4643 15.7745 15.5246 15.7745C15.6451 15.7745 15.7054 15.7127 15.7656 15.6509C15.8259 15.7127 15.9464 15.7745 16.0067 15.7745C16.1272 15.7745 16.1875 15.7127 16.2478 15.6509C16.308 15.7127 16.3683 15.7745 16.4888 15.7745C16.6094 15.7745 16.6696 15.7127 16.7299 15.6509C16.7902 15.7127 16.8504 15.7745 16.971 15.7745C17.0915 15.7745 17.1518 15.7127 17.2121 15.6509C17.2723 15.7127 17.3326 15.7745 17.4531 15.7745C17.5737 15.7745 17.6339 15.7127 17.6942 15.6509C17.7545 15.7127 17.8147 15.7745 17.9353 15.7745C18.1161 15.7745 18.2969 15.6509 18.2969 15.4036V15.1564C18.3571 15.2182 18.4174 15.2182 18.4777 15.2182C18.6585 15.2182 18.8393 15.0945 18.8393 14.8473V14.3527C18.8393 14.2291 18.7188 14.0436 18.5982 13.9818L18.6585 13.8582C18.7188 13.9818 18.8393 14.1055 19.0201 14.1055C19.2009 14.1055 19.3214 13.9818 19.3214 13.7964V12.2509C19.3214 12.0655 19.2009 11.88 18.9598 11.88C18.8996 11.88 18.8393 11.88 18.779 11.9418L18.7188 11.88C18.7188 11.8182 18.779 11.7564 18.779 11.7564C18.779 11.7564 18.779 11.7564 18.8393 11.7564C18.8996 11.8182 18.9598 11.88 19.0804 11.88C19.2009 11.88 19.2612 11.8182 19.3214 11.7564C19.3817 11.8182 19.442 11.88 19.5625 11.88C19.683 11.88 19.7433 11.8182 19.8036 11.7564C19.8638 11.8182 19.9241 11.88 20.0446 11.88C20.1652 11.88 20.2254 11.8182 20.2857 11.7564C20.346 11.8182 20.4062 11.88 20.5268 11.88C20.7076 11.88 20.8884 11.7564 20.8884 11.5091V11.2618C20.9487 11.3236 21.0089 11.3236 21.0692 11.3236C21.25 11.3236 21.4308 11.2 21.4308 10.9527V10.4582C21.4308 10.3345 21.3103 10.1491 21.1897 10.0873L21.25 9.96364C21.3103 10.0873 21.4308 10.2109 21.6116 10.2109C21.7924 10.2109 21.9129 10.0873 21.9129 9.90182V8.35636C22.0937 8.10909 21.9732 7.98545 21.7321 7.98545Z" stroke="black" stroke-miterlimit="10" stroke-linecap="round" stroke-linejoin="round"/>
</svg>
