<svg width="24" height="23" viewBox="0 0 24 23" fill="none" xmlns="http://www.w3.org/2000/svg">
<g clip-path="url(#clip0_1888_1909)">
<path d="M2.60941 3.45223C3.11156 3.45223 3.51863 3.04516 3.51863 2.54301C3.51863 2.04086 3.11156 1.63379 2.60941 1.63379C2.10727 1.63379 1.7002 2.04086 1.7002 2.54301C1.7002 3.04516 2.10727 3.45223 2.60941 3.45223Z" fill="#589FE5"/>
<path d="M11.5596 1.81844C12.0618 1.81844 12.4688 1.41137 12.4688 0.909219C12.4688 0.407071 12.0618 0 11.5596 0C11.0575 0 10.6504 0.407071 10.6504 0.909219C10.6504 1.41137 11.0575 1.81844 11.5596 1.81844Z" fill="#589FE5"/>
<path d="M11.5596 3.45223C12.0618 3.45223 12.4688 3.04516 12.4688 2.54301C12.4688 2.04086 12.0618 1.63379 11.5596 1.63379C11.0575 1.63379 10.6504 2.04086 10.6504 2.54301C10.6504 3.04516 11.0575 3.45223 11.5596 3.45223Z" fill="#589FE5"/>
<path d="M9.93363 6.4825C10.4358 6.4825 10.8429 6.07543 10.8429 5.57328C10.8429 5.07113 10.4358 4.66406 9.93363 4.66406C9.43149 4.66406 9.02441 5.07113 9.02441 5.57328C9.02441 6.07543 9.43149 6.4825 9.93363 6.4825Z" fill="#589FE5"/>
<path d="M8.71293 7.81258C9.21508 7.81258 9.62215 7.40551 9.62215 6.90336C9.62215 6.40121 9.21508 5.99414 8.71293 5.99414C8.21078 5.99414 7.80371 6.40121 7.80371 6.90336C7.80371 7.40551 8.21078 7.81258 8.71293 7.81258Z" fill="#589FE5"/>
<path d="M6.97074 7.81258C7.47289 7.81258 7.87996 7.40551 7.87996 6.90336C7.87996 6.40121 7.47289 5.99414 6.97074 5.99414C6.46859 5.99414 6.06152 6.40121 6.06152 6.90336C6.06152 7.40551 6.46859 7.81258 6.97074 7.81258Z" fill="#589FE5"/>
<path d="M6.97074 9.55574C7.47289 9.55574 7.87996 9.14867 7.87996 8.64652C7.87996 8.14438 7.47289 7.7373 6.97074 7.7373C6.46859 7.7373 6.06152 8.14438 6.06152 8.64652C6.06152 9.14867 6.46859 9.55574 6.97074 9.55574Z" fill="#589FE5"/>
<path d="M16.1895 9.55574C16.6916 9.55574 17.0987 9.14867 17.0987 8.64652C17.0987 8.14438 16.6916 7.7373 16.1895 7.7373C15.6873 7.7373 15.2803 8.14438 15.2803 8.64652C15.2803 9.14867 15.6873 9.55574 16.1895 9.55574Z" fill="#589FE5"/>
<path d="M16.1895 7.81258C16.6916 7.81258 17.0987 7.40551 17.0987 6.90336C17.0987 6.40121 16.6916 5.99414 16.1895 5.99414C15.6873 5.99414 15.2803 6.40121 15.2803 6.90336C15.2803 7.40551 15.6873 7.81258 16.1895 7.81258Z" fill="#589FE5"/>
<path d="M14.4463 7.81258C14.9485 7.81258 15.3555 7.40551 15.3555 6.90336C15.3555 6.40121 14.9485 5.99414 14.4463 5.99414C13.9442 5.99414 13.5371 6.40121 13.5371 6.90336C13.5371 7.40551 13.9442 7.81258 14.4463 7.81258Z" fill="#589FE5"/>
<path d="M6.97074 15.2882C7.47289 15.2882 7.87996 14.8811 7.87996 14.3789C7.87996 13.8768 7.47289 13.4697 6.97074 13.4697C6.46859 13.4697 6.06152 13.8768 6.06152 14.3789C6.06152 14.8811 6.46859 15.2882 6.97074 15.2882Z" fill="#589FE5"/>
<path d="M6.97074 17.0313C7.47289 17.0313 7.87996 16.6243 7.87996 16.1221C7.87996 15.62 7.47289 15.2129 6.97074 15.2129C6.46859 15.2129 6.06152 15.62 6.06152 16.1221C6.06152 16.6243 6.46859 17.0313 6.97074 17.0313Z" fill="#589FE5"/>
<path d="M8.71293 17.0313C9.21508 17.0313 9.62215 16.6243 9.62215 16.1221C9.62215 15.62 9.21508 15.2129 8.71293 15.2129C8.21078 15.2129 7.80371 15.62 7.80371 16.1221C7.80371 16.6243 8.21078 17.0313 8.71293 17.0313Z" fill="#589FE5"/>
<path d="M14.4463 17.0313C14.9485 17.0313 15.3555 16.6243 15.3555 16.1221C15.3555 15.62 14.9485 15.2129 14.4463 15.2129C13.9442 15.2129 13.5371 15.62 13.5371 16.1221C13.5371 16.6243 13.9442 17.0313 14.4463 17.0313Z" fill="#589FE5"/>
<path d="M16.1895 17.0313C16.6916 17.0313 17.0987 16.6243 17.0987 16.1221C17.0987 15.62 16.6916 15.2129 16.1895 15.2129C15.6873 15.2129 15.2803 15.62 15.2803 16.1221C15.2803 16.6243 15.6873 17.0313 16.1895 17.0313Z" fill="#589FE5"/>
<path d="M16.1895 15.2882C16.6916 15.2882 17.0987 14.8811 17.0987 14.3789C17.0987 13.8768 16.6916 13.4697 16.1895 13.4697C15.6873 13.4697 15.2803 13.8768 15.2803 14.3789C15.2803 14.8811 15.6873 15.2882 16.1895 15.2882Z" fill="#589FE5"/>
<path d="M11.5596 6.4825C12.0618 6.4825 12.4688 6.07543 12.4688 5.57328C12.4688 5.07113 12.0618 4.66406 11.5596 4.66406C11.0575 4.66406 10.6504 5.07113 10.6504 5.57328C10.6504 6.07543 11.0575 6.4825 11.5596 6.4825Z" fill="#589FE5"/>
<path d="M13.1924 6.4825C13.6946 6.4825 14.1016 6.07543 14.1016 5.57328C14.1016 5.07113 13.6946 4.66406 13.1924 4.66406C12.6903 4.66406 12.2832 5.07113 12.2832 5.57328C12.2832 6.07543 12.6903 6.4825 13.1924 6.4825Z" fill="#589FE5"/>
<path d="M9.93363 18.3956C10.4358 18.3956 10.8429 17.9885 10.8429 17.4864C10.8429 16.9842 10.4358 16.5771 9.93363 16.5771C9.43149 16.5771 9.02441 16.9842 9.02441 17.4864C9.02441 17.9885 9.43149 18.3956 9.93363 18.3956Z" fill="#589FE5"/>
<path d="M11.5596 18.3956C12.0618 18.3956 12.4688 17.9885 12.4688 17.4864C12.4688 16.9842 12.0618 16.5771 11.5596 16.5771C11.0575 16.5771 10.6504 16.9842 10.6504 17.4864C10.6504 17.9885 11.0575 18.3956 11.5596 18.3956Z" fill="#589FE5"/>
<path d="M13.1924 18.3956C13.6946 18.3956 14.1016 17.9885 14.1016 17.4864C14.1016 16.9842 13.6946 16.5771 13.1924 16.5771C12.6903 16.5771 12.2832 16.9842 12.2832 17.4864C12.2832 17.9885 12.6903 18.3956 13.1924 18.3956Z" fill="#589FE5"/>
<path d="M5.64066 10.793C6.14281 10.793 6.54988 10.386 6.54988 9.88383C6.54988 9.38168 6.14281 8.97461 5.64066 8.97461C5.13852 8.97461 4.73145 9.38168 4.73145 9.88383C4.73145 10.386 5.13852 10.793 5.64066 10.793Z" fill="#589FE5"/>
<path d="M5.64066 12.4171C6.14281 12.4171 6.54988 12.01 6.54988 11.5079C6.54988 11.0057 6.14281 10.5986 5.64066 10.5986C5.13852 10.5986 4.73145 11.0057 4.73145 11.5079C4.73145 12.01 5.13852 12.4171 5.64066 12.4171Z" fill="#589FE5"/>
<path d="M5.64066 14.0509C6.14281 14.0509 6.54988 13.6438 6.54988 13.1416C6.54988 12.6395 6.14281 12.2324 5.64066 12.2324C5.13852 12.2324 4.73145 12.6395 4.73145 13.1416C4.73145 13.6438 5.13852 14.0509 5.64066 14.0509Z" fill="#589FE5"/>
<path d="M17.5528 10.793C18.0549 10.793 18.462 10.386 18.462 9.88383C18.462 9.38168 18.0549 8.97461 17.5528 8.97461C17.0506 8.97461 16.6436 9.38168 16.6436 9.88383C16.6436 10.386 17.0506 10.793 17.5528 10.793Z" fill="#589FE5"/>
<path d="M17.5528 12.4171C18.0549 12.4171 18.462 12.01 18.462 11.5079C18.462 11.0057 18.0549 10.5986 17.5528 10.5986C17.0506 10.5986 16.6436 11.0057 16.6436 11.5079C16.6436 12.01 17.0506 12.4171 17.5528 12.4171Z" fill="#589FE5"/>
<path d="M17.5528 14.0509C18.0549 14.0509 18.462 13.6438 18.462 13.1416C18.462 12.6395 18.0549 12.2324 17.5528 12.2324C17.0506 12.2324 16.6436 12.6395 16.6436 13.1416C16.6436 13.6438 17.0506 14.0509 17.5528 14.0509Z" fill="#589FE5"/>
<path d="M11.5596 21.3751C12.0618 21.3751 12.4688 20.968 12.4688 20.4659C12.4688 19.9637 12.0618 19.5566 11.5596 19.5566C11.0575 19.5566 10.6504 19.9637 10.6504 20.4659C10.6504 20.968 11.0575 21.3751 11.5596 21.3751Z" fill="#589FE5"/>
<path d="M11.5596 23.0001C12.0618 23.0001 12.4688 22.593 12.4688 22.0909C12.4688 21.5887 12.0618 21.1816 11.5596 21.1816C11.0575 21.1816 10.6504 21.5887 10.6504 22.0909C10.6504 22.593 11.0575 23.0001 11.5596 23.0001Z" fill="#589FE5"/>
<path d="M2.54301 12.5264C3.04516 12.5264 3.45223 12.1194 3.45223 11.6172C3.45223 11.1151 3.04516 10.708 2.54301 10.708C2.04086 10.708 1.63379 11.1151 1.63379 11.6172C1.63379 12.1194 2.04086 12.5264 2.54301 12.5264Z" fill="#589FE5"/>
<path d="M0.909219 12.5264C1.41137 12.5264 1.81844 12.1194 1.81844 11.6172C1.81844 11.1151 1.41137 10.708 0.909219 10.708C0.407071 10.708 0 11.1151 0 11.6172C0 12.1194 0.407071 12.5264 0.909219 12.5264Z" fill="#589FE5"/>
<path d="M22.1661 12.5264C22.6682 12.5264 23.0753 12.1194 23.0753 11.6172C23.0753 11.1151 22.6682 10.708 22.1661 10.708C21.6639 10.708 21.2568 11.1151 21.2568 11.6172C21.2568 12.1194 21.6639 12.5264 22.1661 12.5264Z" fill="#589FE5"/>
<path d="M20.5332 12.5264C21.0354 12.5264 21.4425 12.1194 21.4425 11.6172C21.4425 11.1151 21.0354 10.708 20.5332 10.708C20.0311 10.708 19.624 11.1151 19.624 11.6172C19.624 12.1194 20.0311 12.5264 20.5332 12.5264Z" fill="#589FE5"/>
<path d="M20.5918 3.45223C21.094 3.45223 21.5011 3.04516 21.5011 2.54301C21.5011 2.04086 21.094 1.63379 20.5918 1.63379C20.0897 1.63379 19.6826 2.04086 19.6826 2.54301C19.6826 3.04516 20.0897 3.45223 20.5918 3.45223Z" fill="#589FE5"/>
<path d="M19.0928 4.89168C19.595 4.89168 20.002 4.48461 20.002 3.98246C20.002 3.48031 19.595 3.07324 19.0928 3.07324C18.5907 3.07324 18.1836 3.48031 18.1836 3.98246C18.1836 4.48461 18.5907 4.89168 19.0928 4.89168Z" fill="#589FE5"/>
<path d="M4.08305 19.9522C4.58519 19.9522 4.99227 19.5452 4.99227 19.043C4.99227 18.5409 4.58519 18.1338 4.08305 18.1338C3.5809 18.1338 3.17383 18.5409 3.17383 19.043C3.17383 19.5452 3.5809 19.9522 4.08305 19.9522Z" fill="#589FE5"/>
<path d="M2.57621 21.3917C3.07836 21.3917 3.48543 20.9846 3.48543 20.4825C3.48543 19.9803 3.07836 19.5732 2.57621 19.5732C2.07406 19.5732 1.66699 19.9803 1.66699 20.4825C1.66699 20.9846 2.07406 21.3917 2.57621 21.3917Z" fill="#589FE5"/>
<path d="M20.5498 21.4591C21.052 21.4591 21.4591 21.052 21.4591 20.5498C21.4591 20.0477 21.052 19.6406 20.5498 19.6406C20.0477 19.6406 19.6406 20.0477 19.6406 20.5498C19.6406 21.052 20.0477 21.4591 20.5498 21.4591Z" fill="#589FE5"/>
<path d="M19.1104 19.961C19.6125 19.961 20.0196 19.5539 20.0196 19.0518C20.0196 18.5496 19.6125 18.1426 19.1104 18.1426C18.6082 18.1426 18.2012 18.5496 18.2012 19.0518C18.2012 19.5539 18.6082 19.961 19.1104 19.961Z" fill="#589FE5"/>
<path d="M4.04984 4.89168C4.55199 4.89168 4.95906 4.48461 4.95906 3.98246C4.95906 3.48031 4.55199 3.07324 4.04984 3.07324C3.5477 3.07324 3.14062 3.48031 3.14062 3.98246C3.14062 4.48461 3.5477 4.89168 4.04984 4.89168Z" fill="#589FE5"/>
</g>
<defs>
<clipPath id="clip0_1888_1909">
<rect width="23.0756" height="22.9999" fill="white"/>
</clipPath>
</defs>
</svg>
