<svg width="28" height="28" viewBox="0 0 28 28" fill="none" xmlns="http://www.w3.org/2000/svg">
<path d="M3.1 4.10039C3.70751 4.10039 4.2 3.6079 4.2 3.00039C4.2 2.39288 3.70751 1.90039 3.1 1.90039C2.49249 1.90039 2 2.39288 2 3.00039C2 3.6079 2.49249 4.10039 3.1 4.10039Z" fill="#9BC5EF"/>
<path d="M13.6996 2.2C14.3071 2.2 14.7996 1.70751 14.7996 1.1C14.7996 0.492487 14.3071 0 13.6996 0C13.0921 0 12.5996 0.492487 12.5996 1.1C12.5996 1.70751 13.0921 2.2 13.6996 2.2Z" fill="#9BC5EF"/>
<path d="M13.6996 4.10039C14.3071 4.10039 14.7996 3.6079 14.7996 3.00039C14.7996 2.39288 14.3071 1.90039 13.6996 1.90039C13.0921 1.90039 12.5996 2.39288 12.5996 3.00039C12.5996 3.6079 13.0921 4.10039 13.6996 4.10039Z" fill="#9BC5EF"/>
<path d="M11.8002 7.7C12.4077 7.7 12.9002 7.20751 12.9002 6.6C12.9002 5.99249 12.4077 5.5 11.8002 5.5C11.1927 5.5 10.7002 5.99249 10.7002 6.6C10.7002 7.20751 11.1927 7.7 11.8002 7.7Z" fill="#9BC5EF"/>
<path d="M10.3998 9.29961C11.0073 9.29961 11.4998 8.80712 11.4998 8.19961C11.4998 7.5921 11.0073 7.09961 10.3998 7.09961C9.79229 7.09961 9.2998 7.5921 9.2998 8.19961C9.2998 8.80712 9.79229 9.29961 10.3998 9.29961Z" fill="#9BC5EF"/>
<path d="M8.3002 9.29961C8.90771 9.29961 9.4002 8.80712 9.4002 8.19961C9.4002 7.5921 8.90771 7.09961 8.3002 7.09961C7.69268 7.09961 7.2002 7.5921 7.2002 8.19961C7.2002 8.80712 7.69268 9.29961 8.3002 9.29961Z" fill="#9BC5EF"/>
<path d="M8.3002 11.2996C8.90771 11.2996 9.4002 10.8071 9.4002 10.1996C9.4002 9.5921 8.90771 9.09961 8.3002 9.09961C7.69268 9.09961 7.2002 9.5921 7.2002 10.1996C7.2002 10.8071 7.69268 11.2996 8.3002 11.2996Z" fill="#9BC5EF"/>
<path d="M19.1996 11.2996C19.8071 11.2996 20.2996 10.8071 20.2996 10.1996C20.2996 9.5921 19.8071 9.09961 19.1996 9.09961C18.5921 9.09961 18.0996 9.5921 18.0996 10.1996C18.0996 10.8071 18.5921 11.2996 19.1996 11.2996Z" fill="#9BC5EF"/>
<path d="M19.1996 9.29961C19.8071 9.29961 20.2996 8.80712 20.2996 8.19961C20.2996 7.5921 19.8071 7.09961 19.1996 7.09961C18.5921 7.09961 18.0996 7.5921 18.0996 8.19961C18.0996 8.80712 18.5921 9.29961 19.1996 9.29961Z" fill="#9BC5EF"/>
<path d="M17.1996 9.29961C17.8071 9.29961 18.2996 8.80712 18.2996 8.19961C18.2996 7.5921 17.8071 7.09961 17.1996 7.09961C16.5921 7.09961 16.0996 7.5921 16.0996 8.19961C16.0996 8.80712 16.5921 9.29961 17.1996 9.29961Z" fill="#9BC5EF"/>
<path d="M8.3002 18.2C8.90771 18.2 9.4002 17.7075 9.4002 17.1C9.4002 16.4925 8.90771 16 8.3002 16C7.69268 16 7.2002 16.4925 7.2002 17.1C7.2002 17.7075 7.69268 18.2 8.3002 18.2Z" fill="#9BC5EF"/>
<path d="M8.3002 20.2C8.90771 20.2 9.4002 19.7075 9.4002 19.1C9.4002 18.4925 8.90771 18 8.3002 18C7.69268 18 7.2002 18.4925 7.2002 19.1C7.2002 19.7075 7.69268 20.2 8.3002 20.2Z" fill="#9BC5EF"/>
<path d="M10.3998 20.2C11.0073 20.2 11.4998 19.7075 11.4998 19.1C11.4998 18.4925 11.0073 18 10.3998 18C9.79229 18 9.2998 18.4925 9.2998 19.1C9.2998 19.7075 9.79229 20.2 10.3998 20.2Z" fill="#9BC5EF"/>
<path d="M17.1996 20.2C17.8071 20.2 18.2996 19.7075 18.2996 19.1C18.2996 18.4925 17.8071 18 17.1996 18C16.5921 18 16.0996 18.4925 16.0996 19.1C16.0996 19.7075 16.5921 20.2 17.1996 20.2Z" fill="#9BC5EF"/>
<path d="M19.1996 20.2C19.8071 20.2 20.2996 19.7075 20.2996 19.1C20.2996 18.4925 19.8071 18 19.1996 18C18.5921 18 18.0996 18.4925 18.0996 19.1C18.0996 19.7075 18.5921 20.2 19.1996 20.2Z" fill="#9BC5EF"/>
<path d="M19.1996 18.2C19.8071 18.2 20.2996 17.7075 20.2996 17.1C20.2996 16.4925 19.8071 16 19.1996 16C18.5921 16 18.0996 16.4925 18.0996 17.1C18.0996 17.7075 18.5921 18.2 19.1996 18.2Z" fill="#9BC5EF"/>
<path d="M13.6996 7.7C14.3071 7.7 14.7996 7.20751 14.7996 6.6C14.7996 5.99249 14.3071 5.5 13.6996 5.5C13.0921 5.5 12.5996 5.99249 12.5996 6.6C12.5996 7.20751 13.0921 7.7 13.6996 7.7Z" fill="#9BC5EF"/>
<path d="M15.6996 7.7C16.3071 7.7 16.7996 7.20751 16.7996 6.6C16.7996 5.99249 16.3071 5.5 15.6996 5.5C15.0921 5.5 14.5996 5.99249 14.5996 6.6C14.5996 7.20751 15.0921 7.7 15.6996 7.7Z" fill="#9BC5EF"/>
<path d="M11.8002 21.7996C12.4077 21.7996 12.9002 21.3071 12.9002 20.6996C12.9002 20.0921 12.4077 19.5996 11.8002 19.5996C11.1927 19.5996 10.7002 20.0921 10.7002 20.6996C10.7002 21.3071 11.1927 21.7996 11.8002 21.7996Z" fill="#9BC5EF"/>
<path d="M13.6996 21.7996C14.3071 21.7996 14.7996 21.3071 14.7996 20.6996C14.7996 20.0921 14.3071 19.5996 13.6996 19.5996C13.0921 19.5996 12.5996 20.0921 12.5996 20.6996C12.5996 21.3071 13.0921 21.7996 13.6996 21.7996Z" fill="#9BC5EF"/>
<path d="M15.6996 21.7996C16.3071 21.7996 16.7996 21.3071 16.7996 20.6996C16.7996 20.0921 16.3071 19.5996 15.6996 19.5996C15.0921 19.5996 14.5996 20.0921 14.5996 20.6996C14.5996 21.3071 15.0921 21.7996 15.6996 21.7996Z" fill="#9BC5EF"/>
<path d="M6.69961 12.7996C7.30712 12.7996 7.79961 12.3071 7.79961 11.6996C7.79961 11.0921 7.30712 10.5996 6.69961 10.5996C6.0921 10.5996 5.59961 11.0921 5.59961 11.6996C5.59961 12.3071 6.0921 12.7996 6.69961 12.7996Z" fill="#9BC5EF"/>
<path d="M6.69961 14.7996C7.30712 14.7996 7.79961 14.3071 7.79961 13.6996C7.79961 13.0921 7.30712 12.5996 6.69961 12.5996C6.0921 12.5996 5.59961 13.0921 5.59961 13.6996C5.59961 14.3071 6.0921 14.7996 6.69961 14.7996Z" fill="#9BC5EF"/>
<path d="M6.69961 16.7C7.30712 16.7 7.79961 16.2075 7.79961 15.6C7.79961 14.9925 7.30712 14.5 6.69961 14.5C6.0921 14.5 5.59961 14.9925 5.59961 15.6C5.59961 16.2075 6.0921 16.7 6.69961 16.7Z" fill="#9BC5EF"/>
<path d="M20.8998 12.7996C21.5073 12.7996 21.9998 12.3071 21.9998 11.6996C21.9998 11.0921 21.5073 10.5996 20.8998 10.5996C20.2923 10.5996 19.7998 11.0921 19.7998 11.6996C19.7998 12.3071 20.2923 12.7996 20.8998 12.7996Z" fill="#9BC5EF"/>
<path d="M20.8998 14.7996C21.5073 14.7996 21.9998 14.3071 21.9998 13.6996C21.9998 13.0921 21.5073 12.5996 20.8998 12.5996C20.2923 12.5996 19.7998 13.0921 19.7998 13.6996C19.7998 14.3071 20.2923 14.7996 20.8998 14.7996Z" fill="#9BC5EF"/>
<path d="M20.8998 16.7C21.5073 16.7 21.9998 16.2075 21.9998 15.6C21.9998 14.9925 21.5073 14.5 20.8998 14.5C20.2923 14.5 19.7998 14.9925 19.7998 15.6C19.7998 16.2075 20.2923 16.7 20.8998 16.7Z" fill="#9BC5EF"/>
<path d="M13.6996 25.4002C14.3071 25.4002 14.7996 24.9077 14.7996 24.3002C14.7996 23.6927 14.3071 23.2002 13.6996 23.2002C13.0921 23.2002 12.5996 23.6927 12.5996 24.3002C12.5996 24.9077 13.0921 25.4002 13.6996 25.4002Z" fill="#9BC5EF"/>
<path d="M13.6996 27.2996C14.3071 27.2996 14.7996 26.8071 14.7996 26.1996C14.7996 25.5921 14.3071 25.0996 13.6996 25.0996C13.0921 25.0996 12.5996 25.5921 12.5996 26.1996C12.5996 26.8071 13.0921 27.2996 13.6996 27.2996Z" fill="#9BC5EF"/>
<path d="M3.00039 14.9002C3.6079 14.9002 4.10039 14.4077 4.10039 13.8002C4.10039 13.1927 3.6079 12.7002 3.00039 12.7002C2.39288 12.7002 1.90039 13.1927 1.90039 13.8002C1.90039 14.4077 2.39288 14.9002 3.00039 14.9002Z" fill="#9BC5EF"/>
<path d="M1.1 14.9002C1.70751 14.9002 2.2 14.4077 2.2 13.8002C2.2 13.1927 1.70751 12.7002 1.1 12.7002C0.492487 12.7002 0 13.1927 0 13.8002C0 14.4077 0.492487 14.9002 1.1 14.9002Z" fill="#9BC5EF"/>
<path d="M26.3002 14.9002C26.9077 14.9002 27.4002 14.4077 27.4002 13.8002C27.4002 13.1927 26.9077 12.7002 26.3002 12.7002C25.6927 12.7002 25.2002 13.1927 25.2002 13.8002C25.2002 14.4077 25.6927 14.9002 26.3002 14.9002Z" fill="#9BC5EF"/>
<path d="M24.3998 14.9002C25.0073 14.9002 25.4998 14.4077 25.4998 13.8002C25.4998 13.1927 25.0073 12.7002 24.3998 12.7002C23.7923 12.7002 23.2998 13.1927 23.2998 13.8002C23.2998 14.4077 23.7923 14.9002 24.3998 14.9002Z" fill="#9BC5EF"/>
<path d="M24.4994 4.10039C25.1069 4.10039 25.5994 3.6079 25.5994 3.00039C25.5994 2.39288 25.1069 1.90039 24.4994 1.90039C23.8919 1.90039 23.3994 2.39288 23.3994 3.00039C23.3994 3.6079 23.8919 4.10039 24.4994 4.10039Z" fill="#9BC5EF"/>
<path d="M22.6996 5.80059C23.3071 5.80059 23.7996 5.3081 23.7996 4.70059C23.7996 4.09307 23.3071 3.60059 22.6996 3.60059C22.0921 3.60059 21.5996 4.09307 21.5996 4.70059C21.5996 5.3081 22.0921 5.80059 22.6996 5.80059Z" fill="#9BC5EF"/>
<path d="M4.8002 23.7C5.40771 23.7 5.9002 23.2075 5.9002 22.6C5.9002 21.9925 5.40771 21.5 4.8002 21.5C4.19268 21.5 3.7002 21.9925 3.7002 22.6C3.7002 23.2075 4.19268 23.7 4.8002 23.7Z" fill="#9BC5EF"/>
<path d="M3.1 25.4002C3.70751 25.4002 4.2 24.9077 4.2 24.3002C4.2 23.6927 3.70751 23.2002 3.1 23.2002C2.49249 23.2002 2 23.6927 2 24.3002C2 24.9077 2.49249 25.4002 3.1 25.4002Z" fill="#9BC5EF"/>
<path d="M24.3998 25.4998C25.0073 25.4998 25.4998 25.0073 25.4998 24.3998C25.4998 23.7923 25.0073 23.2998 24.3998 23.2998C23.7923 23.2998 23.2998 23.7923 23.2998 24.3998C23.2998 25.0073 23.7923 25.4998 24.3998 25.4998Z" fill="#9BC5EF"/>
<path d="M22.6996 23.7C23.3071 23.7 23.7996 23.2075 23.7996 22.6C23.7996 21.9925 23.3071 21.5 22.6996 21.5C22.0921 21.5 21.5996 21.9925 21.5996 22.6C21.5996 23.2075 22.0921 23.7 22.6996 23.7Z" fill="#9BC5EF"/>
<path d="M4.8002 5.79961C5.40771 5.79961 5.9002 5.30712 5.9002 4.69961C5.9002 4.0921 5.40771 3.59961 4.8002 3.59961C4.19268 3.59961 3.7002 4.0921 3.7002 4.69961C3.7002 5.30712 4.19268 5.79961 4.8002 5.79961Z" fill="#9BC5EF"/>
<path d="M14.3998 8.5H13.7998V9.4C13.8998 9.9 14.0998 10.4 14.3998 11.1L15.2998 13.4H13.7998V14.3H15.5998L16.5998 16.9H17.8998L14.3998 8.5Z" fill="#9BC5EF"/>
<path d="M13.3004 10.9994L12.4004 13.4994H13.8004V9.39941C13.6004 9.89941 13.5004 10.4994 13.3004 10.9994Z" fill="#9BC5EF"/>
<path d="M11.1002 16.8996H9.9002L13.2002 8.49961H13.7002V6.59961H11.8002L10.4002 8.19961H8.3002V10.1996L6.7002 11.6996V13.6996V15.5996L8.3002 17.0996V19.0996H10.4002L11.8002 20.6996H13.7002V14.3996H12.0002L11.1002 16.8996Z" fill="#9BC5EF"/>
</svg>
