<svg width="21" height="17" viewBox="0 0 21 17" fill="none" xmlns="http://www.w3.org/2000/svg">
<path d="M20.7321 6.98545C20.6719 6.98545 20.6116 6.98545 20.5513 7.04727V6.98545C20.5513 6.92364 20.6116 6.86182 20.6116 6.86182V6.30545C20.6116 6.12 20.4911 5.93455 20.25 5.93455C20.1897 5.93455 20.1295 5.93455 20.0692 5.99636V5.74909C20.0692 5.56364 19.9487 5.37818 19.7076 5.37818C19.5871 5.37818 19.5268 5.44 19.4665 5.50182C19.4063 5.44 19.346 5.37818 19.2254 5.37818C19.1049 5.37818 19.0446 5.44 18.9844 5.50182C18.9241 5.44 18.8036 5.37818 18.7433 5.37818C18.6228 5.37818 18.5625 5.44 18.5022 5.50182C18.5022 5.50182 18.5022 5.50182 18.442 5.50182V4.20364C18.442 4.01818 18.3214 3.83273 18.0804 3.83273C18.0201 3.83273 17.9598 3.83273 17.8996 3.89455L17.8393 3.83273C17.8393 3.77091 17.8996 3.70909 17.8996 3.70909V3.15273C17.8996 2.96727 17.779 2.78182 17.5379 2.78182C17.4777 2.78182 17.4174 2.78182 17.3571 2.84364V2.65818C17.3571 2.47273 17.2366 2.28727 16.9955 2.28727C16.875 2.28727 16.8147 2.34909 16.7545 2.41091C16.6942 2.34909 16.6339 2.28727 16.5134 2.28727C16.3929 2.28727 16.3326 2.34909 16.2723 2.41091C16.2121 2.34909 16.0915 2.28727 16.0312 2.28727C15.9107 2.28727 15.8504 2.34909 15.7902 2.41091C15.7299 2.34909 15.6094 2.28727 15.5491 2.28727C15.4286 2.28727 15.3683 2.34909 15.308 2.41091C15.2478 2.34909 15.1272 2.28727 15.067 2.28727C15.0067 2.28727 14.8862 2.34909 14.8259 2.41091C14.7656 2.34909 14.7054 2.28727 14.5848 2.28727C14.4643 2.28727 14.404 2.34909 14.3438 2.41091C14.2835 2.34909 14.2232 2.28727 14.1027 2.28727C13.9821 2.28727 13.9219 2.34909 13.8616 2.41091C13.8013 2.34909 13.7411 2.34909 13.6808 2.28727V1.97818C13.6808 1.79273 13.5603 1.60727 13.3192 1.60727C13.2589 1.60727 13.1987 1.60727 13.1384 1.66909L13.0781 1.60727C13.0781 1.54545 13.1384 1.48364 13.1384 1.48364V0.927273C13.1384 0.741818 13.0179 0.556364 12.7768 0.556364C12.7165 0.556364 12.6563 0.556364 12.596 0.618182V0.370909C12.596 0.185454 12.4754 0 12.2344 0C12.1138 0 12.0536 0.0618182 11.9933 0.123636C11.933 0.0618182 11.8728 0 11.7522 0C11.6317 0 11.5714 0.0618182 11.5112 0.123636C11.4509 0.0618182 11.3304 0 11.2701 0C11.1496 0 11.0893 0.0618182 11.029 0.123636C10.9688 0.0618182 10.8482 0 10.7879 0C10.6674 0 10.6071 0.0618182 10.5469 0.123636C10.4866 0.0618182 10.3661 0 10.3058 0C10.1853 0 10.125 0.0618182 10.0647 0.123636C10.0045 0.0618182 9.9442 0 9.82366 0C9.70313 0 9.64286 0.0618182 9.58259 0.123636C9.52232 0.0618182 9.46205 0 9.34152 0C9.22098 0 9.16071 0.0618182 9.10045 0.123636C9.04018 0.0618182 8.97991 0 8.85938 0C8.6183 0 8.49777 0.123636 8.49777 0.370909V0.618182C8.4375 0.618182 8.37723 0.556364 8.31697 0.556364C8.13616 0.556364 7.95536 0.68 7.95536 0.927273V1.42182C7.95536 1.54545 8.01563 1.66909 8.13616 1.73091V1.79273C8.07589 1.66909 7.95536 1.60727 7.83482 1.60727C7.65402 1.60727 7.47322 1.73091 7.47322 1.97818V2.34909C7.41295 2.34909 7.35268 2.41091 7.29241 2.47273C7.23214 2.41091 7.17188 2.34909 7.05134 2.34909C6.9308 2.34909 6.87054 2.41091 6.81027 2.47273C6.75 2.41091 6.62947 2.34909 6.5692 2.34909C6.44866 2.34909 6.38839 2.41091 6.32813 2.47273C6.26786 2.41091 6.14732 2.34909 6.08705 2.34909C5.96652 2.34909 5.90625 2.41091 5.84598 2.47273C5.72545 2.34909 5.66518 2.28727 5.54464 2.28727C5.42411 2.28727 5.36384 2.34909 5.30357 2.41091C5.2433 2.34909 5.12277 2.28727 5.0625 2.28727C4.94196 2.28727 4.8817 2.34909 4.76116 2.41091C4.70089 2.34909 4.64063 2.28727 4.52009 2.28727C4.45982 2.28727 4.33929 2.34909 4.27902 2.41091C4.21875 2.34909 4.15848 2.28727 4.03795 2.28727C3.85714 2.28727 3.67634 2.47273 3.67634 2.65818V2.90545C3.61607 2.90545 3.5558 2.84364 3.49554 2.84364C3.31473 2.84364 3.13393 2.96727 3.13393 3.21455V3.70909C3.13393 3.83273 3.1942 3.95636 3.31473 4.01818V4.08C3.25446 3.95636 3.13393 3.89455 3.01339 3.89455C2.83259 3.89455 2.65179 4.01818 2.65179 4.26545V5.56364C2.65179 5.56364 2.65179 5.56364 2.59152 5.56364C2.53125 5.50182 2.47098 5.44 2.35045 5.44C2.22991 5.44 2.16964 5.50182 2.10938 5.56364C2.04911 5.50182 1.98884 5.44 1.8683 5.44C1.74777 5.44 1.6875 5.50182 1.62723 5.56364C1.56696 5.50182 1.5067 5.44 1.38616 5.44C1.14509 5.44 1.02455 5.56364 1.02455 5.81091V6.05818C0.964286 6.05818 0.904018 5.99636 0.84375 5.99636C0.662946 5.99636 0.482143 6.12 0.482143 6.36727V6.86182C0.482143 6.98545 0.542411 7.10909 0.662946 7.17091V7.23273C0.602679 7.10909 0.482143 7.04727 0.361607 7.04727C0.180804 7.04727 0 7.17091 0 7.41818V8.96364C0 9.14909 0.120536 9.33455 0.361607 9.33455C0.482143 9.33455 0.602679 9.27273 0.662946 9.14909V9.21091C0.542411 9.27273 0.542411 9.39636 0.542411 9.52V9.89091C0.542411 10.0764 0.723214 10.2618 0.904018 10.2618C0.964286 10.2618 1.02455 10.2618 1.08482 10.2V10.4473C1.08482 10.6327 1.26562 10.8182 1.44643 10.8182C1.56696 10.8182 1.62723 10.7564 1.6875 10.6945C1.74777 10.7564 1.8683 10.8182 1.92857 10.8182C2.04911 10.8182 2.10938 10.7564 2.16964 10.6945C2.22991 10.7564 2.35045 10.8182 2.41071 10.8182C2.47098 10.8182 2.59152 10.7564 2.65179 10.6945C2.71205 10.7564 2.83259 10.8182 2.89286 10.8182C3.01339 10.8182 3.07366 10.7564 3.13393 10.6945C3.13393 10.8182 3.1942 10.9418 3.31473 11.0036V11.0655C3.25446 10.9418 3.13393 10.88 3.01339 10.88C2.83259 10.88 2.65179 11.0036 2.65179 11.2509V12.7964C2.65179 12.9818 2.77232 13.1673 3.01339 13.1673C3.13393 13.1673 3.25446 13.1055 3.31473 12.9818V13.0436C3.1942 13.1055 3.1942 13.2291 3.1942 13.3527V13.8473C3.1942 14.0327 3.375 14.2182 3.5558 14.2182C3.61607 14.2182 3.67634 14.2182 3.73661 14.1564V14.4036C3.73661 14.5891 3.91741 14.7745 4.09821 14.7745C4.21875 14.7745 4.27902 14.7127 4.33929 14.6509C4.39955 14.7127 4.52009 14.7745 4.58036 14.7745C4.70089 14.7745 4.76116 14.7127 4.82143 14.6509C4.8817 14.7127 5.00223 14.7745 5.0625 14.7745C5.18304 14.7745 5.2433 14.7127 5.30357 14.6509C5.36384 14.7127 5.48438 14.7745 5.54464 14.7745C5.60491 14.7745 5.72545 14.7127 5.78571 14.6509C5.84598 14.7127 5.90625 14.7745 6.02679 14.7745C6.14732 14.7745 6.20759 14.7127 6.26786 14.6509C6.32813 14.7127 6.38839 14.7745 6.50893 14.7745C6.62946 14.7745 6.68973 14.7127 6.75 14.6509C6.81027 14.7127 6.87054 14.7745 6.99107 14.7745C7.05134 14.7745 7.11161 14.7745 7.17188 14.7127V15.0218C7.17188 15.2073 7.29241 15.3927 7.53348 15.3927C7.65402 15.3927 7.77455 15.3309 7.83482 15.2073V15.2691C7.71429 15.3309 7.71429 15.4545 7.71429 15.5782V16.0727C7.71429 16.2582 7.89509 16.4436 8.07589 16.4436C8.13616 16.4436 8.19643 16.4436 8.2567 16.3818V16.6291C8.2567 16.8145 8.4375 17 8.6183 17C8.73884 17 8.79911 16.9382 8.85938 16.8764C8.91964 16.9382 9.04018 17 9.10045 17C9.22098 17 9.28125 16.9382 9.34152 16.8764C9.40179 16.9382 9.52232 17 9.58259 17C9.70313 17 9.76339 16.9382 9.82366 16.8764C9.88393 16.9382 10.0045 17 10.0647 17C10.1853 17 10.2455 16.9382 10.3058 16.8764C10.3661 16.9382 10.4263 17 10.5469 17C10.6674 17 10.7277 16.9382 10.7879 16.8764C10.8482 16.9382 10.9085 17 11.029 17C11.1496 17 11.2098 16.9382 11.2701 16.8764C11.3304 16.9382 11.3906 17 11.5112 17C11.6317 17 11.692 16.9382 11.7522 16.8764C11.8125 16.9382 11.8728 17 11.9933 17C12.1741 17 12.3549 16.8764 12.3549 16.6291V16.3818C12.4152 16.4436 12.4754 16.4436 12.5357 16.4436C12.7165 16.4436 12.8973 16.32 12.8973 16.0727V15.5782C12.8973 15.4545 12.7768 15.2691 12.6563 15.2073L12.7165 15.0836C12.7768 15.2073 12.8973 15.3309 13.0781 15.3309C13.2589 15.3309 13.3795 15.2073 13.3795 15.0218V14.7127C13.4397 14.7127 13.5 14.7745 13.5603 14.7745C13.6808 14.7745 13.7411 14.7127 13.8013 14.6509C13.8616 14.7127 13.9821 14.7745 14.0424 14.7745C14.1629 14.7745 14.2232 14.7127 14.2835 14.6509C14.3438 14.7127 14.4643 14.7745 14.5246 14.7745C14.6451 14.7745 14.7054 14.7127 14.7656 14.6509C14.8259 14.7127 14.9464 14.7745 15.0067 14.7745C15.1272 14.7745 15.1875 14.7127 15.2478 14.6509C15.308 14.7127 15.3683 14.7745 15.4888 14.7745C15.6094 14.7745 15.6696 14.7127 15.7299 14.6509C15.7902 14.7127 15.8504 14.7745 15.971 14.7745C16.0915 14.7745 16.1518 14.7127 16.2121 14.6509C16.2723 14.7127 16.3326 14.7745 16.4531 14.7745C16.5737 14.7745 16.6339 14.7127 16.6942 14.6509C16.7545 14.7127 16.8147 14.7745 16.9353 14.7745C17.1161 14.7745 17.2969 14.6509 17.2969 14.4036V14.1564C17.3571 14.2182 17.4174 14.2182 17.4777 14.2182C17.6585 14.2182 17.8393 14.0945 17.8393 13.8473V13.3527C17.8393 13.2291 17.7188 13.0436 17.5982 12.9818L17.6585 12.8582C17.7188 12.9818 17.8393 13.1055 18.0201 13.1055C18.2009 13.1055 18.3214 12.9818 18.3214 12.7964V11.2509C18.3214 11.0655 18.2009 10.88 17.9598 10.88C17.8996 10.88 17.8393 10.88 17.779 10.9418L17.7188 10.88C17.7188 10.8182 17.779 10.7564 17.779 10.7564C17.779 10.7564 17.779 10.7564 17.8393 10.7564C17.8996 10.8182 17.9598 10.88 18.0804 10.88C18.2009 10.88 18.2612 10.8182 18.3214 10.7564C18.3817 10.8182 18.442 10.88 18.5625 10.88C18.683 10.88 18.7433 10.8182 18.8036 10.7564C18.8638 10.8182 18.9241 10.88 19.0446 10.88C19.1652 10.88 19.2254 10.8182 19.2857 10.7564C19.346 10.8182 19.4062 10.88 19.5268 10.88C19.7076 10.88 19.8884 10.7564 19.8884 10.5091V10.2618C19.9487 10.3236 20.0089 10.3236 20.0692 10.3236C20.25 10.3236 20.4308 10.2 20.4308 9.95273V9.45818C20.4308 9.33455 20.3103 9.14909 20.1897 9.08727L20.25 8.96364C20.3103 9.08727 20.4308 9.21091 20.6116 9.21091C20.7924 9.21091 20.9129 9.08727 20.9129 8.90182V7.35636C21.0937 7.10909 20.9732 6.98545 20.7321 6.98545Z" fill="white"/>
</svg>
