<svg width="20" height="18" viewBox="0 0 20 18" fill="none" xmlns="http://www.w3.org/2000/svg">
<path d="M5.10101 15.4286C4.39394 15.4286 3.78788 16.0336 3.78788 16.7395C3.78788 17.4454 4.39394 18 5.10101 18C5.80808 18 6.36364 17.4454 6.36364 16.7395C6.41414 16.0336 5.80808 15.4286 5.10101 15.4286ZM8.33333 12.8571C8.33333 12.1513 7.77778 11.5462 7.07071 11.5462C6.36364 11.5462 5.75758 12.1513 5.75758 12.8571C5.75758 13.2101 5.9596 13.563 6.21212 13.8151C5.90909 14.0672 5.75758 14.4202 5.75758 14.8235C5.75758 15.5294 6.36364 16.084 7.07071 16.084C7.77778 16.084 8.33333 15.5294 8.33333 14.8235C8.33333 14.4706 8.18182 14.0672 7.92929 13.8151C8.18182 13.563 8.33333 13.2605 8.33333 12.8571ZM18.6364 7.71429H12.0707C12.1717 7.5126 12.2222 7.31092 12.2222 7.05882C12.2222 6.35294 11.6667 5.79832 10.9596 5.79832C10.2525 5.79832 9.69697 6.35294 9.69697 7.05882C9.69697 7.31092 9.74747 7.5126 9.84848 7.71429H1.26263C0.555556 7.71429 0 8.26891 0 9.02521C0 9.73109 0.555556 10.2857 1.26263 10.2857H7.87879C7.77778 10.4874 7.67677 10.6891 7.67677 10.9412C7.67677 11.6471 8.28283 12.2017 8.9899 12.2017C9.69697 12.2017 10.2525 11.6471 10.2525 10.9412C10.2525 10.6891 10.202 10.4874 10.101 10.2857H18.6364C19.3434 10.2857 19.9495 9.73109 19.9495 9.02521C19.9495 8.26891 19.3434 7.71429 18.6364 7.71429ZM11.5657 5.14286C11.5657 5.84874 12.1212 6.45378 12.8283 6.45378C13.5354 6.45378 14.0909 5.84874 14.0909 5.14286C14.0909 4.78992 13.9394 4.43697 13.6869 4.18487C13.9899 3.93277 14.0909 3.57983 14.0909 3.17647C14.0909 2.47059 13.5354 1.91597 12.8283 1.91597C12.1212 1.91597 11.5657 2.47059 11.5657 3.17647C11.5657 3.52941 11.7172 3.93277 11.9697 4.18487C11.7172 4.43697 11.5657 4.7395 11.5657 5.14286ZM14.7475 2.57143C15.4545 2.57143 16.0606 1.96639 16.0606 1.2605C16.0606 0.554622 15.4545 0 14.7475 0C14.0404 0 13.4848 0.554622 13.4848 1.2605C13.4848 1.96639 14.0404 2.57143 14.7475 2.57143Z" fill="white"/>
</svg>
