<svg
            width="28"
            height="26"
            viewBox="0 0 28 26"
            fill="none"
            xmlns="http://www.w3.org/2000/svg"
            class="mx-auto"
          >
            <g clip-path="url(#clip0_264_519)">
              <path
                d="M21.6 24.0002C21.2 24.0002 20.8 24.3002 20.8 24.7002C20.8 25.1002 21.2 25.5002 21.6 25.5002C22 25.5002 22.3 25.1002 22.3 24.7002C22.3 24.3002 22 24.0002 21.6 24.0002ZM22.7 22.9002C22.3 22.9002 22 23.2002 22 23.6002C22 24.0002 22.3 24.4002 22.7 24.4002C23.1 24.4002 23.4 24.0002 23.4 23.6002C23.4 23.2002 23.1 22.9002 22.7 22.9002ZM27.2 18.3002H26.7C26.8 18.2002 26.8 18.1002 26.8 17.9002C26.8 17.5002 26.4 17.1002 26 17.1002H25.5C25.6 17.0002 25.6 16.9002 25.6 16.7002C25.6 16.3002 25.2 15.9002 24.8 15.9002H24.3C24.4 15.8002 24.4 15.7002 24.4 15.5002C24.4 15.1002 24.1 14.7002 23.7 14.7002C23.3 14.7002 23 15.0002 23 15.5002C23 15.7002 23.1 15.9002 23.2 16.1002C23 16.2002 23 16.4002 23 16.7002C23 17.1002 23.3 17.4002 23.7 17.4002H24.2C24.1 17.5002 24.1 17.6002 24.1 17.8002C24.1 18.2002 24.4 18.5002 24.8 18.5002H25.3C25.2 18.6002 25.2 18.7002 25.2 18.9002C25.2 19.0002 25.2 19.2002 25.3 19.3002H24.8C24.4 19.3002 24.1 19.6002 24.1 20.0002C24.1 20.1002 24.1 20.3002 24.2 20.4002H23.7C23.3 20.4002 23 20.7002 23 21.1002C23 21.3002 23.1 21.5002 23.2 21.7002C23 21.8002 23 22.0002 23 22.3002C23 22.7002 23.3 23.1002 23.7 23.1002C24.1 23.1002 24.4 22.7002 24.4 22.3002C24.4 22.2002 24.4 22.0002 24.3 21.9002H24.8C25.2 21.9002 25.6 21.6002 25.6 21.2002C25.6 21.1002 25.5 20.9002 25.5 20.8002H26C26.4 20.8002 26.8 20.5002 26.8 20.1002C26.8 20.0002 26.7 19.8002 26.7 19.7002H27.2C27.6 19.7002 28 19.4002 28 19.0002C28 18.7002 27.6 18.3002 27.2 18.3002ZM21.9 14.6002C21.9 15.0002 22.2 15.4002 22.6 15.4002C23 15.4002 23.3 15.1002 23.3 14.6002C23.3 14.2002 23 13.9002 22.6 13.9002C22.3 13.8002 21.9 14.2002 21.9 14.6002ZM21.6 14.2002C22 14.2002 22.3 13.9002 22.3 13.4002C22.3 13.0002 22 12.7002 21.6 12.7002C21.2 12.7002 20.8 13.0002 20.8 13.4002C20.8 13.9002 21.1 14.2002 21.6 14.2002Z"
                fill="white"
              />
              <path
                d="M21.6 11.3C21.2 11.3 20.8 11.6 20.8 12C20.8 12.4 21.2 12.8 21.6 12.8C22 12.8 22.3 12.4 22.3 12C22.3 11.7 22 11.3 21.6 11.3ZM22.7 10.2C22.3 10.2 22 10.5 22 10.9C22 11.3 22.3 11.7 22.7 11.7C23.1 11.7 23.4 11.3 23.4 10.9C23.4 10.5 23.1 10.2 22.7 10.2ZM27.2 5.6H26.7C26.8 5.5 26.8 5.4 26.8 5.2C26.8 4.8 26.4 4.4 26 4.4H25.5C25.6 4.3 25.6 4.2 25.6 4C25.6 3.6 25.2 3.2 24.8 3.2H24.3C24.4 3.1 24.4 3 24.4 2.8C24.4 2.4 24.1 2 23.7 2C23.3 2 23.1 2.6 23.1 3C23.1 3.2 23.2 3.4 23.3 3.6C23.1 3.7 23.1 3.9 23.1 4.2C23.1 4.6 23.4 4.9 23.8 4.9H24.3C24.2 5 24.2 5.1 24.2 5.3C24.2 5.7 24.5 6 24.9 6H25.4C25.3 6.1 25.3 6.2 25.3 6.4C25.3 6.5 25.3 6.7 25.4 6.8H24.9C24.5 6.8 24.2 7.1 24.2 7.5C24.2 7.6 24.2 7.8 24.3 7.9H23.8C23.4 7.9 23.1 8.2 23.1 8.6C23.1 8.8 23.2 9 23.3 9.2C23.1 9.3 23.1 9.5 23.1 9.8C23.1 10.2 23.4 10.6 23.8 10.6C24.2 10.6 24.5 10.2 24.5 9.8C24.5 9.7 24.5 9.5 24.4 9.4H24.9C25.3 9.4 25.7 9.1 25.7 8.7C25.7 8.6 25.6 8.4 25.6 8.3H26.1C26.5 8.3 26.9 8 26.9 7.6C26.9 7.5 26.8 7.3 26.8 7.2H27.3C27.7 7.2 28.1 6.9 28.1 6.5C28 6 27.6 5.6 27.2 5.6ZM21.9 1.9C21.9 2.3 22.2 2.7 22.6 2.7C23 2.7 23.3 2.4 23.3 1.9C23.3 1.5 23 1.2 22.6 1.2C22.3 1.1 21.9 1.5 21.9 1.9ZM21.6 1.5C22 1.5 22.3 1.2 22.3 0.7C22.3 0.3 22 0 21.6 0C21.2 0 20.8 0.3 20.8 0.7C20.8 1.2 21.1 1.5 21.6 1.5Z"
                fill="white"
              />
              <path
                d="M8.2 7.2002H1C0.4 7.2002 0 6.8002 0 6.2002C0 5.6002 0.4 5.2002 1 5.2002H8.2C8.8 5.2002 9.2 5.6002 9.2 6.2002C9.2 6.8002 8.8 7.2002 8.2 7.2002Z"
                fill="white"
              />
              <path
                d="M19.4 20.3001C19.1 20.3001 18.8 20.2001 18.6 19.9001L8.29999 6.80014C7.89999 6.40014 7.99999 5.80014 8.39999 5.40014C8.79999 5.00014 9.49999 5.10014 9.79999 5.60014L20.1 18.7001C20.4 19.1001 20.4 19.8001 19.9 20.1001C19.8 20.2001 19.6 20.3001 19.4 20.3001Z"
                fill="white"
              />
              <path
                d="M8.2 20.2002H1C0.4 20.2002 0 19.8002 0 19.2002C0 18.6002 0.4 18.2002 1 18.2002H8.2C8.8 18.2002 9.2 18.6002 9.2 19.2002C9.2 19.8002 8.8 20.2002 8.2 20.2002Z"
                fill="white"
              />
              <path
                d="M9.09998 20.2004C8.89998 20.2004 8.69998 20.1004 8.49998 20.0004C8.09998 19.7004 7.99998 19.0004 8.29998 18.6004L18.2 6.00041C18.5 5.60041 19.2 5.50041 19.6 5.80041C20 6.10041 20.1 6.80041 19.8 7.20041L9.79998 19.8004C9.59998 20.1004 9.29998 20.2004 9.09998 20.2004Z"
                fill="white"
              />
              <path
                d="M24.6 7.2002H19C18.4 7.2002 18 6.8002 18 6.2002C18 5.6002 18.4 5.2002 19 5.2002H24.6C25.2 5.2002 25.6 5.6002 25.6 6.2002C25.6 6.8002 25.1 7.2002 24.6 7.2002Z"
                fill="white"
              />
              <path
                d="M24.5 20.2998H19.7C19.1 20.2998 18.7 19.8998 18.7 19.2998C18.7 18.6998 19.1 18.2998 19.7 18.2998H24.5C25.1 18.2998 25.5 18.6998 25.5 19.2998C25.5 19.8998 25.1 20.2998 24.5 20.2998Z"
                fill="white"
              />
            </g>
            <defs>
              <clipPath id="clip0_264_519">
                <rect width="28" height="25.5" fill="white" />
              </clipPath>
            </defs>
          </svg>