<svg
            width="24"
            height="23"
            viewBox="0 0 24 23"
            fill="none"
            xmlns="http://www.w3.org/2000/svg"
            class="mx-auto"
          >
            <g clip-path="url(#clip0_264_542)">
              <path
                d="M16.3 5.9C16.3 6.3 16.6 6.6 17 6.6C17.4 6.6 17.7 6.3 17.7 5.9C17.7 5.5 17.4 5.2 17 5.2C16.6 5.2 16.3 5.6 16.3 5.9ZM15.3 4.9C15.3 5.3 15.6 5.6 16 5.6C16.4 5.6 16.7 5.3 16.7 4.9C16.7 4.5 16.4 4.2 16 4.2C15.6 4.2 15.3 4.5 15.3 4.9ZM11.1 0.7V1.1C11 1.1 10.9 1 10.7 1C10.4 1 10 1.4 10 1.8V2.2C9.90002 2.1 9.80002 2.1 9.70002 2.1C9.30002 2.1 9.00002 2.4 9.00002 2.8V3.2C8.90002 3.2 8.80002 3.2 8.70002 3.2C8.30002 3.2 8.00002 3.5 8.00002 3.9C8.00002 4.3 8.30002 4.6 8.70002 4.6C8.90002 4.6 9.10002 4.5 9.20002 4.4C9.30002 4.6 9.50002 4.6 9.70002 4.6C10.1 4.6 10.4 4.3 10.4 3.9V3.4C10.5 3.5 10.6 3.5 10.8 3.5C11.2 3.5 11.5 3.2 11.5 2.8V2.3C11.6 2.4 11.7 2.4 11.9 2.4C12 2.4 12.2 2.4 12.3 2.3V2.8C12.3 3.2 12.6 3.5 13 3.5C13.1 3.5 13.3 3.5 13.4 3.4V3.8C13.4 4.2 13.7 4.5 14.1 4.5C14.3 4.5 14.5 4.4 14.6 4.3C14.7 4.5 14.9 4.5 15.1 4.5C15.5 4.5 15.8 4.2 15.8 3.8C15.8 3.4 15.5 3.1 15.1 3.1C15 3.1 14.8 3.1 14.7 3.2V2.8C14.7 2.4 14.4 2.1 14 2.1C13.9 2.1 13.7 2.2 13.6 2.2V1.8C13.6 1.4 13.3 1.1 12.9 1.1C12.8 1.1 12.6 1.2 12.5 1.2V0.7C12.5 0.3 12.2 0 11.8 0C11.4 0 11.1 0.3 11.1 0.7ZM7.60002 5.6C8.00002 5.6 8.30002 5.3 8.30002 4.9C8.30002 4.5 8.00002 4.2 7.60002 4.2C7.20002 4.2 6.90002 4.5 6.90002 4.9C6.90002 5.3 7.20002 5.6 7.60002 5.6ZM7.30002 5.9C7.30002 5.5 7.00002 5.2 6.60002 5.2C6.20002 5.2 5.90002 5.5 5.90002 5.9C5.90002 6.3 6.20002 6.6 6.60002 6.6C7.00002 6.6 7.30002 6.3 7.30002 5.9Z"
                fill="white"
              />
              <path
                d="M22.6 23H1C0.5 23 0 22.6 0 22C0 21.5 0.4 21 1 21H22.6C23.1 21 23.6 21.4 23.6 22C23.6 22.6 23.1 23 22.6 23Z"
                fill="white"
              />
              <path
                d="M11.8 19.5002C11.3 19.5002 10.8 19.1002 10.8 18.5002V2.7002C10.8 2.2002 11.2 1.7002 11.8 1.7002C12.4 1.7002 12.8 2.1002 12.8 2.7002V18.5002C12.8 19.0002 12.3 19.5002 11.8 19.5002Z"
                fill="white"
              />
            </g>
            <defs>
              <clipPath id="clip0_264_542">
                <rect width="23.6" height="23" fill="white" />
              </clipPath>
            </defs>
          </svg>