<svg width="294" height="43" viewBox="0 0 294 43" fill="none" xmlns="http://www.w3.org/2000/svg">
<g clip-path="url(#clip0_599_934)">
<path d="M288.5 29.7998H281.5C280.8 29.7998 280.3 30.2998 280.3 30.9998C280.3 31.6998 280.8 32.1998 281.5 32.1998H288.5C289.1 32.1998 289.7 31.6998 289.7 30.9998C289.6 30.2998 289.1 29.7998 288.5 29.7998ZM290.2 28.0998C289.6 28.0998 289 28.5998 289 29.2998C289 29.9998 289.5 30.4998 290.2 30.4998C290.8 30.4998 291.4 29.8998 291.4 29.2998C291.4 28.6998 290.9 28.0998 290.2 28.0998ZM278.8 29.9998C279 30.2998 279.3 30.3998 279.7 30.3998C280.4 30.3998 280.9 29.7998 280.9 29.1998C280.9 28.5998 280.4 27.9998 279.7 27.9998C279.4 27.9998 279.1 28.1998 278.8 28.3998C278.8 28.3998 278.8 28.3998 278.7 28.2998C279 28.0998 279.1 27.6998 279.1 27.3998C279.1 27.0998 278.9 26.7998 278.7 26.4998C279 26.2998 279.1 25.8998 279.1 25.5998C279.1 25.2998 278.9 24.9998 278.7 24.6998C279 24.4998 279.1 24.0998 279.1 23.7998C279.1 23.1998 278.5 22.5998 277.9 22.5998C277.3 22.5998 276.7 23.0998 276.7 23.7998C276.7 24.0998 276.9 24.4998 277.1 24.6998C276.9 24.8998 276.7 25.1998 276.7 25.5998C276.7 25.8998 276.9 26.2998 277.1 26.4998C276.9 26.6998 276.7 26.9998 276.7 27.3998C276.7 27.7998 276.9 28.0998 277.1 28.2998C276.9 28.4998 276.7 28.7998 276.7 29.1998C276.7 29.5998 276.9 29.8998 277.1 30.0998C276.9 30.2998 276.7 30.5998 276.7 30.9998C276.7 31.3998 276.9 31.6998 277.1 31.8998C276.9 32.0998 276.7 32.3998 276.7 32.7998C276.7 33.3998 277.2 33.9998 277.9 33.9998C278.5 33.9998 279.1 33.4998 279.1 32.7998C279.1 32.3998 278.9 32.0998 278.7 31.8998C279 31.6998 279.1 31.3998 279.1 30.9998C279.1 30.6998 278.9 30.3998 278.7 30.0998L278.8 29.9998ZM292 22.7998H291.3C291.4 22.5998 291.4 22.3998 291.4 22.1998C291.4 21.5998 290.9 20.9998 290.2 20.9998H289.5C289.6 20.7998 289.6 20.5998 289.6 20.3998C289.6 19.7998 289.1 19.1998 288.4 19.1998H280.6C280.7 18.9998 280.8 18.8998 280.8 18.5998C280.8 18.2998 280.6 17.8998 280.4 17.6998C280.6 17.4998 280.8 17.1998 280.8 16.7998C280.8 16.1998 280.3 15.5998 279.6 15.5998H279C279.1 15.3998 279.2 15.2998 279.2 14.9998C279.2 14.2998 278.6 13.7998 278 13.7998C277.4 13.7998 276.8 14.2998 276.8 14.9998C276.8 15.2998 277 15.5998 277.2 15.8998C277 16.0998 276.8 16.3998 276.8 16.7998C276.8 17.0998 277 17.3998 277.2 17.6998C277 17.8998 276.8 18.2998 276.8 18.5998C276.8 19.1998 277.3 19.7998 278 19.7998H278.8C278.7 19.9998 278.6 20.1998 278.6 20.3998C278.6 20.9998 279.1 21.5998 279.8 21.5998H282.3C282.2 21.7998 282.1 21.9998 282.1 22.1998C282.1 22.7998 282.7 23.3998 283.3 23.3998H289.3C289.2 23.5998 289.2 23.7998 289.2 23.9998C289.2 24.2998 289.3 24.6998 289.6 24.8998C289.3 25.0998 289.2 25.3998 289.2 25.7998C289.2 26.3998 289.7 26.9998 290.4 26.9998H291.1C291 27.1998 291 27.2998 291 27.5998C291 28.1998 291.5 28.7998 292.2 28.7998C292.9 28.7998 293.4 28.1998 293.4 27.5998C293.4 27.2998 293.2 26.9998 293 26.6998C293.3 26.4998 293.4 26.0998 293.4 25.7998C293.4 25.4998 293.2 25.1998 293 24.8998C293.3 24.6998 293.4 24.2998 293.4 23.9998C293.2 23.2998 292.6 22.7998 292 22.7998ZM279.7 14.5998C280.4 14.5998 280.9 14.0998 280.9 13.3998C280.9 12.7998 280.4 12.1998 279.7 12.1998C279.1 12.1998 278.5 12.6998 278.5 13.3998C278.5 14.0998 279 14.5998 279.7 14.5998ZM281.5 12.8998H288.5C289.1 12.8998 289.7 12.3998 289.7 11.6998C289.7 11.0998 289.2 10.4998 288.5 10.4998H281.5C280.8 10.4998 280.3 10.9998 280.3 11.6998C280.3 12.3998 280.8 12.8998 281.5 12.8998ZM293.2 11.6998C293.2 11.3998 293 11.0998 292.8 10.7998C293.1 10.5998 293.2 10.1998 293.2 9.8998C293.2 9.2998 292.6 8.6998 292 8.6998C291.4 8.6998 290.8 9.1998 290.8 9.8998C290.8 10.1998 290.9 10.5998 291.2 10.7998C290.9 10.9998 290.8 11.2998 290.8 11.6998C290.8 12.0998 290.9 12.3998 291.2 12.5998L291.1 12.6998C290.9 12.4998 290.5 12.2998 290.2 12.2998C289.6 12.2998 289 12.7998 289 13.4998C289 14.1998 289.5 14.6998 290.2 14.6998C290.5 14.6998 290.9 14.4998 291.1 14.2998C291.1 14.2998 291.1 14.2998 291.2 14.3998C290.9 14.5998 290.8 14.8998 290.8 15.2998C290.8 15.5998 290.9 15.8998 291.2 16.1998C290.9 16.3998 290.8 16.6998 290.8 17.0998C290.8 17.3998 290.9 17.6998 291.2 17.9998C290.9 18.1998 290.8 18.5998 290.8 18.8998C290.8 19.4998 291.3 20.0998 292 20.0998C292.7 20.0998 293.2 19.5998 293.2 18.8998C293.2 18.5998 293 18.1998 292.8 17.9998C293.1 17.7998 293.2 17.4998 293.2 17.0998C293.2 16.6998 293 16.3998 292.8 16.1998C293.1 15.9998 293.2 15.6998 293.2 15.2998C293.2 14.8998 293 14.5998 292.8 14.3998C293.1 14.1998 293.2 13.8998 293.2 13.4998C293.2 13.1998 293 12.8998 292.8 12.5998C293 12.3998 293.2 12.0998 293.2 11.6998ZM259 29.1998C259 28.5998 258.5 27.9998 257.8 27.9998C257.1 27.9998 256.6 28.4998 256.6 29.1998C256.6 29.3998 256.6 29.5998 256.8 29.7998H255.3C255.4 29.5998 255.5 29.3998 255.5 29.1998C255.5 28.8998 255.3 28.5998 255.1 28.2998C255.4 28.0998 255.5 27.6998 255.5 27.3998C255.5 27.0998 255.3 26.7998 255.1 26.4998C255.4 26.2998 255.5 25.8998 255.5 25.5998C255.5 25.2998 255.3 24.9998 255.1 24.6998C255.4 24.4998 255.5 24.0998 255.5 23.7998C255.5 23.5998 255.4 23.3998 255.3 23.1998H256C256.7 23.1998 257.2 22.6998 257.2 21.9998C257.2 21.3998 256.7 20.7998 256 20.7998H254.3C253.7 20.7998 253.1 21.2998 253.1 21.9998C253.1 22.1998 253.1 22.3998 253.3 22.5998H252.5C251.9 22.5998 251.3 23.0998 251.3 23.7998C251.3 24.0998 251.4 24.4998 251.7 24.6998C251.4 24.8998 251.3 25.1998 251.3 25.5998C251.3 25.8998 251.4 26.2998 251.7 26.4998C251.4 26.6998 251.3 26.9998 251.3 27.3998C251.3 27.7998 251.4 28.0998 251.7 28.2998C251.4 28.4998 251.3 28.7998 251.3 29.1998C251.3 29.7998 251.8 30.3998 252.5 30.3998H253.3C253.2 30.5998 253.1 30.6998 253.1 30.9998C253.1 31.6998 253.6 32.1998 254.3 32.1998H257.8C258.4 32.1998 259 31.6998 259 30.9998C259 30.6998 258.8 30.3998 258.6 30.0998C258.8 29.8998 259 29.5998 259 29.1998ZM271.2 22.1998C271.2 21.8998 271 21.4998 270.8 21.2998C271.1 21.0998 271.2 20.7998 271.2 20.3998C271.2 19.7998 270.6 19.1998 270 19.1998C269.4 19.1998 268.8 19.7998 268.8 20.3998C268.8 20.6998 268.9 20.9998 269.2 21.2998C268.9 21.4998 268.8 21.8998 268.8 22.1998C268.8 22.4998 268.9 22.7998 269.2 23.0998C268.9 23.2998 268.8 23.5998 268.8 23.9998C268.8 24.2998 268.9 24.6998 269.2 24.8998C268.9 25.0998 268.8 25.3998 268.8 25.7998C268.8 26.0998 268.9 26.4998 269.2 26.6998C268.9 26.8998 268.8 27.1998 268.8 27.5998C268.8 27.9998 268.9 28.2998 269.2 28.4998C268.9 28.6998 268.8 28.9998 268.8 29.3998C268.8 29.9998 269.3 30.5998 270 30.5998C270.6 30.5998 271.2 29.9998 271.2 29.3998C271.2 29.0998 271 28.7998 270.8 28.4998C271.1 28.2998 271.2 27.8998 271.2 27.5998C271.2 27.2998 271 26.9998 270.8 26.6998C271.1 26.4998 271.2 26.0998 271.2 25.7998C271.2 25.4998 271 25.1998 270.8 24.8998C271.1 24.6998 271.2 24.2998 271.2 23.9998C271.2 23.6998 271 23.3998 270.8 23.0998C271.1 22.8998 271.2 22.5998 271.2 22.1998ZM268.3 29.7998H265.8C265.9 29.5998 265.9 29.3998 265.9 29.1998C265.9 28.8998 265.8 28.5998 265.5 28.2998C265.8 28.0998 265.9 27.6998 265.9 27.3998C265.9 27.0998 265.8 26.7998 265.5 26.4998C265.8 26.2998 265.9 25.8998 265.9 25.5998C265.9 25.2998 265.8 24.9998 265.5 24.6998C265.8 24.4998 265.9 24.0998 265.9 23.7998C265.9 23.4998 265.8 23.1998 265.5 22.8998C265.8 22.5998 265.9 22.2998 265.9 21.9998C265.9 21.6998 265.8 21.2998 265.5 21.0998C265.8 20.8998 265.9 20.5998 265.9 20.1998C265.9 19.8998 265.8 19.4998 265.5 19.2998C265.8 19.0998 265.9 18.7998 265.9 18.3998C265.9 17.9998 265.8 17.6998 265.5 17.4998C265.8 17.2998 265.9 16.9998 265.9 16.5998C265.9 16.1998 265.8 15.8998 265.5 15.6998C265.8 15.4998 265.9 15.1998 265.9 14.7998C265.9 14.0998 265.4 13.5998 264.7 13.5998H264C264.1 13.3998 264.1 13.1998 264.1 12.9998C264.1 12.3998 263.6 11.7998 262.9 11.7998C262.3 11.7998 261.7 12.2998 261.7 12.9998C261.7 13.3998 261.9 13.6998 262.1 13.8998C261.8 14.0998 261.7 14.3998 261.7 14.7998C261.7 15.0998 261.9 15.3998 262.1 15.6998C261.8 15.8998 261.7 16.1998 261.7 16.5998C261.7 16.8998 261.9 17.1998 262.1 17.4998C261.8 17.6998 261.7 18.0998 261.7 18.3998C261.7 18.5998 261.8 18.7998 261.9 18.9998H257.7C257 18.9998 256.5 19.5998 256.5 20.1998C256.5 20.7998 257 21.3998 257.7 21.3998H261.9C261.8 21.5998 261.7 21.7998 261.7 21.9998C261.7 22.2998 261.9 22.5998 262.1 22.8998C261.8 23.0998 261.7 23.3998 261.7 23.7998C261.7 24.0998 261.9 24.4998 262.1 24.6998C261.8 24.8998 261.7 25.1998 261.7 25.5998C261.7 25.7998 261.8 25.9998 261.9 26.1998H259.4C258.7 26.1998 258.2 26.6998 258.2 27.3998C258.2 27.9998 258.7 28.5998 259.4 28.5998H261.9C261.8 28.7998 261.7 28.8998 261.7 29.1998C261.7 29.7998 262.3 30.3998 262.9 30.3998H263.6C263.5 30.5998 263.4 30.6998 263.4 30.9998C263.4 31.6998 264 32.1998 264.6 32.1998H268.1C268.7 32.1998 269.3 31.6998 269.3 30.9998C269.4 30.2998 268.9 29.7998 268.3 29.7998ZM251.4 16.9998C251.4 17.5998 251.9 18.1998 252.6 18.1998C253.3 18.1998 253.8 17.6998 253.8 16.9998C253.8 16.5998 253.6 16.2998 253.4 16.0998C253.5 16.0998 253.5 16.0998 253.5 15.9998C253.7 16.1998 254 16.3998 254.4 16.3998C255 16.3998 255.6 15.8998 255.6 15.1998C255.6 14.4998 255 13.9998 254.4 13.9998C254.1 13.9998 253.8 14.1998 253.5 14.3998C253.5 14.3998 253.5 14.3998 253.4 14.2998C253.7 14.0998 253.8 13.7998 253.8 13.3998C253.8 12.7998 253.2 12.1998 252.6 12.1998C252 12.1998 251.4 12.6998 251.4 13.3998C251.4 13.7998 251.5 14.0998 251.8 14.2998L251.7 14.3998C251.5 14.1998 251.1 13.9998 250.8 13.9998C250.2 13.9998 249.6 14.4998 249.6 15.1998C249.6 15.7998 250.1 16.3998 250.8 16.3998C251.1 16.3998 251.5 16.1998 251.7 15.9998C251.7 15.9998 251.7 15.9998 251.8 16.0998C251.5 16.2998 251.4 16.5998 251.4 16.9998ZM254.3 12.8998H261.3C261.9 12.8998 262.5 12.3998 262.5 11.6998C262.5 11.0998 262 10.4998 261.3 10.4998H254.3C253.7 10.4998 253.1 10.9998 253.1 11.6998C253.1 12.3998 253.6 12.8998 254.3 12.8998ZM244.9 22.1998C244.9 21.5998 244.4 20.9998 243.7 20.9998C243 20.9998 242.5 21.4998 242.5 22.1998C242.5 22.4998 242.6 22.7998 242.9 23.0998C242.6 23.2998 242.5 23.5998 242.5 23.9998C242.5 24.2998 242.6 24.6998 242.9 24.8998C242.6 25.0998 242.5 25.3998 242.5 25.7998C242.5 26.0998 242.6 26.4998 242.9 26.6998C242.6 26.8998 242.5 27.1998 242.5 27.5998C242.5 27.7998 242.5 27.9998 242.6 28.1998H242C241.4 28.1998 240.8 28.6998 240.8 29.3998C240.8 29.5998 240.8 29.7998 240.9 29.9998H238.4C237.8 29.9998 237.2 30.4998 237.2 31.1998C237.2 31.8998 237.8 32.3998 238.4 32.3998H241.9C242.5 32.3998 243.1 31.8998 243.1 31.1998C243.1 30.9998 243.1 30.7998 243 30.5998H243.7C244.3 30.5998 244.9 29.9998 244.9 29.3998C244.9 29.0998 244.8 28.7998 244.5 28.4998C244.8 28.2998 244.9 27.8998 244.9 27.5998C244.9 27.2998 244.8 26.9998 244.5 26.6998C244.8 26.4998 244.9 26.0998 244.9 25.7998C244.9 25.4998 244.8 25.1998 244.5 24.8998C244.8 24.6998 244.9 24.2998 244.9 23.9998C244.9 23.6998 244.8 23.3998 244.5 23.0998C244.8 22.8998 244.9 22.5998 244.9 22.1998ZM243.8 10.4998H236C236.1 10.2998 236.2 10.0998 236.2 9.8998C236.2 9.5998 236 9.2998 235.8 8.9998C236 8.7998 236.2 8.39981 236.2 8.0998C236.2 7.7998 236 7.4998 235.8 7.1998C236 6.9998 236.2 6.5998 236.2 6.2998C236.2 5.9998 236 5.6998 235.8 5.3998C236 5.1998 236.2 4.7998 236.2 4.4998C236.2 3.8998 235.7 3.2998 235 3.2998C234.3 3.2998 233.8 3.7998 233.8 4.4998C233.8 4.6998 233.8 4.8998 234 5.0998H233.2C232.6 5.0998 232 5.5998 232 6.2998C232 6.5998 232.2 6.9998 232.4 7.1998C232.2 7.3998 232 7.69981 232 8.0998C232 8.4998 232.2 8.7998 232.4 8.9998C232.2 9.1998 232 9.4998 232 9.8998C232 10.0998 232 10.2998 232.2 10.4998H226.2C225.6 10.4998 225 10.9998 225 11.6998C225 12.3998 225.5 12.8998 226.2 12.8998H232.2C232.1 13.0998 232 13.1998 232 13.4998C232 13.8998 232.2 14.1998 232.4 14.3998C232.2 14.5998 232 14.8998 232 15.2998C232 15.5998 232.2 15.8998 232.4 16.1998C232.2 16.3998 232 16.6998 232 17.0998C232 17.3998 232.2 17.6998 232.4 17.9998C232.2 18.1998 232 18.5998 232 18.8998C232 19.1998 232.2 19.4998 232.4 19.7998C232.2 19.9998 232 20.3998 232 20.6998C232 20.9998 232.2 21.2998 232.4 21.5998C232.2 21.7998 232 22.1998 232 22.4998C232 22.7998 232.2 23.0998 232.4 23.3998C232.2 23.5998 232 23.8998 232 24.2998C232 24.5998 232.2 24.9998 232.4 25.1998C232.2 25.3998 232 25.6998 232 26.0998C232 26.3998 232.2 26.7998 232.4 26.9998C232.2 27.1998 232 27.4998 232 27.8998C232 28.4998 232.5 29.0998 233.2 29.0998H234C233.9 29.2998 233.8 29.3998 233.8 29.6998C233.8 30.2998 234.3 30.8998 235 30.8998H236.7C237.3 30.8998 237.9 30.2998 237.9 29.6998C237.9 29.0998 237.4 28.4998 236.7 28.4998H236C236.1 28.2998 236.2 28.0998 236.2 27.8998C236.2 27.5998 236 27.2998 235.8 26.9998C236 26.7998 236.2 26.3998 236.2 26.0998C236.2 25.7998 236 25.4998 235.8 25.1998C236 24.9998 236.2 24.5998 236.2 24.2998C236.2 23.9998 236 23.6998 235.8 23.3998C236 23.0998 236.2 22.7998 236.2 22.4998C236.2 22.1998 236 21.7998 235.8 21.5998C236 21.3998 236.2 21.0998 236.2 20.6998C236.2 20.3998 236 19.9998 235.8 19.7998C236 19.5998 236.2 19.2998 236.2 18.8998C236.2 18.4998 236 18.1998 235.8 17.9998C236 17.7998 236.2 17.4998 236.2 17.0998C236.2 16.6998 236 16.3998 235.8 16.1998C236 15.9998 236.2 15.6998 236.2 15.2998C236.2 14.8998 236 14.5998 235.8 14.3998C236 14.1998 236.2 13.8998 236.2 13.4998C236.2 13.2998 236.2 13.0998 236 12.8998H243.8C244.4 12.8998 245 12.3998 245 11.6998C244.9 10.9998 244.4 10.4998 243.8 10.4998ZM217 29.7998H210C209.3 29.7998 208.8 30.2998 208.8 30.9998C208.8 31.6998 209.3 32.1998 210 32.1998H217C217.6 32.1998 218.2 31.6998 218.2 30.9998C218.1 30.2998 217.6 29.7998 217 29.7998ZM218.7 28.0998C218.1 28.0998 217.5 28.5998 217.5 29.2998C217.5 29.9998 218 30.4998 218.7 30.4998C219.3 30.4998 219.9 29.8998 219.9 29.2998C219.9 28.6998 219.4 28.0998 218.7 28.0998ZM207.3 29.9998C207.5 30.2998 207.8 30.3998 208.2 30.3998C208.9 30.3998 209.4 29.7998 209.4 29.1998C209.4 28.5998 208.9 27.9998 208.2 27.9998C207.9 27.9998 207.6 28.1998 207.3 28.3998C207.3 28.3998 207.3 28.3998 207.2 28.2998C207.5 28.0998 207.6 27.6998 207.6 27.3998C207.6 27.0998 207.4 26.7998 207.2 26.4998C207.5 26.2998 207.6 25.8998 207.6 25.5998C207.6 25.2998 207.4 24.9998 207.2 24.6998C207.5 24.4998 207.6 24.0998 207.6 23.7998C207.6 23.1998 207 22.5998 206.4 22.5998C205.8 22.5998 205.2 23.0998 205.2 23.7998C205.2 24.0998 205.4 24.4998 205.6 24.6998C205.4 24.8998 205.2 25.1998 205.2 25.5998C205.2 25.8998 205.4 26.2998 205.6 26.4998C205.4 26.6998 205.2 26.9998 205.2 27.3998C205.2 27.7998 205.4 28.0998 205.6 28.2998C205.4 28.4998 205.2 28.7998 205.2 29.1998C205.2 29.5998 205.4 29.8998 205.6 30.0998C205.4 30.2998 205.2 30.5998 205.2 30.9998C205.2 31.3998 205.4 31.6998 205.6 31.8998C205.4 32.0998 205.2 32.3998 205.2 32.7998C205.2 33.3998 205.7 33.9998 206.4 33.9998C207 33.9998 207.6 33.4998 207.6 32.7998C207.6 32.3998 207.4 32.0998 207.2 31.8998C207.5 31.6998 207.6 31.3998 207.6 30.9998C207.6 30.6998 207.4 30.3998 207.2 30.0998C207.3 30.0998 207.3 29.9998 207.3 29.9998ZM220.5 22.7998H219.8C219.9 22.5998 219.9 22.3998 219.9 22.1998C219.9 21.5998 219.4 20.9998 218.7 20.9998H218C218.1 20.7998 218.1 20.5998 218.1 20.3998C218.1 19.7998 217.6 19.1998 216.9 19.1998H209.1C209.2 18.9998 209.3 18.8998 209.3 18.5998C209.3 18.2998 209.1 17.8998 208.9 17.6998C209.1 17.4998 209.3 17.1998 209.3 16.7998C209.3 16.1998 208.8 15.5998 208.1 15.5998H207.4C207.5 15.3998 207.6 15.2998 207.6 14.9998C207.6 14.2998 207 13.7998 206.4 13.7998C205.8 13.7998 205.2 14.2998 205.2 14.9998C205.2 15.2998 205.4 15.5998 205.6 15.8998C205.4 16.0998 205.2 16.3998 205.2 16.7998C205.2 17.0998 205.4 17.3998 205.6 17.6998C205.4 17.8998 205.2 18.2998 205.2 18.5998C205.2 19.1998 205.7 19.7998 206.4 19.7998H207.2C207.1 19.9998 207 20.1998 207 20.3998C207 20.9998 207.5 21.5998 208.2 21.5998H210.7C210.6 21.7998 210.5 21.9998 210.5 22.1998C210.5 22.7998 211.1 23.3998 211.7 23.3998H217.7C217.6 23.5998 217.6 23.7998 217.6 23.9998C217.6 24.2998 217.7 24.6998 218 24.8998C217.7 25.0998 217.6 25.3998 217.6 25.7998C217.6 26.3998 218.1 26.9998 218.8 26.9998H219.5C219.4 27.1998 219.4 27.2998 219.4 27.5998C219.4 28.1998 219.9 28.7998 220.6 28.7998C221.3 28.7998 221.8 28.1998 221.8 27.5998C221.8 27.2998 221.6 26.9998 221.4 26.6998C221.7 26.4998 221.8 26.0998 221.8 25.7998C221.8 25.4998 221.6 25.1998 221.4 24.8998C221.7 24.6998 221.8 24.2998 221.8 23.9998C221.7 23.2998 221.1 22.7998 220.5 22.7998ZM208.2 14.5998C208.9 14.5998 209.4 14.0998 209.4 13.3998C209.4 12.7998 208.9 12.1998 208.2 12.1998C207.6 12.1998 207 12.6998 207 13.3998C207 14.0998 207.6 14.5998 208.2 14.5998ZM210 12.8998H217C217.6 12.8998 218.2 12.3998 218.2 11.6998C218.2 11.0998 217.7 10.4998 217 10.4998H210C209.3 10.4998 208.8 10.9998 208.8 11.6998C208.8 12.3998 209.3 12.8998 210 12.8998ZM221.7 11.6998C221.7 11.3998 221.5 11.0998 221.3 10.7998C221.6 10.5998 221.7 10.1998 221.7 9.8998C221.7 9.2998 221.1 8.6998 220.5 8.6998C219.9 8.6998 219.3 9.1998 219.3 9.8998C219.3 10.1998 219.4 10.5998 219.7 10.7998C219.4 10.9998 219.3 11.2998 219.3 11.6998C219.3 12.0998 219.4 12.3998 219.7 12.5998L219.6 12.6998C219.4 12.4998 219 12.2998 218.7 12.2998C218.1 12.2998 217.5 12.7998 217.5 13.4998C217.5 14.1998 218 14.6998 218.7 14.6998C219 14.6998 219.4 14.4998 219.6 14.2998C219.6 14.2998 219.6 14.2998 219.7 14.3998C219.4 14.5998 219.3 14.8998 219.3 15.2998C219.3 15.5998 219.4 15.8998 219.7 16.1998C219.4 16.3998 219.3 16.6998 219.3 17.0998C219.3 17.3998 219.4 17.6998 219.7 17.9998C219.4 18.1998 219.3 18.5998 219.3 18.8998C219.3 19.4998 219.8 20.0998 220.5 20.0998C221.2 20.0998 221.7 19.5998 221.7 18.8998C221.7 18.5998 221.5 18.1998 221.3 17.9998C221.6 17.7998 221.7 17.4998 221.7 17.0998C221.7 16.6998 221.5 16.3998 221.3 16.1998C221.6 15.9998 221.7 15.6998 221.7 15.2998C221.7 14.8998 221.5 14.5998 221.3 14.3998C221.6 14.1998 221.7 13.8998 221.7 13.4998C221.7 13.1998 221.5 12.8998 221.3 12.5998C221.5 12.3998 221.7 12.0998 221.7 11.6998ZM188.3 27.4998C188.3 26.8998 187.7 26.2998 187.1 26.2998C186.5 26.2998 185.9 26.7998 185.9 27.4998C185.9 27.7998 186 28.1998 186.3 28.3998C186 28.5998 185.9 28.8998 185.9 29.2998C185.9 29.8998 186.4 30.4998 187.1 30.4998C187.8 30.4998 188.3 29.8998 188.3 29.2998C188.3 28.9998 188.1 28.6998 187.9 28.3998C188.1 28.1998 188.3 27.7998 188.3 27.4998ZM185.4 29.7998H182.9C183 29.5998 183 29.3998 183 29.1998C183 28.8998 182.9 28.5998 182.6 28.2998C182.9 28.0998 183 27.6998 183 27.3998C183 27.0998 182.9 26.7998 182.6 26.4998C182.9 26.2998 183 25.8998 183 25.5998C183 25.2998 182.9 24.9998 182.6 24.6998C182.9 24.4998 183 24.0998 183 23.7998C183 23.4998 182.9 23.1998 182.6 22.8998C182.9 22.5998 183 22.2998 183 21.9998C183 21.6998 182.9 21.2998 182.6 21.0998C182.9 20.8998 183 20.5998 183 20.1998C183 19.8998 182.9 19.4998 182.6 19.2998C182.9 19.0998 183 18.7998 183 18.3998C183 17.9998 182.9 17.6998 182.6 17.4998C182.9 17.2998 183 16.9998 183 16.5998C183 16.1998 182.9 15.8998 182.6 15.6998C182.9 15.4998 183 15.1998 183 14.7998C183 14.3998 182.9 14.0998 182.6 13.8998C182.9 13.6998 183 13.3998 183 12.9998C183 12.6998 182.9 12.3998 182.6 12.0998C182.9 11.8998 183 11.5998 183 11.1998C183 10.5998 182.5 9.9998 181.8 9.9998H173C172.4 9.9998 171.8 10.4998 171.8 11.1998C171.8 11.8998 172.3 12.3998 173 12.3998H179C178.9 12.5998 178.8 12.6998 178.8 12.9998C178.8 13.3998 179 13.6998 179.2 13.8998C178.9 14.0998 178.8 14.3998 178.8 14.7998C178.8 15.0998 179 15.3998 179.2 15.6998C178.9 15.8998 178.8 16.1998 178.8 16.5998C178.8 16.8998 179 17.1998 179.2 17.4998C178.9 17.6998 178.8 18.0998 178.8 18.3998C178.8 18.6998 179 18.9998 179.2 19.2998C178.9 19.4998 178.8 19.8998 178.8 20.1998C178.8 20.4998 179 20.7998 179.2 21.0998C178.9 21.2998 178.8 21.6998 178.8 21.9998C178.8 22.2998 179 22.5998 179.2 22.8998C178.9 23.0998 178.8 23.3998 178.8 23.7998C178.8 24.0998 179 24.4998 179.2 24.6998C178.9 24.8998 178.8 25.1998 178.8 25.5998C178.8 25.8998 179 26.2998 179.2 26.4998C178.9 26.6998 178.8 26.9998 178.8 27.3998C178.8 27.7998 179 28.0998 179.2 28.2998C178.9 28.4998 178.8 28.7998 178.8 29.1998C178.8 29.7998 179.4 30.3998 180 30.3998H180.7C180.6 30.5998 180.6 30.6998 180.6 30.9998C180.6 31.6998 181.1 32.1998 181.8 32.1998H185.3C185.9 32.1998 186.5 31.6998 186.5 30.9998C186.6 30.2998 186 29.7998 185.4 29.7998ZM201.2 29.7998H195.2C195.3 29.5998 195.4 29.3998 195.4 29.1998C195.4 28.8998 195.2 28.5998 195 28.2998C195.2 28.0998 195.4 27.6998 195.4 27.3998C195.4 27.0998 195.2 26.7998 195 26.4998C195.2 26.2998 195.4 25.8998 195.4 25.5998C195.4 25.2998 195.2 24.9998 195 24.6998C195.2 24.4998 195.4 24.0998 195.4 23.7998C195.4 23.4998 195.2 23.1998 195 22.8998C195.2 22.5998 195.4 22.2998 195.4 21.9998C195.4 21.6998 195.2 21.2998 195 21.0998C195.2 20.8998 195.4 20.5998 195.4 20.1998C195.4 19.8998 195.2 19.4998 195 19.2998C195.2 19.0998 195.4 18.7998 195.4 18.3998C195.4 17.9998 195.2 17.6998 195 17.4998C195.2 17.2998 195.4 16.9998 195.4 16.5998C195.4 16.1998 195.2 15.8998 195 15.6998C195.2 15.4998 195.4 15.1998 195.4 14.7998C195.4 14.3998 195.2 14.0998 195 13.8998C195.2 13.6998 195.4 13.3998 195.4 12.9998C195.4 12.6998 195.2 12.3998 195 12.0998C195.2 11.8998 195.4 11.5998 195.4 11.1998C195.4 10.5998 194.9 9.9998 194.2 9.9998H185.4C184.8 9.9998 184.2 10.4998 184.2 11.1998C184.2 11.8998 184.7 12.3998 185.4 12.3998H191.4C191.3 12.5998 191.2 12.6998 191.2 12.9998C191.2 13.3998 191.4 13.6998 191.6 13.8998C191.4 14.0998 191.2 14.3998 191.2 14.7998C191.2 15.0998 191.4 15.3998 191.6 15.6998C191.4 15.8998 191.2 16.1998 191.2 16.5998C191.2 16.8998 191.4 17.1998 191.6 17.4998C191.4 17.6998 191.2 18.0998 191.2 18.3998C191.2 18.6998 191.4 18.9998 191.6 19.2998C191.4 19.4998 191.2 19.8998 191.2 20.1998C191.2 20.4998 191.4 20.7998 191.6 21.0998C191.4 21.2998 191.2 21.6998 191.2 21.9998C191.2 22.2998 191.4 22.5998 191.6 22.8998C191.4 23.0998 191.2 23.3998 191.2 23.7998C191.2 23.9998 191.2 24.1998 191.4 24.3998H188.9C188.3 24.3998 187.7 24.8998 187.7 25.5998C187.7 26.1998 188.2 26.7998 188.9 26.7998H191.4C191.3 26.9998 191.2 27.0998 191.2 27.3998C191.2 27.6998 191.4 28.0998 191.6 28.2998C191.4 28.4998 191.2 28.7998 191.2 29.1998C191.2 29.5998 191.4 29.8998 191.6 30.0998C191.4 30.2998 191.2 30.5998 191.2 30.9998C191.2 31.6998 191.7 32.1998 192.4 32.1998H201.1C201.7 32.1998 202.3 31.6998 202.3 30.9998C202.3 30.2998 201.8 29.7998 201.2 29.7998ZM160.8 40.3998H159C158.4 40.3998 157.8 40.8998 157.8 41.5998C157.8 42.1998 158.3 42.7998 159 42.7998H160.7C161.3 42.7998 161.9 42.2998 161.9 41.5998C162 40.8998 161.4 40.3998 160.8 40.3998ZM158.4 39.7998C158.4 39.1998 157.9 38.5998 157.2 38.5998C156.6 38.5998 156 39.0998 156 39.7998C156 40.4998 156.5 40.9998 157.2 40.9998C157.9 40.8998 158.4 40.3998 158.4 39.7998ZM156.7 37.9998C156.7 37.6998 156.6 37.2998 156.3 37.0998C156.6 36.8998 156.7 36.5998 156.7 36.1998C156.7 35.9998 156.7 35.7998 156.6 35.5998H157.3C157.9 35.5998 158.5 35.0998 158.5 34.3998C158.5 33.9998 158.4 33.6998 158.1 33.4998C158.2 33.4998 158.2 33.4998 158.2 33.3998C158.4 33.5998 158.7 33.7998 159.1 33.7998C159.7 33.7998 160.3 33.2998 160.3 32.5998C160.3 31.8998 159.7 31.3998 159.1 31.3998C158.8 31.3998 158.5 31.5998 158.2 31.7998C158.2 31.7998 158.2 31.7998 158.1 31.6998C158.4 31.4998 158.5 31.1998 158.5 30.7998C158.5 30.1998 158 29.5998 157.3 29.5998C156.7 29.5998 156.1 30.0998 156.1 30.7998C156.1 31.1998 156.2 31.4998 156.5 31.6998L156.4 31.7998C156.2 31.5998 155.8 31.3998 155.5 31.3998C154.9 31.3998 154.3 31.8998 154.3 32.5998C154.3 32.8998 154.4 33.1998 154.7 33.4998C154.4 33.6998 154.3 33.9998 154.3 34.3998C154.3 34.6998 154.4 34.9998 154.7 35.2998C154.4 35.4998 154.3 35.8998 154.3 36.1998C154.3 36.4998 154.4 36.7998 154.7 37.0998C154.4 37.2998 154.3 37.6998 154.3 37.9998C154.3 38.5998 154.8 39.1998 155.5 39.1998C156.2 39.1998 156.7 38.5998 156.7 37.9998ZM166.1 10.4998H155.6C155 10.4998 154.4 10.9998 154.4 11.6998C154.4 12.3998 154.9 12.8998 155.6 12.8998H163.4C163.3 13.0998 163.2 13.1998 163.2 13.4998C163.2 13.8998 163.4 14.1998 163.6 14.3998C163.4 14.5998 163.2 14.8998 163.2 15.2998C163.2 15.5998 163.4 15.8998 163.6 16.1998C163.4 16.3998 163.2 16.6998 163.2 17.0998C163.2 17.3998 163.4 17.6998 163.6 17.9998C163.4 18.1998 163.2 18.5998 163.2 18.8998C163.2 19.1998 163.4 19.4998 163.6 19.7998C163.4 19.9998 163.2 20.3998 163.2 20.6998C163.2 20.9998 163.4 21.2998 163.6 21.5998C163.4 21.7998 163.2 22.1998 163.2 22.4998C163.2 22.7998 163.4 23.0998 163.6 23.3998C163.4 23.5998 163.2 23.8998 163.2 24.2998C163.2 24.5998 163.4 24.9998 163.6 25.1998C163.4 25.3998 163.2 25.6998 163.2 26.0998C163.2 26.3998 163.4 26.7998 163.6 26.9998C163.4 27.1998 163.2 27.4998 163.2 27.8998C163.2 28.2998 163.4 28.5998 163.6 28.7998C163.4 28.9998 163.2 29.2998 163.2 29.6998C163.2 30.0998 163.4 30.3998 163.6 30.5998C163.4 30.7998 163.2 31.0998 163.2 31.4998C163.2 31.8998 163.4 32.1998 163.6 32.3998C163.4 32.5998 163.2 32.8998 163.2 33.2998C163.2 33.5998 163.4 33.8998 163.6 34.1998C163.4 34.3998 163.2 34.6998 163.2 35.0998C163.2 35.3998 163.4 35.6998 163.6 35.9998C163.4 36.1998 163.2 36.5998 163.2 36.8998C163.2 37.1998 163.4 37.4998 163.6 37.7998C163.4 37.9998 163.2 38.3998 163.2 38.6998C163.2 38.8998 163.2 39.0998 163.4 39.2998H162.6C162 39.2998 161.4 39.7998 161.4 40.4998C161.4 41.1998 161.9 41.6998 162.6 41.6998H164.3C165 41.6998 165.5 41.1998 165.5 40.4998C165.5 40.2998 165.5 40.0998 165.3 39.8998H166.1C166.7 39.8998 167.3 39.3998 167.3 38.6998C167.3 38.3998 167.1 37.9998 166.9 37.7998C167.1 37.5998 167.3 37.2998 167.3 36.8998C167.3 36.4998 167.1 36.1998 166.9 35.9998C167.1 35.7998 167.3 35.4998 167.3 35.0998C167.3 34.6998 167.1 34.3998 166.9 34.1998C167.1 33.9998 167.3 33.6998 167.3 33.2998C167.3 32.8998 167.1 32.5998 166.9 32.3998C167.1 32.1998 167.3 31.8998 167.3 31.4998C167.3 31.1998 167.1 30.8998 166.9 30.5998C167.1 30.3998 167.3 30.0998 167.3 29.6998C167.3 29.3998 167.1 29.0998 166.9 28.7998C167.1 28.5998 167.3 28.1998 167.3 27.8998C167.3 27.5998 167.1 27.2998 166.9 26.9998C167.1 26.7998 167.3 26.3998 167.3 26.0998C167.3 25.7998 167.1 25.4998 166.9 25.1998C167.1 24.9998 167.3 24.5998 167.3 24.2998C167.3 23.9998 167.1 23.6998 166.9 23.3998C167.1 23.0998 167.3 22.7998 167.3 22.4998C167.3 22.1998 167.1 21.7998 166.9 21.5998C167.1 21.3998 167.3 21.0998 167.3 20.6998C167.3 20.3998 167.1 19.9998 166.9 19.7998C167.1 19.5998 167.3 19.2998 167.3 18.8998C167.3 18.4998 167.1 18.1998 166.9 17.9998C167.1 17.7998 167.3 17.4998 167.3 17.0998C167.3 16.6998 167.1 16.3998 166.9 16.1998C167.1 15.9998 167.3 15.6998 167.3 15.2998C167.3 14.8998 167.1 14.5998 166.9 14.3998C167.1 14.1998 167.3 13.8998 167.3 13.4998C167.3 13.1998 167.1 12.8998 166.9 12.5998C167.1 12.3998 167.3 12.0998 167.3 11.6998C167.2 10.9998 166.7 10.4998 166.1 10.4998ZM167.8 1.7998C167.4 1.7998 167.1 1.8998 166.9 2.1998C166.9 2.0998 166.9 2.0998 166.8 2.0998C167 1.8998 167.2 1.5998 167.2 1.1998C167.2 0.599805 166.7 -0.000195324 166 -0.000195324H164.2C163.6 -0.000195324 163 0.599805 163 1.1998C163 1.4998 163.2 1.7998 163.4 2.0998C163.4 2.0998 163.4 2.0998 163.3 2.1998C163.1 1.8998 162.8 1.7998 162.4 1.7998C161.8 1.7998 161.2 2.2998 161.2 2.9998C161.2 3.5998 161.7 4.1998 162.4 4.1998C162.8 4.1998 163.1 4.0998 163.3 3.7998L163.4 3.8998C163.2 4.0998 163 4.4998 163 4.7998C163 5.3998 163.5 5.9998 164.2 5.9998H166C166.6 5.9998 167.2 5.4998 167.2 4.7998C167.2 4.4998 167 4.0998 166.8 3.8998C166.8 3.8998 166.8 3.8998 166.9 3.7998C167.1 4.0998 167.4 4.1998 167.8 4.1998C168.4 4.1998 169 3.6998 169 2.9998C169 2.2998 168.4 1.7998 167.8 1.7998ZM145 29.7998H138C137.3 29.7998 136.8 30.2998 136.8 30.9998C136.8 31.6998 137.3 32.1998 138 32.1998H145C145.6 32.1998 146.2 31.6998 146.2 30.9998C146.1 30.2998 145.6 29.7998 145 29.7998ZM146.7 28.0998C146.1 28.0998 145.5 28.5998 145.5 29.2998C145.5 29.9998 146 30.4998 146.7 30.4998C147.4 30.4998 147.9 29.8998 147.9 29.2998C147.9 28.6998 147.4 28.0998 146.7 28.0998ZM135.3 29.9998C135.5 30.2998 135.8 30.3998 136.2 30.3998C136.9 30.3998 137.4 29.7998 137.4 29.1998C137.4 28.5998 136.9 27.9998 136.2 27.9998C135.9 27.9998 135.6 28.1998 135.3 28.3998C135.3 28.3998 135.3 28.3998 135.2 28.2998C135.5 28.0998 135.6 27.6998 135.6 27.3998C135.6 27.0998 135.4 26.7998 135.2 26.4998C135.5 26.2998 135.6 25.8998 135.6 25.5998C135.6 25.2998 135.4 24.9998 135.2 24.6998C135.5 24.4998 135.6 24.0998 135.6 23.7998C135.6 23.1998 135 22.5998 134.4 22.5998C133.8 22.5998 133.2 23.0998 133.2 23.7998C133.2 24.0998 133.4 24.4998 133.6 24.6998C133.4 24.8998 133.2 25.1998 133.2 25.5998C133.2 25.8998 133.4 26.2998 133.6 26.4998C133.4 26.6998 133.2 26.9998 133.2 27.3998C133.2 27.7998 133.4 28.0998 133.6 28.2998C133.4 28.4998 133.2 28.7998 133.2 29.1998C133.2 29.5998 133.4 29.8998 133.6 30.0998C133.4 30.2998 133.2 30.5998 133.2 30.9998C133.2 31.3998 133.4 31.6998 133.6 31.8998C133.4 32.0998 133.2 32.3998 133.2 32.7998C133.2 33.3998 133.7 33.9998 134.4 33.9998C135 33.9998 135.6 33.4998 135.6 32.7998C135.6 32.3998 135.4 32.0998 135.2 31.8998C135.5 31.6998 135.6 31.3998 135.6 30.9998C135.6 30.6998 135.4 30.3998 135.2 30.0998C135.3 30.0998 135.3 29.9998 135.3 29.9998ZM148.5 22.7998H147.8C147.9 22.5998 147.9 22.3998 147.9 22.1998C147.9 21.5998 147.4 20.9998 146.7 20.9998H146C146.1 20.7998 146.1 20.5998 146.1 20.3998C146.1 19.7998 145.6 19.1998 144.9 19.1998H137.1C137.2 18.9998 137.3 18.8998 137.3 18.5998C137.3 18.2998 137.1 17.8998 136.9 17.6998C137.1 17.4998 137.3 17.1998 137.3 16.7998C137.3 16.1998 136.8 15.5998 136.1 15.5998H135.4C135.5 15.3998 135.6 15.2998 135.6 14.9998C135.6 14.2998 135 13.7998 134.4 13.7998C133.8 13.7998 133.2 14.2998 133.2 14.9998C133.2 15.2998 133.4 15.5998 133.6 15.8998C133.4 16.0998 133.2 16.3998 133.2 16.7998C133.2 17.0998 133.4 17.3998 133.6 17.6998C133.4 17.8998 133.2 18.2998 133.2 18.5998C133.2 19.1998 133.7 19.7998 134.4 19.7998H135.2C135.1 19.9998 135 20.1998 135 20.3998C135 20.9998 135.5 21.5998 136.2 21.5998H138.7C138.6 21.7998 138.5 21.9998 138.5 22.1998C138.5 22.7998 139.1 23.3998 139.7 23.3998H145.7C145.6 23.5998 145.6 23.7998 145.6 23.9998C145.6 24.2998 145.7 24.6998 146 24.8998C145.7 25.0998 145.6 25.3998 145.6 25.7998C145.6 26.3998 146.1 26.9998 146.8 26.9998H147.5C147.4 27.1998 147.4 27.2998 147.4 27.5998C147.4 28.1998 147.9 28.7998 148.6 28.7998C149.3 28.7998 149.8 28.1998 149.8 27.5998C149.8 27.2998 149.6 26.9998 149.4 26.6998C149.7 26.4998 149.8 26.0998 149.8 25.7998C149.8 25.4998 149.6 25.1998 149.4 24.8998C149.7 24.6998 149.8 24.2998 149.8 23.9998C149.7 23.2998 149.1 22.7998 148.5 22.7998ZM136.2 14.5998C136.9 14.5998 137.4 14.0998 137.4 13.3998C137.4 12.7998 136.9 12.1998 136.2 12.1998C135.6 12.1998 135 12.6998 135 13.3998C135 14.0998 135.6 14.5998 136.2 14.5998ZM138 12.8998H145C145.6 12.8998 146.2 12.3998 146.2 11.6998C146.2 11.0998 145.7 10.4998 145 10.4998H138C137.3 10.4998 136.8 10.9998 136.8 11.6998C136.8 12.3998 137.3 12.8998 138 12.8998ZM149.7 11.6998C149.7 11.3998 149.5 11.0998 149.3 10.7998C149.6 10.5998 149.7 10.1998 149.7 9.8998C149.7 9.2998 149.1 8.6998 148.5 8.6998C147.9 8.6998 147.3 9.1998 147.3 9.8998C147.3 10.1998 147.4 10.5998 147.7 10.7998C147.4 10.9998 147.3 11.2998 147.3 11.6998C147.3 12.0998 147.4 12.3998 147.7 12.5998L147.6 12.6998C147.4 12.4998 147 12.2998 146.7 12.2998C146.1 12.2998 145.5 12.7998 145.5 13.4998C145.5 14.1998 146 14.6998 146.7 14.6998C147 14.6998 147.4 14.4998 147.6 14.2998C147.6 14.2998 147.6 14.2998 147.7 14.3998C147.4 14.5998 147.3 14.8998 147.3 15.2998C147.3 15.5998 147.4 15.8998 147.7 16.1998C147.4 16.3998 147.3 16.6998 147.3 17.0998C147.3 17.3998 147.4 17.6998 147.7 17.9998C147.4 18.1998 147.3 18.5998 147.3 18.8998C147.3 19.4998 147.8 20.0998 148.5 20.0998C149.2 20.0998 149.7 19.5998 149.7 18.8998C149.7 18.5998 149.5 18.1998 149.3 17.9998C149.6 17.7998 149.7 17.4998 149.7 17.0998C149.7 16.6998 149.5 16.3998 149.3 16.1998C149.6 15.9998 149.7 15.6998 149.7 15.2998C149.7 14.8998 149.5 14.5998 149.3 14.3998C149.6 14.1998 149.7 13.8998 149.7 13.4998C149.7 13.1998 149.5 12.8998 149.3 12.5998C149.5 12.3998 149.7 12.0998 149.7 11.6998ZM127.7 25.6998C127.7 25.0998 127.2 24.4998 126.5 24.4998C125.8 24.4998 125.3 25.0998 125.3 25.6998C125.3 25.9998 125.5 26.2998 125.7 26.5998C125.5 26.7998 125.3 27.1998 125.3 27.4998C125.3 27.6998 125.4 27.8998 125.5 28.0998H124.7C124.1 28.0998 123.5 28.5998 123.5 29.2998C123.5 29.4998 123.5 29.6998 123.7 29.8998H117.7C117.1 29.8998 116.5 30.3998 116.5 31.0998C116.5 31.6998 117 32.2998 117.7 32.2998H124.7C125.4 32.2998 125.9 31.6998 125.9 31.0998C125.9 30.8998 125.9 30.6998 125.7 30.4998H126.5C127.1 30.4998 127.7 29.9998 127.7 29.2998C127.7 28.9998 127.5 28.5998 127.3 28.3998C127.5 28.1998 127.7 27.8998 127.7 27.4998C127.7 27.0998 127.5 26.7998 127.3 26.5998C127.6 26.3998 127.7 26.0998 127.7 25.6998ZM127.7 15.1998C127.7 14.5998 127.2 13.9998 126.5 13.9998H125.7C125.8 13.7998 125.9 13.5998 125.9 13.3998C125.9 12.7998 125.4 12.1998 124.7 12.1998H124C124.1 11.9998 124.2 11.7998 124.2 11.5998C124.2 10.9998 123.7 10.3998 123 10.3998H117.8C117.2 10.3998 116.6 10.8998 116.6 11.5998C116.6 12.1998 117.1 12.7998 117.8 12.7998H122.1C122 12.9998 121.9 13.1998 121.9 13.3998C121.9 13.9998 122.4 14.5998 123.1 14.5998H123.9C123.8 14.7998 123.7 14.8998 123.7 15.1998C123.7 15.4998 123.9 15.8998 124.1 16.0998C123.9 16.2998 123.7 16.5998 123.7 16.9998C123.7 17.3998 123.9 17.6998 124.1 17.8998C123.9 18.0998 123.7 18.3998 123.7 18.7998C123.7 18.9998 123.7 19.1998 123.9 19.3998H116.1C115.8 19.3998 115.4 19.5998 115.2 19.7998C115.2 19.7998 115.2 19.7998 115.1 19.6998C115.4 19.4998 115.5 19.1998 115.5 18.7998C115.5 18.4998 115.4 18.1998 115.1 17.8998C115.4 17.6998 115.5 17.3998 115.5 16.9998C115.5 16.6998 115.4 16.3998 115.1 16.0998C115.4 15.8998 115.5 15.4998 115.5 15.1998C115.5 14.9998 115.5 14.7998 115.4 14.5998H116.1C116.7 14.5998 117.3 13.9998 117.3 13.3998C117.3 12.7998 116.8 12.1998 116.1 12.1998H114.4C113.8 12.1998 113.2 12.6998 113.2 13.3998C113.2 13.5998 113.2 13.7998 113.3 13.9998H112.6C112 13.9998 111.4 14.4998 111.4 15.1998C111.4 15.4998 111.6 15.8998 111.8 16.0998C111.5 16.2998 111.4 16.5998 111.4 16.9998C111.4 17.3998 111.6 17.6998 111.8 17.8998C111.5 18.0998 111.4 18.3998 111.4 18.7998C111.4 19.1998 111.6 19.4998 111.8 19.6998C111.5 19.8998 111.4 20.1998 111.4 20.5998C111.4 20.8998 111.6 21.1998 111.8 21.4998C111.5 21.6998 111.4 21.9998 111.4 22.3998C111.4 22.6998 111.6 22.9998 111.8 23.2998C111.5 23.4998 111.4 23.8998 111.4 24.1998C111.4 24.4998 111.6 24.7998 111.8 25.0998C111.5 25.2998 111.4 25.6998 111.4 25.9998C111.4 26.2998 111.6 26.5998 111.8 26.8998C111.5 27.0998 111.4 27.4998 111.4 27.7998C111.4 28.3998 112 28.9998 112.6 28.9998H113.3C113.2 29.1998 113.2 29.3998 113.2 29.5998C113.2 30.1998 113.7 30.7998 114.4 30.7998H116.1C116.7 30.7998 117.3 30.2998 117.3 29.5998C117.3 28.8998 116.8 28.3998 116.1 28.3998H115.4C115.5 28.1998 115.5 27.9998 115.5 27.7998C115.5 27.4998 115.4 27.0998 115.1 26.8998C115.4 26.6998 115.5 26.3998 115.5 25.9998C115.5 25.6998 115.4 25.2998 115.1 25.0998C115.4 24.8998 115.5 24.5998 115.5 24.1998C115.5 23.8998 115.4 23.4998 115.1 23.2998C115.4 23.0998 115.5 22.7998 115.5 22.3998C115.5 21.9998 115.4 21.6998 115.1 21.4998C115.1 21.4998 115.1 21.4998 115.2 21.3998C115.4 21.5998 115.8 21.7998 116.1 21.7998H126.6C127.2 21.7998 127.8 21.2998 127.8 20.5998C127.8 20.1998 127.6 19.8998 127.4 19.6998C127.6 19.4998 127.8 19.1998 127.8 18.7998C127.8 18.4998 127.6 18.1998 127.4 17.8998C127.6 17.6998 127.8 17.3998 127.8 16.9998C127.8 16.6998 127.6 16.3998 127.4 16.0998C127.6 15.8998 127.7 15.4998 127.7 15.1998ZM98 29.1998C98 28.8998 97.8 28.5998 97.6 28.2998C97.8 28.0998 98 27.6998 98 27.3998C98 26.7998 97.5 26.1998 96.8 26.1998C96.2 26.1998 95.6 26.6998 95.6 27.3998C95.6 27.6998 95.8 28.0998 96 28.2998C95.7 28.4998 95.6 28.7998 95.6 29.1998C95.6 29.7998 96.2 30.3998 96.8 30.3998C97.5 30.3998 98 29.8998 98 29.1998ZM105 15.1998C105 14.4998 104.5 13.9998 103.8 13.9998H103.1C103.2 13.7998 103.2 13.5998 103.2 13.3998C103.2 12.7998 102.7 12.1998 102 12.1998H100.3C99.7 12.1998 99.1 12.6998 99.1 13.3998C99.1 14.0998 99.7 14.5998 100.3 14.5998H101C100.9 14.7998 100.9 14.9998 100.9 15.1998C100.9 15.4998 101 15.7998 101.3 16.0998C101 16.2998 100.9 16.5998 100.9 16.9998C100.9 17.2998 101 17.5998 101.3 17.8998C101 18.0998 100.9 18.4998 100.9 18.7998C100.9 19.0998 101 19.3998 101.3 19.6998C101 19.8998 100.9 20.2998 100.9 20.5998C100.9 20.8998 101 21.1998 101.3 21.4998C101 21.6998 100.9 22.0998 100.9 22.3998C100.9 22.6998 101 22.9998 101.3 23.2998C101 23.4998 100.9 23.7998 100.9 24.1998C100.9 24.4998 101 24.8998 101.3 25.0998C101 25.2998 100.9 25.5998 100.9 25.9998C100.9 26.2998 101 26.6998 101.3 26.8998C101 27.0998 100.9 27.3998 100.9 27.7998C100.9 28.1998 101 28.4998 101.3 28.6998C101 28.8998 100.9 29.1998 100.9 29.5998C100.9 29.7998 100.9 29.9998 101 30.1998H98.5C97.9 30.1998 97.3 30.6998 97.3 31.3998C97.3 32.0998 97.9 32.5998 98.5 32.5998H102C102.6 32.5998 103.2 32.0998 103.2 31.3998C103.2 31.1998 103.2 30.9998 103.1 30.7998H103.8C104.4 30.7998 105 30.1998 105 29.5998C105 29.2998 104.9 28.9998 104.6 28.6998C104.9 28.4998 105 28.0998 105 27.7998C105 27.4998 104.9 27.1998 104.6 26.8998C104.9 26.6998 105 26.2998 105 25.9998C105 25.6998 104.9 25.3998 104.6 25.0998C104.9 24.8998 105 24.4998 105 24.1998C105 23.8998 104.9 23.5998 104.6 23.2998C104.9 22.9998 105 22.6998 105 22.3998C105 22.0998 104.9 21.6998 104.6 21.4998C104.9 21.2998 105 20.9998 105 20.5998C105 20.2998 104.9 19.8998 104.6 19.6998C104.9 19.4998 105 19.1998 105 18.7998C105 18.3998 104.9 18.0998 104.6 17.8998C104.9 17.6998 105 17.3998 105 16.9998C105 16.5998 104.9 16.2998 104.6 16.0998C104.8 15.8998 105 15.5998 105 15.1998ZM96.2 25.6998C96.2 25.0998 95.7 24.4998 95 24.4998H92.5C92.6 24.2998 92.7 24.0998 92.7 23.8998C92.7 23.5998 92.5 23.2998 92.3 22.9998C92.5 22.6998 92.7 22.3998 92.7 22.0998C92.7 21.7998 92.5 21.3998 92.3 21.1998C92.5 20.9998 92.7 20.6998 92.7 20.2998C92.7 19.9998 92.5 19.5998 92.3 19.3998C92.5 19.1998 92.7 18.8998 92.7 18.4998C92.7 18.0998 92.5 17.7998 92.3 17.5998C92.5 17.3998 92.7 17.0998 92.7 16.6998C92.7 16.2998 92.5 15.9998 92.3 15.7998C92.5 15.5998 92.7 15.2998 92.7 14.8998C92.7 14.4998 92.5 14.1998 92.3 13.9998C92.5 13.7998 92.7 13.4998 92.7 13.0998C92.7 12.8998 92.6 12.6998 92.5 12.4998H98.5C99.1 12.4998 99.7 11.9998 99.7 11.2998C99.7 10.6998 99.2 10.0998 98.5 10.0998H92.5C92.6 9.89981 92.7 9.6998 92.7 9.4998C92.7 9.1998 92.5 8.89981 92.3 8.5998C92.5 8.39981 92.7 7.9998 92.7 7.6998C92.7 7.3998 92.5 7.0998 92.3 6.7998C92.5 6.5998 92.7 6.1998 92.7 5.8998C92.7 5.5998 92.5 5.2998 92.3 4.9998C92.5 4.7998 92.7 4.3998 92.7 4.0998C92.7 3.7998 92.5 3.3998 92.3 3.1998C92.5 2.9998 92.7 2.6998 92.7 2.2998C92.7 1.9998 92.5 1.5998 92.3 1.3998C92.5 1.1998 92.7 0.899805 92.7 0.499805C92.7 -0.100195 92.2 -0.700195 91.5 -0.700195H82.8C82.2 -0.700195 81.6 -0.100195 81.6 0.499805C81.6 1.0998 82.1 1.6998 82.8 1.6998H88.8C88.7 1.8998 88.6 2.0998 88.6 2.2998C88.6 2.5998 88.8 2.8998 89 3.1998C88.8 3.3998 88.6 3.7998 88.6 4.0998C88.6 4.3998 88.8 4.7998 89 4.9998C88.8 5.1998 88.6 5.4998 88.6 5.8998C88.6 6.1998 88.8 6.5998 89 6.7998C88.8 6.9998 88.6 7.2998 88.6 7.6998C88.6 8.0998 88.8 8.39981 89 8.5998C88.8 8.7998 88.6 9.0998 88.6 9.4998C88.6 9.8998 88.8 10.1998 89 10.3998C88.8 10.5998 88.6 10.8998 88.6 11.2998C88.6 11.6998 88.8 11.9998 89 12.1998C88.8 12.3998 88.6 12.6998 88.6 13.0998C88.6 13.4998 88.8 13.7998 89 13.9998C88.8 14.1998 88.6 14.4998 88.6 14.8998C88.6 15.1998 88.8 15.4998 89 15.7998C88.8 15.9998 88.6 16.2998 88.6 16.6998C88.6 16.9998 88.8 17.2998 89 17.5998C88.8 17.7998 88.6 18.1998 88.6 18.4998C88.6 18.7998 88.8 19.0998 89 19.3998C88.8 19.5998 88.6 19.9998 88.6 20.2998C88.6 20.5998 88.8 20.8998 89 21.1998C88.8 21.3998 88.6 21.7998 88.6 22.0998C88.6 22.3998 88.8 22.6998 89 22.9998C88.8 23.1998 88.6 23.4998 88.6 23.8998C88.6 24.1998 88.8 24.5998 89 24.7998C88.8 24.9998 88.6 25.2998 88.6 25.6998C88.6 25.9998 88.8 26.3998 89 26.5998C88.8 26.7998 88.6 27.0998 88.6 27.4998C88.6 27.8998 88.8 28.1998 89 28.3998C88.8 28.5998 88.6 28.8998 88.6 29.2998C88.6 29.4998 88.6 29.6998 88.8 29.8998H82.8C82.2 29.8998 81.6 30.3998 81.6 31.0998C81.6 31.7998 82.1 32.2998 82.8 32.2998H91.5C92.2 32.2998 92.7 31.7998 92.7 31.0998C92.7 30.7998 92.5 30.4998 92.3 30.1998C92.5 29.9998 92.7 29.6998 92.7 29.2998C92.7 28.9998 92.5 28.6998 92.3 28.3998C92.5 28.1998 92.7 27.7998 92.7 27.4998C92.7 27.2998 92.6 27.0998 92.5 26.8998H95C95.7 26.8998 96.2 26.3998 96.2 25.6998ZM65.5 27.4998C65.5 26.8998 64.9 26.2998 64.3 26.2998C63.7 26.2998 63.1 26.7998 63.1 27.4998C63.1 27.7998 63.2 28.1998 63.5 28.3998C63.2 28.5998 63.1 28.8998 63.1 29.2998C63.1 29.8998 63.6 30.4998 64.3 30.4998C65 30.4998 65.5 29.8998 65.5 29.2998C65.5 28.9998 65.3 28.6998 65.1 28.3998C65.3 28.1998 65.5 27.7998 65.5 27.4998ZM62.6 29.7998H60.1C60.2 29.5998 60.2 29.3998 60.2 29.1998C60.2 28.8998 60.1 28.5998 59.8 28.2998C60.1 28.0998 60.2 27.6998 60.2 27.3998C60.2 27.0998 60.1 26.7998 59.8 26.4998C60.1 26.2998 60.2 25.8998 60.2 25.5998C60.2 25.2998 60.1 24.9998 59.8 24.6998C60.1 24.4998 60.2 24.0998 60.2 23.7998C60.2 23.4998 60.1 23.1998 59.8 22.8998C60.1 22.5998 60.2 22.2998 60.2 21.9998C60.2 21.6998 60.1 21.2998 59.8 21.0998C60.1 20.8998 60.2 20.5998 60.2 20.1998C60.2 19.8998 60.1 19.4998 59.8 19.2998C60.1 19.0998 60.2 18.7998 60.2 18.3998C60.2 17.9998 60.1 17.6998 59.8 17.4998C60.1 17.2998 60.2 16.9998 60.2 16.5998C60.2 16.1998 60.1 15.8998 59.8 15.6998C60.1 15.4998 60.2 15.1998 60.2 14.7998C60.2 14.3998 60.1 14.0998 59.8 13.8998C60.1 13.6998 60.2 13.3998 60.2 12.9998C60.2 12.6998 60.1 12.3998 59.8 12.0998C60.1 11.8998 60.2 11.5998 60.2 11.1998C60.2 10.5998 59.7 9.9998 59 9.9998H50.2C49.6 9.9998 49 10.4998 49 11.1998C49 11.8998 49.5 12.3998 50.2 12.3998H56.2C56.1 12.5998 56 12.6998 56 12.9998C56 13.3998 56.2 13.6998 56.4 13.8998C56.1 14.0998 56 14.3998 56 14.7998C56 15.0998 56.2 15.3998 56.4 15.6998C56.1 15.8998 56 16.1998 56 16.5998C56 16.8998 56.2 17.1998 56.4 17.4998C56.1 17.6998 56 18.0998 56 18.3998C56 18.6998 56.2 18.9998 56.4 19.2998C56.1 19.4998 56 19.8998 56 20.1998C56 20.4998 56.2 20.7998 56.4 21.0998C56.1 21.2998 56 21.6998 56 21.9998C56 22.2998 56.2 22.5998 56.4 22.8998C56.1 23.0998 56 23.3998 56 23.7998C56 24.0998 56.2 24.4998 56.4 24.6998C56.1 24.8998 56 25.1998 56 25.5998C56 25.8998 56.2 26.2998 56.4 26.4998C56.1 26.6998 56 26.9998 56 27.3998C56 27.7998 56.2 28.0998 56.4 28.2998C56.1 28.4998 56 28.7998 56 29.1998C56 29.7998 56.6 30.3998 57.2 30.3998H57.9C57.8 30.5998 57.8 30.6998 57.8 30.9998C57.8 31.6998 58.3 32.1998 59 32.1998H62.5C63.1 32.1998 63.7 31.6998 63.7 30.9998C63.8 30.2998 63.2 29.7998 62.6 29.7998ZM78.4 29.7998H72.4C72.5 29.5998 72.6 29.3998 72.6 29.1998C72.6 28.8998 72.4 28.5998 72.2 28.2998C72.4 28.0998 72.6 27.6998 72.6 27.3998C72.6 27.0998 72.4 26.7998 72.2 26.4998C72.4 26.2998 72.6 25.8998 72.6 25.5998C72.6 25.2998 72.4 24.9998 72.2 24.6998C72.4 24.4998 72.6 24.0998 72.6 23.7998C72.6 23.4998 72.4 23.1998 72.2 22.8998C72.4 22.5998 72.6 22.2998 72.6 21.9998C72.6 21.6998 72.4 21.2998 72.2 21.0998C72.4 20.8998 72.6 20.5998 72.6 20.1998C72.6 19.8998 72.4 19.4998 72.2 19.2998C72.4 19.0998 72.6 18.7998 72.6 18.3998C72.6 17.9998 72.4 17.6998 72.2 17.4998C72.4 17.2998 72.6 16.9998 72.6 16.5998C72.6 16.1998 72.4 15.8998 72.2 15.6998C72.4 15.4998 72.6 15.1998 72.6 14.7998C72.6 14.3998 72.4 14.0998 72.2 13.8998C72.4 13.6998 72.6 13.3998 72.6 12.9998C72.6 12.6998 72.4 12.3998 72.2 12.0998C72.4 11.8998 72.6 11.5998 72.6 11.1998C72.6 10.5998 72.1 9.9998 71.4 9.9998H62.6C62 9.9998 61.4 10.4998 61.4 11.1998C61.4 11.8998 61.9 12.3998 62.6 12.3998H68.6C68.5 12.5998 68.4 12.6998 68.4 12.9998C68.4 13.3998 68.6 13.6998 68.8 13.8998C68.6 14.0998 68.4 14.3998 68.4 14.7998C68.4 15.0998 68.6 15.3998 68.8 15.6998C68.6 15.8998 68.4 16.1998 68.4 16.5998C68.4 16.8998 68.6 17.1998 68.8 17.4998C68.6 17.6998 68.4 18.0998 68.4 18.3998C68.4 18.6998 68.6 18.9998 68.8 19.2998C68.6 19.4998 68.4 19.8998 68.4 20.1998C68.4 20.4998 68.6 20.7998 68.8 21.0998C68.6 21.2998 68.4 21.6998 68.4 21.9998C68.4 22.2998 68.6 22.5998 68.8 22.8998C68.6 23.0998 68.4 23.3998 68.4 23.7998C68.4 23.9998 68.4 24.1998 68.6 24.3998H66.1C65.5 24.3998 64.9 24.8998 64.9 25.5998C64.9 26.1998 65.4 26.7998 66.1 26.7998H68.6C68.5 26.9998 68.4 27.0998 68.4 27.3998C68.4 27.6998 68.6 28.0998 68.8 28.2998C68.6 28.4998 68.4 28.7998 68.4 29.1998C68.4 29.5998 68.6 29.8998 68.8 30.0998C68.6 30.2998 68.4 30.5998 68.4 30.9998C68.4 31.6998 68.9 32.1998 69.6 32.1998H78.3C78.9 32.1998 79.5 31.6998 79.5 30.9998C79.5 30.2998 79 29.7998 78.4 29.7998ZM15.2 29.7998H9.2C9.3 29.5998 9.4 29.4998 9.4 29.1998C9.4 28.5998 8.8 27.9998 8.2 27.9998C7.6 27.9998 7 28.5998 7 29.2998C7 29.4998 7 29.6998 7.2 29.8998H1.2C0.5 29.7998 0 30.3998 0 30.9998C0 31.5998 0.5 32.1998 1.2 32.1998H15.2C15.8 32.1998 16.4 31.6998 16.4 30.9998C16.3 30.3998 15.8 29.7998 15.2 29.7998ZM8.7 27.4998C8.7 28.0998 9.2 28.6998 9.9 28.6998C10.6 28.6998 11.1 28.1998 11.1 27.4998C11.1 27.0998 10.9 26.7998 10.7 26.5998C10.9 26.3998 11.1 26.0998 11.1 25.6998C11.1 25.0998 10.6 24.4998 9.9 24.4998C9.3 24.4998 8.7 24.9998 8.7 25.6998C8.7 26.0998 8.9 26.3998 9.1 26.5998C8.9 26.7998 8.7 27.0998 8.7 27.4998ZM34.5 22.7998C33.9 22.7998 33.3 23.2998 33.3 23.9998C33.3 24.6998 33.9 25.1998 34.5 25.1998C35.1 25.1998 35.7 24.6998 35.7 23.9998C35.6 23.2998 35.1 22.7998 34.5 22.7998ZM11.7 25.1998C12.3 25.1998 12.9 24.6998 12.9 23.9998C12.9 23.3998 12.4 22.7998 11.7 22.7998C11 22.7998 10.5 23.2998 10.5 23.9998C10.5 24.6998 11 25.1998 11.7 25.1998ZM37.4 20.4998C37.4 19.8998 36.9 19.2998 36.2 19.2998C35.5 19.2998 35 19.7998 35 20.4998C35 20.7998 35.2 21.1998 35.4 21.3998C35.1 21.5998 35 21.8998 35 22.2998C35 22.8998 35.6 23.4998 36.2 23.4998C36.8 23.4998 37.4 22.8998 37.4 22.2998C37.4 21.9998 37.3 21.6998 37 21.3998C37.2 21.1998 37.4 20.7998 37.4 20.4998ZM12.2 22.1998C12.2 22.7998 12.8 23.3998 13.4 23.3998C14 23.3998 14.6 22.7998 14.6 22.1998C14.6 21.8998 14.4 21.5998 14.2 21.2998C14.4 21.0998 14.6 20.6998 14.6 20.3998C14.6 19.7998 14.1 19.1998 13.4 19.1998C12.8 19.1998 12.2 19.6998 12.2 20.3998C12.2 20.6998 12.4 21.0998 12.6 21.2998C12.4 21.5998 12.2 21.8998 12.2 22.1998ZM39.1 16.9998C39.1 16.3998 38.6 15.7998 37.9 15.7998C37.2 15.7998 36.7 16.2998 36.7 16.9998C36.7 17.2998 36.8 17.6998 37.1 17.8998C36.8 18.0998 36.7 18.3998 36.7 18.7998C36.7 19.3998 37.2 19.9998 37.9 19.9998C38.6 19.9998 39.1 19.3998 39.1 18.7998C39.1 18.4998 39 18.1998 38.7 17.8998C39 17.6998 39.1 17.2998 39.1 16.9998ZM16.3 16.9998C16.3 16.3998 15.8 15.7998 15.1 15.7998C14.5 15.7998 13.9 16.2998 13.9 16.9998C13.9 17.2998 14.1 17.6998 14.3 17.8998C14 18.0998 13.9 18.3998 13.9 18.7998C13.9 19.3998 14.5 19.9998 15.1 19.9998C15.7 19.9998 16.3 19.3998 16.3 18.7998C16.3 18.4998 16.2 18.1998 15.9 17.8998C16.2 17.6998 16.3 17.2998 16.3 16.9998ZM39.7 14.0998C39.1 14.0998 38.5 14.5998 38.5 15.2998C38.5 15.8998 39 16.4998 39.7 16.4998C40.3 16.4998 40.9 15.9998 40.9 15.2998C40.9 14.5998 40.4 14.0998 39.7 14.0998ZM16.9 14.0998C16.3 14.0998 15.7 14.5998 15.7 15.2998C15.7 15.8998 16.3 16.4998 16.9 16.4998C17.5 16.4998 18.1 15.9998 18.1 15.2998C18.1 14.5998 17.6 14.0998 16.9 14.0998ZM42.7 11.6998C42.7 11.0998 42.1 10.4998 41.5 10.4998C40.9 10.4998 40.3 11.0998 40.3 11.6998C40.3 11.9998 40.4 12.2998 40.7 12.5998C40.4 12.7998 40.3 13.1998 40.3 13.4998C40.3 14.0998 40.8 14.6998 41.5 14.6998C42.1 14.6998 42.7 14.1998 42.7 13.4998C42.7 13.1998 42.5 12.7998 42.3 12.5998C42.5 12.3998 42.7 12.0998 42.7 11.6998ZM19.8 11.6998C19.8 11.0998 19.3 10.4998 18.6 10.4998C17.9 10.4998 17.4 11.0998 17.4 11.6998C17.4 11.9998 17.5 12.2998 17.8 12.5998C17.5 12.7998 17.4 13.1998 17.4 13.4998C17.4 14.0998 17.9 14.6998 18.6 14.6998C19.3 14.6998 19.8 14.1998 19.8 13.4998C19.8 13.1998 19.7 12.7998 19.4 12.5998C19.7 12.3998 19.8 12.0998 19.8 11.6998ZM43.2 8.7998C42.6 8.7998 42 9.2998 42 9.9998C42 10.5998 42.5 11.1998 43.2 11.1998C43.8 11.1998 44.4 10.6998 44.4 9.9998C44.4 9.2998 43.8 8.7998 43.2 8.7998ZM20.4 8.7998C19.8 8.7998 19.2 9.2998 19.2 9.9998C19.2 10.5998 19.7 11.1998 20.4 11.1998C21 11.1998 21.6 10.6998 21.6 9.9998C21.6 9.2998 21.1 8.7998 20.4 8.7998ZM46.2 6.3998C46.2 5.7998 45.7 5.1998 45 5.1998C44.4 5.1998 43.8 5.6998 43.8 6.3998C43.8 6.7998 44 7.0998 44.2 7.2998C44 7.4998 43.8 7.7998 43.8 8.1998C43.8 8.7998 44.3 9.3998 45 9.3998C45.7 9.3998 46.2 8.8998 46.2 8.1998C46.2 7.7998 46 7.4998 45.8 7.2998C46 7.0998 46.2 6.7998 46.2 6.3998ZM23.4 6.3998C23.4 5.7998 22.8 5.1998 22.2 5.1998C21.6 5.1998 21 5.6998 21 6.3998C21 6.7998 21.1 7.0998 21.4 7.2998C21.2 7.5998 21 7.7998 21 8.1998C21 8.7998 21.5 9.3998 22.2 9.3998C22.8 9.3998 23.4 8.8998 23.4 8.1998C23.4 7.7998 23.2 7.4998 23 7.2998C23.2 7.0998 23.4 6.7998 23.4 6.3998ZM33.9 25.6998C33.9 25.0998 33.4 24.4998 32.7 24.4998C32.4 24.4998 32 24.6998 31.8 24.8998C31.8 24.8998 31.8 24.8998 31.7 24.7998C31.9 24.5998 32.1 24.2998 32.1 23.8998C32.1 23.5998 31.9 23.2998 31.7 22.9998C31.9 22.7998 32.1 22.3998 32.1 22.0998C32.1 21.4998 31.6 20.8998 30.9 20.8998H30.1C30.2 20.6998 30.3 20.4998 30.3 20.2998C30.3 19.9998 30.1 19.6998 29.9 19.3998C30.1 19.1998 30.3 18.7998 30.3 18.4998C30.3 18.1998 30.1 17.8998 29.9 17.5998C30.1 17.3998 30.3 16.9998 30.3 16.6998C30.3 16.3998 30.1 15.9998 29.9 15.7998C30.1 15.5998 30.3 15.2998 30.3 14.8998C30.3 14.4998 30.1 14.1998 29.9 13.9998C30.1 13.7998 30.3 13.4998 30.3 13.0998C30.3 12.7998 30.1 12.3998 29.9 12.1998C30.1 11.9998 30.3 11.6998 30.3 11.2998C30.3 10.6998 29.8 10.0998 29.1 10.0998H28.3C28.4 9.89981 28.5 9.7998 28.5 9.4998C28.5 9.0998 28.3 8.7998 28.1 8.5998C28.3 8.39981 28.5 8.0998 28.5 7.6998C28.5 7.2998 28.3 6.9998 28.1 6.7998C28.3 6.5998 28.5 6.2998 28.5 5.8998C28.5 5.5998 28.3 5.2998 28.1 4.9998C28.3 4.7998 28.5 4.4998 28.5 4.0998C28.5 3.8998 28.4 3.6998 28.3 3.4998H29.1C29.7 3.4998 30.3 2.8998 30.3 2.2998C30.3 1.6998 29.8 1.0998 29.1 1.0998H16.9C16.3 1.0998 15.7 1.5998 15.7 2.2998C15.7 2.8998 16.3 3.4998 16.9 3.4998H22.9C22.8 3.6998 22.7 3.7998 22.7 4.0998C22.7 4.6998 23.2 5.2998 23.9 5.2998C24.2 5.2998 24.6 5.0998 24.8 4.8998C24.8 4.8998 24.8 4.9998 24.9 4.9998C24.7 5.1998 24.5 5.4998 24.5 5.8998C24.5 6.2998 24.7 6.5998 24.9 6.7998C24.7 6.9998 24.5 7.2998 24.5 7.6998C24.5 7.9998 24.7 8.2998 24.9 8.5998C24.7 8.7998 24.5 9.0998 24.5 9.4998C24.5 10.0998 25 10.6998 25.7 10.6998H26.5C26.4 10.8998 26.3 11.0998 26.3 11.2998C26.3 11.5998 26.5 11.8998 26.7 12.1998C26.5 12.3998 26.3 12.7998 26.3 13.0998C26.3 13.3998 26.5 13.6998 26.7 13.9998C26.5 14.1998 26.3 14.5998 26.3 14.8998C26.3 15.1998 26.5 15.4998 26.7 15.7998C26.5 15.9998 26.3 16.3998 26.3 16.6998C26.3 16.9998 26.5 17.3998 26.7 17.5998C26.5 17.7998 26.3 18.0998 26.3 18.4998C26.3 18.8998 26.5 19.1998 26.7 19.3998C26.5 19.5998 26.3 19.8998 26.3 20.2998C26.3 20.8998 26.8 21.4998 27.5 21.4998H28.3C28.1 21.7998 28 21.9998 28 22.1998C28 22.4998 28.2 22.8998 28.4 23.0998C28.2 23.2998 28 23.5998 28 23.9998C28 24.3998 28.2 24.6998 28.4 24.8998C28.2 25.0998 28 25.3998 28 25.7998C28 26.1998 28.2 26.4998 28.4 26.6998C28.2 26.8998 28 27.1998 28 27.5998C28 27.8998 28.2 28.1998 28.4 28.4998C28.2 28.6998 28 28.9998 28 29.3998C28 29.6998 28.2 29.9998 28.4 30.2998C28.2 30.2998 28 30.6998 28 30.9998C28 31.5998 28.5 32.1998 29.2 32.1998H31C31.6 32.1998 32.2 31.6998 32.2 30.9998C32.2 30.6998 32 30.2998 31.8 30.0998C32 29.8998 32.2 29.5998 32.2 29.1998C32.2 28.9998 32.2 28.7998 32 28.5998H32.8C33.4 28.5998 34 28.0998 34 27.3998C34 26.9998 33.9 26.6998 33.6 26.4998C33.7 26.3998 33.9 26.0998 33.9 25.6998ZM53.7 1.7998H39.7C39.1 1.7998 38.5 2.2998 38.5 2.9998C38.5 3.5998 39 4.1998 39.7 4.1998H45.7C45.6 4.3998 45.5 4.4998 45.5 4.7998C45.5 5.3998 46 5.9998 46.7 5.9998C47.4 5.9998 47.9 5.3998 47.9 4.7998C47.9 4.5998 47.9 4.3998 47.7 4.1998H53.7C54.3 4.1998 54.9 3.5998 54.9 2.9998C54.9 2.2998 54.4 1.7998 53.7 1.7998Z" fill="black"/>
<path d="M80.1 28.6C80.8 28.6 81.4 28 81.4 27.3C81.4 26.6 80.8 26 80.1 26C79.4 26 78.8 26.6 78.8 27.3C78.9 28 79.4 28.6 80.1 28.6Z" fill="black"/>
<path d="M130.8 25.6C131.5 25.6 132.1 25 132.1 24.3C132.1 23.6 131.5 23 130.8 23C130.1 23 129.5 23.6 129.5 24.3C129.5 25.1 130 25.6 130.8 25.6Z" fill="black"/>
<path d="M179.4 34.6C180.1 34.6 180.7 34 180.7 33.3C180.7 32.6 180.1 32 179.4 32C178.7 32 178.1 32.6 178.1 33.3C178.1 34 178.6 34.6 179.4 34.6Z" fill="black"/>
<path d="M240.9 5.6C241.6 5.6 242.2 5 242.2 4.3C242.2 3.6 241.6 3 240.9 3C240.2 3 239.6 3.6 239.6 4.3C239.7 5 240.2 5.6 240.9 5.6Z" fill="black"/>
<path d="M205.5 12.3998C206.2 12.3998 206.8 11.7998 206.8 11.0998C206.8 10.3998 206.2 9.7998 205.5 9.7998C204.8 9.7998 204.2 10.3998 204.2 11.0998C204.3 11.7998 204.8 12.3998 205.5 12.3998Z" fill="black"/>
</g>
<defs>
<clipPath id="clip0_599_934">
<rect width="293.2" height="42.7" fill="black"/>
</clipPath>
</defs>
</svg>
