<svg width="250" height="37" viewBox="0 0 250 37" fill="none" xmlns="http://www.w3.org/2000/svg">
<g clip-path="url(#clip0_599_925)">
<path d="M111.6 14.8004H112.3C112.9 14.8004 113.4 14.3004 113.4 13.7004C113.4 13.5004 113.4 13.3004 113.3 13.1004H114C114.6 13.1004 115.1 12.6004 115.1 11.9004C115.1 11.7004 115.1 11.5004 115 11.3004H115.7C116.3 11.3004 116.9 10.7004 116.9 10.1004C116.9 9.50039 116.4 9.00039 115.8 9.00039H114C113.4 9.00039 112.9 9.50039 112.9 10.1004C112.9 10.3004 112.9 10.5004 113 10.7004H112.3C111.7 10.7004 111.2 11.2004 111.2 11.8004C111.2 12.0004 111.2 12.2004 111.3 12.4004H110.6C110 12.4004 109.4 12.9004 109.4 13.6004C109.4 13.8004 109.5 14.0004 109.6 14.2004M245 29.7004H238C237.3 29.7004 236.8 30.2004 236.8 30.8004C236.8 31.5004 237.3 32.0004 238 32.0004H245C245.6 32.0004 246.1 31.5004 246.1 30.8004C246.2 30.2004 245.6 29.7004 245 29.7004ZM246.8 28.0004C246.2 28.0004 245.7 28.5004 245.7 29.1004C245.7 29.7004 246.2 30.3004 246.8 30.3004C247.4 30.3004 247.9 29.7004 247.9 29.1004C247.9 28.5004 247.4 28.0004 246.8 28.0004ZM235.4 29.9004C235.6 30.2004 235.9 30.3004 236.3 30.3004C237 30.3004 237.5 29.7004 237.5 29.1004C237.5 28.5004 237 28.0004 236.3 28.0004C236 28.0004 235.7 28.2004 235.4 28.4004C235.4 28.4004 235.4 28.4004 235.3 28.3004C235.6 28.1004 235.7 27.7004 235.7 27.4004C235.7 27.1004 235.5 26.8004 235.3 26.5004C235.6 26.3004 235.7 25.9004 235.7 25.6004C235.7 25.3004 235.5 25.0004 235.3 24.7004C235.6 24.5004 235.7 24.1004 235.7 23.8004C235.7 23.2004 235.1 22.7004 234.5 22.7004C233.9 22.7004 233.4 23.2004 233.4 23.8004C233.4 24.1004 233.6 24.5004 233.8 24.7004C233.6 24.9004 233.4 25.2004 233.4 25.6004C233.4 25.9004 233.6 26.3004 233.8 26.5004C233.6 26.7004 233.4 27.0004 233.4 27.4004C233.4 27.7004 233.6 28.1004 233.8 28.3004C233.6 28.5004 233.4 28.8004 233.4 29.2004C233.4 29.6004 233.6 29.9004 233.8 30.1004C233.6 30.3004 233.4 30.6004 233.4 31.0004C233.4 31.4004 233.6 31.7004 233.8 31.9004C233.6 32.1004 233.4 32.4004 233.4 32.8004C233.4 33.4004 233.9 33.9004 234.5 33.9004C235.1 33.9004 235.7 33.4004 235.7 32.8004C235.7 32.4004 235.5 32.1004 235.3 31.9004C235.6 31.7004 235.7 31.4004 235.7 31.0004C235.7 30.7004 235.5 30.4004 235.3 30.1004C235.3 30.0004 235.4 29.9004 235.4 29.9004ZM248.5 22.8004H247.8C247.9 22.6004 247.9 22.4004 247.9 22.2004C247.9 21.6004 247.4 21.1004 246.8 21.1004H246C246.1 20.9004 246.1 20.7004 246.1 20.5004C246.1 19.9004 245.6 19.3004 245 19.3004H237.3C237.4 19.1004 237.5 19.0004 237.5 18.7004C237.5 18.4004 237.3 18.0004 237.1 17.8004C237.3 17.6004 237.5 17.3004 237.5 16.9004C237.5 16.3004 237 15.7004 236.3 15.7004H235.6C235.7 15.5004 235.8 15.4004 235.8 15.1004C235.8 14.4004 235.2 13.9004 234.6 13.9004C234 13.9004 233.5 14.4004 233.5 15.1004C233.5 15.4004 233.7 15.7004 233.9 16.0004C233.7 16.2004 233.5 16.5004 233.5 16.9004C233.5 17.2004 233.7 17.5004 233.9 17.8004C233.7 18.0004 233.5 18.4004 233.5 18.7004C233.5 19.3004 234 19.8004 234.6 19.8004H235.4C235.3 20.0004 235.2 20.2004 235.2 20.4004C235.2 21.0004 235.7 21.5004 236.3 21.5004H238.8C238.7 21.7004 238.6 21.9004 238.6 22.1004C238.6 22.7004 239.2 23.2004 239.8 23.2004H245.8C245.7 23.4004 245.7 23.6004 245.7 23.8004C245.7 24.1004 245.8 24.5004 246.1 24.7004C245.8 24.9004 245.7 25.2004 245.7 25.6004C245.7 26.2004 246.2 26.8004 246.8 26.8004H247.5C247.4 27.0004 247.4 27.1004 247.4 27.4004C247.4 28.0004 247.9 28.6004 248.5 28.6004C249.1 28.6004 249.7 28.0004 249.7 27.4004C249.7 27.1004 249.5 26.8004 249.3 26.5004C249.6 26.3004 249.7 25.9004 249.7 25.6004C249.7 25.3004 249.5 25.0004 249.3 24.7004C249.6 24.5004 249.7 24.1004 249.7 23.8004C249.7 23.3004 249.1 22.8004 248.5 22.8004ZM236.2 14.6004C236.9 14.6004 237.4 14.1004 237.4 13.4004C237.4 12.8004 236.9 12.3004 236.2 12.3004C235.6 12.3004 235.1 12.8004 235.1 13.4004C235.1 14.1004 235.6 14.6004 236.2 14.6004ZM238 12.8004H245C245.6 12.8004 246.1 12.3004 246.1 11.6004C246.1 11.0004 245.6 10.5004 245 10.5004H238C237.3 10.5004 236.8 11.0004 236.8 11.6004C236.8 12.3004 237.4 12.8004 238 12.8004ZM249.7 11.7004C249.7 11.4004 249.5 11.1004 249.3 10.8004C249.6 10.6004 249.7 10.2004 249.7 9.90039C249.7 9.30039 249.1 8.80039 248.5 8.80039C247.9 8.80039 247.4 9.30039 247.4 9.90039C247.4 10.2004 247.5 10.6004 247.8 10.8004C247.5 11.0004 247.4 11.3004 247.4 11.7004C247.4 12.1004 247.5 12.4004 247.8 12.6004L247.7 12.7004C247.5 12.5004 247.1 12.3004 246.8 12.3004C246.2 12.3004 245.7 12.8004 245.7 13.4004C245.7 14.1004 246.2 14.6004 246.8 14.6004C247.1 14.6004 247.5 14.4004 247.7 14.2004C247.7 14.2004 247.7 14.2004 247.8 14.3004C247.5 14.5004 247.4 14.8004 247.4 15.2004C247.4 15.5004 247.5 15.8004 247.8 16.1004C247.5 16.3004 247.4 16.6004 247.4 17.0004C247.4 17.3004 247.5 17.6004 247.8 17.9004C247.5 18.1004 247.4 18.5004 247.4 18.8004C247.4 19.4004 247.9 19.9004 248.5 19.9004C249.1 19.9004 249.7 19.4004 249.7 18.8004C249.7 18.5004 249.5 18.1004 249.3 17.9004C249.6 17.7004 249.7 17.4004 249.7 17.0004C249.7 16.6004 249.5 16.3004 249.3 16.1004C249.6 15.9004 249.7 15.6004 249.7 15.2004C249.7 14.8004 249.5 14.5004 249.3 14.3004C249.6 14.1004 249.7 13.8004 249.7 13.4004C249.7 13.1004 249.5 12.8004 249.3 12.5004C249.5 12.3004 249.7 12.0004 249.7 11.7004ZM216.4 27.4004C216.4 26.8004 215.9 26.3004 215.3 26.3004C214.7 26.3004 214.1 26.8004 214.1 27.4004C214.1 27.7004 214.3 28.1004 214.5 28.3004C214.2 28.5004 214.1 28.8004 214.1 29.2004C214.1 29.8004 214.7 30.4004 215.3 30.4004C215.9 30.4004 216.4 29.8004 216.4 29.2004C216.4 28.9004 216.3 28.6004 216 28.3004C216.3 28.1004 216.4 27.7004 216.4 27.4004ZM213.5 29.7004H211C211.1 29.5004 211.2 29.3004 211.2 29.1004C211.2 28.8004 211 28.5004 210.8 28.2004C211 28.0004 211.2 27.6004 211.2 27.3004C211.2 27.0004 211 26.7004 210.8 26.4004C211 26.2004 211.2 25.8004 211.2 25.5004C211.2 25.2004 211 24.9004 210.8 24.6004C211 24.4004 211.2 24.0004 211.2 23.7004C211.2 23.4004 211 23.1004 210.8 22.8004C211 22.5004 211.2 22.2004 211.2 21.9004C211.2 21.6004 211 21.2004 210.8 21.0004C211 20.8004 211.2 20.5004 211.2 20.1004C211.2 19.7004 211 19.4004 210.8 19.2004C211 19.0004 211.2 18.7004 211.2 18.3004C211.2 18.0004 211 17.6004 210.8 17.4004C211 17.2004 211.2 16.9004 211.2 16.5004C211.2 16.1004 211 15.8004 210.8 15.6004C211 15.4004 211.2 15.1004 211.2 14.7004C211.2 14.5004 211.2 14.3004 211 14.1004H211.8C212.4 14.1004 212.9 13.6004 212.9 12.9004C212.9 12.3004 212.4 11.8004 211.8 11.8004H210C209.4 11.8004 208.9 12.3004 208.9 12.9004C208.9 13.1004 208.9 13.3004 209.1 13.5004H208.3C207.7 13.5004 207.2 14.0004 207.2 14.7004C207.2 15.0004 207.4 15.3004 207.6 15.6004C207.4 15.8004 207.2 16.1004 207.2 16.5004C207.2 16.8004 207.4 17.1004 207.6 17.4004C207.4 17.6004 207.2 18.0004 207.2 18.3004C207.2 18.6004 207.4 18.9004 207.6 19.2004C207.4 19.4004 207.2 19.8004 207.2 20.1004C207.2 20.4004 207.4 20.7004 207.6 21.0004C207.4 21.2004 207.2 21.6004 207.2 21.9004C207.2 22.2004 207.4 22.5004 207.6 22.8004C207.4 23.0004 207.2 23.3004 207.2 23.7004C207.2 24.0004 207.4 24.4004 207.6 24.6004C207.4 24.8004 207.2 25.1004 207.2 25.5004C207.2 25.8004 207.4 26.2004 207.6 26.4004C207.4 26.6004 207.2 26.9004 207.2 27.3004C207.2 27.6004 207.4 28.0004 207.6 28.2004C207.4 28.4004 207.2 28.7004 207.2 29.1004C207.2 29.7004 207.7 30.3004 208.3 30.3004H209.1C209 30.5004 208.9 30.6004 208.9 30.9004C208.9 31.6004 209.4 32.1004 210 32.1004H213.5C214.1 32.1004 214.6 31.6004 214.6 30.9004C214.6 30.2004 214.1 29.7004 213.5 29.7004ZM229.2 29.7004H223.2C223.3 29.5004 223.4 29.3004 223.4 29.1004C223.4 28.8004 223.2 28.5004 223 28.2004C223.3 28.0004 223.4 27.6004 223.4 27.3004C223.4 27.0004 223.2 26.7004 223 26.4004C223.3 26.2004 223.4 25.8004 223.4 25.5004C223.4 25.2004 223.2 24.9004 223 24.6004C223.3 24.4004 223.4 24.0004 223.4 23.7004C223.4 23.4004 223.2 23.1004 223 22.8004C223.3 22.5004 223.4 22.2004 223.4 21.9004C223.4 21.6004 223.2 21.2004 223 21.0004C223.3 20.8004 223.4 20.5004 223.4 20.1004C223.4 19.7004 223.2 19.4004 223 19.2004C223.3 19.0004 223.4 18.7004 223.4 18.3004C223.4 18.0004 223.2 17.6004 223 17.4004C223.3 17.2004 223.4 16.9004 223.4 16.5004C223.4 16.1004 223.2 15.8004 223 15.6004C223.3 15.4004 223.4 15.1004 223.4 14.7004C223.4 14.3004 223.2 14.0004 223 13.8004C223.3 13.6004 223.4 13.3004 223.4 12.9004C223.4 12.6004 223.2 12.3004 223 12.0004C223.3 11.8004 223.4 11.5004 223.4 11.1004C223.4 10.8004 223.2 10.5004 223 10.2004C223.3 10.0004 223.4 9.60039 223.4 9.30039C223.4 9.00039 223.2 8.70039 223 8.50039C223.3 8.30039 223.4 7.90039 223.4 7.60039C223.4 7.30039 223.2 7.00039 223 6.80039C223.3 6.60039 223.4 6.20039 223.4 5.90039C223.4 5.60039 223.2 5.30039 223 5.00039C223.3 4.80039 223.4 4.40039 223.4 4.10039C223.4 3.80039 223.2 3.40039 223 3.20039C223.3 3.00039 223.4 2.70039 223.4 2.40039C223.4 2.10039 223.2 1.70039 223 1.50039C223.3 1.30039 223.4 1.00039 223.4 0.600391C223.4 0.000390649 222.8 -0.599609 222.2 -0.599609H213.5C212.9 -0.599609 212.3 0.000390649 212.3 0.600391C212.3 1.20039 212.9 1.70039 213.5 1.70039H219.5C219.4 1.90039 219.4 2.10039 219.4 2.30039C219.4 2.60039 219.5 2.90039 219.8 3.10039C219.5 3.30039 219.4 3.70039 219.4 4.00039C219.4 4.30039 219.5 4.70039 219.8 4.90039C219.5 5.10039 219.4 5.40039 219.4 5.80039C219.4 6.10039 219.5 6.50039 219.8 6.70039C219.5 6.90039 219.4 7.20039 219.4 7.50039C219.4 7.80039 219.5 8.20039 219.8 8.40039C219.5 8.60039 219.4 8.90039 219.4 9.20039C219.4 9.40039 219.4 9.60039 219.5 9.80039H213.5C212.9 9.80039 212.3 10.3004 212.3 10.9004C212.3 11.6004 212.9 12.1004 213.5 12.1004H219.5C219.4 12.3004 219.4 12.4004 219.4 12.7004C219.4 13.1004 219.5 13.4004 219.8 13.6004C219.5 13.8004 219.4 14.1004 219.4 14.5004C219.4 14.8004 219.5 15.1004 219.8 15.4004C219.5 15.6004 219.4 15.9004 219.4 16.3004C219.4 16.6004 219.5 16.9004 219.8 17.2004C219.5 17.4004 219.4 17.8004 219.4 18.1004C219.4 18.4004 219.5 18.7004 219.8 19.0004C219.5 19.2004 219.4 19.6004 219.4 19.9004C219.4 20.2004 219.5 20.5004 219.8 20.8004C219.5 21.0004 219.4 21.4004 219.4 21.7004C219.4 22.0004 219.5 22.3004 219.8 22.6004C219.5 22.8004 219.4 23.1004 219.4 23.5004C219.4 23.7004 219.4 23.9004 219.5 24.1004H217C216.4 24.1004 215.8 24.6004 215.8 25.2004C215.8 25.8004 216.4 26.4004 217 26.4004H219.5C219.4 26.6004 219.4 26.7004 219.4 27.0004C219.4 27.3004 219.5 27.7004 219.8 27.9004C219.5 28.1004 219.4 28.4004 219.4 28.8004C219.4 29.2004 219.5 29.5004 219.8 29.7004C219.5 29.9004 219.4 30.2004 219.4 30.6004C219.4 31.3004 219.9 31.8004 220.5 31.8004H229.3C229.9 31.8004 230.4 31.3004 230.4 30.6004C230.4 30.2004 229.9 29.7004 229.2 29.7004ZM190.6 27.4004C190.6 26.8004 190 26.3004 189.4 26.3004C188.8 26.3004 188.3 26.8004 188.3 27.4004C188.3 27.7004 188.4 28.1004 188.7 28.3004C188.4 28.5004 188.3 28.8004 188.3 29.2004C188.3 29.8004 188.8 30.4004 189.4 30.4004C190 30.4004 190.6 29.8004 190.6 29.2004C190.6 28.9004 190.4 28.6004 190.2 28.3004C190.4 28.1004 190.6 27.7004 190.6 27.4004ZM187.6 29.7004H185.1C185.2 29.5004 185.2 29.3004 185.2 29.1004C185.2 28.8004 185.1 28.5004 184.8 28.2004C185.1 28.0004 185.2 27.6004 185.2 27.3004C185.2 27.0004 185.1 26.7004 184.8 26.4004C185.1 26.2004 185.2 25.8004 185.2 25.5004C185.2 25.2004 185.1 24.9004 184.8 24.6004C185.1 24.4004 185.2 24.0004 185.2 23.7004C185.2 23.4004 185.1 23.1004 184.8 22.8004C185.1 22.5004 185.2 22.2004 185.2 21.9004C185.2 21.6004 185.1 21.2004 184.8 21.0004C185.1 20.8004 185.2 20.5004 185.2 20.1004C185.2 19.7004 185.1 19.4004 184.8 19.2004C185.1 19.0004 185.2 18.7004 185.2 18.3004C185.2 18.0004 185.1 17.6004 184.8 17.4004C185.1 17.2004 185.2 16.9004 185.2 16.5004C185.2 16.1004 185.1 15.8004 184.8 15.6004C185.1 15.4004 185.2 15.1004 185.2 14.7004C185.2 14.3004 185.1 14.0004 184.8 13.8004C185.1 13.6004 185.2 13.3004 185.2 12.9004C185.2 12.6004 185.1 12.3004 184.8 12.0004C185.1 11.8004 185.2 11.5004 185.2 11.1004C185.2 10.5004 184.7 10.0004 184.1 10.0004H175.3C174.7 10.0004 174.2 10.5004 174.2 11.1004C174.2 11.8004 174.7 12.3004 175.3 12.3004H181.3C181.2 12.5004 181.1 12.6004 181.1 12.9004C181.1 13.3004 181.3 13.6004 181.5 13.8004C181.2 14.0004 181.1 14.3004 181.1 14.7004C181.1 15.0004 181.3 15.3004 181.5 15.6004C181.2 15.8004 181.1 16.1004 181.1 16.5004C181.1 16.8004 181.3 17.1004 181.5 17.4004C181.2 17.6004 181.1 18.0004 181.1 18.3004C181.1 18.6004 181.3 18.9004 181.5 19.2004C181.2 19.4004 181.1 19.8004 181.1 20.1004C181.1 20.4004 181.3 20.7004 181.5 21.0004C181.2 21.2004 181.1 21.6004 181.1 21.9004C181.1 22.2004 181.3 22.5004 181.5 22.8004C181.2 23.0004 181.1 23.3004 181.1 23.7004C181.1 24.0004 181.3 24.4004 181.5 24.6004C181.2 24.8004 181.1 25.1004 181.1 25.5004C181.1 25.8004 181.3 26.2004 181.5 26.4004C181.2 26.6004 181.1 26.9004 181.1 27.3004C181.1 27.6004 181.3 28.0004 181.5 28.2004C181.2 28.4004 181.1 28.7004 181.1 29.1004C181.1 29.7004 181.7 30.3004 182.3 30.3004H183C182.9 30.5004 182.9 30.6004 182.9 30.9004C182.9 31.6004 183.4 32.1004 184 32.1004H187.5C188.1 32.1004 188.7 31.6004 188.7 30.9004C188.8 30.2004 188.3 29.7004 187.6 29.7004ZM203.4 29.7004H197.4C197.5 29.5004 197.6 29.3004 197.6 29.1004C197.6 28.8004 197.4 28.5004 197.2 28.2004C197.4 28.0004 197.6 27.6004 197.6 27.3004C197.6 27.0004 197.4 26.7004 197.2 26.4004C197.4 26.2004 197.6 25.8004 197.6 25.5004C197.6 25.2004 197.4 24.9004 197.2 24.6004C197.4 24.4004 197.6 24.0004 197.6 23.7004C197.6 23.4004 197.4 23.1004 197.2 22.8004C197.4 22.5004 197.6 22.2004 197.6 21.9004C197.6 21.6004 197.4 21.2004 197.2 21.0004C197.4 20.8004 197.6 20.5004 197.6 20.1004C197.6 19.7004 197.4 19.4004 197.2 19.2004C197.4 19.0004 197.6 18.7004 197.6 18.3004C197.6 18.0004 197.4 17.6004 197.2 17.4004C197.4 17.2004 197.6 16.9004 197.6 16.5004C197.6 16.1004 197.4 15.8004 197.2 15.6004C197.4 15.4004 197.6 15.1004 197.6 14.7004C197.6 14.3004 197.4 14.0004 197.2 13.8004C197.4 13.6004 197.6 13.3004 197.6 12.9004C197.6 12.6004 197.4 12.3004 197.2 12.0004C197.4 11.8004 197.6 11.5004 197.6 11.1004C197.6 10.5004 197.1 10.0004 196.5 10.0004H187.7C187.1 10.0004 186.6 10.5004 186.6 11.1004C186.6 11.8004 187.1 12.3004 187.7 12.3004H193.7C193.6 12.5004 193.5 12.6004 193.5 12.9004C193.5 13.3004 193.7 13.6004 193.9 13.8004C193.7 14.0004 193.5 14.3004 193.5 14.7004C193.5 15.0004 193.7 15.3004 193.9 15.6004C193.7 15.8004 193.5 16.1004 193.5 16.5004C193.5 16.8004 193.7 17.1004 193.9 17.4004C193.7 17.6004 193.5 18.0004 193.5 18.3004C193.5 18.6004 193.7 18.9004 193.9 19.2004C193.7 19.4004 193.5 19.8004 193.5 20.1004C193.5 20.4004 193.7 20.7004 193.9 21.0004C193.7 21.2004 193.5 21.6004 193.5 21.9004C193.5 22.2004 193.7 22.5004 193.9 22.8004C193.7 23.0004 193.5 23.3004 193.5 23.7004C193.5 23.9004 193.5 24.1004 193.7 24.3004H191.2C190.6 24.3004 190.1 24.8004 190.1 25.4004C190.1 26.0004 190.6 26.6004 191.2 26.6004H193.7C193.6 26.8004 193.5 26.9004 193.5 27.2004C193.5 27.5004 193.7 27.9004 193.9 28.1004C193.7 28.3004 193.5 28.6004 193.5 29.0004C193.5 29.4004 193.7 29.7004 193.9 29.9004C193.7 30.1004 193.5 30.4004 193.5 30.8004C193.5 31.5004 194 32.0004 194.7 32.0004H203.4C204 32.0004 204.5 31.5004 204.5 30.8004C204.5 30.2004 204 29.7004 203.4 29.7004ZM166.1 29.7004H160.9C160.3 29.7004 159.8 30.2004 159.8 30.8004C159.8 31.5004 160.3 32.0004 160.9 32.0004H166.1C166.8 32.0004 167.3 31.5004 167.3 30.8004C167.3 30.2004 166.8 29.7004 166.1 29.7004ZM172.5 15.2004C172.5 14.5004 172 14.0004 171.4 14.0004H170.6C170.7 13.8004 170.8 13.6004 170.8 13.4004C170.8 12.8004 170.3 12.3004 169.7 12.3004H168C167.3 12.3004 166.8 12.8004 166.8 13.4004C166.8 14.1004 167.3 14.6004 168 14.6004H168.7C168.6 14.8004 168.5 15.0004 168.5 15.2004C168.5 15.5004 168.7 15.8004 168.9 16.1004C168.6 16.3004 168.5 16.6004 168.5 17.0004C168.5 17.3004 168.7 17.6004 168.9 17.9004C168.6 18.1004 168.5 18.5004 168.5 18.8004C168.5 19.1004 168.7 19.4004 168.9 19.7004C168.6 19.9004 168.5 20.3004 168.5 20.6004C168.5 20.9004 168.7 21.2004 168.9 21.5004C168.6 21.7004 168.5 22.1004 168.5 22.4004C168.5 22.7004 168.7 23.0004 168.9 23.3004C168.6 23.5004 168.5 23.8004 168.5 24.2004C168.5 24.5004 168.7 24.9004 168.9 25.1004C168.6 25.3004 168.5 25.6004 168.5 26.0004C168.5 26.3004 168.7 26.7004 168.9 26.9004C168.6 27.1004 168.5 27.4004 168.5 27.8004C168.5 28.0004 168.6 28.2004 168.7 28.4004H168C167.3 28.4004 166.8 28.9004 166.8 29.5004C166.8 30.1004 167.3 30.7004 168 30.7004H169.7C170.3 30.7004 170.8 30.1004 170.8 29.5004C170.8 29.3004 170.8 29.1004 170.6 28.9004H171.4C172 28.9004 172.5 28.3004 172.5 27.7004C172.5 27.4004 172.4 27.1004 172.1 26.8004C172.4 26.6004 172.5 26.2004 172.5 25.9004C172.5 25.6004 172.4 25.3004 172.1 25.0004C172.4 24.8004 172.5 24.4004 172.5 24.1004C172.5 23.8004 172.4 23.5004 172.1 23.2004C172.4 22.9004 172.5 22.6004 172.5 22.3004C172.5 22.0004 172.4 21.6004 172.1 21.4004C172.4 21.2004 172.5 20.9004 172.5 20.5004C172.5 20.1004 172.4 19.8004 172.1 19.6004C172.4 19.4004 172.5 19.1004 172.5 18.7004C172.5 18.4004 172.4 18.0004 172.1 17.8004C172.4 17.6004 172.5 17.3004 172.5 16.9004C172.5 16.5004 172.4 16.2004 172.1 16.0004C172.4 15.8004 172.5 15.5004 172.5 15.2004ZM160.3 29.1004C160.3 28.5004 159.8 28.0004 159.2 28.0004H158.5C158.6 27.8004 158.6 27.6004 158.6 27.4004C158.6 27.1004 158.5 26.8004 158.2 26.5004C158.5 26.3004 158.6 25.9004 158.6 25.6004C158.6 25.3004 158.5 25.0004 158.2 24.7004C158.5 24.5004 158.6 24.1004 158.6 23.8004C158.6 23.5004 158.5 23.2004 158.2 22.9004C158.5 22.6004 158.6 22.3004 158.6 22.0004C158.6 21.7004 158.5 21.3004 158.2 21.1004C158.5 20.9004 158.6 20.6004 158.6 20.2004C158.6 19.8004 158.5 19.5004 158.2 19.3004C158.5 19.1004 158.6 18.8004 158.6 18.4004C158.6 18.1004 158.5 17.7004 158.2 17.5004C158.5 17.3004 158.6 17.0004 158.6 16.6004C158.6 16.2004 158.5 15.9004 158.2 15.7004C158.5 15.5004 158.6 15.2004 158.6 14.8004C158.6 14.6004 158.6 14.4004 158.5 14.2004H159.2C159.8 14.2004 160.3 13.7004 160.3 13.0004C160.3 12.4004 159.8 11.9004 159.2 11.9004H157.5C156.9 11.9004 156.4 12.4004 156.4 13.0004C156.4 13.2004 156.4 13.4004 156.5 13.6004H155.8C155.2 13.6004 154.6 14.1004 154.6 14.8004C154.6 15.1004 154.8 15.4004 155 15.7004C154.7 15.9004 154.6 16.2004 154.6 16.6004C154.6 16.9004 154.8 17.2004 155 17.5004C154.7 17.7004 154.6 18.1004 154.6 18.4004C154.6 18.7004 154.8 19.0004 155 19.3004C154.7 19.5004 154.6 19.9004 154.6 20.2004C154.6 20.5004 154.8 20.8004 155 21.1004C154.7 21.3004 154.6 21.7004 154.6 22.0004C154.6 22.3004 154.8 22.6004 155 22.9004C154.7 23.1004 154.6 23.4004 154.6 23.8004C154.6 24.1004 154.8 24.5004 155 24.7004C154.7 24.9004 154.6 25.2004 154.6 25.6004C154.6 25.9004 154.8 26.3004 155 26.5004C154.7 26.7004 154.6 27.0004 154.6 27.4004C154.6 28.0004 155.2 28.6004 155.8 28.6004H156.5C156.4 28.8004 156.4 28.9004 156.4 29.2004C156.4 29.8004 156.9 30.4004 157.5 30.4004H159.2C159.8 30.3004 160.3 29.8004 160.3 29.1004ZM160.9 12.8004H166.1C166.8 12.8004 167.3 12.3004 167.3 11.6004C167.3 11.0004 166.8 10.5004 166.1 10.5004H160.9C160.3 10.5004 159.8 11.0004 159.8 11.6004C159.8 12.3004 160.3 12.8004 160.9 12.8004ZM151.2 29.7004H145.2C145.3 29.5004 145.4 29.3004 145.4 29.1004C145.4 28.8004 145.2 28.5004 145 28.2004C145.3 28.0004 145.4 27.6004 145.4 27.3004C145.4 27.0004 145.2 26.7004 145 26.4004C145.3 26.2004 145.4 25.8004 145.4 25.5004C145.4 25.2004 145.2 24.9004 145 24.6004C145.3 24.4004 145.4 24.0004 145.4 23.7004C145.4 23.4004 145.2 23.1004 145 22.8004C145.3 22.5004 145.4 22.2004 145.4 21.9004C145.4 21.6004 145.2 21.2004 145 21.0004C145.3 20.8004 145.4 20.5004 145.4 20.1004C145.4 19.7004 145.2 19.4004 145 19.2004C145.3 19.0004 145.4 18.7004 145.4 18.3004C145.4 18.0004 145.2 17.6004 145 17.4004C145.3 17.2004 145.4 16.9004 145.4 16.5004C145.4 16.1004 145.2 15.8004 145 15.6004C145.3 15.4004 145.4 15.1004 145.4 14.7004C145.4 14.3004 145.2 14.0004 145 13.8004C145.3 13.6004 145.4 13.3004 145.4 12.9004C145.4 12.6004 145.2 12.3004 145 12.0004C145.3 11.8004 145.4 11.5004 145.4 11.1004C145.4 10.8004 145.2 10.5004 145 10.2004C145.3 10.0004 145.4 9.60039 145.4 9.30039C145.4 9.00039 145.2 8.70039 145 8.50039C145.3 8.30039 145.4 7.90039 145.4 7.60039C145.4 7.30039 145.2 7.00039 145 6.80039C145.3 6.60039 145.4 6.20039 145.4 5.90039C145.4 5.60039 145.2 5.30039 145 5.00039C145.3 4.80039 145.4 4.40039 145.4 4.10039C145.4 3.80039 145.2 3.40039 145 3.20039C145.3 3.00039 145.4 2.70039 145.4 2.40039C145.4 2.10039 145.2 1.70039 145 1.50039C145.3 1.30039 145.4 1.00039 145.4 0.600391C145.4 0.000390649 144.8 -0.599609 144.2 -0.599609H135.5C134.9 -0.599609 134.3 0.000390649 134.3 0.600391C134.3 1.20039 134.9 1.70039 135.5 1.70039H141.5C141.4 1.90039 141.4 2.10039 141.4 2.30039C141.4 2.60039 141.5 2.90039 141.8 3.10039C141.5 3.30039 141.4 3.70039 141.4 4.00039C141.4 4.30039 141.5 4.70039 141.8 4.90039C141.5 5.10039 141.4 5.40039 141.4 5.80039C141.4 6.10039 141.5 6.50039 141.8 6.70039C141.5 6.90039 141.4 7.20039 141.4 7.50039C141.4 7.80039 141.5 8.20039 141.8 8.40039C141.5 8.60039 141.4 8.90039 141.4 9.20039C141.4 9.50039 141.5 9.90039 141.8 10.1004C141.5 10.3004 141.4 10.6004 141.4 11.0004C141.4 11.4004 141.5 11.7004 141.8 11.9004C141.5 12.1004 141.4 12.4004 141.4 12.8004C141.4 13.2004 141.5 13.5004 141.8 13.7004C141.5 13.9004 141.4 14.2004 141.4 14.6004C141.4 14.9004 141.5 15.2004 141.8 15.5004C141.5 15.7004 141.4 16.0004 141.4 16.4004C141.4 16.7004 141.5 17.0004 141.8 17.3004C141.5 17.5004 141.4 17.9004 141.4 18.2004C141.4 18.5004 141.5 18.8004 141.8 19.1004C141.5 19.3004 141.4 19.7004 141.4 20.0004C141.4 20.3004 141.5 20.6004 141.8 20.9004C141.5 21.1004 141.4 21.5004 141.4 21.8004C141.4 22.1004 141.5 22.4004 141.8 22.7004C141.5 22.9004 141.4 23.2004 141.4 23.6004C141.4 23.9004 141.5 24.3004 141.8 24.5004C141.5 24.7004 141.4 25.0004 141.4 25.4004C141.4 25.7004 141.5 26.1004 141.8 26.3004C141.5 26.5004 141.4 26.8004 141.4 27.2004C141.4 27.5004 141.5 27.9004 141.8 28.1004C141.5 28.3004 141.4 28.6004 141.4 29.0004C141.4 29.2004 141.4 29.4004 141.5 29.6004H135.5C134.9 29.6004 134.3 30.1004 134.3 30.7004C134.3 31.4004 134.9 31.9004 135.5 31.9004H151.2C151.8 31.9004 152.3 31.4004 152.3 30.7004C152.4 30.2004 151.8 29.7004 151.2 29.7004ZM125.3 28.0004H123.6C123 28.0004 122.5 28.6004 122.5 29.2004C122.5 29.4004 122.5 29.6004 122.7 29.8004H113.2C112.6 29.8004 112 30.4004 112 31.0004C112 31.6004 112.6 32.1004 113.2 32.1004H120.9C120.8 32.3004 120.8 32.5004 120.8 32.7004C120.8 33.3004 121.3 33.8004 121.9 33.8004C122.5 33.8004 123.1 33.3004 123.1 32.7004C123.1 32.5004 123 32.3004 122.9 32.1004H123.6C124.2 32.1004 124.8 31.6004 124.8 31.0004C124.8 30.8004 124.7 30.6004 124.6 30.4004H125.3C125.9 30.4004 126.5 29.9004 126.5 29.3004C126.5 28.7004 125.9 28.0004 125.3 28.0004ZM127 26.2004C126.4 26.2004 125.9 26.7004 125.9 27.4004C125.9 28.0004 126.4 28.5004 127 28.5004C127.7 28.5004 128.2 28.0004 128.2 27.4004C128.2 26.7004 127.7 26.2004 127 26.2004ZM128.8 24.5004C128.1 24.5004 127.6 25.0004 127.6 25.6004C127.6 26.3004 128.1 26.8004 128.8 26.8004C129.4 26.8004 129.9 26.3004 129.9 25.6004C130 25.0004 129.5 24.5004 128.8 24.5004ZM130.6 22.8004C130 22.8004 129.4 23.3004 129.4 23.9004C129.4 24.6004 130 25.1004 130.6 25.1004C131.2 25.1004 131.7 24.6004 131.7 23.9004C131.7 23.3004 131.2 22.8004 130.6 22.8004ZM132.3 21.0004C131.7 21.0004 131.1 21.5004 131.1 22.1004C131.1 22.7004 131.7 23.3004 132.3 23.3004C132.9 23.3004 133.4 22.7004 133.4 22.1004C133.4 21.5004 132.9 21.0004 132.3 21.0004ZM134 19.3004C133.4 19.3004 132.8 19.8004 132.8 20.4004C132.8 21.0004 133.4 21.6004 134 21.6004C134.6 21.6004 135.1 21.0004 135.1 20.4004C135.2 19.8004 134.7 19.3004 134 19.3004ZM121.6 18.9004C121.6 19.5004 122.2 20.0004 122.8 20.0004C123.4 20.0004 123.9 19.5004 123.9 18.9004C123.9 18.3004 123.4 17.7004 122.8 17.7004C122.2 17.7004 121.6 18.2004 121.6 18.9004ZM124.5 15.9004C123.9 15.9004 123.3 16.4004 123.3 17.1004C123.3 17.7004 123.9 18.2004 124.5 18.2004C125.1 18.2004 125.6 17.7004 125.6 17.1004C125.7 16.4004 125.2 15.9004 124.5 15.9004ZM129.7 10.7004C129.1 10.7004 128.6 11.2004 128.6 11.8004C128.6 12.4004 129.1 13.0004 129.7 13.0004C130.3 13.0004 130.9 12.4004 130.9 11.8004C130.9 11.2004 130.4 10.7004 129.7 10.7004ZM110.3 14.0004H109.5C108.9 14.0004 108.4 14.5004 108.4 15.1004C108.4 15.4004 108.6 15.7004 108.8 16.0004C108.6 16.2004 108.4 16.6004 108.4 16.9004C108.4 17.1004 108.4 17.3004 108.6 17.5004H107.8C107.2 17.5004 106.7 18.0004 106.7 18.6004C106.7 18.9004 106.9 19.3004 107.1 19.5004C106.9 19.7004 106.7 20.0004 106.7 20.4004C106.7 20.8004 106.9 21.1004 107.1 21.3004C106.9 21.5004 106.7 21.8004 106.7 22.2004C106.7 22.6004 106.9 22.9004 107.1 23.1004C106.9 23.3004 106.7 23.6004 106.7 24.0004C106.7 24.4004 106.9 24.7004 107.1 24.9004C106.9 25.1004 106.7 25.4004 106.7 25.8004C106.7 26.2004 106.9 26.5004 107.1 26.7004C106.9 26.9004 106.7 27.2004 106.7 27.6004C106.7 28.2004 107.2 28.7004 107.8 28.7004H108.6C108.5 28.9004 108.4 29.1004 108.4 29.3004C108.4 29.9004 108.9 30.4004 109.5 30.4004H111.3C111.9 30.4004 112.4 29.9004 112.4 29.3004C112.4 28.7004 112 28.0004 111.3 28.0004H110.5C110.6 27.8004 110.7 27.7004 110.7 27.4004C110.7 27.0004 110.5 26.7004 110.3 26.5004C110.5 26.3004 110.7 26.0004 110.7 25.6004C110.7 25.3004 110.5 25.0004 110.3 24.7004C110.5 24.5004 110.7 24.2004 110.7 23.8004C110.7 23.5004 110.5 23.2004 110.3 22.9004C110.5 22.7004 110.7 22.3004 110.7 22.0004C110.7 21.7004 110.5 21.4004 110.3 21.1004C110.5 20.9004 110.7 20.5004 110.7 20.2004C110.7 19.9004 110.5 19.6004 110.3 19.3004C110.5 19.1004 110.7 18.7004 110.7 18.4004C110.7 18.2004 110.7 18.0004 110.5 17.8004H111.3C111.9 17.8004 112.4 17.3004 112.4 16.7004C112.4 16.4004 112.2 16.0004 112 15.8004C112.2 15.6004 112.4 15.3004 112.4 14.9004C112.4 14.7004 112.4 14.5004 112.2 14.3004M128 12.4004H127.3C127.4 12.2004 127.4 12.0004 127.4 11.8004C127.4 11.2004 126.9 10.7004 126.3 10.7004H124.6C124 10.7004 123.4 11.2004 123.4 11.8004C123.4 12.4004 124 13.0004 124.6 13.0004H125.3C125.2 13.2004 125.2 13.3004 125.2 13.6004C125.2 14.0004 125.3 14.3004 125.6 14.5004C125.3 14.7004 125.2 15.0004 125.2 15.4004C125.2 16.0004 125.7 16.5004 126.3 16.5004C126.9 16.5004 127.4 16.0004 127.4 15.4004C127.4 15.2004 127.4 15.0004 127.3 14.8004H128C128.6 14.8004 129.1 14.3004 129.1 13.6004C129.2 12.9004 128.6 12.4004 128 12.4004ZM131.5 9.00039C130.9 9.00039 130.4 9.50039 130.4 10.1004C130.4 10.7004 130.9 11.3004 131.5 11.3004C132.1 11.3004 132.7 10.7004 132.7 10.1004C132.7 9.50039 132.1 9.00039 131.5 9.00039ZM114 11.3004H122.8C123.4 11.3004 123.9 10.7004 123.9 10.1004C123.9 9.50039 123.4 9.00039 122.8 9.00039H114C113.4 9.00039 112.9 9.50039 112.9 10.1004C112.9 10.7004 113.4 11.3004 114 11.3004ZM93.9 15.2004C93.9 15.8004 94.4 16.3004 95.1 16.3004C95.7 16.3004 96.2 15.8004 96.2 15.2004C96.2 14.8004 96 14.5004 95.8 14.3004C96 14.1004 96.2 13.8004 96.2 13.4004C96.2 12.8004 95.7 12.3004 95.1 12.3004C94.4 12.3004 93.9 12.8004 93.9 13.4004C93.9 13.8004 94.1 14.1004 94.3 14.3004C94.1 14.5004 93.9 14.8004 93.9 15.2004ZM102.1 14.0004C101.8 14.0004 101.4 14.2004 101.2 14.4004C101.2 14.4004 101.2 14.4004 101.1 14.3004C101.4 14.1004 101.5 13.8004 101.5 13.4004C101.5 12.8004 101 12.3004 100.4 12.3004C99.8 12.3004 99.2 12.8004 99.2 13.4004C99.2 13.8004 99.4 14.1004 99.6 14.3004C99.5 14.3004 99.5 14.3004 99.5 14.4004C99.3 14.2004 99 14.0004 98.6 14.0004C98 14.0004 97.4 14.5004 97.4 15.2004C97.4 15.8004 98 16.3004 98.6 16.3004C98.9 16.3004 99.2 16.1004 99.5 15.9004C99.5 15.9004 99.5 15.9004 99.6 16.0004C99.3 16.2004 99.2 16.5004 99.2 16.9004C99.2 17.5004 99.8 18.0004 100.4 18.0004C101 18.0004 101.5 17.5004 101.5 16.9004C101.5 16.5004 101.4 16.2004 101.1 16.0004C101.1 16.0004 101.1 16.0004 101.2 15.9004C101.4 16.1004 101.8 16.3004 102.1 16.3004C102.7 16.3004 103.2 15.8004 103.2 15.2004C103.3 14.5004 102.7 14.0004 102.1 14.0004ZM96.9 12.8004H98.6C99.2 12.8004 99.7 12.3004 99.7 11.6004C99.7 11.0004 99.2 10.5004 98.6 10.5004H96.9C96.3 10.5004 95.7 11.0004 95.7 11.6004C95.7 12.3004 96.2 12.8004 96.9 12.8004ZM98.6 29.7004H90.9C91 29.5004 91.1 29.3004 91.1 29.1004C91.1 28.8004 90.9 28.5004 90.7 28.2004C91 28.0004 91.1 27.6004 91.1 27.3004C91.1 27.0004 90.9 26.7004 90.7 26.4004C91 26.2004 91.1 25.8004 91.1 25.5004C91.1 25.2004 90.9 24.9004 90.7 24.6004C91 24.4004 91.1 24.0004 91.1 23.7004C91.1 23.4004 90.9 23.1004 90.7 22.8004C91 22.5004 91.1 22.2004 91.1 21.9004C91.1 21.6004 90.9 21.2004 90.7 21.0004C91 20.8004 91.1 20.5004 91.1 20.1004C91.1 19.7004 90.9 19.4004 90.7 19.2004C91 19.0004 91.1 18.7004 91.1 18.3004C91.1 18.1004 91 17.9004 90.9 17.7004H93.4C94 17.7004 94.5 17.2004 94.5 16.6004C94.5 16.0004 94 15.4004 93.4 15.4004H90.9C91 15.2004 91.1 15.1004 91.1 14.8004C91.1 14.4004 90.9 14.1004 90.7 13.9004C91 13.7004 91.1 13.4004 91.1 13.0004C91.1 12.7004 90.9 12.4004 90.7 12.1004C91 11.9004 91.1 11.6004 91.1 11.2004C91.1 10.6004 90.5 10.1004 89.9 10.1004H81.2C80.6 10.1004 80 10.6004 80 11.2004C80 11.9004 80.6 12.4004 81.2 12.4004H87.2C87 13.0004 87 13.2004 87 13.4004C87 13.8004 87.1 14.1004 87.4 14.3004C87.1 14.5004 87 14.8004 87 15.2004C87 15.5004 87.1 15.8004 87.4 16.1004C87.1 16.3004 87 16.6004 87 17.0004C87 17.3004 87.1 17.6004 87.4 17.9004C87.1 18.0004 87 18.3004 87 18.7004C87 19.0004 87.1 19.3004 87.4 19.6004C87.1 19.8004 87 20.2004 87 20.5004C87 20.8004 87.1 21.1004 87.4 21.4004C87.1 21.6004 87 22.0004 87 22.3004C87 22.6004 87.1 22.9004 87.4 23.2004C87.1 23.4004 87 23.7004 87 24.1004C87 24.4004 87.1 24.8004 87.4 25.0004C87.1 25.0004 87 25.3004 87 25.6004C87 25.9004 87.1 26.3004 87.4 26.5004C87.1 26.7004 87 27.0004 87 27.4004C87 27.7004 87.1 28.1004 87.4 28.3004C87.1 28.5004 87 28.8004 87 29.2004C87 29.4004 87 29.6004 87.1 29.8004H81.1C80.5 29.8004 79.9 30.3004 79.9 30.9004C79.9 31.6004 80.5 32.1004 81.1 32.1004H98.6C99.2 32.1004 99.7 31.6004 99.7 30.9004C99.8 30.2004 99.3 29.7004 98.6 29.7004ZM76.6 29.7004H70.6C70.7 29.5004 70.7 29.3004 70.7 29.1004C70.7 28.8004 70.6 28.5004 70.3 28.2004C70.6 28.0004 70.7 27.6004 70.7 27.3004C70.7 27.0004 70.6 26.7004 70.3 26.4004C70.6 26.2004 70.7 25.8004 70.7 25.5004C70.7 25.2004 70.6 24.9004 70.3 24.6004C70.6 24.4004 70.7 24.0004 70.7 23.7004C70.7 23.4004 70.6 23.1004 70.3 22.8004C70.6 22.5004 70.7 22.2004 70.7 21.9004C70.7 21.6004 70.6 21.2004 70.3 21.0004C70.6 20.8004 70.7 20.5004 70.7 20.1004C70.7 19.7004 70.6 19.4004 70.3 19.2004C70.6 19.0004 70.7 18.7004 70.7 18.3004C70.7 18.0004 70.6 17.6004 70.3 17.4004C70.6 17.2004 70.7 16.9004 70.7 16.5004C70.7 16.1004 70.6 15.8004 70.3 15.6004C70.6 15.4004 70.7 15.1004 70.7 14.7004C70.7 14.3004 70.6 14.0004 70.3 13.8004C70.6 13.6004 70.7 13.3004 70.7 12.9004C70.7 12.6004 70.6 12.3004 70.3 12.0004C70.6 11.8004 70.7 11.5004 70.7 11.1004C70.7 10.5004 70.2 10.0004 69.6 10.0004H60.9C60.2 10.0004 59.7 10.5004 59.7 11.1004C59.7 11.8004 60.2 12.3004 60.9 12.3004H66.9C66.8 12.5004 66.8 12.6004 66.8 12.9004C66.8 13.3004 66.9 13.6004 67.2 13.8004C66.9 14.0004 66.8 14.3004 66.8 14.7004C66.8 15.0004 66.9 15.3004 67.2 15.6004C66.9 15.8004 66.8 16.1004 66.8 16.5004C66.8 16.8004 66.9 17.1004 67.2 17.4004C66.9 17.6004 66.8 18.0004 66.8 18.3004C66.8 18.6004 66.9 18.9004 67.2 19.2004C66.9 19.4004 66.8 19.8004 66.8 20.1004C66.8 20.4004 66.9 20.7004 67.2 21.0004C66.9 21.2004 66.8 21.6004 66.8 21.9004C66.8 22.2004 66.9 22.5004 67.2 22.8004C66.9 23.0004 66.8 23.3004 66.8 23.7004C66.8 24.0004 66.9 24.4004 67.2 24.6004C66.9 24.8004 66.8 25.1004 66.8 25.5004C66.8 25.8004 66.9 26.2004 67.2 26.4004C66.9 26.6004 66.8 26.9004 66.8 27.3004C66.8 27.6004 66.9 28.0004 67.2 28.2004C66.9 28.4004 66.8 28.7004 66.8 29.1004C66.8 29.3004 66.8 29.5004 66.9 29.7004H60.9C60.2 29.7004 59.7 30.2004 59.7 30.8004C59.7 31.5004 60.2 32.0004 60.9 32.0004H76.6C77.3 32.0004 77.8 31.5004 77.8 30.8004C77.8 30.2004 77.3 29.7004 76.6 29.7004ZM66.2 4.10039C66.5 4.10039 66.8 4.00039 67.1 3.70039C67.1 3.70039 67.1 3.70039 67.2 3.80039C66.9 4.00039 66.8 4.40039 66.8 4.70039C66.8 5.30039 67.3 5.80039 67.9 5.80039H69.6C70.2 5.80039 70.7 5.30039 70.7 4.70039C70.7 4.40039 70.6 4.00039 70.3 3.80039C70.4 3.80039 70.4 3.80039 70.4 3.70039C70.6 4.00039 70.9 4.10039 71.2 4.10039C71.8 4.10039 72.4 3.60039 72.4 3.00039C72.4 2.40039 71.8 1.90039 71.2 1.90039C70.9 1.90039 70.6 2.00039 70.4 2.30039L70.3 2.20039C70.6 2.00039 70.7 1.70039 70.7 1.30039C70.7 0.700391 70.2 0.100391 69.6 0.100391H67.9C67.3 0.100391 66.8 0.700391 66.8 1.30039C66.8 1.60039 66.9 1.90039 67.2 2.20039L67.1 2.30039C66.9 2.00039 66.6 1.90039 66.2 1.90039C65.6 1.90039 65 2.40039 65 3.00039C65 3.60039 65.5 4.10039 66.2 4.10039ZM45.8 29.1004C45.8 28.5004 45.3 28.0004 44.7 28.0004C44 28.0004 43.5 28.5004 43.5 29.1004C43.5 29.3004 43.5 29.5004 43.7 29.7004H42.2C42.3 29.5004 42.4 29.3004 42.4 29.1004C42.4 28.8004 42.2 28.5004 42 28.2004C42.3 28.0004 42.4 27.6004 42.4 27.3004C42.4 27.0004 42.2 26.7004 42 26.4004C42.3 26.2004 42.4 25.8004 42.4 25.5004C42.4 25.2004 42.2 24.9004 42 24.6004C42.3 24.4004 42.4 24.0004 42.4 23.7004C42.4 23.5004 42.3 23.3004 42.2 23.1004H42.9C43.6 23.1004 44.1 22.6004 44.1 22.0004C44.1 21.4004 43.6 20.9004 42.9 20.9004H41.2C40.6 20.9004 40.1 21.4004 40.1 22.0004C40.1 22.2004 40.1 22.4004 40.3 22.6004H39.5C38.9 22.6004 38.4 23.1004 38.4 23.7004C38.4 24.0004 38.5 24.4004 38.8 24.6004C38.5 24.8004 38.4 25.1004 38.4 25.5004C38.4 25.8004 38.5 26.2004 38.8 26.4004C38.5 26.6004 38.4 26.9004 38.4 27.3004C38.4 27.6004 38.5 28.0004 38.8 28.2004C38.5 28.4004 38.4 28.7004 38.4 29.1004C38.4 29.7004 38.9 30.3004 39.5 30.3004H40.3C40 30.5004 40 30.7004 40 30.9004C40 31.6004 40.5 32.1004 41.1 32.1004H44.6C45.2 32.1004 45.7 31.6004 45.7 30.9004C45.7 30.6004 45.5 30.3004 45.3 30.0004C45.6 29.8004 45.8 29.5004 45.8 29.1004ZM58.1 22.2004C58.1 21.9004 57.9 21.5004 57.7 21.3004C58 21.1004 58.1 20.8004 58.1 20.4004C58.1 19.8004 57.5 19.2004 56.9 19.2004C56.3 19.2004 55.8 19.8004 55.8 20.4004C55.8 20.7004 55.9 21.0004 56.2 21.3004C55.9 21.5004 55.8 21.9004 55.8 22.2004C55.8 22.5004 55.9 22.8004 56.2 23.1004C55.9 23.3004 55.8 23.6004 55.8 24.0004C55.8 24.3004 55.9 24.7004 56.2 24.9004C55.9 25.1004 55.8 25.4004 55.8 25.8004C55.8 26.1004 55.9 26.5004 56.2 26.7004C55.9 26.9004 55.8 27.2004 55.8 27.6004C55.8 27.9004 55.9 28.3004 56.2 28.5004C55.9 28.7004 55.8 29.0004 55.8 29.4004C55.8 30.0004 56.3 30.6004 56.9 30.6004C57.5 30.6004 58.1 30.0004 58.1 29.4004C58.1 29.1004 57.9 28.8004 57.7 28.5004C58 28.3004 58.1 27.9004 58.1 27.6004C58.1 27.3004 57.9 27.0004 57.7 26.7004C58 26.5004 58.1 26.1004 58.1 25.8004C58.1 25.5004 57.9 25.2004 57.7 24.9004C58 24.7004 58.1 24.3004 58.1 24.0004C58.1 23.7004 57.9 23.4004 57.7 23.1004C57.9 22.8004 58.1 22.5004 58.1 22.2004ZM55.1 29.7004H52.6C52.7 29.5004 52.7 29.3004 52.7 29.1004C52.7 28.8004 52.6 28.5004 52.3 28.2004C52.6 28.0004 52.7 27.6004 52.7 27.3004C52.7 27.0004 52.6 26.7004 52.3 26.4004C52.6 26.2004 52.7 25.8004 52.7 25.5004C52.7 25.2004 52.6 24.9004 52.3 24.6004C52.6 24.4004 52.7 24.0004 52.7 23.7004C52.7 23.4004 52.6 23.1004 52.3 22.8004C52.6 22.5004 52.7 22.2004 52.7 21.9004C52.7 21.6004 52.6 21.2004 52.3 21.0004C52.6 20.8004 52.7 20.5004 52.7 20.1004C52.7 19.7004 52.6 19.4004 52.3 19.2004C52.6 19.0004 52.7 18.7004 52.7 18.3004C52.7 18.0004 52.6 17.6004 52.3 17.4004C52.6 17.2004 52.7 16.9004 52.7 16.5004C52.7 16.1004 52.6 15.8004 52.3 15.6004C52.6 15.4004 52.7 15.1004 52.7 14.7004C52.7 14.0004 52.2 13.5004 51.6 13.5004H50.9C51 13.3004 51 13.1004 51 12.9004C51 12.3004 50.5 11.8004 49.9 11.8004C49.3 11.8004 48.7 12.3004 48.7 12.9004C48.7 13.3004 48.9 13.6004 49.1 13.8004C48.8 14.0004 48.7 14.3004 48.7 14.7004C48.7 15.0004 48.9 15.3004 49.1 15.6004C48.8 15.8004 48.7 16.1004 48.7 16.5004C48.7 16.8004 48.9 17.1004 49.1 17.4004C48.8 17.6004 48.7 18.0004 48.7 18.3004C48.7 18.5004 48.8 18.7004 48.9 18.9004H44.7C44 18.9004 43.5 19.5004 43.5 20.1004C43.5 20.7004 44 21.2004 44.7 21.2004H48.9C48.8 21.4004 48.7 21.6004 48.7 21.8004C48.7 22.1004 48.9 22.4004 49.1 22.7004C48.8 22.9004 48.7 23.2004 48.7 23.6004C48.7 23.9004 48.9 24.3004 49.1 24.5004C48.8 24.7004 48.7 25.0004 48.7 25.4004C48.7 25.6004 48.8 25.8004 48.9 26.0004H46.4C45.7 26.0004 45.2 26.5004 45.2 27.1004C45.2 27.7004 45.7 28.3004 46.4 28.3004H48.9C48.8 28.5004 48.7 28.6004 48.7 28.9004C48.7 29.5004 49.3 30.1004 49.9 30.1004H50.6C50.5 30.3004 50.4 30.4004 50.4 30.7004C50.4 31.4004 51 31.9004 51.6 31.9004H55.1C55.7 31.9004 56.2 31.4004 56.2 30.7004C56.3 30.2004 55.8 29.7004 55.1 29.7004ZM38.2 16.9004C38.2 17.5004 38.7 18.0004 39.3 18.0004C39.9 18.0004 40.5 17.5004 40.5 16.9004C40.5 16.5004 40.3 16.2004 40.1 16.0004C40.2 16.0004 40.2 16.0004 40.2 15.9004C40.4 16.1004 40.7 16.3004 41 16.3004C41.6 16.3004 42.2 15.8004 42.2 15.2004C42.2 14.5004 41.6 14.0004 41 14.0004C40.7 14.0004 40.4 14.2004 40.2 14.4004C40.2 14.4004 40.2 14.4004 40.1 14.3004C40.4 14.1004 40.5 13.8004 40.5 13.4004C40.5 12.8004 39.9 12.3004 39.3 12.3004C38.7 12.3004 38.2 12.8004 38.2 13.4004C38.2 13.8004 38.3 14.1004 38.6 14.3004L38.5 14.4004C38.3 14.2004 38 14.0004 37.6 14.0004C37 14.0004 36.5 14.5004 36.5 15.2004C36.5 15.8004 37 16.3004 37.6 16.3004C37.9 16.3004 38.3 16.1004 38.5 15.9004L38.6 16.0004C38.4 16.2004 38.2 16.5004 38.2 16.9004ZM41.1 12.8004H48.1C48.7 12.8004 49.2 12.3004 49.2 11.6004C49.2 11.0004 48.7 10.5004 48.1 10.5004H41.1C40.5 10.5004 40 11.0004 40 11.6004C40 12.3004 40.5 12.8004 41.1 12.8004ZM23.9 17.5004C23.3 17.5004 22.8 18.0004 22.8 18.6004C22.8 19.2004 23.3 19.8004 23.9 19.8004C24.5 19.8004 25 19.2004 25 18.6004C25 18.0004 24.5 17.5004 23.9 17.5004ZM29.1 12.2004C28.5 12.2004 28 12.8004 28 13.4004C28 14.0004 28.5 14.5004 29.1 14.5004C29.8 14.5004 30.3 14.0004 30.3 13.4004C30.3 12.8004 29.8 12.2004 29.1 12.2004ZM34.4 8.80039C33.8 8.80039 33.2 9.30039 33.2 10.0004C33.2 10.6004 33.8 11.1004 34.4 11.1004C35 11.1004 35.5 10.6004 35.5 10.0004C35.5 9.30039 35 8.80039 34.4 8.80039ZM36.1 7.00039C35.5 7.00039 35 7.50039 35 8.20039C35 8.80039 35.6 9.30039 36.2 9.30039C36.8 9.30039 37.3 8.80039 37.3 8.20039C37.3 7.50039 36.8 7.00039 36.1 7.00039ZM41.4 1.80039H16.9C16.3 1.80039 15.7 2.30039 15.7 2.90039C15.7 3.50039 16.3 4.10039 16.9 4.10039H22.9C22.8 4.30039 22.8 4.40039 22.8 4.70039C22.8 4.90039 22.8 5.10039 22.9 5.30039H22.2C21.6 5.30039 21.1 5.80039 21.1 6.40039C21.1 6.80039 21.2 7.10039 21.5 7.30039C21.1 7.50039 21 7.80039 21 8.20039C21 8.40039 21 8.60039 21.1 8.80039H20.4C19.8 8.80039 19.3 9.30039 19.3 10.0004C19.3 10.2004 19.3 10.4004 19.4 10.6004H18.7C18.1 10.6004 17.5 11.2004 17.5 11.8004C17.5 12.1004 17.7 12.4004 17.9 12.7004C17.6 12.9004 17.5 13.3004 17.5 13.6004C17.5 13.8004 17.6 14.0004 17.7 14.2004H17C16.4 14.2004 15.8 14.7004 15.8 15.3004C15.8 15.5004 15.9 15.7004 16 15.9004H15.3C14.6 15.9004 14.1 16.4004 14.1 17.0004C14.1 17.3004 14.3 17.7004 14.5 17.9004C14.2 18.0004 14 18.3004 14 18.7004C14 18.9004 14.1 19.1004 14.2 19.3004H13.5C12.8 19.3004 12.3 19.8004 12.3 20.4004C12.3 20.7004 12.5 21.1004 12.7 21.3004C12.5 21.5004 12.3 21.8004 12.3 22.2004C12.3 22.4004 12.3 22.6004 12.5 22.8004H11.7C11.1 22.8004 10.6 23.3004 10.6 23.9004C10.6 24.1004 10.6 24.3004 10.8 24.5004H9.9C9.3 24.5004 8.8 25.0004 8.8 25.6004C8.8 26.0004 9 26.3004 9.2 26.5004C9 26.7004 8.8 27.0004 8.8 27.4004C8.8 27.6004 8.8 27.8004 9 28.0004H8.2C7.5 28.0004 7 28.5004 7 29.2004C7 29.4004 7 29.6004 7.2 29.8004H1.2C0.6 29.8004 0 30.4004 0 31.0004C0 31.6004 0.6 32.1004 1.2 32.1004H18.7C19.3 32.1004 19.8 31.6004 19.8 31.0004C19.8 30.4004 19.3 29.8004 18.7 29.8004H11C11.1 29.6004 11.2 29.5004 11.2 29.2004C11.2 29.0004 11.1 28.8004 11 28.6004H11.7C12.4 28.6004 12.9 28.1004 12.9 27.5004C12.9 27.1004 12.7 26.8004 12.5 26.6004C12.7 26.4004 12.9 26.1004 12.9 25.7004C12.9 25.5004 12.8 25.3004 12.7 25.1004H13.5C14.1 25.1004 14.6 24.6004 14.6 23.9004C14.6 23.7004 14.6 23.5004 14.4 23.3004H15.2C15.8 23.3004 16.3 22.7004 16.3 22.1004C16.3 21.8004 16.1 21.5004 15.9 21.2004C16.1 21.0004 16.3 20.6004 16.3 20.3004C16.3 20.1004 16.3 19.9004 16.1 19.7004H16.9C17.5 19.7004 18 19.1004 18 18.5004C18 18.2004 17.9 17.9004 17.6 17.6004C17.9 17.4004 18 17.0004 18 16.7004C18 16.5004 18 16.3004 17.8 16.1004H24.5C24.4 16.3004 24.4 16.5004 24.4 16.7004C24.4 17.3004 24.9 17.8004 25.5 17.8004C26.1 17.8004 26.7 17.3004 26.7 16.7004C26.7 16.5004 26.6 16.3004 26.5 16.1004H27.2C27.8 16.1004 28.4 15.6004 28.4 15.0004C28.4 14.4004 27.8 13.9004 27.2 13.9004H21.2C21.3 13.7004 21.3 13.5004 21.3 13.3004C21.3 13.0004 21.2 12.6004 20.9 12.4004C21.2 12.2004 21.3 11.9004 21.3 11.5004C21.3 11.3004 21.3 11.1004 21.2 10.9004H21.9C22.5 10.9004 23 10.4004 23 9.80039C23 9.60039 23 9.40039 22.9 9.20039H23.6C24.2 9.20039 24.7 8.70039 24.7 8.10039C24.7 7.70039 24.6 7.40039 24.3 7.20039C24.9 7.10039 25 6.80039 25 6.40039C25 6.20039 25 6.00039 24.9 5.80039H25.6C26.2 5.80039 26.8 5.20039 26.8 4.60039C26.8 4.40039 26.7 4.20039 26.6 4.00039H36.8C36.7 4.20039 36.6 4.30039 36.6 4.60039C36.6 5.00039 36.8 5.30039 37 5.50039C36.7 5.70039 36.6 6.00039 36.6 6.40039C36.6 7.10039 37.2 7.60039 37.8 7.60039C38.4 7.60039 38.9 7.10039 38.9 6.40039C38.9 6.20039 38.9 6.00039 38.8 5.80039H39.5C40.1 5.80039 40.6 5.20039 40.6 4.60039C40.6 4.40039 40.6 4.20039 40.5 4.00039H41.2C41.8 4.00039 42.3 3.40039 42.3 2.80039C42.5 2.30039 42 1.80039 41.4 1.80039ZM43.1 0.000390649C42.5 0.000390649 42 0.600391 42 1.20039C42 1.80039 42.5 2.40039 43.1 2.40039C43.7 2.40039 44.3 1.80039 44.3 1.20039C44.3 0.600391 43.8 0.000390649 43.1 0.000390649Z" fill="black"/>
<path d="M107.4 35.1C108.1 35.1 108.7 34.5 108.7 33.8C108.7 33.1 108.1 32.5 107.4 32.5C106.7 32.5 106.1 33.1 106.1 33.8C106.1 34.5 106.7 35.1 107.4 35.1Z" fill="black"/>
<path d="M170.9 33.8002C171.6 33.8002 172.2 33.2002 172.2 32.5002C172.2 31.8002 171.6 31.2002 170.9 31.2002C170.2 31.2002 169.6 31.8002 169.6 32.5002C169.6 33.2002 170.2 33.8002 170.9 33.8002Z" fill="black"/>
<path d="M232.1 12.8002C232.8 12.8002 233.4 12.2002 233.4 11.5002C233.4 10.8002 232.8 10.2002 232.1 10.2002C231.4 10.2002 230.8 10.8002 230.8 11.5002C230.8 12.2002 231.4 12.8002 232.1 12.8002Z" fill="black"/>
<path d="M238.1 36.4008C238.8 36.4008 239.4 35.8008 239.4 35.1008C239.4 34.4008 238.8 33.8008 238.1 33.8008C237.4 33.8008 236.8 34.4008 236.8 35.1008C236.8 35.8008 237.4 36.4008 238.1 36.4008Z" fill="black"/>
<path d="M175.8 17.3002C176.5 17.3002 177.1 16.7002 177.1 16.0002C177.1 15.3002 176.5 14.7002 175.8 14.7002C175.1 14.7002 174.5 15.3002 174.5 16.0002C174.5 16.8002 175.1 17.3002 175.8 17.3002Z" fill="black"/>
<path d="M59.8 18.2006C60.5 18.2006 61.1 17.6006 61.1 16.9006C61.1 16.2006 60.5 15.6006 59.8 15.6006C59.1 15.6006 58.5 16.2006 58.5 16.9006C58.5 17.6006 59.1 18.2006 59.8 18.2006Z" fill="black"/>
</g>
<defs>
<clipPath id="clip0_599_925">
<rect width="249.7" height="36.4" fill="black"/>
</clipPath>
</defs>
</svg>
