<svg width="174" height="50" viewBox="0 0 174 50" fill="none" xmlns="http://www.w3.org/2000/svg">
<path d="M1.03125 0.484375H3.42188V12H1.03125V0.484375ZM8.7 5.13281C7.94479 5.13281 7.42656 5.45312 7.14531 6.09375C6.99948 6.43229 6.92656 6.86458 6.92656 7.39062V12H4.70781V3.5H6.85625V4.74219C7.14271 4.30469 7.41354 3.98958 7.66875 3.79688C8.12708 3.45312 8.70781 3.28125 9.41094 3.28125C10.2911 3.28125 11.0099 3.51302 11.5672 3.97656C12.1297 4.4349 12.4109 5.19792 12.4109 6.26562V12H10.1297V6.82031C10.1297 6.3724 10.0698 6.02865 9.95 5.78906C9.73125 5.35156 9.31458 5.13281 8.7 5.13281ZM21.4234 0.5V12H19.2594V10.8203C18.9417 11.3255 18.5797 11.6927 18.1734 11.9219C17.7672 12.151 17.262 12.2656 16.6578 12.2656C15.663 12.2656 14.8245 11.8646 14.1422 11.0625C13.4651 10.2552 13.1266 9.22135 13.1266 7.96094C13.1266 6.50781 13.4599 5.36458 14.1266 4.53125C14.7984 3.69792 15.6943 3.28125 16.8141 3.28125C17.3297 3.28125 17.788 3.39583 18.1891 3.625C18.5901 3.84896 18.9156 4.16146 19.1656 4.5625V0.5H21.4234ZM15.4234 7.79688C15.4234 8.58333 15.5797 9.21094 15.8922 9.67969C16.1995 10.1536 16.6682 10.3906 17.2984 10.3906C17.9286 10.3906 18.4078 10.1562 18.7359 9.6875C19.0641 9.21875 19.2281 8.61198 19.2281 7.86719C19.2281 6.82552 18.9651 6.08073 18.4391 5.63281C18.1161 5.36198 17.7411 5.22656 17.3141 5.22656C16.663 5.22656 16.1839 5.47396 15.8766 5.96875C15.5745 6.45833 15.4234 7.06771 15.4234 7.79688ZM24.9438 3.48438V12H22.6859V3.48438H24.9438ZM24.9438 0.414062V2.46875H22.6859V0.414062H24.9438ZM28.7141 13.4922C28.9536 13.6953 29.3573 13.7969 29.925 13.7969C30.7271 13.7969 31.2635 13.5286 31.5344 12.9922C31.7115 12.6484 31.8 12.0703 31.8 11.2578V10.7109C31.5865 11.0755 31.3573 11.349 31.1125 11.5312C30.6698 11.8698 30.0943 12.0391 29.3859 12.0391C28.2922 12.0391 27.4172 11.6562 26.7609 10.8906C26.1099 10.1198 25.7844 9.07812 25.7844 7.76562C25.7844 6.5 26.0995 5.4375 26.7297 4.57812C27.3599 3.71354 28.2531 3.28125 29.4094 3.28125C29.8365 3.28125 30.2089 3.34635 30.5266 3.47656C31.0682 3.70052 31.5057 4.11198 31.8391 4.71094V3.48438H34.0031V11.5625C34.0031 12.6615 33.8182 13.4896 33.4484 14.0469C32.813 15.0052 31.5943 15.4844 29.7922 15.4844C28.7036 15.4844 27.8156 15.2708 27.1281 14.8438C26.4406 14.4167 26.0604 13.7786 25.9875 12.9297H28.4094C28.4719 13.1901 28.5734 13.3776 28.7141 13.4922ZM28.3391 9.09375C28.6411 9.8125 29.1828 10.1719 29.9641 10.1719C30.4849 10.1719 30.925 9.97656 31.2844 9.58594C31.6437 9.1901 31.8234 8.5625 31.8234 7.70312C31.8234 6.89583 31.6516 6.28125 31.3078 5.85938C30.9693 5.4375 30.5135 5.22656 29.9406 5.22656C29.1594 5.22656 28.6203 5.59375 28.3234 6.32812C28.1672 6.71875 28.0891 7.20052 28.0891 7.77344C28.0891 8.26823 28.1724 8.70833 28.3391 9.09375ZM42.5781 9.5C42.5208 10.0052 42.2578 10.5182 41.7891 11.0391C41.0599 11.8672 40.0391 12.2812 38.7266 12.2812C37.6432 12.2812 36.6875 11.9323 35.8594 11.2344C35.0312 10.5365 34.6172 9.40104 34.6172 7.82812C34.6172 6.35417 34.9896 5.22396 35.7344 4.4375C36.4844 3.65104 37.4557 3.25781 38.6484 3.25781C39.3568 3.25781 39.9948 3.39062 40.5625 3.65625C41.1302 3.92188 41.599 4.34115 41.9688 4.91406C42.3021 5.41927 42.5182 6.00521 42.6172 6.67188C42.6745 7.0625 42.6979 7.625 42.6875 8.35938H36.8594C36.8906 9.21354 37.1589 9.8125 37.6641 10.1562C37.9714 10.3698 38.3411 10.4766 38.7734 10.4766C39.2318 10.4766 39.6042 10.3464 39.8906 10.0859C40.0469 9.94531 40.1849 9.75 40.3047 9.5H42.5781ZM40.375 6.89062C40.3385 6.30208 40.1589 5.85677 39.8359 5.55469C39.5182 5.2474 39.1224 5.09375 38.6484 5.09375C38.1328 5.09375 37.7318 5.25521 37.4453 5.57812C37.1641 5.90104 36.987 6.33854 36.9141 6.89062H40.375ZM47.4031 5.13281C46.6479 5.13281 46.1297 5.45312 45.8484 6.09375C45.7026 6.43229 45.6297 6.86458 45.6297 7.39062V12H43.4109V3.5H45.5594V4.74219C45.8458 4.30469 46.1167 3.98958 46.3719 3.79688C46.8302 3.45312 47.4109 3.28125 48.1141 3.28125C48.9943 3.28125 49.713 3.51302 50.2703 3.97656C50.8328 4.4349 51.1141 5.19792 51.1141 6.26562V12H48.8328V6.82031C48.8328 6.3724 48.7729 6.02865 48.6531 5.78906C48.4344 5.35156 48.0177 5.13281 47.4031 5.13281ZM59.4781 4.5625C60.1969 5.46354 60.5563 6.52865 60.5563 7.75781C60.5563 9.00781 60.1969 10.0781 59.4781 10.9688C58.7594 11.8542 57.6682 12.2969 56.2047 12.2969C54.7411 12.2969 53.65 11.8542 52.9313 10.9688C52.2125 10.0781 51.8531 9.00781 51.8531 7.75781C51.8531 6.52865 52.2125 5.46354 52.9313 4.5625C53.65 3.66146 54.7411 3.21094 56.2047 3.21094C57.6682 3.21094 58.7594 3.66146 59.4781 4.5625ZM56.1969 5.09375C55.5458 5.09375 55.0432 5.32552 54.6891 5.78906C54.3401 6.2474 54.1656 6.90365 54.1656 7.75781C54.1656 8.61198 54.3401 9.27083 54.6891 9.73438C55.0432 10.1979 55.5458 10.4297 56.1969 10.4297C56.8479 10.4297 57.3479 10.1979 57.6969 9.73438C58.0458 9.27083 58.2203 8.61198 58.2203 7.75781C58.2203 6.90365 58.0458 6.2474 57.6969 5.78906C57.3479 5.32552 56.8479 5.09375 56.1969 5.09375ZM66.8187 10.7969C66.7979 10.8229 66.7458 10.901 66.6625 11.0312C66.5792 11.1615 66.4802 11.276 66.3656 11.375C66.0167 11.6875 65.6781 11.901 65.35 12.0156C65.0271 12.1302 64.6469 12.1875 64.2094 12.1875C62.949 12.1875 62.1 11.7344 61.6625 10.8281C61.4177 10.3281 61.2953 9.59115 61.2953 8.61719V3.48438H63.5766V8.61719C63.5766 9.10156 63.6339 9.46615 63.7484 9.71094C63.9516 10.1432 64.35 10.3594 64.9437 10.3594C65.7042 10.3594 66.225 10.0521 66.5062 9.4375C66.6521 9.10417 66.725 8.66406 66.725 8.11719V3.48438H68.9828V12H66.8187V10.7969ZM76.2063 3.875C76.8729 4.30208 77.2557 5.03646 77.3547 6.07812H75.1281C75.0969 5.79167 75.0161 5.5651 74.8859 5.39844C74.6411 5.09635 74.2245 4.94531 73.6359 4.94531C73.1516 4.94531 72.8052 5.02083 72.5969 5.17188C72.3938 5.32292 72.2922 5.5 72.2922 5.70312C72.2922 5.95833 72.4016 6.14323 72.6203 6.25781C72.8391 6.3776 73.6125 6.58333 74.9406 6.875C75.826 7.08333 76.4901 7.39844 76.9328 7.82031C77.3703 8.2474 77.5891 8.78125 77.5891 9.42188C77.5891 10.2656 77.274 10.9557 76.6438 11.4922C76.0188 12.0234 75.05 12.2891 73.7375 12.2891C72.399 12.2891 71.4094 12.0078 70.7688 11.4453C70.1333 10.8776 69.8156 10.1562 69.8156 9.28125H72.0734C72.1203 9.67708 72.2219 9.95833 72.3781 10.125C72.6542 10.4219 73.1646 10.5703 73.9094 10.5703C74.3469 10.5703 74.6932 10.5052 74.9484 10.375C75.2089 10.2448 75.3391 10.0495 75.3391 9.78906C75.3391 9.53906 75.2349 9.34896 75.0266 9.21875C74.8182 9.08854 74.0448 8.86458 72.7063 8.54688C71.7427 8.30729 71.063 8.00781 70.6672 7.64844C70.2714 7.29427 70.0734 6.78385 70.0734 6.11719C70.0734 5.33073 70.3807 4.65625 70.9953 4.09375C71.6151 3.52604 72.4849 3.24219 73.6047 3.24219C74.6672 3.24219 75.5344 3.45312 76.2063 3.875ZM90.4031 11.1406C89.5437 11.9271 88.4448 12.3203 87.1062 12.3203C85.45 12.3203 84.1479 11.7891 83.2 10.7266C82.2521 9.65885 81.7781 8.19531 81.7781 6.33594C81.7781 4.32552 82.3172 2.77604 83.3953 1.6875C84.3328 0.739583 85.5255 0.265625 86.9734 0.265625C88.9109 0.265625 90.3276 0.901042 91.2234 2.17188C91.7182 2.88542 91.9839 3.60156 92.0203 4.32031H89.6141C89.4578 3.76823 89.2573 3.35156 89.0125 3.07031C88.575 2.57031 87.9266 2.32031 87.0672 2.32031C86.1922 2.32031 85.5021 2.67448 84.9969 3.38281C84.4917 4.08594 84.2391 5.08333 84.2391 6.375C84.2391 7.66667 84.5047 8.63542 85.0359 9.28125C85.5724 9.92188 86.2521 10.2422 87.075 10.2422C87.9187 10.2422 88.562 9.96615 89.0047 9.41406C89.2495 9.11719 89.4526 8.67188 89.6141 8.07812H91.9969C91.7885 9.33333 91.2573 10.3542 90.4031 11.1406ZM99.9625 4.5625C100.681 5.46354 101.041 6.52865 101.041 7.75781C101.041 9.00781 100.681 10.0781 99.9625 10.9688C99.2438 11.8542 98.1526 12.2969 96.6891 12.2969C95.2255 12.2969 94.1344 11.8542 93.4156 10.9688C92.6969 10.0781 92.3375 9.00781 92.3375 7.75781C92.3375 6.52865 92.6969 5.46354 93.4156 4.5625C94.1344 3.66146 95.2255 3.21094 96.6891 3.21094C98.1526 3.21094 99.2438 3.66146 99.9625 4.5625ZM96.6813 5.09375C96.0302 5.09375 95.5276 5.32552 95.1734 5.78906C94.8245 6.2474 94.65 6.90365 94.65 7.75781C94.65 8.61198 94.8245 9.27083 95.1734 9.73438C95.5276 10.1979 96.0302 10.4297 96.6813 10.4297C97.3323 10.4297 97.8323 10.1979 98.1813 9.73438C98.5302 9.27083 98.7047 8.61198 98.7047 7.75781C98.7047 6.90365 98.5302 6.2474 98.1813 5.78906C97.8323 5.32552 97.3323 5.09375 96.6813 5.09375ZM106.623 5.82812C106.436 5.41667 106.069 5.21094 105.522 5.21094C104.886 5.21094 104.459 5.41667 104.241 5.82812C104.121 6.0625 104.061 6.41146 104.061 6.875V12H101.803V3.5H103.967V4.74219C104.243 4.29948 104.504 3.98438 104.748 3.79688C105.181 3.46354 105.741 3.29688 106.428 3.29688C107.079 3.29688 107.605 3.4401 108.006 3.72656C108.329 3.99219 108.574 4.33333 108.741 4.75C109.032 4.25 109.394 3.88281 109.827 3.64844C110.285 3.41406 110.795 3.29688 111.358 3.29688C111.733 3.29688 112.103 3.36979 112.467 3.51562C112.832 3.66146 113.162 3.91667 113.459 4.28125C113.699 4.57812 113.86 4.94271 113.944 5.375C113.996 5.66146 114.022 6.08073 114.022 6.63281L114.006 12H111.725V6.57812C111.725 6.25521 111.673 5.98958 111.569 5.78125C111.371 5.38542 111.006 5.1875 110.475 5.1875C109.86 5.1875 109.436 5.44271 109.202 5.95312C109.082 6.22396 109.022 6.54948 109.022 6.92969V12H106.78V6.92969C106.78 6.42448 106.728 6.05729 106.623 5.82812ZM120.058 5.82812C119.87 5.41667 119.503 5.21094 118.956 5.21094C118.321 5.21094 117.894 5.41667 117.675 5.82812C117.555 6.0625 117.495 6.41146 117.495 6.875V12H115.238V3.5H117.402V4.74219C117.678 4.29948 117.938 3.98438 118.183 3.79688C118.615 3.46354 119.175 3.29688 119.863 3.29688C120.514 3.29688 121.04 3.4401 121.441 3.72656C121.764 3.99219 122.008 4.33333 122.175 4.75C122.467 4.25 122.829 3.88281 123.261 3.64844C123.719 3.41406 124.23 3.29688 124.792 3.29688C125.167 3.29688 125.537 3.36979 125.902 3.51562C126.266 3.66146 126.597 3.91667 126.894 4.28125C127.133 4.57812 127.295 4.94271 127.378 5.375C127.43 5.66146 127.456 6.08073 127.456 6.63281L127.441 12H125.159V6.57812C125.159 6.25521 125.107 5.98958 125.003 5.78125C124.805 5.38542 124.441 5.1875 123.909 5.1875C123.295 5.1875 122.87 5.44271 122.636 5.95312C122.516 6.22396 122.456 6.54948 122.456 6.92969V12H120.214V6.92969C120.214 6.42448 120.162 6.05729 120.058 5.82812ZM134.172 10.7969C134.151 10.8229 134.099 10.901 134.016 11.0312C133.932 11.1615 133.833 11.276 133.719 11.375C133.37 11.6875 133.031 11.901 132.703 12.0156C132.38 12.1302 132 12.1875 131.562 12.1875C130.302 12.1875 129.453 11.7344 129.016 10.8281C128.771 10.3281 128.648 9.59115 128.648 8.61719V3.48438H130.93V8.61719C130.93 9.10156 130.987 9.46615 131.102 9.71094C131.305 10.1432 131.703 10.3594 132.297 10.3594C133.057 10.3594 133.578 10.0521 133.859 9.4375C134.005 9.10417 134.078 8.66406 134.078 8.11719V3.48438H136.336V12H134.172V10.7969ZM141.7 5.13281C140.945 5.13281 140.427 5.45312 140.145 6.09375C139.999 6.43229 139.927 6.86458 139.927 7.39062V12H137.708V3.5H139.856V4.74219C140.143 4.30469 140.414 3.98958 140.669 3.79688C141.127 3.45312 141.708 3.28125 142.411 3.28125C143.291 3.28125 144.01 3.51302 144.567 3.97656C145.13 4.4349 145.411 5.19792 145.411 6.26562V12H143.13V6.82031C143.13 6.3724 143.07 6.02865 142.95 5.78906C142.731 5.35156 142.315 5.13281 141.7 5.13281ZM148.962 3.48438V12H146.705V3.48438H148.962ZM148.962 0.414062V2.46875H146.705V0.414062H148.962ZM154.225 10.4141V12.0781L153.17 12.1172C152.118 12.1536 151.399 11.9714 151.014 11.5703C150.764 11.3151 150.639 10.9219 150.639 10.3906V5.14844H149.452V3.5625H150.639V1.1875H152.842V3.5625H154.225V5.14844H152.842V9.64844C152.842 9.9974 152.886 10.2161 152.975 10.3047C153.064 10.388 153.334 10.4297 153.788 10.4297C153.855 10.4297 153.926 10.4297 153.998 10.4297C154.077 10.4245 154.152 10.4193 154.225 10.4141ZM157.144 3.48438V12H154.886V3.48438H157.144ZM157.144 0.414062V2.46875H154.886V0.414062H157.144ZM165.797 9.5C165.74 10.0052 165.477 10.5182 165.008 11.0391C164.279 11.8672 163.258 12.2812 161.945 12.2812C160.862 12.2812 159.906 11.9323 159.078 11.2344C158.25 10.5365 157.836 9.40104 157.836 7.82812C157.836 6.35417 158.208 5.22396 158.953 4.4375C159.703 3.65104 160.674 3.25781 161.867 3.25781C162.576 3.25781 163.214 3.39062 163.781 3.65625C164.349 3.92188 164.818 4.34115 165.188 4.91406C165.521 5.41927 165.737 6.00521 165.836 6.67188C165.893 7.0625 165.917 7.625 165.906 8.35938H160.078C160.109 9.21354 160.378 9.8125 160.883 10.1562C161.19 10.3698 161.56 10.4766 161.992 10.4766C162.451 10.4766 162.823 10.3464 163.109 10.0859C163.266 9.94531 163.404 9.75 163.523 9.5H165.797ZM163.594 6.89062C163.557 6.30208 163.378 5.85677 163.055 5.55469C162.737 5.2474 162.341 5.09375 161.867 5.09375C161.352 5.09375 160.951 5.25521 160.664 5.57812C160.383 5.90104 160.206 6.33854 160.133 6.89062H163.594ZM172.481 3.875C173.148 4.30208 173.531 5.03646 173.63 6.07812H171.403C171.372 5.79167 171.291 5.5651 171.161 5.39844C170.916 5.09635 170.499 4.94531 169.911 4.94531C169.427 4.94531 169.08 5.02083 168.872 5.17188C168.669 5.32292 168.567 5.5 168.567 5.70312C168.567 5.95833 168.677 6.14323 168.895 6.25781C169.114 6.3776 169.887 6.58333 171.216 6.875C172.101 7.08333 172.765 7.39844 173.208 7.82031C173.645 8.2474 173.864 8.78125 173.864 9.42188C173.864 10.2656 173.549 10.9557 172.919 11.4922C172.294 12.0234 171.325 12.2891 170.012 12.2891C168.674 12.2891 167.684 12.0078 167.044 11.4453C166.408 10.8776 166.091 10.1562 166.091 9.28125H168.348C168.395 9.67708 168.497 9.95833 168.653 10.125C168.929 10.4219 169.44 10.5703 170.184 10.5703C170.622 10.5703 170.968 10.5052 171.223 10.375C171.484 10.2448 171.614 10.0495 171.614 9.78906C171.614 9.53906 171.51 9.34896 171.302 9.21875C171.093 9.08854 170.32 8.86458 168.981 8.54688C168.018 8.30729 167.338 8.00781 166.942 7.64844C166.546 7.29427 166.348 6.78385 166.348 6.11719C166.348 5.33073 166.656 4.65625 167.27 4.09375C167.89 3.52604 168.76 3.24219 169.88 3.24219C170.942 3.24219 171.809 3.45312 172.481 3.875ZM8.14062 21.5625C8.85938 22.4635 9.21875 23.5286 9.21875 24.7578C9.21875 26.0078 8.85938 27.0781 8.14062 27.9688C7.42188 28.8542 6.33073 29.2969 4.86719 29.2969C3.40365 29.2969 2.3125 28.8542 1.59375 27.9688C0.875 27.0781 0.515625 26.0078 0.515625 24.7578C0.515625 23.5286 0.875 22.4635 1.59375 21.5625C2.3125 20.6615 3.40365 20.2109 4.86719 20.2109C6.33073 20.2109 7.42188 20.6615 8.14062 21.5625ZM4.85938 22.0938C4.20833 22.0938 3.70573 22.3255 3.35156 22.7891C3.0026 23.2474 2.82812 23.9036 2.82812 24.7578C2.82812 25.612 3.0026 26.2708 3.35156 26.7344C3.70573 27.1979 4.20833 27.4297 4.85938 27.4297C5.51042 27.4297 6.01042 27.1979 6.35938 26.7344C6.70833 26.2708 6.88281 25.612 6.88281 24.7578C6.88281 23.9036 6.70833 23.2474 6.35938 22.7891C6.01042 22.3255 5.51042 22.0938 4.85938 22.0938ZM14.0125 17.4141V19.2266C13.8875 19.2109 13.6766 19.2005 13.3797 19.1953C13.088 19.1849 12.8849 19.25 12.7703 19.3906C12.6609 19.526 12.6062 19.6771 12.6062 19.8438V20.5625H14.0672V22.1328H12.6062V29H10.3875V22.1328H9.14531V20.5625H10.3641V20.0156C10.3641 19.1042 10.5177 18.4766 10.825 18.1328C11.1479 17.6224 11.9266 17.3672 13.1609 17.3672C13.3016 17.3672 13.4292 17.3724 13.5437 17.3828C13.6583 17.388 13.8146 17.3984 14.0125 17.4141ZM22.5609 27.3359C23.1286 27.3359 23.5896 27.2734 23.9438 27.1484C24.6156 26.9089 24.9516 26.4635 24.9516 25.8125C24.9516 25.4323 24.7849 25.138 24.4516 24.9297C24.1182 24.7266 23.5948 24.5469 22.8813 24.3906L21.6625 24.1172C20.4646 23.8464 19.6365 23.5521 19.1781 23.2344C18.4021 22.7031 18.0141 21.8724 18.0141 20.7422C18.0141 19.7109 18.3891 18.8542 19.1391 18.1719C19.8891 17.4896 20.9906 17.1484 22.4438 17.1484C23.6573 17.1484 24.6911 17.4714 25.5453 18.1172C26.4047 18.7578 26.8552 19.6901 26.8969 20.9141H24.5844C24.5427 20.2214 24.2406 19.7292 23.6781 19.4375C23.3031 19.2448 22.837 19.1484 22.2797 19.1484C21.6599 19.1484 21.1651 19.2734 20.7953 19.5234C20.4255 19.7734 20.2406 20.1224 20.2406 20.5703C20.2406 20.9818 20.4229 21.2891 20.7875 21.4922C21.0219 21.6276 21.5219 21.7865 22.2875 21.9688L24.2719 22.4453C25.1417 22.6536 25.7979 22.9323 26.2406 23.2812C26.9281 23.8229 27.2719 24.6068 27.2719 25.6328C27.2719 26.6849 26.8682 27.5599 26.0609 28.2578C25.2589 28.9505 24.1234 29.2969 22.6547 29.2969C21.1547 29.2969 19.975 28.9557 19.1156 28.2734C18.2563 27.5859 17.8266 26.6432 17.8266 25.4453H20.1234C20.1964 25.9714 20.3396 26.3646 20.5531 26.625C20.9438 27.099 21.613 27.3359 22.5609 27.3359ZM28.3937 21.4062C28.9823 20.6562 29.9927 20.2812 31.425 20.2812C32.3573 20.2812 33.1854 20.4661 33.9094 20.8359C34.6333 21.2057 34.9953 21.9036 34.9953 22.9297V26.8359C34.9953 27.1068 35.0005 27.4349 35.0109 27.8203C35.0266 28.112 35.0708 28.3099 35.1437 28.4141C35.2167 28.5182 35.326 28.6042 35.4719 28.6719V29H33.05C32.9823 28.8281 32.9354 28.6667 32.9094 28.5156C32.8833 28.3646 32.8625 28.1927 32.8469 28C32.5396 28.3333 32.1854 28.6172 31.7844 28.8516C31.3052 29.1276 30.7635 29.2656 30.1594 29.2656C29.3885 29.2656 28.7505 29.0469 28.2453 28.6094C27.7453 28.1667 27.4953 27.5417 27.4953 26.7344C27.4953 25.6875 27.899 24.9297 28.7062 24.4609C29.149 24.2057 29.8 24.0234 30.6594 23.9141L31.4172 23.8203C31.8286 23.7682 32.1229 23.7031 32.3 23.625C32.6177 23.4896 32.7766 23.2786 32.7766 22.9922C32.7766 22.6432 32.6542 22.4036 32.4094 22.2734C32.1698 22.138 31.8156 22.0703 31.3469 22.0703C30.8208 22.0703 30.4484 22.2005 30.2297 22.4609C30.0734 22.6536 29.9693 22.9141 29.9172 23.2422H27.7687C27.8156 22.4974 28.024 21.8854 28.3937 21.4062ZM30.05 27.3906C30.2583 27.5625 30.5135 27.6484 30.8156 27.6484C31.2948 27.6484 31.7349 27.5078 32.1359 27.2266C32.5422 26.9453 32.7531 26.4323 32.7687 25.6875V24.8594C32.6281 24.9479 32.4849 25.0208 32.3391 25.0781C32.1984 25.1302 32.0031 25.1797 31.7531 25.2266L31.2531 25.3203C30.7844 25.4036 30.4484 25.5052 30.2453 25.625C29.9016 25.8281 29.7297 26.1432 29.7297 26.5703C29.7297 26.9505 29.8365 27.224 30.05 27.3906ZM36.2266 17.4844H38.4531V29H36.2266V17.4844ZM42.1219 20.4844V29H39.8641V20.4844H42.1219ZM42.1219 17.4141V19.4688H39.8641V17.4141H42.1219ZM47.4938 22.1328C46.7385 22.1328 46.2203 22.4531 45.9391 23.0938C45.7932 23.4323 45.7203 23.8646 45.7203 24.3906V29H43.5016V20.5H45.65V21.7422C45.9365 21.3047 46.2073 20.9896 46.4625 20.7969C46.9208 20.4531 47.5016 20.2812 48.2047 20.2812C49.0849 20.2812 49.8036 20.513 50.3609 20.9766C50.9234 21.4349 51.2047 22.1979 51.2047 23.2656V29H48.9234V23.8203C48.9234 23.3724 48.8635 23.0286 48.7438 22.7891C48.525 22.3516 48.1083 22.1328 47.4938 22.1328ZM52.7875 21.4062C53.376 20.6562 54.3865 20.2812 55.8187 20.2812C56.751 20.2812 57.5792 20.4661 58.3031 20.8359C59.0271 21.2057 59.3891 21.9036 59.3891 22.9297V26.8359C59.3891 27.1068 59.3943 27.4349 59.4047 27.8203C59.4203 28.112 59.4646 28.3099 59.5375 28.4141C59.6104 28.5182 59.7198 28.6042 59.8656 28.6719V29H57.4437C57.376 28.8281 57.3292 28.6667 57.3031 28.5156C57.2771 28.3646 57.2562 28.1927 57.2406 28C56.9333 28.3333 56.5792 28.6172 56.1781 28.8516C55.699 29.1276 55.1573 29.2656 54.5531 29.2656C53.7823 29.2656 53.1443 29.0469 52.6391 28.6094C52.1391 28.1667 51.8891 27.5417 51.8891 26.7344C51.8891 25.6875 52.2927 24.9297 53.1 24.4609C53.5427 24.2057 54.1937 24.0234 55.0531 23.9141L55.8109 23.8203C56.2224 23.7682 56.5167 23.7031 56.6937 23.625C57.0115 23.4896 57.1703 23.2786 57.1703 22.9922C57.1703 22.6432 57.0479 22.4036 56.8031 22.2734C56.5635 22.138 56.2094 22.0703 55.7406 22.0703C55.2146 22.0703 54.8422 22.2005 54.6234 22.4609C54.4672 22.6536 54.363 22.9141 54.3109 23.2422H52.1625C52.2094 22.4974 52.4177 21.8854 52.7875 21.4062ZM54.4437 27.3906C54.6521 27.5625 54.9073 27.6484 55.2094 27.6484C55.6885 27.6484 56.1286 27.5078 56.5297 27.2266C56.9359 26.9453 57.1469 26.4323 57.1625 25.6875V24.8594C57.0219 24.9479 56.8786 25.0208 56.7328 25.0781C56.5922 25.1302 56.3969 25.1797 56.1469 25.2266L55.6469 25.3203C55.1781 25.4036 54.8422 25.5052 54.6391 25.625C54.2953 25.8281 54.1234 26.1432 54.1234 26.5703C54.1234 26.9505 54.2302 27.224 54.4437 27.3906ZM66.4406 20.875C67.1073 21.3021 67.4901 22.0365 67.5891 23.0781H65.3625C65.3312 22.7917 65.2505 22.5651 65.1203 22.3984C64.8755 22.0964 64.4589 21.9453 63.8703 21.9453C63.3859 21.9453 63.0396 22.0208 62.8312 22.1719C62.6281 22.3229 62.5266 22.5 62.5266 22.7031C62.5266 22.9583 62.6359 23.1432 62.8547 23.2578C63.0734 23.3776 63.8469 23.5833 65.175 23.875C66.0604 24.0833 66.7245 24.3984 67.1672 24.8203C67.6047 25.2474 67.8234 25.7812 67.8234 26.4219C67.8234 27.2656 67.5083 27.9557 66.8781 28.4922C66.2531 29.0234 65.2844 29.2891 63.9719 29.2891C62.6333 29.2891 61.6437 29.0078 61.0031 28.4453C60.3677 27.8776 60.05 27.1562 60.05 26.2812H62.3078C62.3547 26.6771 62.4562 26.9583 62.6125 27.125C62.8885 27.4219 63.399 27.5703 64.1437 27.5703C64.5812 27.5703 64.9276 27.5052 65.1828 27.375C65.4432 27.2448 65.5734 27.0495 65.5734 26.7891C65.5734 26.5391 65.4693 26.349 65.2609 26.2188C65.0526 26.0885 64.2792 25.8646 62.9406 25.5469C61.9771 25.3073 61.2974 25.0078 60.9016 24.6484C60.5057 24.2943 60.3078 23.7839 60.3078 23.1172C60.3078 22.3307 60.6151 21.6562 61.2297 21.0938C61.8495 20.526 62.7193 20.2422 63.8391 20.2422C64.9016 20.2422 65.7687 20.4531 66.4406 20.875ZM79.575 28.7188C78.9396 29.1094 78.1583 29.3047 77.2312 29.3047C75.7052 29.3047 74.4552 28.776 73.4812 27.7188C72.4656 26.6562 71.9578 25.2031 71.9578 23.3594C71.9578 21.4948 72.4708 20 73.4969 18.875C74.5229 17.75 75.8797 17.1875 77.5672 17.1875C79.0307 17.1875 80.2052 17.5599 81.0906 18.3047C81.9812 19.0443 82.4917 19.9688 82.6219 21.0781H80.2547C80.0724 20.2917 79.6271 19.7422 78.9187 19.4297C78.5229 19.2578 78.0828 19.1719 77.5984 19.1719C76.6714 19.1719 75.9083 19.5234 75.3094 20.2266C74.7156 20.9245 74.4187 21.9766 74.4187 23.3828C74.4187 24.7995 74.7417 25.8021 75.3875 26.3906C76.0333 26.9792 76.7677 27.2734 77.5906 27.2734C78.3979 27.2734 79.0594 27.0417 79.575 26.5781C80.0906 26.1094 80.4083 25.4974 80.5281 24.7422H77.8641V22.8203H82.6609V29H81.0672L80.825 27.5625C80.3615 28.1094 79.9448 28.4948 79.575 28.7188ZM88.2672 22.5391C87.3714 22.5391 86.7698 22.8307 86.4625 23.4141C86.2906 23.7422 86.2047 24.2474 86.2047 24.9297V29H83.9625V20.4844H86.0875V21.9688C86.4313 21.401 86.7307 21.013 86.9859 20.8047C87.4026 20.4557 87.9443 20.2812 88.6109 20.2812C88.6526 20.2812 88.6865 20.2839 88.7125 20.2891C88.7438 20.2891 88.8089 20.2917 88.9078 20.2969V22.5781C88.7672 22.5625 88.6422 22.5521 88.5328 22.5469C88.4234 22.5417 88.3349 22.5391 88.2672 22.5391ZM89.7406 21.4062C90.3292 20.6562 91.3396 20.2812 92.7719 20.2812C93.7042 20.2812 94.5323 20.4661 95.2562 20.8359C95.9802 21.2057 96.3422 21.9036 96.3422 22.9297V26.8359C96.3422 27.1068 96.3474 27.4349 96.3578 27.8203C96.3734 28.112 96.4177 28.3099 96.4906 28.4141C96.5635 28.5182 96.6729 28.6042 96.8187 28.6719V29H94.3969C94.3292 28.8281 94.2823 28.6667 94.2562 28.5156C94.2302 28.3646 94.2094 28.1927 94.1937 28C93.8865 28.3333 93.5323 28.6172 93.1312 28.8516C92.6521 29.1276 92.1104 29.2656 91.5062 29.2656C90.7354 29.2656 90.0974 29.0469 89.5922 28.6094C89.0922 28.1667 88.8422 27.5417 88.8422 26.7344C88.8422 25.6875 89.2458 24.9297 90.0531 24.4609C90.4958 24.2057 91.1469 24.0234 92.0062 23.9141L92.7641 23.8203C93.1755 23.7682 93.4698 23.7031 93.6469 23.625C93.9646 23.4896 94.1234 23.2786 94.1234 22.9922C94.1234 22.6432 94.001 22.4036 93.7562 22.2734C93.5167 22.138 93.1625 22.0703 92.6937 22.0703C92.1677 22.0703 91.7953 22.2005 91.5766 22.4609C91.4203 22.6536 91.3161 22.9141 91.2641 23.2422H89.1156C89.1625 22.4974 89.3708 21.8854 89.7406 21.4062ZM91.3969 27.3906C91.6052 27.5625 91.8604 27.6484 92.1625 27.6484C92.6417 27.6484 93.0818 27.5078 93.4828 27.2266C93.8891 26.9453 94.1 26.4323 94.1156 25.6875V24.8594C93.975 24.9479 93.8318 25.0208 93.6859 25.0781C93.5453 25.1302 93.35 25.1797 93.1 25.2266L92.6 25.3203C92.1312 25.4036 91.7953 25.5052 91.5922 25.625C91.2484 25.8281 91.0766 26.1432 91.0766 26.5703C91.0766 26.9505 91.1833 27.224 91.3969 27.3906ZM101.534 22.1328C100.779 22.1328 100.261 22.4531 99.9797 23.0938C99.8339 23.4323 99.7609 23.8646 99.7609 24.3906V29H97.5422V20.5H99.6906V21.7422C99.9771 21.3047 100.248 20.9896 100.503 20.7969C100.961 20.4531 101.542 20.2812 102.245 20.2812C103.126 20.2812 103.844 20.513 104.402 20.9766C104.964 21.4349 105.245 22.1979 105.245 23.2656V29H102.964V23.8203C102.964 23.3724 102.904 23.0286 102.784 22.7891C102.566 22.3516 102.149 22.1328 101.534 22.1328ZM114.258 17.5V29H112.094V27.8203C111.776 28.3255 111.414 28.6927 111.008 28.9219C110.602 29.151 110.096 29.2656 109.492 29.2656C108.497 29.2656 107.659 28.8646 106.977 28.0625C106.299 27.2552 105.961 26.2214 105.961 24.9609C105.961 23.5078 106.294 22.3646 106.961 21.5312C107.633 20.6979 108.529 20.2812 109.648 20.2812C110.164 20.2812 110.622 20.3958 111.023 20.625C111.424 20.849 111.75 21.1615 112 21.5625V17.5H114.258ZM108.258 24.7969C108.258 25.5833 108.414 26.2109 108.727 26.6797C109.034 27.1536 109.503 27.3906 110.133 27.3906C110.763 27.3906 111.242 27.1562 111.57 26.6875C111.898 26.2188 112.062 25.612 112.062 24.8672C112.062 23.8255 111.799 23.0807 111.273 22.6328C110.951 22.362 110.576 22.2266 110.148 22.2266C109.497 22.2266 109.018 22.474 108.711 22.9688C108.409 23.4583 108.258 24.0677 108.258 24.7969ZM122.778 26.5C122.721 27.0052 122.458 27.5182 121.989 28.0391C121.26 28.8672 120.239 29.2812 118.927 29.2812C117.843 29.2812 116.887 28.9323 116.059 28.2344C115.231 27.5365 114.817 26.401 114.817 24.8281C114.817 23.3542 115.19 22.224 115.934 21.4375C116.684 20.651 117.656 20.2578 118.848 20.2578C119.557 20.2578 120.195 20.3906 120.762 20.6562C121.33 20.9219 121.799 21.3411 122.169 21.9141C122.502 22.4193 122.718 23.0052 122.817 23.6719C122.874 24.0625 122.898 24.625 122.887 25.3594H117.059C117.091 26.2135 117.359 26.8125 117.864 27.1562C118.171 27.3698 118.541 27.4766 118.973 27.4766C119.432 27.4766 119.804 27.3464 120.091 27.0859C120.247 26.9453 120.385 26.75 120.505 26.5H122.778ZM120.575 23.8906C120.539 23.3021 120.359 22.8568 120.036 22.5547C119.718 22.2474 119.322 22.0938 118.848 22.0938C118.333 22.0938 117.932 22.2552 117.645 22.5781C117.364 22.901 117.187 23.3385 117.114 23.8906H120.575ZM129.463 20.875C130.129 21.3021 130.512 22.0365 130.611 23.0781H128.384C128.353 22.7917 128.272 22.5651 128.142 22.3984C127.897 22.0964 127.481 21.9453 126.892 21.9453C126.408 21.9453 126.061 22.0208 125.853 22.1719C125.65 22.3229 125.548 22.5 125.548 22.7031C125.548 22.9583 125.658 23.1432 125.877 23.2578C126.095 23.3776 126.869 23.5833 128.197 23.875C129.082 24.0833 129.746 24.3984 130.189 24.8203C130.627 25.2474 130.845 25.7812 130.845 26.4219C130.845 27.2656 130.53 27.9557 129.9 28.4922C129.275 29.0234 128.306 29.2891 126.994 29.2891C125.655 29.2891 124.666 29.0078 124.025 28.4453C123.39 27.8776 123.072 27.1562 123.072 26.2812H125.33C125.377 26.6771 125.478 26.9583 125.634 27.125C125.91 27.4219 126.421 27.5703 127.166 27.5703C127.603 27.5703 127.949 27.5052 128.205 27.375C128.465 27.2448 128.595 27.0495 128.595 26.7891C128.595 26.5391 128.491 26.349 128.283 26.2188C128.074 26.0885 127.301 25.8646 125.963 25.5469C124.999 25.3073 124.319 25.0078 123.923 24.6484C123.528 24.2943 123.33 23.7839 123.33 23.1172C123.33 22.3307 123.637 21.6562 124.252 21.0938C124.871 20.526 125.741 20.2422 126.861 20.2422C127.923 20.2422 128.791 20.4531 129.463 20.875ZM135.675 21.4062C136.264 20.6562 137.274 20.2812 138.706 20.2812C139.639 20.2812 140.467 20.4661 141.191 20.8359C141.915 21.2057 142.277 21.9036 142.277 22.9297V26.8359C142.277 27.1068 142.282 27.4349 142.292 27.8203C142.308 28.112 142.352 28.3099 142.425 28.4141C142.498 28.5182 142.607 28.6042 142.753 28.6719V29H140.331C140.264 28.8281 140.217 28.6667 140.191 28.5156C140.165 28.3646 140.144 28.1927 140.128 28C139.821 28.3333 139.467 28.6172 139.066 28.8516C138.586 29.1276 138.045 29.2656 137.441 29.2656C136.67 29.2656 136.032 29.0469 135.527 28.6094C135.027 28.1667 134.777 27.5417 134.777 26.7344C134.777 25.6875 135.18 24.9297 135.988 24.4609C136.43 24.2057 137.081 24.0234 137.941 23.9141L138.698 23.8203C139.11 23.7682 139.404 23.7031 139.581 23.625C139.899 23.4896 140.058 23.2786 140.058 22.9922C140.058 22.6432 139.935 22.4036 139.691 22.2734C139.451 22.138 139.097 22.0703 138.628 22.0703C138.102 22.0703 137.73 22.2005 137.511 22.4609C137.355 22.6536 137.251 22.9141 137.198 23.2422H135.05C135.097 22.4974 135.305 21.8854 135.675 21.4062ZM137.331 27.3906C137.54 27.5625 137.795 27.6484 138.097 27.6484C138.576 27.6484 139.016 27.5078 139.417 27.2266C139.823 26.9453 140.034 26.4323 140.05 25.6875V24.8594C139.909 24.9479 139.766 25.0208 139.62 25.0781C139.48 25.1302 139.284 25.1797 139.034 25.2266L138.534 25.3203C138.066 25.4036 137.73 25.5052 137.527 25.625C137.183 25.8281 137.011 26.1432 137.011 26.5703C137.011 26.9505 137.118 27.224 137.331 27.3906ZM147.469 22.1328C146.714 22.1328 146.195 22.4531 145.914 23.0938C145.768 23.4323 145.695 23.8646 145.695 24.3906V29H143.477V20.5H145.625V21.7422C145.911 21.3047 146.182 20.9896 146.438 20.7969C146.896 20.4531 147.477 20.2812 148.18 20.2812C149.06 20.2812 149.779 20.513 150.336 20.9766C150.898 21.4349 151.18 22.1979 151.18 23.2656V29H148.898V23.8203C148.898 23.3724 148.839 23.0286 148.719 22.7891C148.5 22.3516 148.083 22.1328 147.469 22.1328ZM160.192 17.5V29H158.028V27.8203C157.71 28.3255 157.348 28.6927 156.942 28.9219C156.536 29.151 156.031 29.2656 155.427 29.2656C154.432 29.2656 153.593 28.8646 152.911 28.0625C152.234 27.2552 151.895 26.2214 151.895 24.9609C151.895 23.5078 152.229 22.3646 152.895 21.5312C153.567 20.6979 154.463 20.2812 155.583 20.2812C156.098 20.2812 156.557 20.3958 156.958 20.625C157.359 20.849 157.684 21.1615 157.934 21.5625V17.5H160.192ZM154.192 24.7969C154.192 25.5833 154.348 26.2109 154.661 26.6797C154.968 27.1536 155.437 27.3906 156.067 27.3906C156.697 27.3906 157.177 27.1562 157.505 26.6875C157.833 26.2188 157.997 25.612 157.997 24.8672C157.997 23.8255 157.734 23.0807 157.208 22.6328C156.885 22.362 156.51 22.2266 156.083 22.2266C155.432 22.2266 154.953 22.474 154.645 22.9688C154.343 23.4583 154.192 24.0677 154.192 24.7969ZM1.21875 34.4844H3.625V43.9297H9.32812V46H1.21875V34.4844ZM10.3406 38.4062C10.9292 37.6562 11.9396 37.2812 13.3719 37.2812C14.3042 37.2812 15.1323 37.4661 15.8562 37.8359C16.5802 38.2057 16.9422 38.9036 16.9422 39.9297V43.8359C16.9422 44.1068 16.9474 44.4349 16.9578 44.8203C16.9734 45.112 17.0177 45.3099 17.0906 45.4141C17.1635 45.5182 17.2729 45.6042 17.4187 45.6719V46H14.9969C14.9292 45.8281 14.8823 45.6667 14.8562 45.5156C14.8302 45.3646 14.8094 45.1927 14.7937 45C14.4865 45.3333 14.1323 45.6172 13.7312 45.8516C13.2521 46.1276 12.7104 46.2656 12.1062 46.2656C11.3354 46.2656 10.6974 46.0469 10.1922 45.6094C9.69219 45.1667 9.44219 44.5417 9.44219 43.7344C9.44219 42.6875 9.84583 41.9297 10.6531 41.4609C11.0958 41.2057 11.7469 41.0234 12.6062 40.9141L13.3641 40.8203C13.7755 40.7682 14.0698 40.7031 14.2469 40.625C14.5646 40.4896 14.7234 40.2786 14.7234 39.9922C14.7234 39.6432 14.601 39.4036 14.3562 39.2734C14.1167 39.138 13.7625 39.0703 13.2937 39.0703C12.7677 39.0703 12.3953 39.2005 12.1766 39.4609C12.0203 39.6536 11.9161 39.9141 11.8641 40.2422H9.71562C9.7625 39.4974 9.97083 38.8854 10.3406 38.4062ZM11.9969 44.3906C12.2052 44.5625 12.4604 44.6484 12.7625 44.6484C13.2417 44.6484 13.6818 44.5078 14.0828 44.2266C14.4891 43.9453 14.7 43.4323 14.7156 42.6875V41.8594C14.575 41.9479 14.4318 42.0208 14.2859 42.0781C14.1453 42.1302 13.95 42.1797 13.7 42.2266L13.2 42.3203C12.7312 42.4036 12.3953 42.5052 12.1922 42.625C11.8484 42.8281 11.6766 43.1432 11.6766 43.5703C11.6766 43.9505 11.7833 44.224 11.9969 44.3906ZM20.5328 47.4922C20.7724 47.6953 21.176 47.7969 21.7437 47.7969C22.5458 47.7969 23.0823 47.5286 23.3531 46.9922C23.5302 46.6484 23.6187 46.0703 23.6187 45.2578V44.7109C23.4052 45.0755 23.176 45.349 22.9312 45.5312C22.4885 45.8698 21.913 46.0391 21.2047 46.0391C20.1109 46.0391 19.2359 45.6562 18.5797 44.8906C17.9286 44.1198 17.6031 43.0781 17.6031 41.7656C17.6031 40.5 17.9182 39.4375 18.5484 38.5781C19.1786 37.7135 20.0719 37.2812 21.2281 37.2812C21.6552 37.2812 22.0276 37.3464 22.3453 37.4766C22.887 37.7005 23.3245 38.112 23.6578 38.7109V37.4844H25.8219V45.5625C25.8219 46.6615 25.637 47.4896 25.2672 48.0469C24.6318 49.0052 23.413 49.4844 21.6109 49.4844C20.5224 49.4844 19.6344 49.2708 18.9469 48.8438C18.2594 48.4167 17.8792 47.7786 17.8062 46.9297H20.2281C20.2906 47.1901 20.3922 47.3776 20.5328 47.4922ZM20.1578 43.0938C20.4599 43.8125 21.0016 44.1719 21.7828 44.1719C22.3036 44.1719 22.7437 43.9766 23.1031 43.5859C23.4625 43.1901 23.6422 42.5625 23.6422 41.7031C23.6422 40.8958 23.4703 40.2812 23.1266 39.8594C22.788 39.4375 22.3323 39.2266 21.7594 39.2266C20.9781 39.2266 20.4391 39.5938 20.1422 40.3281C19.9859 40.7188 19.9078 41.2005 19.9078 41.7734C19.9078 42.2682 19.9911 42.7083 20.1578 43.0938ZM32.5688 44.7969C32.5479 44.8229 32.4958 44.901 32.4125 45.0312C32.3292 45.1615 32.2302 45.276 32.1156 45.375C31.7667 45.6875 31.4281 45.901 31.1 46.0156C30.7771 46.1302 30.3969 46.1875 29.9594 46.1875C28.699 46.1875 27.85 45.7344 27.4125 44.8281C27.1677 44.3281 27.0453 43.5911 27.0453 42.6172V37.4844H29.3266V42.6172C29.3266 43.1016 29.3839 43.4661 29.4984 43.7109C29.7016 44.1432 30.1 44.3594 30.6938 44.3594C31.4542 44.3594 31.975 44.0521 32.2563 43.4375C32.4021 43.1042 32.475 42.6641 32.475 42.1172V37.4844H34.7328V46H32.5688V44.7969ZM40.0969 39.1328C39.3417 39.1328 38.8234 39.4531 38.5422 40.0938C38.3964 40.4323 38.3234 40.8646 38.3234 41.3906V46H36.1047V37.5H38.2531V38.7422C38.5396 38.3047 38.8104 37.9896 39.0656 37.7969C39.524 37.4531 40.1047 37.2812 40.8078 37.2812C41.688 37.2812 42.4068 37.513 42.9641 37.9766C43.5266 38.4349 43.8078 39.1979 43.8078 40.2656V46H41.5266V40.8203C41.5266 40.3724 41.4667 40.0286 41.3469 39.7891C41.1281 39.3516 40.7115 39.1328 40.0969 39.1328ZM45.3906 38.4062C45.9792 37.6562 46.9896 37.2812 48.4219 37.2812C49.3542 37.2812 50.1823 37.4661 50.9062 37.8359C51.6302 38.2057 51.9922 38.9036 51.9922 39.9297V43.8359C51.9922 44.1068 51.9974 44.4349 52.0078 44.8203C52.0234 45.112 52.0677 45.3099 52.1406 45.4141C52.2135 45.5182 52.3229 45.6042 52.4688 45.6719V46H50.0469C49.9792 45.8281 49.9323 45.6667 49.9062 45.5156C49.8802 45.3646 49.8594 45.1927 49.8438 45C49.5365 45.3333 49.1823 45.6172 48.7812 45.8516C48.3021 46.1276 47.7604 46.2656 47.1562 46.2656C46.3854 46.2656 45.7474 46.0469 45.2422 45.6094C44.7422 45.1667 44.4922 44.5417 44.4922 43.7344C44.4922 42.6875 44.8958 41.9297 45.7031 41.4609C46.1458 41.2057 46.7969 41.0234 47.6562 40.9141L48.4141 40.8203C48.8255 40.7682 49.1198 40.7031 49.2969 40.625C49.6146 40.4896 49.7734 40.2786 49.7734 39.9922C49.7734 39.6432 49.651 39.4036 49.4062 39.2734C49.1667 39.138 48.8125 39.0703 48.3438 39.0703C47.8177 39.0703 47.4453 39.2005 47.2266 39.4609C47.0703 39.6536 46.9661 39.9141 46.9141 40.2422H44.7656C44.8125 39.4974 45.0208 38.8854 45.3906 38.4062ZM47.0469 44.3906C47.2552 44.5625 47.5104 44.6484 47.8125 44.6484C48.2917 44.6484 48.7318 44.5078 49.1328 44.2266C49.5391 43.9453 49.75 43.4323 49.7656 42.6875V41.8594C49.625 41.9479 49.4818 42.0208 49.3359 42.0781C49.1953 42.1302 49 42.1797 48.75 42.2266L48.25 42.3203C47.7812 42.4036 47.4453 42.5052 47.2422 42.625C46.8984 42.8281 46.7266 43.1432 46.7266 43.5703C46.7266 43.9505 46.8333 44.224 47.0469 44.3906ZM64.5797 34.5V46H62.4156V44.8203C62.0979 45.3255 61.7359 45.6927 61.3297 45.9219C60.9234 46.151 60.4182 46.2656 59.8141 46.2656C58.8193 46.2656 57.9807 45.8646 57.2984 45.0625C56.6214 44.2552 56.2828 43.2214 56.2828 41.9609C56.2828 40.5078 56.6161 39.3646 57.2828 38.5312C57.9547 37.6979 58.8505 37.2812 59.9703 37.2812C60.4859 37.2812 60.9443 37.3958 61.3453 37.625C61.7464 37.849 62.0719 38.1615 62.3219 38.5625V34.5H64.5797ZM58.5797 41.7969C58.5797 42.5833 58.7359 43.2109 59.0484 43.6797C59.3557 44.1536 59.8245 44.3906 60.4547 44.3906C61.0849 44.3906 61.5641 44.1562 61.8922 43.6875C62.2203 43.2188 62.3844 42.612 62.3844 41.8672C62.3844 40.8255 62.1214 40.0807 61.5953 39.6328C61.2724 39.362 60.8974 39.2266 60.4703 39.2266C59.8193 39.2266 59.3401 39.474 59.0328 39.9688C58.7307 40.4583 58.5797 41.0677 58.5797 41.7969ZM73.1 43.5C73.0427 44.0052 72.7797 44.5182 72.3109 45.0391C71.5818 45.8672 70.5609 46.2812 69.2484 46.2812C68.1651 46.2812 67.2094 45.9323 66.3812 45.2344C65.5531 44.5365 65.1391 43.401 65.1391 41.8281C65.1391 40.3542 65.5115 39.224 66.2562 38.4375C67.0062 37.651 67.9776 37.2578 69.1703 37.2578C69.8786 37.2578 70.5167 37.3906 71.0844 37.6562C71.6521 37.9219 72.1208 38.3411 72.4906 38.9141C72.824 39.4193 73.0401 40.0052 73.1391 40.6719C73.1964 41.0625 73.2198 41.625 73.2094 42.3594H67.3812C67.4125 43.2135 67.6807 43.8125 68.1859 44.1562C68.4932 44.3698 68.863 44.4766 69.2953 44.4766C69.7536 44.4766 70.126 44.3464 70.4125 44.0859C70.5687 43.9453 70.7068 43.75 70.8266 43.5H73.1ZM70.8969 40.8906C70.8604 40.3021 70.6807 39.8568 70.3578 39.5547C70.0401 39.2474 69.6443 39.0938 69.1703 39.0938C68.6547 39.0938 68.2536 39.2552 67.9672 39.5781C67.6859 39.901 67.5089 40.3385 67.4359 40.8906H70.8969ZM84.8125 45.7188C84.1771 46.1094 83.3958 46.3047 82.4688 46.3047C80.9427 46.3047 79.6927 45.776 78.7188 44.7188C77.7031 43.6562 77.1953 42.2031 77.1953 40.3594C77.1953 38.4948 77.7083 37 78.7344 35.875C79.7604 34.75 81.1172 34.1875 82.8047 34.1875C84.2682 34.1875 85.4427 34.5599 86.3281 35.3047C87.2188 36.0443 87.7292 36.9688 87.8594 38.0781H85.4922C85.3099 37.2917 84.8646 36.7422 84.1562 36.4297C83.7604 36.2578 83.3203 36.1719 82.8359 36.1719C81.9089 36.1719 81.1458 36.5234 80.5469 37.2266C79.9531 37.9245 79.6562 38.9766 79.6562 40.3828C79.6562 41.7995 79.9792 42.8021 80.625 43.3906C81.2708 43.9792 82.0052 44.2734 82.8281 44.2734C83.6354 44.2734 84.2969 44.0417 84.8125 43.5781C85.3281 43.1094 85.6458 42.4974 85.7656 41.7422H83.1016V39.8203H87.8984V46H86.3047L86.0625 44.5625C85.599 45.1094 85.1823 45.4948 84.8125 45.7188ZM94.6844 44.7969C94.6635 44.8229 94.6115 44.901 94.5281 45.0312C94.4448 45.1615 94.3458 45.276 94.2312 45.375C93.8823 45.6875 93.5437 45.901 93.2156 46.0156C92.8927 46.1302 92.5125 46.1875 92.075 46.1875C90.8146 46.1875 89.9656 45.7344 89.5281 44.8281C89.2833 44.3281 89.1609 43.5911 89.1609 42.6172V37.4844H91.4422V42.6172C91.4422 43.1016 91.4995 43.4661 91.6141 43.7109C91.8172 44.1432 92.2156 44.3594 92.8094 44.3594C93.5698 44.3594 94.0906 44.0521 94.3719 43.4375C94.5177 43.1042 94.5906 42.6641 94.5906 42.1172V37.4844H96.8484V46H94.6844V44.7969ZM98.525 38.4062C99.1135 37.6562 100.124 37.2812 101.556 37.2812C102.489 37.2812 103.317 37.4661 104.041 37.8359C104.765 38.2057 105.127 38.9036 105.127 39.9297V43.8359C105.127 44.1068 105.132 44.4349 105.142 44.8203C105.158 45.112 105.202 45.3099 105.275 45.4141C105.348 45.5182 105.457 45.6042 105.603 45.6719V46H103.181C103.114 45.8281 103.067 45.6667 103.041 45.5156C103.015 45.3646 102.994 45.1927 102.978 45C102.671 45.3333 102.317 45.6172 101.916 45.8516C101.436 46.1276 100.895 46.2656 100.291 46.2656C99.5198 46.2656 98.8818 46.0469 98.3766 45.6094C97.8766 45.1667 97.6266 44.5417 97.6266 43.7344C97.6266 42.6875 98.0302 41.9297 98.8375 41.4609C99.2802 41.2057 99.9313 41.0234 100.791 40.9141L101.548 40.8203C101.96 40.7682 102.254 40.7031 102.431 40.625C102.749 40.4896 102.908 40.2786 102.908 39.9922C102.908 39.6432 102.785 39.4036 102.541 39.2734C102.301 39.138 101.947 39.0703 101.478 39.0703C100.952 39.0703 100.58 39.2005 100.361 39.4609C100.205 39.6536 100.101 39.9141 100.048 40.2422H97.9C97.9469 39.4974 98.1552 38.8854 98.525 38.4062ZM100.181 44.3906C100.39 44.5625 100.645 44.6484 100.947 44.6484C101.426 44.6484 101.866 44.5078 102.267 44.2266C102.673 43.9453 102.884 43.4323 102.9 42.6875V41.8594C102.759 41.9479 102.616 42.0208 102.47 42.0781C102.33 42.1302 102.134 42.1797 101.884 42.2266L101.384 42.3203C100.916 42.4036 100.58 42.5052 100.377 42.625C100.033 42.8281 99.8609 43.1432 99.8609 43.5703C99.8609 43.9505 99.9677 44.224 100.181 44.3906ZM109.772 43.7656L111.53 37.4844H113.897L110.975 45.8594C110.412 47.474 109.967 48.474 109.639 48.8594C109.311 49.25 108.655 49.4453 107.67 49.4453C107.472 49.4453 107.314 49.4427 107.194 49.4375C107.074 49.4375 106.894 49.4297 106.655 49.4141V47.6328L106.936 47.6484C107.155 47.6589 107.363 47.651 107.561 47.625C107.759 47.599 107.926 47.5391 108.061 47.4453C108.191 47.3568 108.311 47.1719 108.42 46.8906C108.535 46.6094 108.582 46.4375 108.561 46.375L105.436 37.4844H107.912L109.772 43.7656ZM114.738 38.4062C115.326 37.6562 116.336 37.2812 117.769 37.2812C118.701 37.2812 119.529 37.4661 120.253 37.8359C120.977 38.2057 121.339 38.9036 121.339 39.9297V43.8359C121.339 44.1068 121.344 44.4349 121.355 44.8203C121.37 45.112 121.415 45.3099 121.488 45.4141C121.56 45.5182 121.67 45.6042 121.816 45.6719V46H119.394C119.326 45.8281 119.279 45.6667 119.253 45.5156C119.227 45.3646 119.206 45.1927 119.191 45C118.883 45.3333 118.529 45.6172 118.128 45.8516C117.649 46.1276 117.107 46.2656 116.503 46.2656C115.732 46.2656 115.094 46.0469 114.589 45.6094C114.089 45.1667 113.839 44.5417 113.839 43.7344C113.839 42.6875 114.243 41.9297 115.05 41.4609C115.493 41.2057 116.144 41.0234 117.003 40.9141L117.761 40.8203C118.172 40.7682 118.467 40.7031 118.644 40.625C118.961 40.4896 119.12 40.2786 119.12 39.9922C119.12 39.6432 118.998 39.4036 118.753 39.2734C118.514 39.138 118.159 39.0703 117.691 39.0703C117.165 39.0703 116.792 39.2005 116.573 39.4609C116.417 39.6536 116.313 39.9141 116.261 40.2422H114.113C114.159 39.4974 114.368 38.8854 114.738 38.4062ZM116.394 44.3906C116.602 44.5625 116.857 44.6484 117.159 44.6484C117.639 44.6484 118.079 44.5078 118.48 44.2266C118.886 43.9453 119.097 43.4323 119.113 42.6875V41.8594C118.972 41.9479 118.829 42.0208 118.683 42.0781C118.542 42.1302 118.347 42.1797 118.097 42.2266L117.597 42.3203C117.128 42.4036 116.792 42.5052 116.589 42.625C116.245 42.8281 116.073 43.1432 116.073 43.5703C116.073 43.9505 116.18 44.224 116.394 44.3906ZM126.422 44.4141V46.0781L125.367 46.1172C124.315 46.1536 123.596 45.9714 123.211 45.5703C122.961 45.3151 122.836 44.9219 122.836 44.3906V39.1484H121.648V37.5625H122.836V35.1875H125.039V37.5625H126.422V39.1484H125.039V43.6484C125.039 43.9974 125.083 44.2161 125.172 44.3047C125.26 44.388 125.531 44.4297 125.984 44.4297C126.052 44.4297 126.122 44.4297 126.195 44.4297C126.273 44.4245 126.349 44.4193 126.422 44.4141ZM127.372 38.4062C127.96 37.6562 128.971 37.2812 130.403 37.2812C131.335 37.2812 132.164 37.4661 132.887 37.8359C133.611 38.2057 133.973 38.9036 133.973 39.9297V43.8359C133.973 44.1068 133.979 44.4349 133.989 44.8203C134.005 45.112 134.049 45.3099 134.122 45.4141C134.195 45.5182 134.304 45.6042 134.45 45.6719V46H132.028C131.96 45.8281 131.914 45.6667 131.887 45.5156C131.861 45.3646 131.841 45.1927 131.825 45C131.518 45.3333 131.164 45.6172 130.762 45.8516C130.283 46.1276 129.742 46.2656 129.137 46.2656C128.367 46.2656 127.729 46.0469 127.223 45.6094C126.723 45.1667 126.473 44.5417 126.473 43.7344C126.473 42.6875 126.877 41.9297 127.684 41.4609C128.127 41.2057 128.778 41.0234 129.637 40.9141L130.395 40.8203C130.807 40.7682 131.101 40.7031 131.278 40.625C131.596 40.4896 131.755 40.2786 131.755 39.9922C131.755 39.6432 131.632 39.4036 131.387 39.2734C131.148 39.138 130.794 39.0703 130.325 39.0703C129.799 39.0703 129.427 39.2005 129.208 39.4609C129.052 39.6536 128.947 39.9141 128.895 40.2422H126.747C126.794 39.4974 127.002 38.8854 127.372 38.4062ZM129.028 44.3906C129.236 44.5625 129.492 44.6484 129.794 44.6484C130.273 44.6484 130.713 44.5078 131.114 44.2266C131.52 43.9453 131.731 43.4323 131.747 42.6875V41.8594C131.606 41.9479 131.463 42.0208 131.317 42.0781C131.177 42.1302 130.981 42.1797 130.731 42.2266L130.231 42.3203C129.762 42.4036 129.427 42.5052 129.223 42.625C128.88 42.8281 128.708 43.1432 128.708 43.5703C128.708 43.9505 128.815 44.224 129.028 44.3906ZM138.619 43.7656L140.377 37.4844H142.744L139.822 45.8594C139.259 47.474 138.814 48.474 138.486 48.8594C138.158 49.25 137.502 49.4453 136.517 49.4453C136.319 49.4453 136.16 49.4427 136.041 49.4375C135.921 49.4375 135.741 49.4297 135.502 49.4141V47.6328L135.783 47.6484C136.002 47.6589 136.21 47.651 136.408 47.625C136.606 47.599 136.772 47.5391 136.908 47.4453C137.038 47.3568 137.158 47.1719 137.267 46.8906C137.382 46.6094 137.429 46.4375 137.408 46.375L134.283 37.4844H136.759L138.619 43.7656ZM150.366 38.5625C151.084 39.4635 151.444 40.5286 151.444 41.7578C151.444 43.0078 151.084 44.0781 150.366 44.9688C149.647 45.8542 148.556 46.2969 147.092 46.2969C145.629 46.2969 144.538 45.8542 143.819 44.9688C143.1 44.0781 142.741 43.0078 142.741 41.7578C142.741 40.5286 143.1 39.4635 143.819 38.5625C144.538 37.6615 145.629 37.2109 147.092 37.2109C148.556 37.2109 149.647 37.6615 150.366 38.5625ZM147.084 39.0938C146.433 39.0938 145.931 39.3255 145.577 39.7891C145.228 40.2474 145.053 40.9036 145.053 41.7578C145.053 42.612 145.228 43.2708 145.577 43.7344C145.931 44.1979 146.433 44.4297 147.084 44.4297C147.735 44.4297 148.235 44.1979 148.584 43.7344C148.933 43.2708 149.108 42.612 149.108 41.7578C149.108 40.9036 148.933 40.2474 148.584 39.7891C148.235 39.3255 147.735 39.0938 147.084 39.0938ZM159.613 40.5391H157.331C157.29 40.2214 157.183 39.9349 157.011 39.6797C156.761 39.3359 156.373 39.1641 155.847 39.1641C155.097 39.1641 154.584 39.5365 154.308 40.2812C154.162 40.6771 154.089 41.2031 154.089 41.8594C154.089 42.4844 154.162 42.987 154.308 43.3672C154.573 44.0755 155.073 44.4297 155.808 44.4297C156.329 44.4297 156.698 44.2891 156.917 44.0078C157.136 43.7266 157.269 43.362 157.316 42.9141H159.589C159.537 43.5911 159.292 44.2318 158.855 44.8359C158.157 45.8099 157.123 46.2969 155.753 46.2969C154.383 46.2969 153.376 45.8906 152.73 45.0781C152.084 44.2656 151.761 43.2109 151.761 41.9141C151.761 40.4505 152.118 39.3125 152.831 38.5C153.545 37.6875 154.529 37.2812 155.784 37.2812C156.852 37.2812 157.724 37.5208 158.402 38C159.084 38.4792 159.488 39.3255 159.613 40.5391Z" fill="white"/>
</svg>
